<?xml version="1.0" encoding="UTF-8" standalone="no"?>
<!DOCTYPE svg PUBLIC "-//W3C//DTD SVG 1.1//EN"
 "http://www.w3.org/Graphics/SVG/1.1/DTD/svg11.dtd">
<!-- Generated by graphviz version 2.44.1 (20200629.0846)
 -->
<!-- Pages: 1 -->
<svg width="1517pt" height="548pt"
 viewBox="0.00 0.00 1517.35 548.00" xmlns="http://www.w3.org/2000/svg" xmlns:xlink="http://www.w3.org/1999/xlink">
<g id="graph0" class="graph" transform="scale(1 1) rotate(0) translate(4 544)">
<polygon fill="white" stroke="transparent" points="-4,4 -4,-544 1513.35,-544 1513.35,4 -4,4"/>
<!-- [root] azurerm_nat_gateway.this (expand) -->
<g id="node1" class="node">
<title>[root] azurerm_nat_gateway.this (expand)</title>
<polygon fill="none" stroke="black" points="977,-324 818,-324 818,-288 977,-288 977,-324"/>
<text text-anchor="middle" x="897.5" y="-302.3" font-family="Times,serif" font-size="14.00">azurerm_nat_gateway.this</text>
</g>
<!-- [root] azurerm_public_ip_prefix.this (expand) -->
<g id="node3" class="node">
<title>[root] azurerm_public_ip_prefix.this (expand)</title>
<polygon fill="none" stroke="black" points="1013,-252 832,-252 832,-216 1013,-216 1013,-252"/>
<text text-anchor="middle" x="922.5" y="-230.3" font-family="Times,serif" font-size="14.00">azurerm_public_ip_prefix.this</text>
</g>
<!-- [root] azurerm_nat_gateway.this (expand)&#45;&gt;[root] azurerm_public_ip_prefix.this (expand) -->
<g id="edge1" class="edge">
<title>[root] azurerm_nat_gateway.this (expand)&#45;&gt;[root] azurerm_public_ip_prefix.this (expand)</title>
<path fill="none" stroke="black" d="M903.68,-287.7C906.5,-279.81 909.89,-270.3 913.02,-261.55"/>
<polygon fill="black" stroke="black" points="916.32,-262.7 916.39,-252.1 909.73,-260.34 916.32,-262.7"/>
</g>
<!-- [root] azurerm_network_security_group.this (expand) -->
<g id="node2" class="node">
<title>[root] azurerm_network_security_group.this (expand)</title>
<polygon fill="none" stroke="black" points="527.5,-252 303.5,-252 303.5,-216 527.5,-216 527.5,-252"/>
<text text-anchor="middle" x="415.5" y="-230.3" font-family="Times,serif" font-size="14.00">azurerm_network_security_group.this</text>
</g>
<!-- [root] data.azurerm_resource_group.this (expand) -->
<g id="node9" class="node">
<title>[root] data.azurerm_resource_group.this (expand)</title>
<polygon fill="none" stroke="black" points="804.5,-180 602.5,-180 602.5,-144 804.5,-144 804.5,-180"/>
<text text-anchor="middle" x="703.5" y="-158.3" font-family="Times,serif" font-size="14.00">data.azurerm_resource_group.this</text>
</g>
<!-- [root] azurerm_network_security_group.this (expand)&#45;&gt;[root] data.azurerm_resource_group.this (expand) -->
<g id="edge2" class="edge">
<title>[root] azurerm_network_security_group.this (expand)&#45;&gt;[root] data.azurerm_resource_group.this (expand)</title>
<path fill="none" stroke="black" d="M485.58,-215.97C527.14,-205.87 579.95,-193.03 623.18,-182.52"/>
<polygon fill="black" stroke="black" points="624.21,-185.87 633.1,-180.11 622.56,-179.07 624.21,-185.87"/>
</g>
<!-- [root] local.subnets (expand) -->
<g id="node17" class="node">
<title>[root] local.subnets (expand)</title>
<ellipse fill="none" stroke="black" cx="415.5" cy="-90" rx="112.38" ry="18"/>
<text text-anchor="middle" x="415.5" y="-86.3" font-family="Times,serif" font-size="14.00">[root] local.subnets (expand)</text>
</g>
<!-- [root] azurerm_network_security_group.this (expand)&#45;&gt;[root] local.subnets (expand) -->
<g id="edge3" class="edge">
<title>[root] azurerm_network_security_group.this (expand)&#45;&gt;[root] local.subnets (expand)</title>
<path fill="none" stroke="black" d="M415.5,-215.87C415.5,-191.67 415.5,-147.21 415.5,-118.39"/>
<polygon fill="black" stroke="black" points="419,-118.19 415.5,-108.19 412,-118.19 419,-118.19"/>
</g>
<!-- [root] azurerm_public_ip_prefix.this (expand)&#45;&gt;[root] data.azurerm_resource_group.this (expand) -->
<g id="edge4" class="edge">
<title>[root] azurerm_public_ip_prefix.this (expand)&#45;&gt;[root] data.azurerm_resource_group.this (expand)</title>
<path fill="none" stroke="black" d="M869.21,-215.97C838.34,-206.1 799.3,-193.62 766.87,-183.25"/>
<polygon fill="black" stroke="black" points="767.62,-179.82 757.03,-180.11 765.49,-186.49 767.62,-179.82"/>
</g>
<!-- [root] var.nat_gateway_public_ip_prefix_length -->
<g id="node13" class="node">
<title>[root] var.nat_gateway_public_ip_prefix_length</title>
<polygon fill="none" stroke="black" points="1058.5,-180 822.5,-180 822.5,-144 1064.5,-144 1064.5,-174 1058.5,-180"/>
<polyline fill="none" stroke="black" points="1058.5,-180 1058.5,-174 "/>
<polyline fill="none" stroke="black" points="1064.5,-174 1058.5,-174 "/>
<text text-anchor="middle" x="943.5" y="-158.3" font-family="Times,serif" font-size="14.00">var.nat_gateway_public_ip_prefix_length</text>
</g>
<!-- [root] azurerm_public_ip_prefix.this (expand)&#45;&gt;[root] var.nat_gateway_public_ip_prefix_length -->
<g id="edge5" class="edge">
<title>[root] azurerm_public_ip_prefix.this (expand)&#45;&gt;[root] var.nat_gateway_public_ip_prefix_length</title>
<path fill="none" stroke="black" d="M927.69,-215.7C930.03,-207.9 932.85,-198.51 935.45,-189.83"/>
<polygon fill="black" stroke="black" points="938.85,-190.69 938.37,-180.1 932.14,-188.68 938.85,-190.69"/>
</g>
<!-- [root] azurerm_subnet.this (expand) -->
<g id="node4" class="node">
<title>[root] azurerm_subnet.this (expand)</title>
<polygon fill="none" stroke="black" points="767,-324 640,-324 640,-288 767,-288 767,-324"/>
<text text-anchor="middle" x="703.5" y="-302.3" font-family="Times,serif" font-size="14.00">azurerm_subnet.this</text>
</g>
<!-- [root] azurerm_virtual_network.this (expand) -->
<g id="node7" class="node">
<title>[root] azurerm_virtual_network.this (expand)</title>
<polygon fill="none" stroke="black" points="792.5,-252 614.5,-252 614.5,-216 792.5,-216 792.5,-252"/>
<text text-anchor="middle" x="703.5" y="-230.3" font-family="Times,serif" font-size="14.00">azurerm_virtual_network.this</text>
</g>
<!-- [root] azurerm_subnet.this (expand)&#45;&gt;[root] azurerm_virtual_network.this (expand) -->
<g id="edge6" class="edge">
<title>[root] azurerm_subnet.this (expand)&#45;&gt;[root] azurerm_virtual_network.this (expand)</title>
<path fill="none" stroke="black" d="M703.5,-287.7C703.5,-279.98 703.5,-270.71 703.5,-262.11"/>
<polygon fill="black" stroke="black" points="707,-262.1 703.5,-252.1 700,-262.1 707,-262.1"/>
</g>
<!-- [root] azurerm_subnet.this (expand)&#45;&gt;[root] local.subnets (expand) -->
<g id="edge7" class="edge">
<title>[root] azurerm_subnet.this (expand)&#45;&gt;[root] local.subnets (expand)</title>
<path fill="none" stroke="black" d="M667.54,-287.82C648.54,-278.18 625.14,-265.42 605.5,-252 542.11,-208.69 475.24,-148 440.22,-114.88"/>
<polygon fill="black" stroke="black" points="442.5,-112.21 432.84,-107.86 437.67,-117.29 442.5,-112.21"/>
</g>
<!-- [root] azurerm_subnet_nat_gateway_association.this (expand) -->
<g id="node5" class="node">
<title>[root] azurerm_subnet_nat_gateway_association.this (expand)</title>
<polygon fill="none" stroke="black" points="1117,-396 848,-396 848,-360 1117,-360 1117,-396"/>
<text text-anchor="middle" x="982.5" y="-374.3" font-family="Times,serif" font-size="14.00">azurerm_subnet_nat_gateway_association.this</text>
</g>
<!-- [root] azurerm_subnet_nat_gateway_association.this (expand)&#45;&gt;[root] azurerm_nat_gateway.this (expand) -->
<g id="edge8" class="edge">
<title>[root] azurerm_subnet_nat_gateway_association.this (expand)&#45;&gt;[root] azurerm_nat_gateway.this (expand)</title>
<path fill="none" stroke="black" d="M961.49,-359.7C950.78,-350.88 937.61,-340.03 926,-330.47"/>
<polygon fill="black" stroke="black" points="928.21,-327.76 918.27,-324.1 923.76,-333.16 928.21,-327.76"/>
</g>
<!-- [root] azurerm_subnet_nat_gateway_association.this (expand)&#45;&gt;[root] azurerm_subnet.this (expand) -->
<g id="edge9" class="edge">
<title>[root] azurerm_subnet_nat_gateway_association.this (expand)&#45;&gt;[root] azurerm_subnet.this (expand)</title>
<path fill="none" stroke="black" d="M914.61,-359.97C873.01,-349.53 819.75,-336.17 777.13,-325.47"/>
<polygon fill="black" stroke="black" points="777.93,-322.07 767.38,-323.03 776.23,-328.86 777.93,-322.07"/>
</g>
<!-- [root] azurerm_subnet_network_security_group_association.this (expand) -->
<g id="node6" class="node">
<title>[root] azurerm_subnet_network_security_group_association.this (expand)</title>
<polygon fill="none" stroke="black" points="575.5,-396 243.5,-396 243.5,-360 575.5,-360 575.5,-396"/>
<text text-anchor="middle" x="409.5" y="-374.3" font-family="Times,serif" font-size="14.00">azurerm_subnet_network_security_group_association.this</text>
</g>
<!-- [root] azurerm_subnet_network_security_group_association.this (expand)&#45;&gt;[root] azurerm_network_security_group.this (expand) -->
<g id="edge10" class="edge">
<title>[root] azurerm_subnet_network_security_group_association.this (expand)&#45;&gt;[root] azurerm_network_security_group.this (expand)</title>
<path fill="none" stroke="black" d="M410.22,-359.87C411.25,-335.67 413.12,-291.21 414.34,-262.39"/>
<polygon fill="black" stroke="black" points="417.85,-262.33 414.77,-252.19 410.85,-262.03 417.85,-262.33"/>
</g>
<!-- [root] azurerm_subnet_network_security_group_association.this (expand)&#45;&gt;[root] azurerm_subnet.this (expand) -->
<g id="edge11" class="edge">
<title>[root] azurerm_subnet_network_security_group_association.this (expand)&#45;&gt;[root] azurerm_subnet.this (expand)</title>
<path fill="none" stroke="black" d="M481.04,-359.97C526.17,-349.22 584.32,-335.38 629.85,-324.54"/>
<polygon fill="black" stroke="black" points="630.74,-327.92 639.66,-322.2 629.12,-321.11 630.74,-327.92"/>
</g>
<!-- [root] azurerm_virtual_network.this (expand)&#45;&gt;[root] data.azurerm_resource_group.this (expand) -->
<g id="edge12" class="edge">
<title>[root] azurerm_virtual_network.this (expand)&#45;&gt;[root] data.azurerm_resource_group.this (expand)</title>
<path fill="none" stroke="black" d="M703.5,-215.7C703.5,-207.98 703.5,-198.71 703.5,-190.11"/>
<polygon fill="black" stroke="black" points="707,-190.1 703.5,-180.1 700,-190.1 707,-190.1"/>
</g>
<!-- [root] azurerm_virtual_network_peering.this (expand) -->
<g id="node8" class="node">
<title>[root] azurerm_virtual_network_peering.this (expand)</title>
<polygon fill="none" stroke="black" points="225,-396 0,-396 0,-360 225,-360 225,-396"/>
<text text-anchor="middle" x="112.5" y="-374.3" font-family="Times,serif" font-size="14.00">azurerm_virtual_network_peering.this</text>
</g>
<!-- [root] azurerm_virtual_network_peering.this (expand)&#45;&gt;[root] azurerm_virtual_network.this (expand) -->
<g id="edge13" class="edge">
<title>[root] azurerm_virtual_network_peering.this (expand)&#45;&gt;[root] azurerm_virtual_network.this (expand)</title>
<path fill="none" stroke="black" d="M183.49,-359.94C293.91,-333.41 506.14,-282.42 622.42,-254.48"/>
<polygon fill="black" stroke="black" points="623.43,-257.84 632.34,-252.1 621.8,-251.03 623.43,-257.84"/>
</g>
<!-- [root] local.peerings (expand) -->
<g id="node18" class="node">
<title>[root] local.peerings (expand)</title>
<ellipse fill="none" stroke="black" cx="168.5" cy="-90" rx="116.18" ry="18"/>
<text text-anchor="middle" x="168.5" y="-86.3" font-family="Times,serif" font-size="14.00">[root] local.peerings (expand)</text>
</g>
<!-- [root] azurerm_virtual_network_peering.this (expand)&#45;&gt;[root] local.peerings (expand) -->
<g id="edge14" class="edge">
<title>[root] azurerm_virtual_network_peering.this (expand)&#45;&gt;[root] local.peerings (expand)</title>
<path fill="none" stroke="black" d="M115.84,-359.97C125.19,-312.19 151.73,-176.62 163.16,-118.27"/>
<polygon fill="black" stroke="black" points="166.62,-118.79 165.11,-108.31 159.75,-117.45 166.62,-118.79"/>
</g>
<!-- [root] provider[&quot;registry.terraform.io/hashicorp/azurerm&quot;] -->
<g id="node10" class="node">
<title>[root] provider[&quot;registry.terraform.io/hashicorp/azurerm&quot;]</title>
<polygon fill="none" stroke="black" points="1111.5,-108 836.84,-90 1111.5,-72 1386.16,-90 1111.5,-108"/>
<text text-anchor="middle" x="1111.5" y="-86.3" font-family="Times,serif" font-size="14.00">provider[&quot;registry.terraform.io/hashicorp/azurerm&quot;]</text>
</g>
<!-- [root] data.azurerm_resource_group.this (expand)&#45;&gt;[root] provider[&quot;registry.terraform.io/hashicorp/azurerm&quot;] -->
<g id="edge16" class="edge">
<title>[root] data.azurerm_resource_group.this (expand)&#45;&gt;[root] provider[&quot;registry.terraform.io/hashicorp/azurerm&quot;]</title>
<path fill="none" stroke="black" d="M802.79,-143.97C872.31,-132.04 964.09,-116.29 1029.46,-105.07"/>
<polygon fill="black" stroke="black" points="1030.46,-108.46 1039.72,-103.31 1029.27,-101.56 1030.46,-108.46"/>
</g>
<!-- [root] local.env_resources (expand) -->
<g id="node19" class="node">
<title>[root] local.env_resources (expand)</title>
<ellipse fill="none" stroke="black" cx="682.5" cy="-90" rx="136.48" ry="18"/>
<text text-anchor="middle" x="682.5" y="-86.3" font-family="Times,serif" font-size="14.00">[root] local.env_resources (expand)</text>
</g>
<!-- [root] data.azurerm_resource_group.this (expand)&#45;&gt;[root] local.env_resources (expand) -->
<g id="edge15" class="edge">
<title>[root] data.azurerm_resource_group.this (expand)&#45;&gt;[root] local.env_resources (expand)</title>
<path fill="none" stroke="black" d="M698.31,-143.7C695.97,-135.9 693.15,-126.51 690.55,-117.83"/>
<polygon fill="black" stroke="black" points="693.86,-116.68 687.63,-108.1 687.15,-118.69 693.86,-116.68"/>
</g>
<!-- [root] var.environment -->
<g id="node11" class="node">
<title>[root] var.environment</title>
<polygon fill="none" stroke="black" points="471.5,-36 371.5,-36 371.5,0 477.5,0 477.5,-30 471.5,-36"/>
<polyline fill="none" stroke="black" points="471.5,-36 471.5,-30 "/>
<polyline fill="none" stroke="black" points="477.5,-30 471.5,-30 "/>
<text text-anchor="middle" x="424.5" y="-14.3" font-family="Times,serif" font-size="14.00">var.environment</text>
</g>
<!-- [root] var.name -->
<g id="node12" class="node">
<title>[root] var.name</title>
<polygon fill="none" stroke="black" points="347,-36 286,-36 286,0 353,0 353,-30 347,-36"/>
<polyline fill="none" stroke="black" points="347,-36 347,-30 "/>
<polyline fill="none" stroke="black" points="353,-30 347,-30 "/>
<text text-anchor="middle" x="319.5" y="-14.3" font-family="Times,serif" font-size="14.00">var.name</text>
</g>
<!-- [root] var.peering_config -->
<g id="node14" class="node">
<title>[root] var.peering_config</title>
<polygon fill="none" stroke="black" points="221.5,-36 109.5,-36 109.5,0 227.5,0 227.5,-30 221.5,-36"/>
<polyline fill="none" stroke="black" points="221.5,-36 221.5,-30 "/>
<polyline fill="none" stroke="black" points="227.5,-30 221.5,-30 "/>
<text text-anchor="middle" x="168.5" y="-14.3" font-family="Times,serif" font-size="14.00">var.peering_config</text>
</g>
<!-- [root] var.regions -->
<g id="node15" class="node">
<title>[root] var.regions</title>
<polygon fill="none" stroke="black" points="715,-36 644,-36 644,0 721,0 721,-30 715,-36"/>
<polyline fill="none" stroke="black" points="715,-36 715,-30 "/>
<polyline fill="none" stroke="black" points="721,-30 715,-30 "/>
<text text-anchor="middle" x="682.5" y="-14.3" font-family="Times,serif" font-size="14.00">var.regions</text>
</g>
<!-- [root] var.vnet_config -->
<g id="node16" class="node">
<title>[root] var.vnet_config</title>
<polygon fill="none" stroke="black" points="601,-36 506,-36 506,0 607,0 607,-30 601,-36"/>
<polyline fill="none" stroke="black" points="601,-36 601,-30 "/>
<polyline fill="none" stroke="black" points="607,-30 601,-30 "/>
<text text-anchor="middle" x="556.5" y="-14.3" font-family="Times,serif" font-size="14.00">var.vnet_config</text>
</g>
<!-- [root] local.subnets (expand)&#45;&gt;[root] var.environment -->
<g id="edge24" class="edge">
<title>[root] local.subnets (expand)&#45;&gt;[root] var.environment</title>
<path fill="none" stroke="black" d="M417.72,-71.7C418.72,-63.98 419.91,-54.71 421.01,-46.11"/>
<polygon fill="black" stroke="black" points="424.5,-46.47 422.3,-36.1 417.55,-45.58 424.5,-46.47"/>
</g>
<!-- [root] local.subnets (expand)&#45;&gt;[root] var.name -->
<g id="edge25" class="edge">
<title>[root] local.subnets (expand)&#45;&gt;[root] var.name</title>
<path fill="none" stroke="black" d="M392.26,-72.05C379.85,-63.01 364.41,-51.74 350.94,-41.93"/>
<polygon fill="black" stroke="black" points="353,-39.1 342.86,-36.03 348.88,-44.75 353,-39.1"/>
</g>
<!-- [root] local.subnets (expand)&#45;&gt;[root] var.vnet_config -->
<g id="edge26" class="edge">
<title>[root] local.subnets (expand)&#45;&gt;[root] var.vnet_config</title>
<path fill="none" stroke="black" d="M448.2,-72.76C467.48,-63.2 492.11,-50.97 513,-40.59"/>
<polygon fill="black" stroke="black" points="514.61,-43.71 522.01,-36.12 511.49,-37.44 514.61,-43.71"/>
</g>
<!-- [root] local.peerings (expand)&#45;&gt;[root] var.environment -->
<g id="edge21" class="edge">
<title>[root] local.peerings (expand)&#45;&gt;[root] var.environment</title>
<path fill="none" stroke="black" d="M223.1,-74.07C263.7,-62.97 319.18,-47.8 361.63,-36.19"/>
<polygon fill="black" stroke="black" points="362.57,-39.56 371.3,-33.55 360.73,-32.81 362.57,-39.56"/>
</g>
<!-- [root] local.peerings (expand)&#45;&gt;[root] var.name -->
<g id="edge22" class="edge">
<title>[root] local.peerings (expand)&#45;&gt;[root] var.name</title>
<path fill="none" stroke="black" d="M203.52,-72.76C225.35,-62.65 253.57,-49.56 276.72,-38.83"/>
<polygon fill="black" stroke="black" points="278.36,-41.93 285.96,-34.55 275.42,-35.58 278.36,-41.93"/>
</g>
<!-- [root] local.peerings (expand)&#45;&gt;[root] var.peering_config -->
<g id="edge23" class="edge">
<title>[root] local.peerings (expand)&#45;&gt;[root] var.peering_config</title>
<path fill="none" stroke="black" d="M168.5,-71.7C168.5,-63.98 168.5,-54.71 168.5,-46.11"/>
<polygon fill="black" stroke="black" points="172,-46.1 168.5,-36.1 165,-46.1 172,-46.1"/>
</g>
<!-- [root] local.env_resources (expand)&#45;&gt;[root] var.environment -->
<g id="edge17" class="edge">
<title>[root] local.env_resources (expand)&#45;&gt;[root] var.environment</title>
<path fill="none" stroke="black" d="M625.56,-73.55C584.76,-62.48 529.8,-47.57 487.65,-36.13"/>
<polygon fill="black" stroke="black" points="488.34,-32.69 477.77,-33.45 486.51,-39.45 488.34,-32.69"/>
</g>
<!-- [root] local.env_resources (expand)&#45;&gt;[root] var.name -->
<g id="edge18" class="edge">
<title>[root] local.env_resources (expand)&#45;&gt;[root] var.name</title>
<path fill="none" stroke="black" d="M581.5,-77.86C520.52,-69.82 441.35,-57.06 363.1,-35.83"/>
<polygon fill="black" stroke="black" points="363.64,-32.34 353.07,-33.05 361.78,-39.09 363.64,-32.34"/>
</g>
<!-- [root] local.env_resources (expand)&#45;&gt;[root] var.regions -->
<g id="edge19" class="edge">
<title>[root] local.env_resources (expand)&#45;&gt;[root] var.regions</title>
<path fill="none" stroke="black" d="M682.5,-71.7C682.5,-63.98 682.5,-54.71 682.5,-46.11"/>
<polygon fill="black" stroke="black" points="686,-46.1 682.5,-36.1 679,-46.1 686,-46.1"/>
</g>
<!-- [root] local.env_resources (expand)&#45;&gt;[root] var.vnet_config -->
<g id="edge20" class="edge">
<title>[root] local.env_resources (expand)&#45;&gt;[root] var.vnet_config</title>
<path fill="none" stroke="black" d="M652.64,-72.41C635.91,-63.12 614.82,-51.4 596.65,-41.31"/>
<polygon fill="black" stroke="black" points="597.9,-38 587.46,-36.2 594.5,-44.12 597.9,-38"/>
</g>
<!-- [root] meta.count&#45;boundary (EachMode fixup) -->
<g id="node20" class="node">
<title>[root] meta.count&#45;boundary (EachMode fixup)</title>
<ellipse fill="none" stroke="black" cx="948.5" cy="-450" rx="176.27" ry="18"/>
<text text-anchor="middle" x="948.5" y="-446.3" font-family="Times,serif" font-size="14.00">[root] meta.count&#45;boundary (EachMode fixup)</text>
</g>
<!-- [root] meta.count&#45;boundary (EachMode fixup)&#45;&gt;[root] azurerm_subnet_nat_gateway_association.this (expand) -->
<g id="edge27" class="edge">
<title>[root] meta.count&#45;boundary (EachMode fixup)&#45;&gt;[root] azurerm_subnet_nat_gateway_association.this (expand)</title>
<path fill="none" stroke="black" d="M956.9,-431.7C960.77,-423.73 965.45,-414.1 969.74,-405.26"/>
<polygon fill="black" stroke="black" points="972.97,-406.63 974.19,-396.1 966.67,-403.57 972.97,-406.63"/>
</g>
<!-- [root] meta.count&#45;boundary (EachMode fixup)&#45;&gt;[root] azurerm_subnet_network_security_group_association.this (expand) -->
<g id="edge28" class="edge">
<title>[root] meta.count&#45;boundary (EachMode fixup)&#45;&gt;[root] azurerm_subnet_network_security_group_association.this (expand)</title>
<path fill="none" stroke="black" d="M844.26,-435.46C760.7,-424.61 642.61,-409.27 550.59,-397.32"/>
<polygon fill="black" stroke="black" points="551.01,-393.85 540.64,-396.03 550.11,-400.79 551.01,-393.85"/>
</g>
<!-- [root] meta.count&#45;boundary (EachMode fixup)&#45;&gt;[root] azurerm_virtual_network_peering.this (expand) -->
<g id="edge29" class="edge">
<title>[root] meta.count&#45;boundary (EachMode fixup)&#45;&gt;[root] azurerm_virtual_network_peering.this (expand)</title>
<path fill="none" stroke="black" d="M813.58,-438.42C785.78,-436.27 756.69,-434.04 729.5,-432 512.87,-415.71 455.58,-419.12 235.41,-396.05"/>
<polygon fill="black" stroke="black" points="235.45,-392.54 225.14,-394.97 234.72,-399.5 235.45,-392.54"/>
</g>
<!-- [root] output.public_ip_prefixes (expand) -->
<g id="node21" class="node">
<title>[root] output.public_ip_prefixes (expand)</title>
<ellipse fill="none" stroke="black" cx="1330.5" cy="-378" rx="157.07" ry="18"/>
<text text-anchor="middle" x="1330.5" y="-374.3" font-family="Times,serif" font-size="14.00">[root] output.public_ip_prefixes (expand)</text>
</g>
<!-- [root] meta.count&#45;boundary (EachMode fixup)&#45;&gt;[root] output.public_ip_prefixes (expand) -->
<g id="edge30" class="edge">
<title>[root] meta.count&#45;boundary (EachMode fixup)&#45;&gt;[root] output.public_ip_prefixes (expand)</title>
<path fill="none" stroke="black" d="M1030.45,-433.98C1092.36,-422.64 1177.25,-407.08 1240.94,-395.41"/>
<polygon fill="black" stroke="black" points="1241.77,-398.82 1250.98,-393.57 1240.51,-391.93 1241.77,-398.82"/>
</g>
<!-- [root] output.resource_groups (expand) -->
<g id="node22" class="node">
<title>[root] output.resource_groups (expand)</title>
<ellipse fill="none" stroke="black" cx="1348.5" cy="-234" rx="149.47" ry="18"/>
<text text-anchor="middle" x="1348.5" y="-230.3" font-family="Times,serif" font-size="14.00">[root] output.resource_groups (expand)</text>
</g>
<!-- [root] meta.count&#45;boundary (EachMode fixup)&#45;&gt;[root] output.resource_groups (expand) -->
<g id="edge31" class="edge">
<title>[root] meta.count&#45;boundary (EachMode fixup)&#45;&gt;[root] output.resource_groups (expand)</title>
<path fill="none" stroke="black" d="M1114.98,-444.01C1266.72,-437.7 1471.02,-424.06 1496.5,-396 1542.17,-345.7 1451.7,-287.07 1393.08,-256.32"/>
<polygon fill="black" stroke="black" points="1394.47,-253.09 1383.98,-251.63 1391.26,-259.32 1394.47,-253.09"/>
</g>
<!-- [root] output.subnets (expand) -->
<g id="node23" class="node">
<title>[root] output.subnets (expand)</title>
<ellipse fill="none" stroke="black" cx="711.5" cy="-378" rx="118.08" ry="18"/>
<text text-anchor="middle" x="711.5" y="-374.3" font-family="Times,serif" font-size="14.00">[root] output.subnets (expand)</text>
</g>
<!-- [root] meta.count&#45;boundary (EachMode fixup)&#45;&gt;[root] output.subnets (expand) -->
<g id="edge32" class="edge">
<title>[root] meta.count&#45;boundary (EachMode fixup)&#45;&gt;[root] output.subnets (expand)</title>
<path fill="none" stroke="black" d="M893.83,-432.85C857.69,-422.18 810.26,-408.17 772.83,-397.11"/>
<polygon fill="black" stroke="black" points="773.64,-393.7 763.05,-394.23 771.65,-400.42 773.64,-393.7"/>
</g>
<!-- [root] output.virtual_networks (expand) -->
<g id="node24" class="node">
<title>[root] output.virtual_networks (expand)</title>
<ellipse fill="none" stroke="black" cx="1146.5" cy="-306" rx="151.37" ry="18"/>
<text text-anchor="middle" x="1146.5" y="-302.3" font-family="Times,serif" font-size="14.00">[root] output.virtual_networks (expand)</text>
</g>
<!-- [root] meta.count&#45;boundary (EachMode fixup)&#45;&gt;[root] output.virtual_networks (expand) -->
<g id="edge33" class="edge">
<title>[root] meta.count&#45;boundary (EachMode fixup)&#45;&gt;[root] output.virtual_networks (expand)</title>
<path fill="none" stroke="black" d="M1057.94,-435.75C1083.4,-427.86 1108.34,-415.44 1126.5,-396 1141.91,-379.5 1146.36,-353.76 1147.28,-334.21"/>
<polygon fill="black" stroke="black" points="1150.78,-334.14 1147.47,-324.07 1143.78,-334 1150.78,-334.14"/>
</g>
<!-- [root] output.public_ip_prefixes (expand)&#45;&gt;[root] azurerm_public_ip_prefix.this (expand) -->
<g id="edge34" class="edge">
<title>[root] output.public_ip_prefixes (expand)&#45;&gt;[root] azurerm_public_ip_prefix.this (expand)</title>
<path fill="none" stroke="black" d="M1331.11,-359.71C1330.8,-339.33 1326.91,-305.99 1306.5,-288 1285.53,-269.52 1130.04,-252.7 1023.47,-243.18"/>
<polygon fill="black" stroke="black" points="1023.59,-239.67 1013.32,-242.28 1022.97,-246.64 1023.59,-239.67"/>
</g>
<!-- [root] output.resource_groups (expand)&#45;&gt;[root] data.azurerm_resource_group.this (expand) -->
<g id="edge35" class="edge">
<title>[root] output.resource_groups (expand)&#45;&gt;[root] data.azurerm_resource_group.this (expand)</title>
<path fill="none" stroke="black" d="M1229.56,-223.09C1123.44,-213.82 963.59,-198.78 814.99,-180.15"/>
<polygon fill="black" stroke="black" points="815.13,-176.64 804.77,-178.86 814.25,-183.59 815.13,-176.64"/>
</g>
<!-- [root] output.subnets (expand)&#45;&gt;[root] azurerm_subnet.this (expand) -->
<g id="edge36" class="edge">
<title>[root] output.subnets (expand)&#45;&gt;[root] azurerm_subnet.this (expand)</title>
<path fill="none" stroke="black" d="M709.52,-359.7C708.64,-351.98 707.58,-342.71 706.6,-334.11"/>
<polygon fill="black" stroke="black" points="710.07,-333.64 705.45,-324.1 703.11,-334.44 710.07,-333.64"/>
</g>
<!-- [root] output.virtual_networks (expand)&#45;&gt;[root] azurerm_virtual_network.this (expand) -->
<g id="edge37" class="edge">
<title>[root] output.virtual_networks (expand)&#45;&gt;[root] azurerm_virtual_network.this (expand)</title>
<path fill="none" stroke="black" d="M1059.51,-291.25C985.71,-279.59 879.87,-262.87 802.78,-250.69"/>
<polygon fill="black" stroke="black" points="802.99,-247.18 792.57,-249.07 801.9,-254.09 802.99,-247.18"/>
</g>
<!-- [root] provider[&quot;registry.terraform.io/hashicorp/azurerm&quot;] (close) -->
<g id="node25" class="node">
<title>[root] provider[&quot;registry.terraform.io/hashicorp/azurerm&quot;] (close)</title>
<ellipse fill="none" stroke="black" cx="477.5" cy="-450" rx="243.16" ry="18"/>
<text text-anchor="middle" x="477.5" y="-446.3" font-family="Times,serif" font-size="14.00">[root] provider[&quot;registry.terraform.io/hashicorp/azurerm&quot;] (close)</text>
</g>
<!-- [root] provider[&quot;registry.terraform.io/hashicorp/azurerm&quot;] (close)&#45;&gt;[root] azurerm_subnet_nat_gateway_association.this (expand) -->
<g id="edge38" class="edge">
<title>[root] provider[&quot;registry.terraform.io/hashicorp/azurerm&quot;] (close)&#45;&gt;[root] azurerm_subnet_nat_gateway_association.this (expand)</title>
<path fill="none" stroke="black" d="M586.46,-433.9C663.56,-423.21 767.4,-408.82 849.41,-397.45"/>
<polygon fill="black" stroke="black" points="850.12,-400.88 859.55,-396.04 849.16,-393.95 850.12,-400.88"/>
</g>
<!-- [root] provider[&quot;registry.terraform.io/hashicorp/azurerm&quot;] (close)&#45;&gt;[root] azurerm_subnet_network_security_group_association.this (expand) -->
<g id="edge39" class="edge">
<title>[root] provider[&quot;registry.terraform.io/hashicorp/azurerm&quot;] (close)&#45;&gt;[root] azurerm_subnet_network_security_group_association.this (expand)</title>
<path fill="none" stroke="black" d="M460.69,-431.7C452.37,-423.14 442.19,-412.66 433.11,-403.3"/>
<polygon fill="black" stroke="black" points="435.59,-400.84 426.12,-396.1 430.57,-405.72 435.59,-400.84"/>
</g>
<!-- [root] provider[&quot;registry.terraform.io/hashicorp/azurerm&quot;] (close)&#45;&gt;[root] azurerm_virtual_network_peering.this (expand) -->
<g id="edge40" class="edge">
<title>[root] provider[&quot;registry.terraform.io/hashicorp/azurerm&quot;] (close)&#45;&gt;[root] azurerm_virtual_network_peering.this (expand)</title>
<path fill="none" stroke="black" d="M394.22,-433.03C339.83,-422.6 268.56,-408.93 211.31,-397.95"/>
<polygon fill="black" stroke="black" points="211.64,-394.45 201.16,-396 210.32,-401.32 211.64,-394.45"/>
</g>
<!-- [root] root -->
<g id="node26" class="node">
<title>[root] root</title>
<ellipse fill="none" stroke="black" cx="695.5" cy="-522" rx="47.39" ry="18"/>
<text text-anchor="middle" x="695.5" y="-518.3" font-family="Times,serif" font-size="14.00">[root] root</text>
</g>
<!-- [root] root&#45;&gt;[root] meta.count&#45;boundary (EachMode fixup) -->
<g id="edge41" class="edge">
<title>[root] root&#45;&gt;[root] meta.count&#45;boundary (EachMode fixup)</title>
<path fill="none" stroke="black" d="M732.56,-510.75C771.26,-500.04 832.82,-483.01 880.33,-469.86"/>
<polygon fill="black" stroke="black" points="881.53,-473.16 890.24,-467.12 879.67,-466.41 881.53,-473.16"/>
</g>
<!-- [root] root&#45;&gt;[root] provider[&quot;registry.terraform.io/hashicorp/azurerm&quot;] (close) -->
<g id="edge42" class="edge">
<title>[root] root&#45;&gt;[root] provider[&quot;registry.terraform.io/hashicorp/azurerm&quot;] (close)</title>
<path fill="none" stroke="black" d="M660.47,-509.75C627.85,-499.28 578.5,-483.43 539.26,-470.83"/>
<polygon fill="black" stroke="black" points="540.11,-467.43 529.52,-467.7 537.97,-474.09 540.11,-467.43"/>
</g>
</g>
</svg>
