<?xml version="1.0" encoding="UTF-8" standalone="no"?>
<!DOCTYPE svg PUBLIC "-//W3C//DTD SVG 1.1//EN"
 "http://www.w3.org/Graphics/SVG/1.1/DTD/svg11.dtd">
<!-- Generated by graphviz version 2.44.1 (20200629.0846)
 -->
<!-- Pages: 1 -->
<svg width="1366pt" height="404pt"
 viewBox="0.00 0.00 1365.78 404.00" xmlns="http://www.w3.org/2000/svg" xmlns:xlink="http://www.w3.org/1999/xlink">
<g id="graph0" class="graph" transform="scale(1 1) rotate(0) translate(4 400)">
<polygon fill="white" stroke="transparent" points="-4,4 -4,-400 1361.78,-400 1361.78,4 -4,4"/>
<!-- [root] helm_release.gatekeeper (expand) -->
<g id="node1" class="node">
<title>[root] helm_release.gatekeeper (expand)</title>
<polygon fill="none" stroke="black" points="680.78,-108 529.78,-108 529.78,-72 680.78,-72 680.78,-108"/>
<text text-anchor="middle" x="605.28" y="-86.3" font-family="Times,serif" font-size="14.00">helm_release.gatekeeper</text>
</g>
<!-- [root] provider[&quot;registry.terraform.io/hashicorp/helm&quot;] -->
<g id="node4" class="node">
<title>[root] provider[&quot;registry.terraform.io/hashicorp/helm&quot;]</title>
<polygon fill="none" stroke="black" points="258.28,-36 0.22,-18 258.28,0 516.35,-18 258.28,-36"/>
<text text-anchor="middle" x="258.28" y="-14.3" font-family="Times,serif" font-size="14.00">provider[&quot;registry.terraform.io/hashicorp/helm&quot;]</text>
</g>
<!-- [root] helm_release.gatekeeper (expand)&#45;&gt;[root] provider[&quot;registry.terraform.io/hashicorp/helm&quot;] -->
<g id="edge2" class="edge">
<title>[root] helm_release.gatekeeper (expand)&#45;&gt;[root] provider[&quot;registry.terraform.io/hashicorp/helm&quot;]</title>
<path fill="none" stroke="black" d="M529.56,-73.72C470.56,-61.82 389.15,-45.4 330.94,-33.66"/>
<polygon fill="black" stroke="black" points="331.58,-30.22 321.08,-31.67 330.19,-37.08 331.58,-30.22"/>
</g>
<!-- [root] local.gatekeeper_version (expand) -->
<g id="node8" class="node">
<title>[root] local.gatekeeper_version (expand)</title>
<ellipse fill="none" stroke="black" cx="689.28" cy="-18" rx="154.87" ry="18"/>
<text text-anchor="middle" x="689.28" y="-14.3" font-family="Times,serif" font-size="14.00">[root] local.gatekeeper_version (expand)</text>
</g>
<!-- [root] helm_release.gatekeeper (expand)&#45;&gt;[root] local.gatekeeper_version (expand) -->
<g id="edge1" class="edge">
<title>[root] helm_release.gatekeeper (expand)&#45;&gt;[root] local.gatekeeper_version (expand)</title>
<path fill="none" stroke="black" d="M626.05,-71.7C636.6,-62.9 649.59,-52.08 661.04,-42.54"/>
<polygon fill="black" stroke="black" points="663.61,-44.95 669.05,-35.86 659.12,-39.58 663.61,-44.95"/>
</g>
<!-- [root] helm_release.gatekeeper_constraints (expand) -->
<g id="node2" class="node">
<title>[root] helm_release.gatekeeper_constraints (expand)</title>
<polygon fill="none" stroke="black" points="989.28,-252 773.28,-252 773.28,-216 989.28,-216 989.28,-252"/>
<text text-anchor="middle" x="881.28" y="-230.3" font-family="Times,serif" font-size="14.00">helm_release.gatekeeper_constraints</text>
</g>
<!-- [root] helm_release.gatekeeper_templates (expand) -->
<g id="node3" class="node">
<title>[root] helm_release.gatekeeper_templates (expand)</title>
<polygon fill="none" stroke="black" points="986.28,-180 776.28,-180 776.28,-144 986.28,-144 986.28,-180"/>
<text text-anchor="middle" x="881.28" y="-158.3" font-family="Times,serif" font-size="14.00">helm_release.gatekeeper_templates</text>
</g>
<!-- [root] helm_release.gatekeeper_constraints (expand)&#45;&gt;[root] helm_release.gatekeeper_templates (expand) -->
<g id="edge3" class="edge">
<title>[root] helm_release.gatekeeper_constraints (expand)&#45;&gt;[root] helm_release.gatekeeper_templates (expand)</title>
<path fill="none" stroke="black" d="M881.28,-215.7C881.28,-207.98 881.28,-198.71 881.28,-190.11"/>
<polygon fill="black" stroke="black" points="884.78,-190.1 881.28,-180.1 877.78,-190.1 884.78,-190.1"/>
</g>
<!-- [root] helm_release.gatekeeper_templates (expand)&#45;&gt;[root] helm_release.gatekeeper (expand) -->
<g id="edge4" class="edge">
<title>[root] helm_release.gatekeeper_templates (expand)&#45;&gt;[root] helm_release.gatekeeper (expand)</title>
<path fill="none" stroke="black" d="M814.12,-143.97C774.38,-133.89 723.89,-121.08 682.51,-110.59"/>
<polygon fill="black" stroke="black" points="683.3,-107.18 672.75,-108.11 681.58,-113.96 683.3,-107.18"/>
</g>
<!-- [root] local.gatekeeper_library_version (expand) -->
<g id="node9" class="node">
<title>[root] local.gatekeeper_library_version (expand)</title>
<ellipse fill="none" stroke="black" cx="881.28" cy="-90" rx="182.77" ry="18"/>
<text text-anchor="middle" x="881.28" y="-86.3" font-family="Times,serif" font-size="14.00">[root] local.gatekeeper_library_version (expand)</text>
</g>
<!-- [root] helm_release.gatekeeper_templates (expand)&#45;&gt;[root] local.gatekeeper_library_version (expand) -->
<g id="edge5" class="edge">
<title>[root] helm_release.gatekeeper_templates (expand)&#45;&gt;[root] local.gatekeeper_library_version (expand)</title>
<path fill="none" stroke="black" d="M881.28,-143.7C881.28,-135.98 881.28,-126.71 881.28,-118.11"/>
<polygon fill="black" stroke="black" points="884.78,-118.1 881.28,-108.1 877.78,-118.1 884.78,-118.1"/>
</g>
<!-- [root] local.values (expand) -->
<g id="node10" class="node">
<title>[root] local.values (expand)</title>
<ellipse fill="none" stroke="black" cx="1190.28" cy="-90" rx="108.58" ry="18"/>
<text text-anchor="middle" x="1190.28" y="-86.3" font-family="Times,serif" font-size="14.00">[root] local.values (expand)</text>
</g>
<!-- [root] helm_release.gatekeeper_templates (expand)&#45;&gt;[root] local.values (expand) -->
<g id="edge6" class="edge">
<title>[root] helm_release.gatekeeper_templates (expand)&#45;&gt;[root] local.values (expand)</title>
<path fill="none" stroke="black" d="M956.48,-143.97C1006.03,-132.74 1070.52,-118.13 1119.21,-107.1"/>
<polygon fill="black" stroke="black" points="1120.06,-110.5 1129.04,-104.87 1118.51,-103.67 1120.06,-110.5"/>
</g>
<!-- [root] var.additional_constraints -->
<g id="node5" class="node">
<title>[root] var.additional_constraints</title>
<polygon fill="none" stroke="black" points="1096.28,-36 946.28,-36 946.28,0 1102.28,0 1102.28,-30 1096.28,-36"/>
<polyline fill="none" stroke="black" points="1096.28,-36 1096.28,-30 "/>
<polyline fill="none" stroke="black" points="1102.28,-30 1096.28,-30 "/>
<text text-anchor="middle" x="1024.28" y="-14.3" font-family="Times,serif" font-size="14.00">var.additional_constraints</text>
</g>
<!-- [root] var.default_constraints -->
<g id="node6" class="node">
<title>[root] var.default_constraints</title>
<polygon fill="none" stroke="black" points="1254.28,-36 1120.28,-36 1120.28,0 1260.28,0 1260.28,-30 1254.28,-36"/>
<polyline fill="none" stroke="black" points="1254.28,-36 1254.28,-30 "/>
<polyline fill="none" stroke="black" points="1260.28,-30 1254.28,-30 "/>
<text text-anchor="middle" x="1190.28" y="-14.3" font-family="Times,serif" font-size="14.00">var.default_constraints</text>
</g>
<!-- [root] var.exclude -->
<g id="node7" class="node">
<title>[root] var.exclude</title>
<polygon fill="none" stroke="black" points="1351.78,-36 1278.78,-36 1278.78,0 1357.78,0 1357.78,-30 1351.78,-36"/>
<polyline fill="none" stroke="black" points="1351.78,-36 1351.78,-30 "/>
<polyline fill="none" stroke="black" points="1357.78,-30 1351.78,-30 "/>
<text text-anchor="middle" x="1318.28" y="-14.3" font-family="Times,serif" font-size="14.00">var.exclude</text>
</g>
<!-- [root] local.values (expand)&#45;&gt;[root] var.additional_constraints -->
<g id="edge7" class="edge">
<title>[root] local.values (expand)&#45;&gt;[root] var.additional_constraints</title>
<path fill="none" stroke="black" d="M1152.62,-73.12C1129.37,-63.32 1099.29,-50.63 1074.1,-40.01"/>
<polygon fill="black" stroke="black" points="1075.28,-36.7 1064.7,-36.04 1072.56,-43.15 1075.28,-36.7"/>
</g>
<!-- [root] local.values (expand)&#45;&gt;[root] var.default_constraints -->
<g id="edge8" class="edge">
<title>[root] local.values (expand)&#45;&gt;[root] var.default_constraints</title>
<path fill="none" stroke="black" d="M1190.28,-71.7C1190.28,-63.98 1190.28,-54.71 1190.28,-46.11"/>
<polygon fill="black" stroke="black" points="1193.78,-46.1 1190.28,-36.1 1186.78,-46.1 1193.78,-46.1"/>
</g>
<!-- [root] local.values (expand)&#45;&gt;[root] var.exclude -->
<g id="edge9" class="edge">
<title>[root] local.values (expand)&#45;&gt;[root] var.exclude</title>
<path fill="none" stroke="black" d="M1220.29,-72.59C1237.57,-63.14 1259.49,-51.15 1278.22,-40.91"/>
<polygon fill="black" stroke="black" points="1280.03,-43.91 1287.12,-36.04 1276.67,-37.77 1280.03,-43.91"/>
</g>
<!-- [root] meta.count&#45;boundary (EachMode fixup) -->
<g id="node11" class="node">
<title>[root] meta.count&#45;boundary (EachMode fixup)</title>
<ellipse fill="none" stroke="black" cx="668.28" cy="-306" rx="176.27" ry="18"/>
<text text-anchor="middle" x="668.28" y="-302.3" font-family="Times,serif" font-size="14.00">[root] meta.count&#45;boundary (EachMode fixup)</text>
</g>
<!-- [root] meta.count&#45;boundary (EachMode fixup)&#45;&gt;[root] helm_release.gatekeeper_constraints (expand) -->
<g id="edge10" class="edge">
<title>[root] meta.count&#45;boundary (EachMode fixup)&#45;&gt;[root] helm_release.gatekeeper_constraints (expand)</title>
<path fill="none" stroke="black" d="M717.95,-288.68C748.26,-278.72 787.24,-265.91 819.52,-255.3"/>
<polygon fill="black" stroke="black" points="820.9,-258.53 829.31,-252.08 818.71,-251.88 820.9,-258.53"/>
</g>
<!-- [root] provider[&quot;registry.terraform.io/hashicorp/helm&quot;] (close) -->
<g id="node12" class="node">
<title>[root] provider[&quot;registry.terraform.io/hashicorp/helm&quot;] (close)</title>
<ellipse fill="none" stroke="black" cx="1094.28" cy="-306" rx="231.26" ry="18"/>
<text text-anchor="middle" x="1094.28" y="-302.3" font-family="Times,serif" font-size="14.00">[root] provider[&quot;registry.terraform.io/hashicorp/helm&quot;] (close)</text>
</g>
<!-- [root] provider[&quot;registry.terraform.io/hashicorp/helm&quot;] (close)&#45;&gt;[root] helm_release.gatekeeper_constraints (expand) -->
<g id="edge11" class="edge">
<title>[root] provider[&quot;registry.terraform.io/hashicorp/helm&quot;] (close)&#45;&gt;[root] helm_release.gatekeeper_constraints (expand)</title>
<path fill="none" stroke="black" d="M1043.81,-288.41C1013.59,-278.48 974.97,-265.79 942.96,-255.27"/>
<polygon fill="black" stroke="black" points="943.84,-251.88 933.25,-252.08 941.66,-258.53 943.84,-251.88"/>
</g>
<!-- [root] root -->
<g id="node13" class="node">
<title>[root] root</title>
<ellipse fill="none" stroke="black" cx="881.28" cy="-378" rx="47.39" ry="18"/>
<text text-anchor="middle" x="881.28" y="-374.3" font-family="Times,serif" font-size="14.00">[root] root</text>
</g>
<!-- [root] root&#45;&gt;[root] meta.count&#45;boundary (EachMode fixup) -->
<g id="edge12" class="edge">
<title>[root] root&#45;&gt;[root] meta.count&#45;boundary (EachMode fixup)</title>
<path fill="none" stroke="black" d="M846.59,-365.6C814.42,-355.03 765.89,-339.08 727.58,-326.49"/>
<polygon fill="black" stroke="black" points="728.67,-323.16 718.08,-323.36 726.49,-329.81 728.67,-323.16"/>
</g>
<!-- [root] root&#45;&gt;[root] provider[&quot;registry.terraform.io/hashicorp/helm&quot;] (close) -->
<g id="edge13" class="edge">
<title>[root] root&#45;&gt;[root] provider[&quot;registry.terraform.io/hashicorp/helm&quot;] (close)</title>
<path fill="none" stroke="black" d="M915.98,-365.6C947.79,-355.14 995.61,-339.43 1033.72,-326.9"/>
<polygon fill="black" stroke="black" points="1035.28,-330.08 1043.68,-323.63 1033.09,-323.43 1035.28,-330.08"/>
</g>
</g>
</svg>
