<?xml version="1.0" encoding="UTF-8" standalone="no"?>
<!DOCTYPE svg PUBLIC "-//W3C//DTD SVG 1.1//EN"
 "http://www.w3.org/Graphics/SVG/1.1/DTD/svg11.dtd">
<!-- Generated by graphviz version 2.44.1 (20200629.0846)
 -->
<!-- Pages: 1 -->
<svg width="1279pt" height="332pt"
 viewBox="0.00 0.00 1278.72 332.00" xmlns="http://www.w3.org/2000/svg" xmlns:xlink="http://www.w3.org/1999/xlink">
<g id="graph0" class="graph" transform="scale(1 1) rotate(0) translate(4 328)">
<polygon fill="white" stroke="transparent" points="-4,4 -4,-328 1274.72,-328 1274.72,4 -4,4"/>
<!-- [root] helm_release.ingress_nginx (expand) -->
<g id="node1" class="node">
<title>[root] helm_release.ingress_nginx (expand)</title>
<polygon fill="none" stroke="black" points="695.28,-180 527.28,-180 527.28,-144 695.28,-144 695.28,-180"/>
<text text-anchor="middle" x="611.28" y="-158.3" font-family="Times,serif" font-size="14.00">helm_release.ingress_nginx</text>
</g>
<!-- [root] kubernetes_namespace.this (expand) -->
<g id="node2" class="node">
<title>[root] kubernetes_namespace.this (expand)</title>
<polygon fill="none" stroke="black" points="1012.78,-108 847.78,-108 847.78,-72 1012.78,-72 1012.78,-108"/>
<text text-anchor="middle" x="930.28" y="-86.3" font-family="Times,serif" font-size="14.00">kubernetes_namespace.this</text>
</g>
<!-- [root] helm_release.ingress_nginx (expand)&#45;&gt;[root] kubernetes_namespace.this (expand) -->
<g id="edge1" class="edge">
<title>[root] helm_release.ingress_nginx (expand)&#45;&gt;[root] kubernetes_namespace.this (expand)</title>
<path fill="none" stroke="black" d="M688.91,-143.97C735.41,-133.76 794.65,-120.76 842.8,-110.2"/>
<polygon fill="black" stroke="black" points="843.57,-113.61 852.58,-108.05 842.07,-106.77 843.57,-113.61"/>
</g>
<!-- [root] provider[&quot;registry.terraform.io/hashicorp/helm&quot;] -->
<g id="node3" class="node">
<title>[root] provider[&quot;registry.terraform.io/hashicorp/helm&quot;]</title>
<polygon fill="none" stroke="black" points="258.28,-108 0.22,-90 258.28,-72 516.35,-90 258.28,-108"/>
<text text-anchor="middle" x="258.28" y="-86.3" font-family="Times,serif" font-size="14.00">provider[&quot;registry.terraform.io/hashicorp/helm&quot;]</text>
</g>
<!-- [root] helm_release.ingress_nginx (expand)&#45;&gt;[root] provider[&quot;registry.terraform.io/hashicorp/helm&quot;] -->
<g id="edge3" class="edge">
<title>[root] helm_release.ingress_nginx (expand)&#45;&gt;[root] provider[&quot;registry.terraform.io/hashicorp/helm&quot;]</title>
<path fill="none" stroke="black" d="M527.18,-144.32C467.74,-132.53 388.82,-116.89 331.87,-105.59"/>
<polygon fill="black" stroke="black" points="332.35,-102.12 321.86,-103.61 330.99,-108.99 332.35,-102.12"/>
</g>
<!-- [root] local.version (expand) -->
<g id="node5" class="node">
<title>[root] local.version (expand)</title>
<ellipse fill="none" stroke="black" cx="647.28" cy="-90" rx="112.38" ry="18"/>
<text text-anchor="middle" x="647.28" y="-86.3" font-family="Times,serif" font-size="14.00">[root] local.version (expand)</text>
</g>
<!-- [root] helm_release.ingress_nginx (expand)&#45;&gt;[root] local.version (expand) -->
<g id="edge2" class="edge">
<title>[root] helm_release.ingress_nginx (expand)&#45;&gt;[root] local.version (expand)</title>
<path fill="none" stroke="black" d="M620.18,-143.7C624.28,-135.73 629.23,-126.1 633.78,-117.26"/>
<polygon fill="black" stroke="black" points="637.03,-118.6 638.49,-108.1 630.8,-115.4 637.03,-118.6"/>
</g>
<!-- [root] provider[&quot;registry.terraform.io/hashicorp/kubernetes&quot;] -->
<g id="node4" class="node">
<title>[root] provider[&quot;registry.terraform.io/hashicorp/kubernetes&quot;]</title>
<polygon fill="none" stroke="black" points="715.28,-36 428.73,-18 715.28,0 1001.84,-18 715.28,-36"/>
<text text-anchor="middle" x="715.28" y="-14.3" font-family="Times,serif" font-size="14.00">provider[&quot;registry.terraform.io/hashicorp/kubernetes&quot;]</text>
</g>
<!-- [root] kubernetes_namespace.this (expand)&#45;&gt;[root] provider[&quot;registry.terraform.io/hashicorp/kubernetes&quot;] -->
<g id="edge5" class="edge">
<title>[root] kubernetes_namespace.this (expand)&#45;&gt;[root] provider[&quot;registry.terraform.io/hashicorp/kubernetes&quot;]</title>
<path fill="none" stroke="black" d="M877.96,-71.97C844.82,-61.17 802.07,-47.25 768.71,-36.39"/>
<polygon fill="black" stroke="black" points="769.71,-33.04 759.12,-33.27 767.55,-39.7 769.71,-33.04"/>
</g>
<!-- [root] local.namespace (expand) -->
<g id="node6" class="node">
<title>[root] local.namespace (expand)</title>
<ellipse fill="none" stroke="black" cx="1145.28" cy="-18" rx="125.38" ry="18"/>
<text text-anchor="middle" x="1145.28" y="-14.3" font-family="Times,serif" font-size="14.00">[root] local.namespace (expand)</text>
</g>
<!-- [root] kubernetes_namespace.this (expand)&#45;&gt;[root] local.namespace (expand) -->
<g id="edge4" class="edge">
<title>[root] kubernetes_namespace.this (expand)&#45;&gt;[root] local.namespace (expand)</title>
<path fill="none" stroke="black" d="M982.6,-71.97C1014.26,-61.66 1054.67,-48.5 1087.29,-37.88"/>
<polygon fill="black" stroke="black" points="1088.72,-41.1 1097.15,-34.67 1086.56,-34.44 1088.72,-41.1"/>
</g>
<!-- [root] meta.count&#45;boundary (EachMode fixup) -->
<g id="node7" class="node">
<title>[root] meta.count&#45;boundary (EachMode fixup)</title>
<ellipse fill="none" stroke="black" cx="280.28" cy="-234" rx="176.27" ry="18"/>
<text text-anchor="middle" x="280.28" y="-230.3" font-family="Times,serif" font-size="14.00">[root] meta.count&#45;boundary (EachMode fixup)</text>
</g>
<!-- [root] meta.count&#45;boundary (EachMode fixup)&#45;&gt;[root] helm_release.ingress_nginx (expand) -->
<g id="edge6" class="edge">
<title>[root] meta.count&#45;boundary (EachMode fixup)&#45;&gt;[root] helm_release.ingress_nginx (expand)</title>
<path fill="none" stroke="black" d="M353.33,-217.55C402.7,-207.11 468.22,-193.26 520.87,-182.12"/>
<polygon fill="black" stroke="black" points="521.82,-185.5 530.88,-180 520.38,-178.65 521.82,-185.5"/>
</g>
<!-- [root] provider[&quot;registry.terraform.io/hashicorp/helm&quot;] (close) -->
<g id="node8" class="node">
<title>[root] provider[&quot;registry.terraform.io/hashicorp/helm&quot;] (close)</title>
<ellipse fill="none" stroke="black" cx="706.28" cy="-234" rx="231.26" ry="18"/>
<text text-anchor="middle" x="706.28" y="-230.3" font-family="Times,serif" font-size="14.00">[root] provider[&quot;registry.terraform.io/hashicorp/helm&quot;] (close)</text>
</g>
<!-- [root] provider[&quot;registry.terraform.io/hashicorp/helm&quot;] (close)&#45;&gt;[root] helm_release.ingress_nginx (expand) -->
<g id="edge7" class="edge">
<title>[root] provider[&quot;registry.terraform.io/hashicorp/helm&quot;] (close)&#45;&gt;[root] helm_release.ingress_nginx (expand)</title>
<path fill="none" stroke="black" d="M683.29,-216.05C671.12,-207.09 656.01,-195.96 642.77,-186.2"/>
<polygon fill="black" stroke="black" points="644.52,-183.15 634.4,-180.03 640.37,-188.78 644.52,-183.15"/>
</g>
<!-- [root] provider[&quot;registry.terraform.io/hashicorp/kubernetes&quot;] (close) -->
<g id="node9" class="node">
<title>[root] provider[&quot;registry.terraform.io/hashicorp/kubernetes&quot;] (close)</title>
<ellipse fill="none" stroke="black" cx="965.28" cy="-162" rx="251.56" ry="18"/>
<text text-anchor="middle" x="965.28" y="-158.3" font-family="Times,serif" font-size="14.00">[root] provider[&quot;registry.terraform.io/hashicorp/kubernetes&quot;] (close)</text>
</g>
<!-- [root] provider[&quot;registry.terraform.io/hashicorp/kubernetes&quot;] (close)&#45;&gt;[root] kubernetes_namespace.this (expand) -->
<g id="edge8" class="edge">
<title>[root] provider[&quot;registry.terraform.io/hashicorp/kubernetes&quot;] (close)&#45;&gt;[root] kubernetes_namespace.this (expand)</title>
<path fill="none" stroke="black" d="M956.63,-143.7C952.65,-135.73 947.83,-126.1 943.42,-117.26"/>
<polygon fill="black" stroke="black" points="946.44,-115.48 938.84,-108.1 940.18,-118.61 946.44,-115.48"/>
</g>
<!-- [root] root -->
<g id="node10" class="node">
<title>[root] root</title>
<ellipse fill="none" stroke="black" cx="706.28" cy="-306" rx="47.39" ry="18"/>
<text text-anchor="middle" x="706.28" y="-302.3" font-family="Times,serif" font-size="14.00">[root] root</text>
</g>
<!-- [root] root&#45;&gt;[root] meta.count&#45;boundary (EachMode fixup) -->
<g id="edge9" class="edge">
<title>[root] root&#45;&gt;[root] meta.count&#45;boundary (EachMode fixup)</title>
<path fill="none" stroke="black" d="M663.49,-297.97C597.49,-287.12 469.12,-266.03 379.21,-251.26"/>
<polygon fill="black" stroke="black" points="379.71,-247.79 369.27,-249.62 378.57,-254.7 379.71,-247.79"/>
</g>
<!-- [root] root&#45;&gt;[root] provider[&quot;registry.terraform.io/hashicorp/helm&quot;] (close) -->
<g id="edge10" class="edge">
<title>[root] root&#45;&gt;[root] provider[&quot;registry.terraform.io/hashicorp/helm&quot;] (close)</title>
<path fill="none" stroke="black" d="M706.28,-287.7C706.28,-279.98 706.28,-270.71 706.28,-262.11"/>
<polygon fill="black" stroke="black" points="709.78,-262.1 706.28,-252.1 702.78,-262.1 709.78,-262.1"/>
</g>
<!-- [root] root&#45;&gt;[root] provider[&quot;registry.terraform.io/hashicorp/kubernetes&quot;] (close) -->
<g id="edge11" class="edge">
<title>[root] root&#45;&gt;[root] provider[&quot;registry.terraform.io/hashicorp/kubernetes&quot;] (close)</title>
<path fill="none" stroke="black" d="M751.83,-300.77C813.65,-294.09 919.49,-278.99 946.28,-252 962.16,-236.01 966.24,-210.22 966.75,-190.51"/>
<polygon fill="black" stroke="black" points="970.25,-190.27 966.71,-180.29 963.25,-190.3 970.25,-190.27"/>
</g>
</g>
</svg>
