<?xml version="1.0" encoding="UTF-8" standalone="no"?>
<!DOCTYPE svg PUBLIC "-//W3C//DTD SVG 1.1//EN"
 "http://www.w3.org/Graphics/SVG/1.1/DTD/svg11.dtd">
<!-- Generated by graphviz version 2.44.1 (20200629.0846)
 -->
<!-- Pages: 1 -->
<svg width="2653pt" height="476pt"
 viewBox="0.00 0.00 2653.07 476.00" xmlns="http://www.w3.org/2000/svg" xmlns:xlink="http://www.w3.org/1999/xlink">
<g id="graph0" class="graph" transform="scale(1 1) rotate(0) translate(4 472)">
<polygon fill="white" stroke="transparent" points="-4,4 -4,-472 2649.07,-472 2649.07,4 -4,4"/>
<!-- [root] azuread_group_member.aks_managed_identity (expand) -->
<g id="node1" class="node">
<title>[root] azuread_group_member.aks_managed_identity (expand)</title>
<polygon fill="none" stroke="black" points="2510.5,-324 2235.5,-324 2235.5,-288 2510.5,-288 2510.5,-324"/>
<text text-anchor="middle" x="2373" y="-302.3" font-family="Times,serif" font-size="14.00">azuread_group_member.aks_managed_identity</text>
</g>
<!-- [root] azurerm_kubernetes_cluster.this (expand) -->
<g id="node2" class="node">
<title>[root] azurerm_kubernetes_cluster.this (expand)</title>
<polygon fill="none" stroke="black" points="1678,-180 1486,-180 1486,-144 1678,-144 1678,-180"/>
<text text-anchor="middle" x="1582" y="-158.3" font-family="Times,serif" font-size="14.00">azurerm_kubernetes_cluster.this</text>
</g>
<!-- [root] azuread_group_member.aks_managed_identity (expand)&#45;&gt;[root] azurerm_kubernetes_cluster.this (expand) -->
<g id="edge1" class="edge">
<title>[root] azuread_group_member.aks_managed_identity (expand)&#45;&gt;[root] azurerm_kubernetes_cluster.this (expand)</title>
<path fill="none" stroke="black" d="M2235.19,-289.19C2188.7,-281.2 2137.18,-269.37 2092,-252 2063.33,-240.97 2062.04,-226.02 2033,-216 1971.33,-194.71 1800.9,-178.8 1688.11,-170.21"/>
<polygon fill="black" stroke="black" points="1688.29,-166.71 1678.06,-169.45 1687.77,-173.69 1688.29,-166.71"/>
</g>
<!-- [root] provider[&quot;registry.terraform.io/hashicorp/azuread&quot;] -->
<g id="node13" class="node">
<title>[root] provider[&quot;registry.terraform.io/hashicorp/azuread&quot;]</title>
<polygon fill="none" stroke="black" points="2373,-252 2100.86,-234 2373,-216 2645.14,-234 2373,-252"/>
<text text-anchor="middle" x="2373" y="-230.3" font-family="Times,serif" font-size="14.00">provider[&quot;registry.terraform.io/hashicorp/azuread&quot;]</text>
</g>
<!-- [root] azuread_group_member.aks_managed_identity (expand)&#45;&gt;[root] provider[&quot;registry.terraform.io/hashicorp/azuread&quot;] -->
<g id="edge2" class="edge">
<title>[root] azuread_group_member.aks_managed_identity (expand)&#45;&gt;[root] provider[&quot;registry.terraform.io/hashicorp/azuread&quot;]</title>
<path fill="none" stroke="black" d="M2373,-287.7C2373,-279.98 2373,-270.71 2373,-262.11"/>
<polygon fill="black" stroke="black" points="2376.5,-262.1 2373,-252.1 2369.5,-262.1 2376.5,-262.1"/>
</g>
<!-- [root] data.azurerm_resource_group.this (expand) -->
<g id="node11" class="node">
<title>[root] data.azurerm_resource_group.this (expand)</title>
<polygon fill="none" stroke="black" points="1376,-108 1174,-108 1174,-72 1376,-72 1376,-108"/>
<text text-anchor="middle" x="1275" y="-86.3" font-family="Times,serif" font-size="14.00">data.azurerm_resource_group.this</text>
</g>
<!-- [root] azurerm_kubernetes_cluster.this (expand)&#45;&gt;[root] data.azurerm_resource_group.this (expand) -->
<g id="edge3" class="edge">
<title>[root] azurerm_kubernetes_cluster.this (expand)&#45;&gt;[root] data.azurerm_resource_group.this (expand)</title>
<path fill="none" stroke="black" d="M1507.29,-143.97C1462.73,-133.8 1406.01,-120.87 1359.78,-110.33"/>
<polygon fill="black" stroke="black" points="1360.3,-106.86 1349.78,-108.05 1358.75,-113.69 1360.3,-106.86"/>
</g>
<!-- [root] data.azurerm_subnet.this (expand) -->
<g id="node12" class="node">
<title>[root] data.azurerm_subnet.this (expand)</title>
<polygon fill="none" stroke="black" points="1155.5,-108 1002.5,-108 1002.5,-72 1155.5,-72 1155.5,-108"/>
<text text-anchor="middle" x="1079" y="-86.3" font-family="Times,serif" font-size="14.00">data.azurerm_subnet.this</text>
</g>
<!-- [root] azurerm_kubernetes_cluster.this (expand)&#45;&gt;[root] data.azurerm_subnet.this (expand) -->
<g id="edge4" class="edge">
<title>[root] azurerm_kubernetes_cluster.this (expand)&#45;&gt;[root] data.azurerm_subnet.this (expand)</title>
<path fill="none" stroke="black" d="M1485.67,-150.66C1403.37,-141.38 1281.63,-126.62 1165.95,-108.09"/>
<polygon fill="black" stroke="black" points="1166.28,-104.6 1155.85,-106.46 1165.16,-111.51 1166.28,-104.6"/>
</g>
<!-- [root] var.aad_groups -->
<g id="node15" class="node">
<title>[root] var.aad_groups</title>
<polygon fill="none" stroke="black" points="1487.5,-108 1394.5,-108 1394.5,-72 1493.5,-72 1493.5,-102 1487.5,-108"/>
<polyline fill="none" stroke="black" points="1487.5,-108 1487.5,-102 "/>
<polyline fill="none" stroke="black" points="1493.5,-102 1487.5,-102 "/>
<text text-anchor="middle" x="1444" y="-86.3" font-family="Times,serif" font-size="14.00">var.aad_groups</text>
</g>
<!-- [root] azurerm_kubernetes_cluster.this (expand)&#45;&gt;[root] var.aad_groups -->
<g id="edge5" class="edge">
<title>[root] azurerm_kubernetes_cluster.this (expand)&#45;&gt;[root] var.aad_groups</title>
<path fill="none" stroke="black" d="M1548.24,-143.88C1529.78,-134.51 1506.72,-122.81 1486.98,-112.8"/>
<polygon fill="black" stroke="black" points="1488.39,-109.59 1477.89,-108.19 1485.22,-115.83 1488.39,-109.59"/>
</g>
<!-- [root] var.aks_authorized_ips -->
<g id="node16" class="node">
<title>[root] var.aks_authorized_ips</title>
<polygon fill="none" stroke="black" points="1646.5,-108 1511.5,-108 1511.5,-72 1652.5,-72 1652.5,-102 1646.5,-108"/>
<polyline fill="none" stroke="black" points="1646.5,-108 1646.5,-102 "/>
<polyline fill="none" stroke="black" points="1652.5,-102 1646.5,-102 "/>
<text text-anchor="middle" x="1582" y="-86.3" font-family="Times,serif" font-size="14.00">var.aks_authorized_ips</text>
</g>
<!-- [root] azurerm_kubernetes_cluster.this (expand)&#45;&gt;[root] var.aks_authorized_ips -->
<g id="edge6" class="edge">
<title>[root] azurerm_kubernetes_cluster.this (expand)&#45;&gt;[root] var.aks_authorized_ips</title>
<path fill="none" stroke="black" d="M1582,-143.7C1582,-135.98 1582,-126.71 1582,-118.11"/>
<polygon fill="black" stroke="black" points="1585.5,-118.1 1582,-108.1 1578.5,-118.1 1585.5,-118.1"/>
</g>
<!-- [root] var.aks_config -->
<g id="node17" class="node">
<title>[root] var.aks_config</title>
<polygon fill="none" stroke="black" points="1759.5,-108 1670.5,-108 1670.5,-72 1765.5,-72 1765.5,-102 1759.5,-108"/>
<polyline fill="none" stroke="black" points="1759.5,-108 1759.5,-102 "/>
<polyline fill="none" stroke="black" points="1765.5,-102 1759.5,-102 "/>
<text text-anchor="middle" x="1718" y="-86.3" font-family="Times,serif" font-size="14.00">var.aks_config</text>
</g>
<!-- [root] azurerm_kubernetes_cluster.this (expand)&#45;&gt;[root] var.aks_config -->
<g id="edge7" class="edge">
<title>[root] azurerm_kubernetes_cluster.this (expand)&#45;&gt;[root] var.aks_config</title>
<path fill="none" stroke="black" d="M1615.27,-143.88C1633.46,-134.51 1656.19,-122.81 1675.64,-112.8"/>
<polygon fill="black" stroke="black" points="1677.31,-115.88 1684.6,-108.19 1674.11,-109.65 1677.31,-115.88"/>
</g>
<!-- [root] var.aks_public_ip_prefix_id -->
<g id="node19" class="node">
<title>[root] var.aks_public_ip_prefix_id</title>
<polygon fill="none" stroke="black" points="1946,-108 1784,-108 1784,-72 1952,-72 1952,-102 1946,-108"/>
<polyline fill="none" stroke="black" points="1946,-108 1946,-102 "/>
<polyline fill="none" stroke="black" points="1952,-102 1946,-102 "/>
<text text-anchor="middle" x="1868" y="-86.3" font-family="Times,serif" font-size="14.00">var.aks_public_ip_prefix_id</text>
</g>
<!-- [root] azurerm_kubernetes_cluster.this (expand)&#45;&gt;[root] var.aks_public_ip_prefix_id -->
<g id="edge8" class="edge">
<title>[root] azurerm_kubernetes_cluster.this (expand)&#45;&gt;[root] var.aks_public_ip_prefix_id</title>
<path fill="none" stroke="black" d="M1651.6,-143.97C1692.86,-133.87 1745.31,-121.03 1788.24,-110.52"/>
<polygon fill="black" stroke="black" points="1789.21,-113.89 1798.09,-108.11 1787.54,-107.09 1789.21,-113.89"/>
</g>
<!-- [root] var.ssh_public_key -->
<g id="node25" class="node">
<title>[root] var.ssh_public_key</title>
<polygon fill="none" stroke="black" points="2085.5,-108 1970.5,-108 1970.5,-72 2091.5,-72 2091.5,-102 2085.5,-108"/>
<polyline fill="none" stroke="black" points="2085.5,-108 2085.5,-102 "/>
<polyline fill="none" stroke="black" points="2091.5,-102 2085.5,-102 "/>
<text text-anchor="middle" x="2031" y="-86.3" font-family="Times,serif" font-size="14.00">var.ssh_public_key</text>
</g>
<!-- [root] azurerm_kubernetes_cluster.this (expand)&#45;&gt;[root] var.ssh_public_key -->
<g id="edge9" class="edge">
<title>[root] azurerm_kubernetes_cluster.this (expand)&#45;&gt;[root] var.ssh_public_key</title>
<path fill="none" stroke="black" d="M1678.23,-150.22C1752.69,-141.26 1858.53,-127.16 1960.52,-107.99"/>
<polygon fill="black" stroke="black" points="1961.2,-111.42 1970.37,-106.11 1959.9,-104.54 1961.2,-111.42"/>
</g>
<!-- [root] azurerm_kubernetes_cluster_node_pool.this (expand) -->
<g id="node3" class="node">
<title>[root] azurerm_kubernetes_cluster_node_pool.this (expand)</title>
<polygon fill="none" stroke="black" points="1921.5,-324 1664.5,-324 1664.5,-288 1921.5,-288 1921.5,-324"/>
<text text-anchor="middle" x="1793" y="-302.3" font-family="Times,serif" font-size="14.00">azurerm_kubernetes_cluster_node_pool.this</text>
</g>
<!-- [root] azurerm_kubernetes_cluster_node_pool.this (expand)&#45;&gt;[root] azurerm_kubernetes_cluster.this (expand) -->
<g id="edge10" class="edge">
<title>[root] azurerm_kubernetes_cluster_node_pool.this (expand)&#45;&gt;[root] azurerm_kubernetes_cluster.this (expand)</title>
<path fill="none" stroke="black" d="M1750.8,-287.92C1729.69,-278.59 1704.2,-266.06 1683,-252 1654.46,-233.07 1625.5,-206.65 1605.95,-187.51"/>
<polygon fill="black" stroke="black" points="1608.25,-184.87 1598.68,-180.31 1603.32,-189.84 1608.25,-184.87"/>
</g>
<!-- [root] azurerm_role_assignment.aks_managed_identity_noderg_managed_identity_operator (expand) -->
<g id="node4" class="node">
<title>[root] azurerm_role_assignment.aks_managed_identity_noderg_managed_identity_operator (expand)</title>
<polygon fill="none" stroke="black" points="992,-324 508,-324 508,-288 992,-288 992,-324"/>
<text text-anchor="middle" x="750" y="-302.3" font-family="Times,serif" font-size="14.00">azurerm_role_assignment.aks_managed_identity_noderg_managed_identity_operator</text>
</g>
<!-- [root] data.azurerm_resource_group.aks (expand) -->
<g id="node10" class="node">
<title>[root] data.azurerm_resource_group.aks (expand)</title>
<polygon fill="none" stroke="black" points="850,-252 650,-252 650,-216 850,-216 850,-252"/>
<text text-anchor="middle" x="750" y="-230.3" font-family="Times,serif" font-size="14.00">data.azurerm_resource_group.aks</text>
</g>
<!-- [root] azurerm_role_assignment.aks_managed_identity_noderg_managed_identity_operator (expand)&#45;&gt;[root] data.azurerm_resource_group.aks (expand) -->
<g id="edge11" class="edge">
<title>[root] azurerm_role_assignment.aks_managed_identity_noderg_managed_identity_operator (expand)&#45;&gt;[root] data.azurerm_resource_group.aks (expand)</title>
<path fill="none" stroke="black" d="M750,-287.7C750,-279.98 750,-270.71 750,-262.11"/>
<polygon fill="black" stroke="black" points="753.5,-262.1 750,-252.1 746.5,-262.1 753.5,-262.1"/>
</g>
<!-- [root] azurerm_role_assignment.aks_managed_identity_noderg_virtual_machine_contributor (expand) -->
<g id="node5" class="node">
<title>[root] azurerm_role_assignment.aks_managed_identity_noderg_virtual_machine_contributor (expand)</title>
<polygon fill="none" stroke="black" points="490,-324 0,-324 0,-288 490,-288 490,-324"/>
<text text-anchor="middle" x="245" y="-302.3" font-family="Times,serif" font-size="14.00">azurerm_role_assignment.aks_managed_identity_noderg_virtual_machine_contributor</text>
</g>
<!-- [root] azurerm_role_assignment.aks_managed_identity_noderg_virtual_machine_contributor (expand)&#45;&gt;[root] data.azurerm_resource_group.aks (expand) -->
<g id="edge12" class="edge">
<title>[root] azurerm_role_assignment.aks_managed_identity_noderg_virtual_machine_contributor (expand)&#45;&gt;[root] data.azurerm_resource_group.aks (expand)</title>
<path fill="none" stroke="black" d="M367.89,-287.97C450.91,-276.46 559.56,-261.4 639.78,-250.28"/>
<polygon fill="black" stroke="black" points="640.49,-253.71 649.91,-248.87 639.53,-246.78 640.49,-253.71"/>
</g>
<!-- [root] azurerm_role_assignment.cluster_admin (expand) -->
<g id="node6" class="node">
<title>[root] azurerm_role_assignment.cluster_admin (expand)</title>
<polygon fill="none" stroke="black" points="2178.5,-324 1939.5,-324 1939.5,-288 2178.5,-288 2178.5,-324"/>
<text text-anchor="middle" x="2059" y="-302.3" font-family="Times,serif" font-size="14.00">azurerm_role_assignment.cluster_admin</text>
</g>
<!-- [root] azurerm_role_assignment.cluster_admin (expand)&#45;&gt;[root] azurerm_kubernetes_cluster.this (expand) -->
<g id="edge13" class="edge">
<title>[root] azurerm_role_assignment.cluster_admin (expand)&#45;&gt;[root] azurerm_kubernetes_cluster.this (expand)</title>
<path fill="none" stroke="black" d="M1939.31,-288.98C1866.29,-278.39 1780.39,-264.26 1745,-252 1732.07,-247.52 1664.58,-209.83 1620.6,-184.95"/>
<polygon fill="black" stroke="black" points="1622.29,-181.89 1611.87,-180.01 1618.84,-187.98 1622.29,-181.89"/>
</g>
<!-- [root] azurerm_role_assignment.cluster_view (expand) -->
<g id="node7" class="node">
<title>[root] azurerm_role_assignment.cluster_view (expand)</title>
<polygon fill="none" stroke="black" points="1240,-324 1010,-324 1010,-288 1240,-288 1240,-324"/>
<text text-anchor="middle" x="1125" y="-302.3" font-family="Times,serif" font-size="14.00">azurerm_role_assignment.cluster_view</text>
</g>
<!-- [root] azurerm_role_assignment.cluster_view (expand)&#45;&gt;[root] azurerm_kubernetes_cluster.this (expand) -->
<g id="edge14" class="edge">
<title>[root] azurerm_role_assignment.cluster_view (expand)&#45;&gt;[root] azurerm_kubernetes_cluster.this (expand)</title>
<path fill="none" stroke="black" d="M1167.11,-288C1215.19,-268.95 1296.47,-237.89 1368,-216 1409.33,-203.35 1455.84,-191.55 1494.92,-182.31"/>
<polygon fill="black" stroke="black" points="1495.75,-185.71 1504.69,-180.01 1494.15,-178.89 1495.75,-185.71"/>
</g>
<!-- [root] azurerm_role_assignment.edit (expand) -->
<g id="node8" class="node">
<title>[root] azurerm_role_assignment.edit (expand)</title>
<polygon fill="none" stroke="black" points="1646,-324 1464,-324 1464,-288 1646,-288 1646,-324"/>
<text text-anchor="middle" x="1555" y="-302.3" font-family="Times,serif" font-size="14.00">azurerm_role_assignment.edit</text>
</g>
<!-- [root] azurerm_role_assignment.edit (expand)&#45;&gt;[root] azurerm_kubernetes_cluster.this (expand) -->
<g id="edge15" class="edge">
<title>[root] azurerm_role_assignment.edit (expand)&#45;&gt;[root] azurerm_kubernetes_cluster.this (expand)</title>
<path fill="none" stroke="black" d="M1558.26,-287.87C1562.86,-263.67 1571.31,-219.21 1576.79,-190.39"/>
<polygon fill="black" stroke="black" points="1580.3,-190.67 1578.73,-180.19 1573.43,-189.36 1580.3,-190.67"/>
</g>
<!-- [root] var.namespaces -->
<g id="node24" class="node">
<title>[root] var.namespaces</title>
<polygon fill="none" stroke="black" points="1503,-252 1407,-252 1407,-216 1509,-216 1509,-246 1503,-252"/>
<polyline fill="none" stroke="black" points="1503,-252 1503,-246 "/>
<polyline fill="none" stroke="black" points="1509,-246 1503,-246 "/>
<text text-anchor="middle" x="1458" y="-230.3" font-family="Times,serif" font-size="14.00">var.namespaces</text>
</g>
<!-- [root] azurerm_role_assignment.edit (expand)&#45;&gt;[root] var.namespaces -->
<g id="edge16" class="edge">
<title>[root] azurerm_role_assignment.edit (expand)&#45;&gt;[root] var.namespaces</title>
<path fill="none" stroke="black" d="M1531.02,-287.7C1518.69,-278.8 1503.48,-267.82 1490.15,-258.2"/>
<polygon fill="black" stroke="black" points="1491.86,-255.12 1481.7,-252.1 1487.76,-260.79 1491.86,-255.12"/>
</g>
<!-- [root] azurerm_role_assignment.view (expand) -->
<g id="node9" class="node">
<title>[root] azurerm_role_assignment.view (expand)</title>
<polygon fill="none" stroke="black" points="1446,-324 1258,-324 1258,-288 1446,-288 1446,-324"/>
<text text-anchor="middle" x="1352" y="-302.3" font-family="Times,serif" font-size="14.00">azurerm_role_assignment.view</text>
</g>
<!-- [root] azurerm_role_assignment.view (expand)&#45;&gt;[root] azurerm_kubernetes_cluster.this (expand) -->
<g id="edge17" class="edge">
<title>[root] azurerm_role_assignment.view (expand)&#45;&gt;[root] azurerm_kubernetes_cluster.this (expand)</title>
<path fill="none" stroke="black" d="M1356.35,-287.97C1362.36,-267.85 1375.14,-234.76 1398,-216 1420.18,-197.8 1448.33,-185.84 1475.89,-178"/>
<polygon fill="black" stroke="black" points="1476.86,-181.36 1485.61,-175.39 1475.04,-174.6 1476.86,-181.36"/>
</g>
<!-- [root] azurerm_role_assignment.view (expand)&#45;&gt;[root] var.namespaces -->
<g id="edge18" class="edge">
<title>[root] azurerm_role_assignment.view (expand)&#45;&gt;[root] var.namespaces</title>
<path fill="none" stroke="black" d="M1377.93,-287.88C1391.66,-278.81 1408.71,-267.55 1423.54,-257.76"/>
<polygon fill="black" stroke="black" points="1425.55,-260.62 1431.97,-252.19 1421.7,-254.78 1425.55,-260.62"/>
</g>
<!-- [root] data.azurerm_resource_group.aks (expand)&#45;&gt;[root] azurerm_kubernetes_cluster.this (expand) -->
<g id="edge19" class="edge">
<title>[root] data.azurerm_resource_group.aks (expand)&#45;&gt;[root] azurerm_kubernetes_cluster.this (expand)</title>
<path fill="none" stroke="black" d="M850.36,-224.56C1008.32,-211.27 1313.57,-185.58 1475.34,-171.97"/>
<polygon fill="black" stroke="black" points="1476.12,-175.42 1485.79,-171.09 1475.53,-168.45 1476.12,-175.42"/>
</g>
<!-- [root] provider[&quot;registry.terraform.io/hashicorp/azurerm&quot;] -->
<g id="node14" class="node">
<title>[root] provider[&quot;registry.terraform.io/hashicorp/azurerm&quot;]</title>
<polygon fill="none" stroke="black" points="1177,-36 902.34,-18 1177,0 1451.66,-18 1177,-36"/>
<text text-anchor="middle" x="1177" y="-14.3" font-family="Times,serif" font-size="14.00">provider[&quot;registry.terraform.io/hashicorp/azurerm&quot;]</text>
</g>
<!-- [root] data.azurerm_resource_group.this (expand)&#45;&gt;[root] provider[&quot;registry.terraform.io/hashicorp/azurerm&quot;] -->
<g id="edge20" class="edge">
<title>[root] data.azurerm_resource_group.this (expand)&#45;&gt;[root] provider[&quot;registry.terraform.io/hashicorp/azurerm&quot;]</title>
<path fill="none" stroke="black" d="M1251.03,-71.88C1237.89,-62.49 1221.47,-50.76 1207.43,-40.74"/>
<polygon fill="black" stroke="black" points="1209.22,-37.71 1199.05,-34.75 1205.15,-43.41 1209.22,-37.71"/>
</g>
<!-- [root] var.environment -->
<g id="node21" class="node">
<title>[root] var.environment</title>
<polygon fill="none" stroke="black" points="1570,-36 1470,-36 1470,0 1576,0 1576,-30 1570,-36"/>
<polyline fill="none" stroke="black" points="1570,-36 1570,-30 "/>
<polyline fill="none" stroke="black" points="1576,-30 1570,-30 "/>
<text text-anchor="middle" x="1523" y="-14.3" font-family="Times,serif" font-size="14.00">var.environment</text>
</g>
<!-- [root] data.azurerm_resource_group.this (expand)&#45;&gt;[root] var.environment -->
<g id="edge21" class="edge">
<title>[root] data.azurerm_resource_group.this (expand)&#45;&gt;[root] var.environment</title>
<path fill="none" stroke="black" d="M1335.35,-71.97C1373.12,-61.3 1421.71,-47.59 1459.98,-36.79"/>
<polygon fill="black" stroke="black" points="1461.3,-40.05 1469.97,-33.97 1459.4,-33.32 1461.3,-40.05"/>
</g>
<!-- [root] var.location_short -->
<g id="node22" class="node">
<title>[root] var.location_short</title>
<polygon fill="none" stroke="black" points="1702,-36 1594,-36 1594,0 1708,0 1708,-30 1702,-36"/>
<polyline fill="none" stroke="black" points="1702,-36 1702,-30 "/>
<polyline fill="none" stroke="black" points="1708,-30 1702,-30 "/>
<text text-anchor="middle" x="1651" y="-14.3" font-family="Times,serif" font-size="14.00">var.location_short</text>
</g>
<!-- [root] data.azurerm_resource_group.this (expand)&#45;&gt;[root] var.location_short -->
<g id="edge22" class="edge">
<title>[root] data.azurerm_resource_group.this (expand)&#45;&gt;[root] var.location_short</title>
<path fill="none" stroke="black" d="M1376.32,-72.61C1446.19,-61.14 1533.92,-46.37 1584.03,-36.09"/>
<polygon fill="black" stroke="black" points="1584.76,-39.51 1593.83,-34.03 1583.33,-32.66 1584.76,-39.51"/>
</g>
<!-- [root] var.name -->
<g id="node23" class="node">
<title>[root] var.name</title>
<polygon fill="none" stroke="black" points="878.5,-36 817.5,-36 817.5,0 884.5,0 884.5,-30 878.5,-36"/>
<polyline fill="none" stroke="black" points="878.5,-36 878.5,-30 "/>
<polyline fill="none" stroke="black" points="884.5,-30 878.5,-30 "/>
<text text-anchor="middle" x="851" y="-14.3" font-family="Times,serif" font-size="14.00">var.name</text>
</g>
<!-- [root] data.azurerm_resource_group.this (expand)&#45;&gt;[root] var.name -->
<g id="edge23" class="edge">
<title>[root] data.azurerm_resource_group.this (expand)&#45;&gt;[root] var.name</title>
<path fill="none" stroke="black" d="M1173.98,-73.44C1170.62,-72.95 1167.28,-72.47 1164,-72 1046.89,-55.26 1012.28,-66.42 894.44,-36.04"/>
<polygon fill="black" stroke="black" points="895.24,-32.63 884.68,-33.48 893.46,-39.41 895.24,-32.63"/>
</g>
<!-- [root] data.azurerm_subnet.this (expand)&#45;&gt;[root] provider[&quot;registry.terraform.io/hashicorp/azurerm&quot;] -->
<g id="edge24" class="edge">
<title>[root] data.azurerm_subnet.this (expand)&#45;&gt;[root] provider[&quot;registry.terraform.io/hashicorp/azurerm&quot;]</title>
<path fill="none" stroke="black" d="M1102.97,-71.88C1116.11,-62.49 1132.53,-50.76 1146.57,-40.74"/>
<polygon fill="black" stroke="black" points="1148.85,-43.41 1154.95,-34.75 1144.78,-37.71 1148.85,-43.41"/>
</g>
<!-- [root] var.aks_name_suffix -->
<g id="node18" class="node">
<title>[root] var.aks_name_suffix</title>
<polygon fill="none" stroke="black" points="678.5,-36 555.5,-36 555.5,0 684.5,0 684.5,-30 678.5,-36"/>
<polyline fill="none" stroke="black" points="678.5,-36 678.5,-30 "/>
<polyline fill="none" stroke="black" points="684.5,-30 678.5,-30 "/>
<text text-anchor="middle" x="620" y="-14.3" font-family="Times,serif" font-size="14.00">var.aks_name_suffix</text>
</g>
<!-- [root] data.azurerm_subnet.this (expand)&#45;&gt;[root] var.aks_name_suffix -->
<g id="edge25" class="edge">
<title>[root] data.azurerm_subnet.this (expand)&#45;&gt;[root] var.aks_name_suffix</title>
<path fill="none" stroke="black" d="M1002.5,-80.61C926.67,-71.81 807.02,-56.64 694.94,-36.28"/>
<polygon fill="black" stroke="black" points="695.28,-32.78 684.81,-34.42 694.02,-39.67 695.28,-32.78"/>
</g>
<!-- [root] var.core_name -->
<g id="node20" class="node">
<title>[root] var.core_name</title>
<polygon fill="none" stroke="black" points="793.5,-36 702.5,-36 702.5,0 799.5,0 799.5,-30 793.5,-36"/>
<polyline fill="none" stroke="black" points="793.5,-36 793.5,-30 "/>
<polyline fill="none" stroke="black" points="799.5,-30 793.5,-30 "/>
<text text-anchor="middle" x="751" y="-14.3" font-family="Times,serif" font-size="14.00">var.core_name</text>
</g>
<!-- [root] data.azurerm_subnet.this (expand)&#45;&gt;[root] var.core_name -->
<g id="edge26" class="edge">
<title>[root] data.azurerm_subnet.this (expand)&#45;&gt;[root] var.core_name</title>
<path fill="none" stroke="black" d="M1002.35,-76.05C950.29,-66.78 879.73,-53.3 809.62,-36.29"/>
<polygon fill="black" stroke="black" points="810.28,-32.85 799.73,-33.87 808.61,-39.65 810.28,-32.85"/>
</g>
<!-- [root] data.azurerm_subnet.this (expand)&#45;&gt;[root] var.environment -->
<g id="edge27" class="edge">
<title>[root] data.azurerm_subnet.this (expand)&#45;&gt;[root] var.environment</title>
<path fill="none" stroke="black" d="M1155.84,-73.52C1158.93,-72.99 1161.99,-72.48 1165,-72 1292.68,-51.65 1329.2,-61.1 1459.71,-36.1"/>
<polygon fill="black" stroke="black" points="1460.54,-39.5 1469.68,-34.15 1459.2,-32.63 1460.54,-39.5"/>
</g>
<!-- [root] data.azurerm_subnet.this (expand)&#45;&gt;[root] var.location_short -->
<g id="edge28" class="edge">
<title>[root] data.azurerm_subnet.this (expand)&#45;&gt;[root] var.location_short</title>
<path fill="none" stroke="black" d="M1155.82,-73.38C1158.92,-72.89 1161.99,-72.43 1165,-72 1347.25,-46.26 1398.52,-66.73 1583.81,-36.03"/>
<polygon fill="black" stroke="black" points="1584.61,-39.44 1593.89,-34.33 1583.45,-32.54 1584.61,-39.44"/>
</g>
<!-- [root] data.azurerm_subnet.this (expand)&#45;&gt;[root] var.name -->
<g id="edge29" class="edge">
<title>[root] data.azurerm_subnet.this (expand)&#45;&gt;[root] var.name</title>
<path fill="none" stroke="black" d="M1012.61,-71.94C979.32,-62.95 938.28,-51.22 894.49,-36.37"/>
<polygon fill="black" stroke="black" points="895.4,-32.98 884.81,-33.05 893.13,-39.6 895.4,-32.98"/>
</g>
<!-- [root] meta.count&#45;boundary (EachMode fixup) -->
<g id="node26" class="node">
<title>[root] meta.count&#45;boundary (EachMode fixup)</title>
<ellipse fill="none" stroke="black" cx="1789" cy="-378" rx="176.27" ry="18"/>
<text text-anchor="middle" x="1789" y="-374.3" font-family="Times,serif" font-size="14.00">[root] meta.count&#45;boundary (EachMode fixup)</text>
</g>
<!-- [root] meta.count&#45;boundary (EachMode fixup)&#45;&gt;[root] azuread_group_member.aks_managed_identity (expand) -->
<g id="edge30" class="edge">
<title>[root] meta.count&#45;boundary (EachMode fixup)&#45;&gt;[root] azuread_group_member.aks_managed_identity (expand)</title>
<path fill="none" stroke="black" d="M1898.5,-363.87C1990.8,-352.81 2123.69,-336.88 2225.37,-324.69"/>
<polygon fill="black" stroke="black" points="2225.91,-328.16 2235.43,-323.49 2225.08,-321.21 2225.91,-328.16"/>
</g>
<!-- [root] meta.count&#45;boundary (EachMode fixup)&#45;&gt;[root] azurerm_kubernetes_cluster_node_pool.this (expand) -->
<g id="edge31" class="edge">
<title>[root] meta.count&#45;boundary (EachMode fixup)&#45;&gt;[root] azurerm_kubernetes_cluster_node_pool.this (expand)</title>
<path fill="none" stroke="black" d="M1789.99,-359.7C1790.43,-351.98 1790.96,-342.71 1791.45,-334.11"/>
<polygon fill="black" stroke="black" points="1794.95,-334.29 1792.02,-324.1 1787.96,-333.89 1794.95,-334.29"/>
</g>
<!-- [root] meta.count&#45;boundary (EachMode fixup)&#45;&gt;[root] azurerm_role_assignment.aks_managed_identity_noderg_managed_identity_operator (expand) -->
<g id="edge32" class="edge">
<title>[root] meta.count&#45;boundary (EachMode fixup)&#45;&gt;[root] azurerm_role_assignment.aks_managed_identity_noderg_managed_identity_operator (expand)</title>
<path fill="none" stroke="black" d="M1665.65,-365.11C1645.07,-363.29 1623.94,-361.51 1604,-360 1339.56,-339.96 1270.61,-341.04 1002.16,-324.07"/>
<polygon fill="black" stroke="black" points="1002.32,-320.57 992.12,-323.43 1001.88,-327.56 1002.32,-320.57"/>
</g>
<!-- [root] meta.count&#45;boundary (EachMode fixup)&#45;&gt;[root] azurerm_role_assignment.aks_managed_identity_noderg_virtual_machine_contributor (expand) -->
<g id="edge33" class="edge">
<title>[root] meta.count&#45;boundary (EachMode fixup)&#45;&gt;[root] azurerm_role_assignment.aks_managed_identity_noderg_virtual_machine_contributor (expand)</title>
<path fill="none" stroke="black" d="M1668.17,-364.86C1646.81,-363.01 1624.76,-361.29 1604,-360 1116.93,-329.71 991.47,-348.15 500.2,-324.05"/>
<polygon fill="black" stroke="black" points="500.17,-320.54 490.01,-323.54 499.82,-327.53 500.17,-320.54"/>
</g>
<!-- [root] meta.count&#45;boundary (EachMode fixup)&#45;&gt;[root] azurerm_role_assignment.cluster_admin (expand) -->
<g id="edge34" class="edge">
<title>[root] meta.count&#45;boundary (EachMode fixup)&#45;&gt;[root] azurerm_role_assignment.cluster_admin (expand)</title>
<path fill="none" stroke="black" d="M1850.27,-361.12C1889.73,-350.88 1941.33,-337.51 1983.35,-326.61"/>
<polygon fill="black" stroke="black" points="1984.46,-329.94 1993.26,-324.04 1982.7,-323.17 1984.46,-329.94"/>
</g>
<!-- [root] meta.count&#45;boundary (EachMode fixup)&#45;&gt;[root] azurerm_role_assignment.cluster_view (expand) -->
<g id="edge35" class="edge">
<title>[root] meta.count&#45;boundary (EachMode fixup)&#45;&gt;[root] azurerm_role_assignment.cluster_view (expand)</title>
<path fill="none" stroke="black" d="M1663.89,-365.28C1535.01,-353.11 1341.54,-334.56 1250.25,-324.11"/>
<polygon fill="black" stroke="black" points="1250.5,-320.62 1240.16,-322.94 1249.69,-327.57 1250.5,-320.62"/>
</g>
<!-- [root] meta.count&#45;boundary (EachMode fixup)&#45;&gt;[root] azurerm_role_assignment.edit (expand) -->
<g id="edge36" class="edge">
<title>[root] meta.count&#45;boundary (EachMode fixup)&#45;&gt;[root] azurerm_role_assignment.edit (expand)</title>
<path fill="none" stroke="black" d="M1735.02,-360.85C1701.34,-350.78 1657.73,-337.73 1621.87,-327"/>
<polygon fill="black" stroke="black" points="1622.55,-323.56 1611.97,-324.04 1620.55,-330.26 1622.55,-323.56"/>
</g>
<!-- [root] meta.count&#45;boundary (EachMode fixup)&#45;&gt;[root] azurerm_role_assignment.view (expand) -->
<g id="edge37" class="edge">
<title>[root] meta.count&#45;boundary (EachMode fixup)&#45;&gt;[root] azurerm_role_assignment.view (expand)</title>
<path fill="none" stroke="black" d="M1697.18,-362.59C1632.56,-352.41 1543.75,-338.34 1456.14,-324.18"/>
<polygon fill="black" stroke="black" points="1456.45,-320.68 1446.02,-322.54 1455.33,-327.59 1456.45,-320.68"/>
</g>
<!-- [root] output.kube_config (expand) -->
<g id="node27" class="node">
<title>[root] output.kube_config (expand)</title>
<ellipse fill="none" stroke="black" cx="1889" cy="-234" rx="135.38" ry="18"/>
<text text-anchor="middle" x="1889" y="-230.3" font-family="Times,serif" font-size="14.00">[root] output.kube_config (expand)</text>
</g>
<!-- [root] meta.count&#45;boundary (EachMode fixup)&#45;&gt;[root] output.kube_config (expand) -->
<g id="edge38" class="edge">
<title>[root] meta.count&#45;boundary (EachMode fixup)&#45;&gt;[root] output.kube_config (expand)</title>
<path fill="none" stroke="black" d="M1930.58,-367.25C2038.27,-358.35 2170.83,-343.6 2188,-324 2198.54,-311.96 2198.28,-300.26 2188,-288 2175.56,-273.16 2078.86,-257.89 1998.75,-247.58"/>
<polygon fill="black" stroke="black" points="1998.93,-244.07 1988.57,-246.28 1998.04,-251.01 1998.93,-244.07"/>
</g>
<!-- [root] output.kube_config (expand)&#45;&gt;[root] azurerm_kubernetes_cluster.this (expand) -->
<g id="edge39" class="edge">
<title>[root] output.kube_config (expand)&#45;&gt;[root] azurerm_kubernetes_cluster.this (expand)</title>
<path fill="none" stroke="black" d="M1823.89,-218.15C1778.02,-207.7 1716.17,-193.59 1666.5,-182.27"/>
<polygon fill="black" stroke="black" points="1667.26,-178.85 1656.73,-180.04 1665.7,-185.68 1667.26,-178.85"/>
</g>
<!-- [root] provider[&quot;registry.terraform.io/hashicorp/azuread&quot;] (close) -->
<g id="node28" class="node">
<title>[root] provider[&quot;registry.terraform.io/hashicorp/azuread&quot;] (close)</title>
<ellipse fill="none" stroke="black" cx="2298" cy="-378" rx="241.26" ry="18"/>
<text text-anchor="middle" x="2298" y="-374.3" font-family="Times,serif" font-size="14.00">[root] provider[&quot;registry.terraform.io/hashicorp/azuread&quot;] (close)</text>
</g>
<!-- [root] provider[&quot;registry.terraform.io/hashicorp/azuread&quot;] (close)&#45;&gt;[root] azuread_group_member.aks_managed_identity (expand) -->
<g id="edge40" class="edge">
<title>[root] provider[&quot;registry.terraform.io/hashicorp/azuread&quot;] (close)&#45;&gt;[root] azuread_group_member.aks_managed_identity (expand)</title>
<path fill="none" stroke="black" d="M2316.54,-359.7C2325.8,-351.05 2337.16,-340.45 2347.26,-331.03"/>
<polygon fill="black" stroke="black" points="2349.75,-333.49 2354.67,-324.1 2344.98,-328.37 2349.75,-333.49"/>
</g>
<!-- [root] provider[&quot;registry.terraform.io/hashicorp/azurerm&quot;] (close) -->
<g id="node29" class="node">
<title>[root] provider[&quot;registry.terraform.io/hashicorp/azurerm&quot;] (close)</title>
<ellipse fill="none" stroke="black" cx="1352" cy="-378" rx="243.16" ry="18"/>
<text text-anchor="middle" x="1352" y="-374.3" font-family="Times,serif" font-size="14.00">[root] provider[&quot;registry.terraform.io/hashicorp/azurerm&quot;] (close)</text>
</g>
<!-- [root] provider[&quot;registry.terraform.io/hashicorp/azurerm&quot;] (close)&#45;&gt;[root] azurerm_kubernetes_cluster_node_pool.this (expand) -->
<g id="edge41" class="edge">
<title>[root] provider[&quot;registry.terraform.io/hashicorp/azurerm&quot;] (close)&#45;&gt;[root] azurerm_kubernetes_cluster_node_pool.this (expand)</title>
<path fill="none" stroke="black" d="M1449.6,-361.51C1516.22,-350.93 1604.83,-336.87 1675.35,-325.67"/>
<polygon fill="black" stroke="black" points="1676.29,-329.07 1685.62,-324.04 1675.19,-322.16 1676.29,-329.07"/>
</g>
<!-- [root] provider[&quot;registry.terraform.io/hashicorp/azurerm&quot;] (close)&#45;&gt;[root] azurerm_role_assignment.aks_managed_identity_noderg_managed_identity_operator (expand) -->
<g id="edge42" class="edge">
<title>[root] provider[&quot;registry.terraform.io/hashicorp/azurerm&quot;] (close)&#45;&gt;[root] azurerm_role_assignment.aks_managed_identity_noderg_managed_identity_operator (expand)</title>
<path fill="none" stroke="black" d="M1227.27,-362.5C1134.2,-351.67 1006.43,-336.82 906.51,-325.2"/>
<polygon fill="black" stroke="black" points="906.66,-321.69 896.32,-324.01 905.85,-328.65 906.66,-321.69"/>
</g>
<!-- [root] provider[&quot;registry.terraform.io/hashicorp/azurerm&quot;] (close)&#45;&gt;[root] azurerm_role_assignment.aks_managed_identity_noderg_virtual_machine_contributor (expand) -->
<g id="edge43" class="edge">
<title>[root] provider[&quot;registry.terraform.io/hashicorp/azurerm&quot;] (close)&#45;&gt;[root] azurerm_role_assignment.aks_managed_identity_noderg_virtual_machine_contributor (expand)</title>
<path fill="none" stroke="black" d="M1170.61,-365.98C1000.36,-355.58 738.27,-339.42 500.25,-324.08"/>
<polygon fill="black" stroke="black" points="500.22,-320.57 490.01,-323.42 499.77,-327.56 500.22,-320.57"/>
</g>
<!-- [root] provider[&quot;registry.terraform.io/hashicorp/azurerm&quot;] (close)&#45;&gt;[root] azurerm_role_assignment.cluster_admin (expand) -->
<g id="edge44" class="edge">
<title>[root] provider[&quot;registry.terraform.io/hashicorp/azurerm&quot;] (close)&#45;&gt;[root] azurerm_role_assignment.cluster_admin (expand)</title>
<path fill="none" stroke="black" d="M1509.48,-364.25C1623.18,-354.65 1780.66,-340.52 1928.99,-324.09"/>
<polygon fill="black" stroke="black" points="1929.65,-327.54 1939.2,-322.95 1928.87,-320.58 1929.65,-327.54"/>
</g>
<!-- [root] provider[&quot;registry.terraform.io/hashicorp/azurerm&quot;] (close)&#45;&gt;[root] azurerm_role_assignment.cluster_view (expand) -->
<g id="edge45" class="edge">
<title>[root] provider[&quot;registry.terraform.io/hashicorp/azurerm&quot;] (close)&#45;&gt;[root] azurerm_role_assignment.cluster_view (expand)</title>
<path fill="none" stroke="black" d="M1298.2,-360.41C1265.87,-350.44 1224.49,-337.68 1190.29,-327.13"/>
<polygon fill="black" stroke="black" points="1190.97,-323.68 1180.38,-324.08 1188.91,-330.37 1190.97,-323.68"/>
</g>
<!-- [root] provider[&quot;registry.terraform.io/hashicorp/azurerm&quot;] (close)&#45;&gt;[root] azurerm_role_assignment.edit (expand) -->
<g id="edge46" class="edge">
<title>[root] provider[&quot;registry.terraform.io/hashicorp/azurerm&quot;] (close)&#45;&gt;[root] azurerm_role_assignment.edit (expand)</title>
<path fill="none" stroke="black" d="M1400.37,-360.32C1429.04,-350.43 1465.6,-337.83 1495.97,-327.36"/>
<polygon fill="black" stroke="black" points="1497.28,-330.61 1505.59,-324.04 1495,-323.99 1497.28,-330.61"/>
</g>
<!-- [root] provider[&quot;registry.terraform.io/hashicorp/azurerm&quot;] (close)&#45;&gt;[root] azurerm_role_assignment.view (expand) -->
<g id="edge47" class="edge">
<title>[root] provider[&quot;registry.terraform.io/hashicorp/azurerm&quot;] (close)&#45;&gt;[root] azurerm_role_assignment.view (expand)</title>
<path fill="none" stroke="black" d="M1352,-359.7C1352,-351.98 1352,-342.71 1352,-334.11"/>
<polygon fill="black" stroke="black" points="1355.5,-334.1 1352,-324.1 1348.5,-334.1 1355.5,-334.1"/>
</g>
<!-- [root] root -->
<g id="node30" class="node">
<title>[root] root</title>
<ellipse fill="none" stroke="black" cx="1789" cy="-450" rx="47.39" ry="18"/>
<text text-anchor="middle" x="1789" y="-446.3" font-family="Times,serif" font-size="14.00">[root] root</text>
</g>
<!-- [root] root&#45;&gt;[root] meta.count&#45;boundary (EachMode fixup) -->
<g id="edge48" class="edge">
<title>[root] root&#45;&gt;[root] meta.count&#45;boundary (EachMode fixup)</title>
<path fill="none" stroke="black" d="M1789,-431.7C1789,-423.98 1789,-414.71 1789,-406.11"/>
<polygon fill="black" stroke="black" points="1792.5,-406.1 1789,-396.1 1785.5,-406.1 1792.5,-406.1"/>
</g>
<!-- [root] root&#45;&gt;[root] provider[&quot;registry.terraform.io/hashicorp/azuread&quot;] (close) -->
<g id="edge49" class="edge">
<title>[root] root&#45;&gt;[root] provider[&quot;registry.terraform.io/hashicorp/azuread&quot;] (close)</title>
<path fill="none" stroke="black" d="M1832.84,-442.97C1908.84,-432.52 2067.52,-410.7 2178.31,-395.46"/>
<polygon fill="black" stroke="black" points="2179.11,-398.88 2188.54,-394.05 2178.15,-391.95 2179.11,-398.88"/>
</g>
<!-- [root] root&#45;&gt;[root] provider[&quot;registry.terraform.io/hashicorp/azurerm&quot;] (close) -->
<g id="edge50" class="edge">
<title>[root] root&#45;&gt;[root] provider[&quot;registry.terraform.io/hashicorp/azurerm&quot;] (close)</title>
<path fill="none" stroke="black" d="M1745.9,-442.1C1679.73,-431.5 1551.09,-410.89 1458.81,-396.11"/>
<polygon fill="black" stroke="black" points="1459.3,-392.64 1448.87,-394.52 1458.19,-399.55 1459.3,-392.64"/>
</g>
</g>
</svg>
