<?xml version="1.0" encoding="UTF-8" standalone="no"?>
<!DOCTYPE svg PUBLIC "-//W3C//DTD SVG 1.1//EN"
 "http://www.w3.org/Graphics/SVG/1.1/DTD/svg11.dtd">
<!-- Generated by graphviz version 2.44.1 (20200629.0846)
 -->
<!-- Pages: 1 -->
<svg width="1371pt" height="404pt"
 viewBox="0.00 0.00 1370.81 404.00" xmlns="http://www.w3.org/2000/svg" xmlns:xlink="http://www.w3.org/1999/xlink">
<g id="graph0" class="graph" transform="scale(1 1) rotate(0) translate(4 400)">
<polygon fill="white" stroke="transparent" points="-4,4 -4,-400 1366.81,-400 1366.81,4 -4,4"/>
<!-- [root] helm_release.cert_manager (expand) -->
<g id="node1" class="node">
<title>[root] helm_release.cert_manager (expand)</title>
<polygon fill="none" stroke="black" points="666.78,-180 499.78,-180 499.78,-144 666.78,-144 666.78,-180"/>
<text text-anchor="middle" x="583.28" y="-158.3" font-family="Times,serif" font-size="14.00">helm_release.cert_manager</text>
</g>
<!-- [root] kubernetes_namespace.this (expand) -->
<g id="node3" class="node">
<title>[root] kubernetes_namespace.this (expand)</title>
<polygon fill="none" stroke="black" points="1070.78,-108 905.78,-108 905.78,-72 1070.78,-72 1070.78,-108"/>
<text text-anchor="middle" x="988.28" y="-86.3" font-family="Times,serif" font-size="14.00">kubernetes_namespace.this</text>
</g>
<!-- [root] helm_release.cert_manager (expand)&#45;&gt;[root] kubernetes_namespace.this (expand) -->
<g id="edge1" class="edge">
<title>[root] helm_release.cert_manager (expand)&#45;&gt;[root] kubernetes_namespace.this (expand)</title>
<path fill="none" stroke="black" d="M666.93,-145.66C670.08,-145.1 673.21,-144.54 676.28,-144 749.83,-131.03 833.24,-116.89 895.3,-106.48"/>
<polygon fill="black" stroke="black" points="896.18,-109.88 905.46,-104.78 895.02,-102.98 896.18,-109.88"/>
</g>
<!-- [root] provider[&quot;registry.terraform.io/hashicorp/helm&quot;] -->
<g id="node4" class="node">
<title>[root] provider[&quot;registry.terraform.io/hashicorp/helm&quot;]</title>
<polygon fill="none" stroke="black" points="258.28,-108 0.22,-90 258.28,-72 516.35,-90 258.28,-108"/>
<text text-anchor="middle" x="258.28" y="-86.3" font-family="Times,serif" font-size="14.00">provider[&quot;registry.terraform.io/hashicorp/helm&quot;]</text>
</g>
<!-- [root] helm_release.cert_manager (expand)&#45;&gt;[root] provider[&quot;registry.terraform.io/hashicorp/helm&quot;] -->
<g id="edge2" class="edge">
<title>[root] helm_release.cert_manager (expand)&#45;&gt;[root] provider[&quot;registry.terraform.io/hashicorp/helm&quot;]</title>
<path fill="none" stroke="black" d="M504.19,-143.97C450.38,-132.37 379.82,-117.18 328.09,-106.04"/>
<polygon fill="black" stroke="black" points="328.52,-102.55 318.01,-103.86 327.05,-109.39 328.52,-102.55"/>
</g>
<!-- [root] var.aws_config -->
<g id="node7" class="node">
<title>[root] var.aws_config</title>
<polygon fill="none" stroke="black" points="626.28,-108 534.28,-108 534.28,-72 632.28,-72 632.28,-102 626.28,-108"/>
<polyline fill="none" stroke="black" points="626.28,-108 626.28,-102 "/>
<polyline fill="none" stroke="black" points="632.28,-102 626.28,-102 "/>
<text text-anchor="middle" x="583.28" y="-86.3" font-family="Times,serif" font-size="14.00">var.aws_config</text>
</g>
<!-- [root] helm_release.cert_manager (expand)&#45;&gt;[root] var.aws_config -->
<g id="edge3" class="edge">
<title>[root] helm_release.cert_manager (expand)&#45;&gt;[root] var.aws_config</title>
<path fill="none" stroke="black" d="M583.28,-143.7C583.28,-135.98 583.28,-126.71 583.28,-118.11"/>
<polygon fill="black" stroke="black" points="586.78,-118.1 583.28,-108.1 579.78,-118.1 586.78,-118.1"/>
</g>
<!-- [root] var.cloud_provider -->
<g id="node9" class="node">
<title>[root] var.cloud_provider</title>
<polygon fill="none" stroke="black" points="763.78,-108 650.78,-108 650.78,-72 769.78,-72 769.78,-102 763.78,-108"/>
<polyline fill="none" stroke="black" points="763.78,-108 763.78,-102 "/>
<polyline fill="none" stroke="black" points="769.78,-102 763.78,-102 "/>
<text text-anchor="middle" x="710.28" y="-86.3" font-family="Times,serif" font-size="14.00">var.cloud_provider</text>
</g>
<!-- [root] helm_release.cert_manager (expand)&#45;&gt;[root] var.cloud_provider -->
<g id="edge4" class="edge">
<title>[root] helm_release.cert_manager (expand)&#45;&gt;[root] var.cloud_provider</title>
<path fill="none" stroke="black" d="M614.35,-143.88C631.11,-134.64 651.99,-123.13 669.99,-113.21"/>
<polygon fill="black" stroke="black" points="672.03,-116.08 679.1,-108.19 668.65,-109.95 672.03,-116.08"/>
</g>
<!-- [root] helm_release.cert_manager_extras (expand) -->
<g id="node2" class="node">
<title>[root] helm_release.cert_manager_extras (expand)</title>
<polygon fill="none" stroke="black" points="841.28,-252 635.28,-252 635.28,-216 841.28,-216 841.28,-252"/>
<text text-anchor="middle" x="738.28" y="-230.3" font-family="Times,serif" font-size="14.00">helm_release.cert_manager_extras</text>
</g>
<!-- [root] helm_release.cert_manager_extras (expand)&#45;&gt;[root] helm_release.cert_manager (expand) -->
<g id="edge5" class="edge">
<title>[root] helm_release.cert_manager_extras (expand)&#45;&gt;[root] helm_release.cert_manager (expand)</title>
<path fill="none" stroke="black" d="M700.37,-215.88C679.27,-206.35 652.83,-194.41 630.41,-184.28"/>
<polygon fill="black" stroke="black" points="631.63,-180.99 621.08,-180.07 628.75,-187.37 631.63,-180.99"/>
</g>
<!-- [root] var.acme_server -->
<g id="node6" class="node">
<title>[root] var.acme_server</title>
<polygon fill="none" stroke="black" points="785.28,-180 685.28,-180 685.28,-144 791.28,-144 791.28,-174 785.28,-180"/>
<polyline fill="none" stroke="black" points="785.28,-180 785.28,-174 "/>
<polyline fill="none" stroke="black" points="791.28,-174 785.28,-174 "/>
<text text-anchor="middle" x="738.28" y="-158.3" font-family="Times,serif" font-size="14.00">var.acme_server</text>
</g>
<!-- [root] helm_release.cert_manager_extras (expand)&#45;&gt;[root] var.acme_server -->
<g id="edge6" class="edge">
<title>[root] helm_release.cert_manager_extras (expand)&#45;&gt;[root] var.acme_server</title>
<path fill="none" stroke="black" d="M738.28,-215.7C738.28,-207.98 738.28,-198.71 738.28,-190.11"/>
<polygon fill="black" stroke="black" points="741.78,-190.1 738.28,-180.1 734.78,-190.1 741.78,-190.1"/>
</g>
<!-- [root] var.azure_config -->
<g id="node8" class="node">
<title>[root] var.azure_config</title>
<polygon fill="none" stroke="black" points="910.78,-180 809.78,-180 809.78,-144 916.78,-144 916.78,-174 910.78,-180"/>
<polyline fill="none" stroke="black" points="910.78,-180 910.78,-174 "/>
<polyline fill="none" stroke="black" points="916.78,-174 910.78,-174 "/>
<text text-anchor="middle" x="863.28" y="-158.3" font-family="Times,serif" font-size="14.00">var.azure_config</text>
</g>
<!-- [root] helm_release.cert_manager_extras (expand)&#45;&gt;[root] var.azure_config -->
<g id="edge7" class="edge">
<title>[root] helm_release.cert_manager_extras (expand)&#45;&gt;[root] var.azure_config</title>
<path fill="none" stroke="black" d="M768.86,-215.88C785.36,-206.64 805.91,-195.13 823.62,-185.21"/>
<polygon fill="black" stroke="black" points="825.57,-188.13 832.59,-180.19 822.15,-182.02 825.57,-188.13"/>
</g>
<!-- [root] var.notification_email -->
<g id="node10" class="node">
<title>[root] var.notification_email</title>
<polygon fill="none" stroke="black" points="1065.28,-180 935.28,-180 935.28,-144 1071.28,-144 1071.28,-174 1065.28,-180"/>
<polyline fill="none" stroke="black" points="1065.28,-180 1065.28,-174 "/>
<polyline fill="none" stroke="black" points="1071.28,-174 1065.28,-174 "/>
<text text-anchor="middle" x="1003.28" y="-158.3" font-family="Times,serif" font-size="14.00">var.notification_email</text>
</g>
<!-- [root] helm_release.cert_manager_extras (expand)&#45;&gt;[root] var.notification_email -->
<g id="edge8" class="edge">
<title>[root] helm_release.cert_manager_extras (expand)&#45;&gt;[root] var.notification_email</title>
<path fill="none" stroke="black" d="M802.77,-215.97C840.76,-205.93 888.99,-193.19 928.63,-182.72"/>
<polygon fill="black" stroke="black" points="929.73,-186.05 938.51,-180.11 927.94,-179.28 929.73,-186.05"/>
</g>
<!-- [root] provider[&quot;registry.terraform.io/hashicorp/kubernetes&quot;] -->
<g id="node5" class="node">
<title>[root] provider[&quot;registry.terraform.io/hashicorp/kubernetes&quot;]</title>
<polygon fill="none" stroke="black" points="773.28,-36 486.73,-18 773.28,0 1059.84,-18 773.28,-36"/>
<text text-anchor="middle" x="773.28" y="-14.3" font-family="Times,serif" font-size="14.00">provider[&quot;registry.terraform.io/hashicorp/kubernetes&quot;]</text>
</g>
<!-- [root] kubernetes_namespace.this (expand)&#45;&gt;[root] provider[&quot;registry.terraform.io/hashicorp/kubernetes&quot;] -->
<g id="edge10" class="edge">
<title>[root] kubernetes_namespace.this (expand)&#45;&gt;[root] provider[&quot;registry.terraform.io/hashicorp/kubernetes&quot;]</title>
<path fill="none" stroke="black" d="M935.96,-71.97C902.82,-61.17 860.07,-47.25 826.71,-36.39"/>
<polygon fill="black" stroke="black" points="827.71,-33.04 817.12,-33.27 825.55,-39.7 827.71,-33.04"/>
</g>
<!-- [root] local.namespace (expand) -->
<g id="node11" class="node">
<title>[root] local.namespace (expand)</title>
<ellipse fill="none" stroke="black" cx="1203.28" cy="-18" rx="125.38" ry="18"/>
<text text-anchor="middle" x="1203.28" y="-14.3" font-family="Times,serif" font-size="14.00">[root] local.namespace (expand)</text>
</g>
<!-- [root] kubernetes_namespace.this (expand)&#45;&gt;[root] local.namespace (expand) -->
<g id="edge9" class="edge">
<title>[root] kubernetes_namespace.this (expand)&#45;&gt;[root] local.namespace (expand)</title>
<path fill="none" stroke="black" d="M1040.6,-71.97C1072.26,-61.66 1112.67,-48.5 1145.29,-37.88"/>
<polygon fill="black" stroke="black" points="1146.72,-41.1 1155.15,-34.67 1144.56,-34.44 1146.72,-41.1"/>
</g>
<!-- [root] meta.count&#45;boundary (EachMode fixup) -->
<g id="node12" class="node">
<title>[root] meta.count&#45;boundary (EachMode fixup)</title>
<ellipse fill="none" stroke="black" cx="426.28" cy="-306" rx="176.27" ry="18"/>
<text text-anchor="middle" x="426.28" y="-302.3" font-family="Times,serif" font-size="14.00">[root] meta.count&#45;boundary (EachMode fixup)</text>
</g>
<!-- [root] meta.count&#45;boundary (EachMode fixup)&#45;&gt;[root] helm_release.cert_manager_extras (expand) -->
<g id="edge11" class="edge">
<title>[root] meta.count&#45;boundary (EachMode fixup)&#45;&gt;[root] helm_release.cert_manager_extras (expand)</title>
<path fill="none" stroke="black" d="M495.91,-289.38C542.12,-279.01 603.09,-265.33 652.31,-254.29"/>
<polygon fill="black" stroke="black" points="653.32,-257.65 662.31,-252.04 651.79,-250.82 653.32,-257.65"/>
</g>
<!-- [root] provider[&quot;registry.terraform.io/hashicorp/helm&quot;] (close) -->
<g id="node13" class="node">
<title>[root] provider[&quot;registry.terraform.io/hashicorp/helm&quot;] (close)</title>
<ellipse fill="none" stroke="black" cx="852.28" cy="-306" rx="231.26" ry="18"/>
<text text-anchor="middle" x="852.28" y="-302.3" font-family="Times,serif" font-size="14.00">[root] provider[&quot;registry.terraform.io/hashicorp/helm&quot;] (close)</text>
</g>
<!-- [root] provider[&quot;registry.terraform.io/hashicorp/helm&quot;] (close)&#45;&gt;[root] helm_release.cert_manager_extras (expand) -->
<g id="edge12" class="edge">
<title>[root] provider[&quot;registry.terraform.io/hashicorp/helm&quot;] (close)&#45;&gt;[root] helm_release.cert_manager_extras (expand)</title>
<path fill="none" stroke="black" d="M824.69,-288.05C809.68,-278.84 790.92,-267.32 774.72,-257.37"/>
<polygon fill="black" stroke="black" points="776.37,-254.28 766.02,-252.03 772.71,-260.25 776.37,-254.28"/>
</g>
<!-- [root] provider[&quot;registry.terraform.io/hashicorp/kubernetes&quot;] (close) -->
<g id="node14" class="node">
<title>[root] provider[&quot;registry.terraform.io/hashicorp/kubernetes&quot;] (close)</title>
<ellipse fill="none" stroke="black" cx="1111.28" cy="-234" rx="251.56" ry="18"/>
<text text-anchor="middle" x="1111.28" y="-230.3" font-family="Times,serif" font-size="14.00">[root] provider[&quot;registry.terraform.io/hashicorp/kubernetes&quot;] (close)</text>
</g>
<!-- [root] provider[&quot;registry.terraform.io/hashicorp/kubernetes&quot;] (close)&#45;&gt;[root] kubernetes_namespace.this (expand) -->
<g id="edge13" class="edge">
<title>[root] provider[&quot;registry.terraform.io/hashicorp/kubernetes&quot;] (close)&#45;&gt;[root] kubernetes_namespace.this (expand)</title>
<path fill="none" stroke="black" d="M1108.97,-215.84C1105.59,-196.51 1097.71,-165.04 1080.28,-144 1069.67,-131.19 1055.1,-120.82 1040.69,-112.77"/>
<polygon fill="black" stroke="black" points="1042.25,-109.63 1031.77,-108.05 1038.98,-115.82 1042.25,-109.63"/>
</g>
<!-- [root] root -->
<g id="node15" class="node">
<title>[root] root</title>
<ellipse fill="none" stroke="black" cx="852.28" cy="-378" rx="47.39" ry="18"/>
<text text-anchor="middle" x="852.28" y="-374.3" font-family="Times,serif" font-size="14.00">[root] root</text>
</g>
<!-- [root] root&#45;&gt;[root] meta.count&#45;boundary (EachMode fixup) -->
<g id="edge14" class="edge">
<title>[root] root&#45;&gt;[root] meta.count&#45;boundary (EachMode fixup)</title>
<path fill="none" stroke="black" d="M809.49,-369.97C743.49,-359.12 615.12,-338.03 525.21,-323.26"/>
<polygon fill="black" stroke="black" points="525.71,-319.79 515.27,-321.62 524.57,-326.7 525.71,-319.79"/>
</g>
<!-- [root] root&#45;&gt;[root] provider[&quot;registry.terraform.io/hashicorp/helm&quot;] (close) -->
<g id="edge15" class="edge">
<title>[root] root&#45;&gt;[root] provider[&quot;registry.terraform.io/hashicorp/helm&quot;] (close)</title>
<path fill="none" stroke="black" d="M852.28,-359.7C852.28,-351.98 852.28,-342.71 852.28,-334.11"/>
<polygon fill="black" stroke="black" points="855.78,-334.1 852.28,-324.1 848.78,-334.1 855.78,-334.1"/>
</g>
<!-- [root] root&#45;&gt;[root] provider[&quot;registry.terraform.io/hashicorp/kubernetes&quot;] (close) -->
<g id="edge16" class="edge">
<title>[root] root&#45;&gt;[root] provider[&quot;registry.terraform.io/hashicorp/kubernetes&quot;] (close)</title>
<path fill="none" stroke="black" d="M897.83,-372.77C959.65,-366.09 1065.49,-350.99 1092.28,-324 1108.16,-308.01 1112.24,-282.22 1112.75,-262.51"/>
<polygon fill="black" stroke="black" points="1116.25,-262.27 1112.71,-252.29 1109.25,-262.3 1116.25,-262.27"/>
</g>
</g>
</svg>
