<?xml version="1.0" encoding="UTF-8" standalone="no"?>
<!DOCTYPE svg PUBLIC "-//W3C//DTD SVG 1.1//EN"
 "http://www.w3.org/Graphics/SVG/1.1/DTD/svg11.dtd">
<!-- Generated by graphviz version 2.44.1 (20200629.0846)
 -->
<!-- Pages: 1 -->
<svg width="1663pt" height="332pt"
 viewBox="0.00 0.00 1662.72 332.00" xmlns="http://www.w3.org/2000/svg" xmlns:xlink="http://www.w3.org/1999/xlink">
<g id="graph0" class="graph" transform="scale(1 1) rotate(0) translate(4 328)">
<polygon fill="white" stroke="transparent" points="-4,4 -4,-328 1658.72,-328 1658.72,4 -4,4"/>
<!-- [root] helm_release.datadog (expand) -->
<g id="node1" class="node">
<title>[root] helm_release.datadog (expand)</title>
<polygon fill="none" stroke="black" points="710.78,-180 575.78,-180 575.78,-144 710.78,-144 710.78,-180"/>
<text text-anchor="middle" x="643.28" y="-158.3" font-family="Times,serif" font-size="14.00">helm_release.datadog</text>
</g>
<!-- [root] kubernetes_namespace.this (expand) -->
<g id="node2" class="node">
<title>[root] kubernetes_namespace.this (expand)</title>
<polygon fill="none" stroke="black" points="1181.78,-108 1016.78,-108 1016.78,-72 1181.78,-72 1181.78,-108"/>
<text text-anchor="middle" x="1099.28" y="-86.3" font-family="Times,serif" font-size="14.00">kubernetes_namespace.this</text>
</g>
<!-- [root] helm_release.datadog (expand)&#45;&gt;[root] kubernetes_namespace.this (expand) -->
<g id="edge1" class="edge">
<title>[root] helm_release.datadog (expand)&#45;&gt;[root] kubernetes_namespace.this (expand)</title>
<path fill="none" stroke="black" d="M711.06,-150.6C789.42,-138.57 918.83,-118.7 1006.49,-105.24"/>
<polygon fill="black" stroke="black" points="1007.08,-108.7 1016.43,-103.72 1006.02,-101.78 1007.08,-108.7"/>
</g>
<!-- [root] provider[&quot;registry.terraform.io/hashicorp/helm&quot;] -->
<g id="node3" class="node">
<title>[root] provider[&quot;registry.terraform.io/hashicorp/helm&quot;]</title>
<polygon fill="none" stroke="black" points="258.28,-108 0.22,-90 258.28,-72 516.35,-90 258.28,-108"/>
<text text-anchor="middle" x="258.28" y="-86.3" font-family="Times,serif" font-size="14.00">provider[&quot;registry.terraform.io/hashicorp/helm&quot;]</text>
</g>
<!-- [root] helm_release.datadog (expand)&#45;&gt;[root] provider[&quot;registry.terraform.io/hashicorp/helm&quot;] -->
<g id="edge3" class="edge">
<title>[root] helm_release.datadog (expand)&#45;&gt;[root] provider[&quot;registry.terraform.io/hashicorp/helm&quot;]</title>
<path fill="none" stroke="black" d="M575.78,-148.73C508.87,-136.56 406.48,-117.94 336.16,-105.16"/>
<polygon fill="black" stroke="black" points="336.5,-101.66 326.03,-103.32 335.24,-108.55 336.5,-101.66"/>
</g>
<!-- [root] local.values (expand) -->
<g id="node9" class="node">
<title>[root] local.values (expand)</title>
<ellipse fill="none" stroke="black" cx="643.28" cy="-90" rx="108.58" ry="18"/>
<text text-anchor="middle" x="643.28" y="-86.3" font-family="Times,serif" font-size="14.00">[root] local.values (expand)</text>
</g>
<!-- [root] helm_release.datadog (expand)&#45;&gt;[root] local.values (expand) -->
<g id="edge2" class="edge">
<title>[root] helm_release.datadog (expand)&#45;&gt;[root] local.values (expand)</title>
<path fill="none" stroke="black" d="M643.28,-143.7C643.28,-135.98 643.28,-126.71 643.28,-118.11"/>
<polygon fill="black" stroke="black" points="646.78,-118.1 643.28,-108.1 639.78,-118.1 646.78,-118.1"/>
</g>
<!-- [root] provider[&quot;registry.terraform.io/hashicorp/kubernetes&quot;] -->
<g id="node4" class="node">
<title>[root] provider[&quot;registry.terraform.io/hashicorp/kubernetes&quot;]</title>
<polygon fill="none" stroke="black" points="1099.28,-36 812.73,-18 1099.28,0 1385.84,-18 1099.28,-36"/>
<text text-anchor="middle" x="1099.28" y="-14.3" font-family="Times,serif" font-size="14.00">provider[&quot;registry.terraform.io/hashicorp/kubernetes&quot;]</text>
</g>
<!-- [root] kubernetes_namespace.this (expand)&#45;&gt;[root] provider[&quot;registry.terraform.io/hashicorp/kubernetes&quot;] -->
<g id="edge5" class="edge">
<title>[root] kubernetes_namespace.this (expand)&#45;&gt;[root] provider[&quot;registry.terraform.io/hashicorp/kubernetes&quot;]</title>
<path fill="none" stroke="black" d="M1099.28,-71.7C1099.28,-63.98 1099.28,-54.71 1099.28,-46.11"/>
<polygon fill="black" stroke="black" points="1102.78,-46.1 1099.28,-36.1 1095.78,-46.1 1102.78,-46.1"/>
</g>
<!-- [root] local.namespace (expand) -->
<g id="node10" class="node">
<title>[root] local.namespace (expand)</title>
<ellipse fill="none" stroke="black" cx="1529.28" cy="-18" rx="125.38" ry="18"/>
<text text-anchor="middle" x="1529.28" y="-14.3" font-family="Times,serif" font-size="14.00">[root] local.namespace (expand)</text>
</g>
<!-- [root] kubernetes_namespace.this (expand)&#45;&gt;[root] local.namespace (expand) -->
<g id="edge4" class="edge">
<title>[root] kubernetes_namespace.this (expand)&#45;&gt;[root] local.namespace (expand)</title>
<path fill="none" stroke="black" d="M1181.94,-75.54C1255.83,-63.52 1363.86,-45.93 1439.78,-33.57"/>
<polygon fill="black" stroke="black" points="1440.49,-37 1449.8,-31.94 1439.37,-30.09 1440.49,-37"/>
</g>
<!-- [root] var.api_key -->
<g id="node5" class="node">
<title>[root] var.api_key</title>
<polygon fill="none" stroke="black" points="442.28,-36 368.28,-36 368.28,0 448.28,0 448.28,-30 442.28,-36"/>
<polyline fill="none" stroke="black" points="442.28,-36 442.28,-30 "/>
<polyline fill="none" stroke="black" points="448.28,-30 442.28,-30 "/>
<text text-anchor="middle" x="408.28" y="-14.3" font-family="Times,serif" font-size="14.00">var.api_key</text>
</g>
<!-- [root] var.datadog_site -->
<g id="node6" class="node">
<title>[root] var.datadog_site</title>
<polygon fill="none" stroke="black" points="565.78,-36 466.78,-36 466.78,0 571.78,0 571.78,-30 565.78,-36"/>
<polyline fill="none" stroke="black" points="565.78,-36 565.78,-30 "/>
<polyline fill="none" stroke="black" points="571.78,-30 565.78,-30 "/>
<text text-anchor="middle" x="519.28" y="-14.3" font-family="Times,serif" font-size="14.00">var.datadog_site</text>
</g>
<!-- [root] var.environment -->
<g id="node7" class="node">
<title>[root] var.environment</title>
<polygon fill="none" stroke="black" points="690.28,-36 590.28,-36 590.28,0 696.28,0 696.28,-30 690.28,-36"/>
<polyline fill="none" stroke="black" points="690.28,-36 690.28,-30 "/>
<polyline fill="none" stroke="black" points="696.28,-30 690.28,-30 "/>
<text text-anchor="middle" x="643.28" y="-14.3" font-family="Times,serif" font-size="14.00">var.environment</text>
</g>
<!-- [root] var.location -->
<g id="node8" class="node">
<title>[root] var.location</title>
<polygon fill="none" stroke="black" points="788.28,-36 714.28,-36 714.28,0 794.28,0 794.28,-30 788.28,-36"/>
<polyline fill="none" stroke="black" points="788.28,-36 788.28,-30 "/>
<polyline fill="none" stroke="black" points="794.28,-30 788.28,-30 "/>
<text text-anchor="middle" x="754.28" y="-14.3" font-family="Times,serif" font-size="14.00">var.location</text>
</g>
<!-- [root] local.values (expand)&#45;&gt;[root] var.api_key -->
<g id="edge6" class="edge">
<title>[root] local.values (expand)&#45;&gt;[root] var.api_key</title>
<path fill="none" stroke="black" d="M588.92,-74.38C553.95,-64.78 507.36,-51.61 457.93,-36.12"/>
<polygon fill="black" stroke="black" points="458.92,-32.77 448.33,-33.1 456.82,-39.44 458.92,-32.77"/>
</g>
<!-- [root] local.values (expand)&#45;&gt;[root] var.datadog_site -->
<g id="edge7" class="edge">
<title>[root] local.values (expand)&#45;&gt;[root] var.datadog_site</title>
<path fill="none" stroke="black" d="M614.21,-72.59C597.63,-63.23 576.62,-51.37 558.59,-41.19"/>
<polygon fill="black" stroke="black" points="559.9,-37.91 549.47,-36.04 556.46,-44 559.9,-37.91"/>
</g>
<!-- [root] local.values (expand)&#45;&gt;[root] var.environment -->
<g id="edge8" class="edge">
<title>[root] local.values (expand)&#45;&gt;[root] var.environment</title>
<path fill="none" stroke="black" d="M643.28,-71.7C643.28,-63.98 643.28,-54.71 643.28,-46.11"/>
<polygon fill="black" stroke="black" points="646.78,-46.1 643.28,-36.1 639.78,-46.1 646.78,-46.1"/>
</g>
<!-- [root] local.values (expand)&#45;&gt;[root] var.location -->
<g id="edge9" class="edge">
<title>[root] local.values (expand)&#45;&gt;[root] var.location</title>
<path fill="none" stroke="black" d="M669.59,-72.41C684.19,-63.2 702.57,-51.61 718.47,-41.59"/>
<polygon fill="black" stroke="black" points="720.42,-44.5 727.01,-36.2 716.68,-38.57 720.42,-44.5"/>
</g>
<!-- [root] meta.count&#45;boundary (EachMode fixup) -->
<g id="node11" class="node">
<title>[root] meta.count&#45;boundary (EachMode fixup)</title>
<ellipse fill="none" stroke="black" cx="414.28" cy="-234" rx="176.27" ry="18"/>
<text text-anchor="middle" x="414.28" y="-230.3" font-family="Times,serif" font-size="14.00">[root] meta.count&#45;boundary (EachMode fixup)</text>
</g>
<!-- [root] meta.count&#45;boundary (EachMode fixup)&#45;&gt;[root] helm_release.datadog (expand) -->
<g id="edge10" class="edge">
<title>[root] meta.count&#45;boundary (EachMode fixup)&#45;&gt;[root] helm_release.datadog (expand)</title>
<path fill="none" stroke="black" d="M467.4,-216.76C500.37,-206.69 542.98,-193.66 578,-182.95"/>
<polygon fill="black" stroke="black" points="579.13,-186.27 587.67,-180 577.08,-179.58 579.13,-186.27"/>
</g>
<!-- [root] provider[&quot;registry.terraform.io/hashicorp/helm&quot;] (close) -->
<g id="node12" class="node">
<title>[root] provider[&quot;registry.terraform.io/hashicorp/helm&quot;] (close)</title>
<ellipse fill="none" stroke="black" cx="840.28" cy="-234" rx="231.26" ry="18"/>
<text text-anchor="middle" x="840.28" y="-230.3" font-family="Times,serif" font-size="14.00">[root] provider[&quot;registry.terraform.io/hashicorp/helm&quot;] (close)</text>
</g>
<!-- [root] provider[&quot;registry.terraform.io/hashicorp/helm&quot;] (close)&#45;&gt;[root] helm_release.datadog (expand) -->
<g id="edge11" class="edge">
<title>[root] provider[&quot;registry.terraform.io/hashicorp/helm&quot;] (close)&#45;&gt;[root] helm_release.datadog (expand)</title>
<path fill="none" stroke="black" d="M793.35,-216.32C765.64,-206.48 730.35,-193.94 700.95,-183.49"/>
<polygon fill="black" stroke="black" points="701.82,-180.09 691.23,-180.04 699.48,-186.68 701.82,-180.09"/>
</g>
<!-- [root] provider[&quot;registry.terraform.io/hashicorp/kubernetes&quot;] (close) -->
<g id="node13" class="node">
<title>[root] provider[&quot;registry.terraform.io/hashicorp/kubernetes&quot;] (close)</title>
<ellipse fill="none" stroke="black" cx="1099.28" cy="-162" rx="251.56" ry="18"/>
<text text-anchor="middle" x="1099.28" y="-158.3" font-family="Times,serif" font-size="14.00">[root] provider[&quot;registry.terraform.io/hashicorp/kubernetes&quot;] (close)</text>
</g>
<!-- [root] provider[&quot;registry.terraform.io/hashicorp/kubernetes&quot;] (close)&#45;&gt;[root] kubernetes_namespace.this (expand) -->
<g id="edge12" class="edge">
<title>[root] provider[&quot;registry.terraform.io/hashicorp/kubernetes&quot;] (close)&#45;&gt;[root] kubernetes_namespace.this (expand)</title>
<path fill="none" stroke="black" d="M1099.28,-143.7C1099.28,-135.98 1099.28,-126.71 1099.28,-118.11"/>
<polygon fill="black" stroke="black" points="1102.78,-118.1 1099.28,-108.1 1095.78,-118.1 1102.78,-118.1"/>
</g>
<!-- [root] root -->
<g id="node14" class="node">
<title>[root] root</title>
<ellipse fill="none" stroke="black" cx="840.28" cy="-306" rx="47.39" ry="18"/>
<text text-anchor="middle" x="840.28" y="-302.3" font-family="Times,serif" font-size="14.00">[root] root</text>
</g>
<!-- [root] root&#45;&gt;[root] meta.count&#45;boundary (EachMode fixup) -->
<g id="edge13" class="edge">
<title>[root] root&#45;&gt;[root] meta.count&#45;boundary (EachMode fixup)</title>
<path fill="none" stroke="black" d="M797.49,-297.97C731.49,-287.12 603.12,-266.03 513.21,-251.26"/>
<polygon fill="black" stroke="black" points="513.71,-247.79 503.27,-249.62 512.57,-254.7 513.71,-247.79"/>
</g>
<!-- [root] root&#45;&gt;[root] provider[&quot;registry.terraform.io/hashicorp/helm&quot;] (close) -->
<g id="edge14" class="edge">
<title>[root] root&#45;&gt;[root] provider[&quot;registry.terraform.io/hashicorp/helm&quot;] (close)</title>
<path fill="none" stroke="black" d="M840.28,-287.7C840.28,-279.98 840.28,-270.71 840.28,-262.11"/>
<polygon fill="black" stroke="black" points="843.78,-262.1 840.28,-252.1 836.78,-262.1 843.78,-262.1"/>
</g>
<!-- [root] root&#45;&gt;[root] provider[&quot;registry.terraform.io/hashicorp/kubernetes&quot;] (close) -->
<g id="edge15" class="edge">
<title>[root] root&#45;&gt;[root] provider[&quot;registry.terraform.io/hashicorp/kubernetes&quot;] (close)</title>
<path fill="none" stroke="black" d="M885.83,-300.77C947.65,-294.09 1053.49,-278.99 1080.28,-252 1096.16,-236.01 1100.24,-210.22 1100.75,-190.51"/>
<polygon fill="black" stroke="black" points="1104.25,-190.27 1100.71,-180.29 1097.25,-190.3 1104.25,-190.27"/>
</g>
</g>
</svg>
