<?xml version="1.0" encoding="UTF-8" standalone="no"?>
<!DOCTYPE svg PUBLIC "-//W3C//DTD SVG 1.1//EN"
 "http://www.w3.org/Graphics/SVG/1.1/DTD/svg11.dtd">
<!-- Generated by graphviz version 2.44.1 (20200629.0846)
 -->
<!-- Pages: 1 -->
<svg width="2956pt" height="548pt"
 viewBox="0.00 0.00 2955.61 548.00" xmlns="http://www.w3.org/2000/svg" xmlns:xlink="http://www.w3.org/1999/xlink">
<g id="graph0" class="graph" transform="scale(1 1) rotate(0) translate(4 544)">
<polygon fill="white" stroke="transparent" points="-4,4 -4,-544 2951.61,-544 2951.61,4 -4,4"/>
<!-- [root] azurerm_storage_account.loki (expand) -->
<g id="node1" class="node">
<title>[root] azurerm_storage_account.loki (expand)</title>
<polygon fill="none" stroke="black" points="1043.33,-252 862.33,-252 862.33,-216 1043.33,-216 1043.33,-252"/>
<text text-anchor="middle" x="952.83" y="-230.3" font-family="Times,serif" font-size="14.00">azurerm_storage_account.loki</text>
</g>
<!-- [root] data.azurerm_resource_group.this (expand) -->
<g id="node3" class="node">
<title>[root] data.azurerm_resource_group.this (expand)</title>
<polygon fill="none" stroke="black" points="832.83,-180 630.83,-180 630.83,-144 832.83,-144 832.83,-180"/>
<text text-anchor="middle" x="731.83" y="-158.3" font-family="Times,serif" font-size="14.00">data.azurerm_resource_group.this</text>
</g>
<!-- [root] azurerm_storage_account.loki (expand)&#45;&gt;[root] data.azurerm_resource_group.this (expand) -->
<g id="edge1" class="edge">
<title>[root] azurerm_storage_account.loki (expand)&#45;&gt;[root] data.azurerm_resource_group.this (expand)</title>
<path fill="none" stroke="black" d="M899.05,-215.97C867.9,-206.1 828.5,-193.62 795.78,-183.25"/>
<polygon fill="black" stroke="black" points="796.44,-179.79 785.85,-180.11 794.33,-186.47 796.44,-179.79"/>
</g>
<!-- [root] var.storage_account_configuration -->
<g id="node23" class="node">
<title>[root] var.storage_account_configuration</title>
<polygon fill="none" stroke="black" points="1048.33,-180 851.33,-180 851.33,-144 1054.33,-144 1054.33,-174 1048.33,-180"/>
<polyline fill="none" stroke="black" points="1048.33,-180 1048.33,-174 "/>
<polyline fill="none" stroke="black" points="1054.33,-174 1048.33,-174 "/>
<text text-anchor="middle" x="952.83" y="-158.3" font-family="Times,serif" font-size="14.00">var.storage_account_configuration</text>
</g>
<!-- [root] azurerm_storage_account.loki (expand)&#45;&gt;[root] var.storage_account_configuration -->
<g id="edge3" class="edge">
<title>[root] azurerm_storage_account.loki (expand)&#45;&gt;[root] var.storage_account_configuration</title>
<path fill="none" stroke="black" d="M952.83,-215.7C952.83,-207.98 952.83,-198.71 952.83,-190.11"/>
<polygon fill="black" stroke="black" points="956.33,-190.1 952.83,-180.1 949.33,-190.1 956.33,-190.1"/>
</g>
<!-- [root] local.storage_account_name (expand) -->
<g id="node26" class="node">
<title>[root] local.storage_account_name (expand)</title>
<ellipse fill="none" stroke="black" cx="1082.83" cy="-90" rx="167.07" ry="18"/>
<text text-anchor="middle" x="1082.83" y="-86.3" font-family="Times,serif" font-size="14.00">[root] local.storage_account_name (expand)</text>
</g>
<!-- [root] azurerm_storage_account.loki (expand)&#45;&gt;[root] local.storage_account_name (expand) -->
<g id="edge2" class="edge">
<title>[root] azurerm_storage_account.loki (expand)&#45;&gt;[root] local.storage_account_name (expand)</title>
<path fill="none" stroke="black" d="M1012.04,-215.94C1030.76,-207.84 1049.9,-196.27 1062.83,-180 1076.65,-162.61 1081.33,-137.56 1082.73,-118.46"/>
<polygon fill="black" stroke="black" points="1086.24,-118.44 1083.22,-108.28 1079.25,-118.1 1086.24,-118.44"/>
</g>
<!-- [root] azurerm_storage_container.loki (expand) -->
<g id="node2" class="node">
<title>[root] azurerm_storage_container.loki (expand)</title>
<polygon fill="none" stroke="black" points="1047.83,-324 859.83,-324 859.83,-288 1047.83,-288 1047.83,-324"/>
<text text-anchor="middle" x="953.83" y="-302.3" font-family="Times,serif" font-size="14.00">azurerm_storage_container.loki</text>
</g>
<!-- [root] azurerm_storage_container.loki (expand)&#45;&gt;[root] azurerm_storage_account.loki (expand) -->
<g id="edge4" class="edge">
<title>[root] azurerm_storage_container.loki (expand)&#45;&gt;[root] azurerm_storage_account.loki (expand)</title>
<path fill="none" stroke="black" d="M953.58,-287.7C953.47,-279.98 953.34,-270.71 953.22,-262.11"/>
<polygon fill="black" stroke="black" points="956.71,-262.05 953.07,-252.1 949.72,-262.15 956.71,-262.05"/>
</g>
<!-- [root] var.storage_container_name -->
<g id="node25" class="node">
<title>[root] var.storage_container_name</title>
<polygon fill="none" stroke="black" points="837.83,-252 673.83,-252 673.83,-216 843.83,-216 843.83,-246 837.83,-252"/>
<polyline fill="none" stroke="black" points="837.83,-252 837.83,-246 "/>
<polyline fill="none" stroke="black" points="843.83,-246 837.83,-246 "/>
<text text-anchor="middle" x="758.83" y="-230.3" font-family="Times,serif" font-size="14.00">var.storage_container_name</text>
</g>
<!-- [root] azurerm_storage_container.loki (expand)&#45;&gt;[root] var.storage_container_name -->
<g id="edge5" class="edge">
<title>[root] azurerm_storage_container.loki (expand)&#45;&gt;[root] var.storage_container_name</title>
<path fill="none" stroke="black" d="M906.13,-287.88C878.88,-278.09 844.53,-265.77 815.86,-255.47"/>
<polygon fill="black" stroke="black" points="816.97,-252.15 806.38,-252.07 814.6,-258.74 816.97,-252.15"/>
</g>
<!-- [root] provider[&quot;registry.terraform.io/hashicorp/azurerm&quot;] -->
<g id="node7" class="node">
<title>[root] provider[&quot;registry.terraform.io/hashicorp/azurerm&quot;]</title>
<polygon fill="none" stroke="black" points="274.83,-108 0.17,-90 274.83,-72 549.48,-90 274.83,-108"/>
<text text-anchor="middle" x="274.83" y="-86.3" font-family="Times,serif" font-size="14.00">provider[&quot;registry.terraform.io/hashicorp/azurerm&quot;]</text>
</g>
<!-- [root] data.azurerm_resource_group.this (expand)&#45;&gt;[root] provider[&quot;registry.terraform.io/hashicorp/azurerm&quot;] -->
<g id="edge7" class="edge">
<title>[root] data.azurerm_resource_group.this (expand)&#45;&gt;[root] provider[&quot;registry.terraform.io/hashicorp/azurerm&quot;]</title>
<path fill="none" stroke="black" d="M630.69,-145.51C550.42,-133.21 439.36,-116.2 362.75,-104.47"/>
<polygon fill="black" stroke="black" points="363.07,-100.97 352.65,-102.92 362.01,-107.89 363.07,-100.97"/>
</g>
<!-- [root] local.resource_group_name (expand) -->
<g id="node27" class="node">
<title>[root] local.resource_group_name (expand)</title>
<ellipse fill="none" stroke="black" cx="732.83" cy="-90" rx="165.17" ry="18"/>
<text text-anchor="middle" x="732.83" y="-86.3" font-family="Times,serif" font-size="14.00">[root] local.resource_group_name (expand)</text>
</g>
<!-- [root] data.azurerm_resource_group.this (expand)&#45;&gt;[root] local.resource_group_name (expand) -->
<g id="edge6" class="edge">
<title>[root] data.azurerm_resource_group.this (expand)&#45;&gt;[root] local.resource_group_name (expand)</title>
<path fill="none" stroke="black" d="M732.08,-143.7C732.19,-135.98 732.32,-126.71 732.44,-118.11"/>
<polygon fill="black" stroke="black" points="735.94,-118.15 732.58,-108.1 728.94,-118.05 735.94,-118.15"/>
</g>
<!-- [root] helm_release.loki_stack (expand) -->
<g id="node4" class="node">
<title>[root] helm_release.loki_stack (expand)</title>
<polygon fill="none" stroke="black" points="1502.83,-396 1354.83,-396 1354.83,-360 1502.83,-360 1502.83,-396"/>
<text text-anchor="middle" x="1428.83" y="-374.3" font-family="Times,serif" font-size="14.00">helm_release.loki_stack</text>
</g>
<!-- [root] helm_release.loki_stack (expand)&#45;&gt;[root] azurerm_storage_container.loki (expand) -->
<g id="edge8" class="edge">
<title>[root] helm_release.loki_stack (expand)&#45;&gt;[root] azurerm_storage_container.loki (expand)</title>
<path fill="none" stroke="black" d="M1354.65,-366.92C1281.79,-356.91 1167.19,-340.87 1058.04,-324.17"/>
<polygon fill="black" stroke="black" points="1058.25,-320.66 1047.84,-322.6 1057.19,-327.58 1058.25,-320.66"/>
</g>
<!-- [root] helm_release.minio (expand) -->
<g id="node5" class="node">
<title>[root] helm_release.minio (expand)</title>
<polygon fill="none" stroke="black" points="1927.33,-324 1802.33,-324 1802.33,-288 1927.33,-288 1927.33,-324"/>
<text text-anchor="middle" x="1864.83" y="-302.3" font-family="Times,serif" font-size="14.00">helm_release.minio</text>
</g>
<!-- [root] helm_release.loki_stack (expand)&#45;&gt;[root] helm_release.minio (expand) -->
<g id="edge9" class="edge">
<title>[root] helm_release.loki_stack (expand)&#45;&gt;[root] helm_release.minio (expand)</title>
<path fill="none" stroke="black" d="M1503.04,-368.12C1574.59,-359.12 1686.08,-343.95 1792.15,-324.04"/>
<polygon fill="black" stroke="black" points="1792.89,-327.46 1802.07,-322.16 1791.59,-320.58 1792.89,-327.46"/>
</g>
<!-- [root] var.loki_helm_chart_name -->
<g id="node13" class="node">
<title>[root] var.loki_helm_chart_name</title>
<polygon fill="none" stroke="black" points="1223.33,-324 1066.33,-324 1066.33,-288 1229.33,-288 1229.33,-318 1223.33,-324"/>
<polyline fill="none" stroke="black" points="1223.33,-324 1223.33,-318 "/>
<polyline fill="none" stroke="black" points="1229.33,-318 1223.33,-318 "/>
<text text-anchor="middle" x="1147.83" y="-302.3" font-family="Times,serif" font-size="14.00">var.loki_helm_chart_name</text>
</g>
<!-- [root] helm_release.loki_stack (expand)&#45;&gt;[root] var.loki_helm_chart_name -->
<g id="edge10" class="edge">
<title>[root] helm_release.loki_stack (expand)&#45;&gt;[root] var.loki_helm_chart_name</title>
<path fill="none" stroke="black" d="M1360.45,-359.97C1319.99,-349.89 1268.59,-337.08 1226.46,-326.59"/>
<polygon fill="black" stroke="black" points="1227.07,-323.13 1216.52,-324.11 1225.37,-329.92 1227.07,-323.13"/>
</g>
<!-- [root] var.loki_helm_chart_version -->
<g id="node14" class="node">
<title>[root] var.loki_helm_chart_version</title>
<polygon fill="none" stroke="black" points="1414.33,-324 1247.33,-324 1247.33,-288 1420.33,-288 1420.33,-318 1414.33,-324"/>
<polyline fill="none" stroke="black" points="1414.33,-324 1414.33,-318 "/>
<polyline fill="none" stroke="black" points="1420.33,-318 1414.33,-318 "/>
<text text-anchor="middle" x="1333.83" y="-302.3" font-family="Times,serif" font-size="14.00">var.loki_helm_chart_version</text>
</g>
<!-- [root] helm_release.loki_stack (expand)&#45;&gt;[root] var.loki_helm_chart_version -->
<g id="edge11" class="edge">
<title>[root] helm_release.loki_stack (expand)&#45;&gt;[root] var.loki_helm_chart_version</title>
<path fill="none" stroke="black" d="M1405.34,-359.7C1393.27,-350.8 1378.37,-339.82 1365.31,-330.2"/>
<polygon fill="black" stroke="black" points="1367.17,-327.22 1357.04,-324.1 1363.02,-332.85 1367.17,-327.22"/>
</g>
<!-- [root] var.loki_helm_release_name -->
<g id="node15" class="node">
<title>[root] var.loki_helm_release_name</title>
<polygon fill="none" stroke="black" points="1605.33,-324 1438.33,-324 1438.33,-288 1611.33,-288 1611.33,-318 1605.33,-324"/>
<polyline fill="none" stroke="black" points="1605.33,-324 1605.33,-318 "/>
<polyline fill="none" stroke="black" points="1611.33,-318 1605.33,-318 "/>
<text text-anchor="middle" x="1524.83" y="-302.3" font-family="Times,serif" font-size="14.00">var.loki_helm_release_name</text>
</g>
<!-- [root] helm_release.loki_stack (expand)&#45;&gt;[root] var.loki_helm_release_name -->
<g id="edge12" class="edge">
<title>[root] helm_release.loki_stack (expand)&#45;&gt;[root] var.loki_helm_release_name</title>
<path fill="none" stroke="black" d="M1452.56,-359.7C1464.76,-350.8 1479.81,-339.82 1493.01,-330.2"/>
<polygon fill="black" stroke="black" points="1495.35,-332.82 1501.37,-324.1 1491.23,-327.17 1495.35,-332.82"/>
</g>
<!-- [root] var.loki_helm_repository -->
<g id="node16" class="node">
<title>[root] var.loki_helm_repository</title>
<polygon fill="none" stroke="black" points="1777.83,-324 1629.83,-324 1629.83,-288 1783.83,-288 1783.83,-318 1777.83,-324"/>
<polyline fill="none" stroke="black" points="1777.83,-324 1777.83,-318 "/>
<polyline fill="none" stroke="black" points="1783.83,-318 1777.83,-318 "/>
<text text-anchor="middle" x="1706.83" y="-302.3" font-family="Times,serif" font-size="14.00">var.loki_helm_repository</text>
</g>
<!-- [root] helm_release.loki_stack (expand)&#45;&gt;[root] var.loki_helm_repository -->
<g id="edge13" class="edge">
<title>[root] helm_release.loki_stack (expand)&#45;&gt;[root] var.loki_helm_repository</title>
<path fill="none" stroke="black" d="M1496.48,-359.97C1536.5,-349.89 1587.36,-337.08 1629.04,-326.59"/>
<polygon fill="black" stroke="black" points="1630.03,-329.95 1638.87,-324.11 1628.32,-323.16 1630.03,-329.95"/>
</g>
<!-- [root] helm_release.minio (expand)&#45;&gt;[root] azurerm_storage_account.loki (expand) -->
<g id="edge14" class="edge">
<title>[root] helm_release.minio (expand)&#45;&gt;[root] azurerm_storage_account.loki (expand)</title>
<path fill="none" stroke="black" d="M1802.13,-289.48C1798.99,-288.93 1795.88,-288.43 1792.83,-288 1469.69,-242.4 1381.39,-287.03 1053.67,-252.12"/>
<polygon fill="black" stroke="black" points="1053.72,-248.6 1043.4,-251.01 1052.97,-255.56 1053.72,-248.6"/>
</g>
<!-- [root] kubernetes_namespace.this (expand) -->
<g id="node6" class="node">
<title>[root] kubernetes_namespace.this (expand)</title>
<polygon fill="none" stroke="black" points="2541.33,-252 2376.33,-252 2376.33,-216 2541.33,-216 2541.33,-252"/>
<text text-anchor="middle" x="2458.83" y="-230.3" font-family="Times,serif" font-size="14.00">kubernetes_namespace.this</text>
</g>
<!-- [root] helm_release.minio (expand)&#45;&gt;[root] kubernetes_namespace.this (expand) -->
<g id="edge15" class="edge">
<title>[root] helm_release.minio (expand)&#45;&gt;[root] kubernetes_namespace.this (expand)</title>
<path fill="none" stroke="black" d="M1927.37,-300.02C2020.73,-292.24 2202.26,-275.73 2365.8,-252.24"/>
<polygon fill="black" stroke="black" points="2366.65,-255.65 2376.05,-250.75 2365.65,-248.72 2366.65,-255.65"/>
</g>
<!-- [root] provider[&quot;registry.terraform.io/hashicorp/helm&quot;] -->
<g id="node8" class="node">
<title>[root] provider[&quot;registry.terraform.io/hashicorp/helm&quot;]</title>
<polygon fill="none" stroke="black" points="1502.83,-252 1244.76,-234 1502.83,-216 1760.89,-234 1502.83,-252"/>
<text text-anchor="middle" x="1502.83" y="-230.3" font-family="Times,serif" font-size="14.00">provider[&quot;registry.terraform.io/hashicorp/helm&quot;]</text>
</g>
<!-- [root] helm_release.minio (expand)&#45;&gt;[root] provider[&quot;registry.terraform.io/hashicorp/helm&quot;] -->
<g id="edge16" class="edge">
<title>[root] helm_release.minio (expand)&#45;&gt;[root] provider[&quot;registry.terraform.io/hashicorp/helm&quot;]</title>
<path fill="none" stroke="black" d="M1802.04,-289.98C1798.93,-289.29 1795.85,-288.63 1792.83,-288 1722.74,-273.33 1642.65,-258.87 1584.41,-248.76"/>
<polygon fill="black" stroke="black" points="1584.98,-245.31 1574.53,-247.05 1583.79,-252.21 1584.98,-245.31"/>
</g>
<!-- [root] var.minio_helm_chart_name -->
<g id="node17" class="node">
<title>[root] var.minio_helm_chart_name</title>
<polygon fill="none" stroke="black" points="1946.83,-252 1778.83,-252 1778.83,-216 1952.83,-216 1952.83,-246 1946.83,-252"/>
<polyline fill="none" stroke="black" points="1946.83,-252 1946.83,-246 "/>
<polyline fill="none" stroke="black" points="1952.83,-246 1946.83,-246 "/>
<text text-anchor="middle" x="1865.83" y="-230.3" font-family="Times,serif" font-size="14.00">var.minio_helm_chart_name</text>
</g>
<!-- [root] helm_release.minio (expand)&#45;&gt;[root] var.minio_helm_chart_name -->
<g id="edge17" class="edge">
<title>[root] helm_release.minio (expand)&#45;&gt;[root] var.minio_helm_chart_name</title>
<path fill="none" stroke="black" d="M1865.08,-287.7C1865.19,-279.98 1865.32,-270.71 1865.44,-262.11"/>
<polygon fill="black" stroke="black" points="1868.94,-262.15 1865.58,-252.1 1861.94,-262.05 1868.94,-262.15"/>
</g>
<!-- [root] var.minio_helm_chart_version -->
<g id="node18" class="node">
<title>[root] var.minio_helm_chart_version</title>
<polygon fill="none" stroke="black" points="2148.83,-252 1970.83,-252 1970.83,-216 2154.83,-216 2154.83,-246 2148.83,-252"/>
<polyline fill="none" stroke="black" points="2148.83,-252 2148.83,-246 "/>
<polyline fill="none" stroke="black" points="2154.83,-246 2148.83,-246 "/>
<text text-anchor="middle" x="2062.83" y="-230.3" font-family="Times,serif" font-size="14.00">var.minio_helm_chart_version</text>
</g>
<!-- [root] helm_release.minio (expand)&#45;&gt;[root] var.minio_helm_chart_version -->
<g id="edge18" class="edge">
<title>[root] helm_release.minio (expand)&#45;&gt;[root] var.minio_helm_chart_version</title>
<path fill="none" stroke="black" d="M1913.01,-287.97C1940.68,-278.19 1975.6,-265.84 2004.78,-255.52"/>
<polygon fill="black" stroke="black" points="2006.17,-258.74 2014.43,-252.11 2003.83,-252.14 2006.17,-258.74"/>
</g>
<!-- [root] var.minio_helm_release_name -->
<g id="node19" class="node">
<title>[root] var.minio_helm_release_name</title>
<polygon fill="none" stroke="black" points="2352.33,-252 2173.33,-252 2173.33,-216 2358.33,-216 2358.33,-246 2352.33,-252"/>
<polyline fill="none" stroke="black" points="2352.33,-252 2352.33,-246 "/>
<polyline fill="none" stroke="black" points="2358.33,-246 2352.33,-246 "/>
<text text-anchor="middle" x="2265.83" y="-230.3" font-family="Times,serif" font-size="14.00">var.minio_helm_release_name</text>
</g>
<!-- [root] helm_release.minio (expand)&#45;&gt;[root] var.minio_helm_release_name -->
<g id="edge19" class="edge">
<title>[root] helm_release.minio (expand)&#45;&gt;[root] var.minio_helm_release_name</title>
<path fill="none" stroke="black" d="M1927.48,-294.06C1990.52,-283.06 2088.78,-265.91 2163.2,-252.92"/>
<polygon fill="black" stroke="black" points="2163.83,-256.36 2173.07,-251.19 2162.62,-249.46 2163.83,-256.36"/>
</g>
<!-- [root] var.minio_helm_repository -->
<g id="node20" class="node">
<title>[root] var.minio_helm_repository</title>
<polygon fill="none" stroke="black" points="1220.33,-252 1061.33,-252 1061.33,-216 1226.33,-216 1226.33,-246 1220.33,-252"/>
<polyline fill="none" stroke="black" points="1220.33,-252 1220.33,-246 "/>
<polyline fill="none" stroke="black" points="1226.33,-246 1220.33,-246 "/>
<text text-anchor="middle" x="1143.83" y="-230.3" font-family="Times,serif" font-size="14.00">var.minio_helm_repository</text>
</g>
<!-- [root] helm_release.minio (expand)&#45;&gt;[root] var.minio_helm_repository -->
<g id="edge20" class="edge">
<title>[root] helm_release.minio (expand)&#45;&gt;[root] var.minio_helm_repository</title>
<path fill="none" stroke="black" d="M1802.12,-289.54C1798.99,-288.97 1795.88,-288.46 1792.83,-288 1550.71,-251.85 1483.76,-281.78 1236.52,-251.98"/>
<polygon fill="black" stroke="black" points="1236.86,-248.5 1226.51,-250.75 1236.01,-255.45 1236.86,-248.5"/>
</g>
<!-- [root] provider[&quot;registry.terraform.io/hashicorp/kubernetes&quot;] -->
<g id="node9" class="node">
<title>[root] provider[&quot;registry.terraform.io/hashicorp/kubernetes&quot;]</title>
<polygon fill="none" stroke="black" points="2660.83,-180 2374.27,-162 2660.83,-144 2947.38,-162 2660.83,-180"/>
<text text-anchor="middle" x="2660.83" y="-158.3" font-family="Times,serif" font-size="14.00">provider[&quot;registry.terraform.io/hashicorp/kubernetes&quot;]</text>
</g>
<!-- [root] kubernetes_namespace.this (expand)&#45;&gt;[root] provider[&quot;registry.terraform.io/hashicorp/kubernetes&quot;] -->
<g id="edge21" class="edge">
<title>[root] kubernetes_namespace.this (expand)&#45;&gt;[root] provider[&quot;registry.terraform.io/hashicorp/kubernetes&quot;]</title>
<path fill="none" stroke="black" d="M2507.98,-215.97C2538.65,-205.34 2578.06,-191.68 2609.18,-180.9"/>
<polygon fill="black" stroke="black" points="2610.67,-184.08 2618.98,-177.5 2608.38,-177.47 2610.67,-184.08"/>
</g>
<!-- [root] var.kubernetes_namespace_name -->
<g id="node11" class="node">
<title>[root] var.kubernetes_namespace_name</title>
<polygon fill="none" stroke="black" points="2350.33,-180 2157.33,-180 2157.33,-144 2356.33,-144 2356.33,-174 2350.33,-180"/>
<polyline fill="none" stroke="black" points="2350.33,-180 2350.33,-174 "/>
<polyline fill="none" stroke="black" points="2356.33,-174 2350.33,-174 "/>
<text text-anchor="middle" x="2256.83" y="-158.3" font-family="Times,serif" font-size="14.00">var.kubernetes_namespace_name</text>
</g>
<!-- [root] kubernetes_namespace.this (expand)&#45;&gt;[root] var.kubernetes_namespace_name -->
<g id="edge22" class="edge">
<title>[root] kubernetes_namespace.this (expand)&#45;&gt;[root] var.kubernetes_namespace_name</title>
<path fill="none" stroke="black" d="M2409.67,-215.97C2381.32,-206.14 2345.5,-193.73 2315.67,-183.39"/>
<polygon fill="black" stroke="black" points="2316.8,-180.08 2306.2,-180.11 2314.51,-186.69 2316.8,-180.08"/>
</g>
<!-- [root] var.environment -->
<g id="node10" class="node">
<title>[root] var.environment</title>
<polygon fill="none" stroke="black" points="1061.83,-36 961.83,-36 961.83,0 1067.83,0 1067.83,-30 1061.83,-36"/>
<polyline fill="none" stroke="black" points="1061.83,-36 1061.83,-30 "/>
<polyline fill="none" stroke="black" points="1067.83,-30 1061.83,-30 "/>
<text text-anchor="middle" x="1014.83" y="-14.3" font-family="Times,serif" font-size="14.00">var.environment</text>
</g>
<!-- [root] var.location_short -->
<g id="node12" class="node">
<title>[root] var.location_short</title>
<polygon fill="none" stroke="black" points="851.83,-36 743.83,-36 743.83,0 857.83,0 857.83,-30 851.83,-36"/>
<polyline fill="none" stroke="black" points="851.83,-36 851.83,-30 "/>
<polyline fill="none" stroke="black" points="857.83,-30 851.83,-30 "/>
<text text-anchor="middle" x="800.83" y="-14.3" font-family="Times,serif" font-size="14.00">var.location_short</text>
</g>
<!-- [root] var.name -->
<g id="node21" class="node">
<title>[root] var.name</title>
<polygon fill="none" stroke="black" points="937.33,-36 876.33,-36 876.33,0 943.33,0 943.33,-30 937.33,-36"/>
<polyline fill="none" stroke="black" points="937.33,-36 937.33,-30 "/>
<polyline fill="none" stroke="black" points="943.33,-30 937.33,-30 "/>
<text text-anchor="middle" x="909.83" y="-14.3" font-family="Times,serif" font-size="14.00">var.name</text>
</g>
<!-- [root] var.resource_group_name -->
<g id="node22" class="node">
<title>[root] var.resource_group_name</title>
<polygon fill="none" stroke="black" points="719.83,-36 567.83,-36 567.83,0 725.83,0 725.83,-30 719.83,-36"/>
<polyline fill="none" stroke="black" points="719.83,-36 719.83,-30 "/>
<polyline fill="none" stroke="black" points="725.83,-30 719.83,-30 "/>
<text text-anchor="middle" x="646.83" y="-14.3" font-family="Times,serif" font-size="14.00">var.resource_group_name</text>
</g>
<!-- [root] var.storage_account_name -->
<g id="node24" class="node">
<title>[root] var.storage_account_name</title>
<polygon fill="none" stroke="black" points="1241.33,-36 1086.33,-36 1086.33,0 1247.33,0 1247.33,-30 1241.33,-36"/>
<polyline fill="none" stroke="black" points="1241.33,-36 1241.33,-30 "/>
<polyline fill="none" stroke="black" points="1247.33,-30 1241.33,-30 "/>
<text text-anchor="middle" x="1166.83" y="-14.3" font-family="Times,serif" font-size="14.00">var.storage_account_name</text>
</g>
<!-- [root] local.storage_account_name (expand)&#45;&gt;[root] var.environment -->
<g id="edge27" class="edge">
<title>[root] local.storage_account_name (expand)&#45;&gt;[root] var.environment</title>
<path fill="none" stroke="black" d="M1066.37,-72.05C1058.06,-63.5 1047.82,-52.96 1038.66,-43.54"/>
<polygon fill="black" stroke="black" points="1041.09,-41.01 1031.61,-36.28 1036.07,-45.89 1041.09,-41.01"/>
</g>
<!-- [root] local.storage_account_name (expand)&#45;&gt;[root] var.location_short -->
<g id="edge28" class="edge">
<title>[root] local.storage_account_name (expand)&#45;&gt;[root] var.location_short</title>
<path fill="none" stroke="black" d="M1018.04,-73.31C977.46,-63.43 923.82,-50.29 867.8,-36.23"/>
<polygon fill="black" stroke="black" points="868.61,-32.83 858.06,-33.78 866.9,-39.61 868.61,-32.83"/>
</g>
<!-- [root] local.storage_account_name (expand)&#45;&gt;[root] var.name -->
<g id="edge29" class="edge">
<title>[root] local.storage_account_name (expand)&#45;&gt;[root] var.name</title>
<path fill="none" stroke="black" d="M1041.83,-72.41C1015.02,-61.56 980.05,-47.41 952.84,-36.4"/>
<polygon fill="black" stroke="black" points="954.15,-33.16 943.56,-32.65 951.52,-39.65 954.15,-33.16"/>
</g>
<!-- [root] local.storage_account_name (expand)&#45;&gt;[root] var.storage_account_name -->
<g id="edge30" class="edge">
<title>[root] local.storage_account_name (expand)&#45;&gt;[root] var.storage_account_name</title>
<path fill="none" stroke="black" d="M1103.16,-72.05C1113.81,-63.18 1127.03,-52.17 1138.65,-42.48"/>
<polygon fill="black" stroke="black" points="1140.95,-45.12 1146.39,-36.03 1136.47,-39.74 1140.95,-45.12"/>
</g>
<!-- [root] local.resource_group_name (expand)&#45;&gt;[root] var.environment -->
<g id="edge23" class="edge">
<title>[root] local.resource_group_name (expand)&#45;&gt;[root] var.environment</title>
<path fill="none" stroke="black" d="M799.07,-73.45C842.56,-63.11 900.67,-49.09 951.83,-36 951.93,-35.97 952.03,-35.95 952.13,-35.92"/>
<polygon fill="black" stroke="black" points="952.78,-39.37 961.58,-33.47 951.02,-32.59 952.78,-39.37"/>
</g>
<!-- [root] local.resource_group_name (expand)&#45;&gt;[root] var.location_short -->
<g id="edge24" class="edge">
<title>[root] local.resource_group_name (expand)&#45;&gt;[root] var.location_short</title>
<path fill="none" stroke="black" d="M749.29,-72.05C757.6,-63.5 767.84,-52.96 776.99,-43.54"/>
<polygon fill="black" stroke="black" points="779.59,-45.89 784.05,-36.28 774.57,-41.01 779.59,-45.89"/>
</g>
<!-- [root] local.resource_group_name (expand)&#45;&gt;[root] var.name -->
<g id="edge25" class="edge">
<title>[root] local.resource_group_name (expand)&#45;&gt;[root] var.name</title>
<path fill="none" stroke="black" d="M774.77,-72.41C802.48,-61.45 838.7,-47.13 866.66,-36.07"/>
<polygon fill="black" stroke="black" points="868.16,-39.24 876.17,-32.31 865.59,-32.73 868.16,-39.24"/>
</g>
<!-- [root] local.resource_group_name (expand)&#45;&gt;[root] var.resource_group_name -->
<g id="edge26" class="edge">
<title>[root] local.resource_group_name (expand)&#45;&gt;[root] var.resource_group_name</title>
<path fill="none" stroke="black" d="M712.01,-72.05C701.1,-63.18 687.58,-52.17 675.68,-42.48"/>
<polygon fill="black" stroke="black" points="677.72,-39.63 667.75,-36.03 673.3,-45.06 677.72,-39.63"/>
</g>
<!-- [root] meta.count&#45;boundary (EachMode fixup) -->
<g id="node28" class="node">
<title>[root] meta.count&#45;boundary (EachMode fixup)</title>
<ellipse fill="none" stroke="black" cx="1247.83" cy="-450" rx="176.27" ry="18"/>
<text text-anchor="middle" x="1247.83" y="-446.3" font-family="Times,serif" font-size="14.00">[root] meta.count&#45;boundary (EachMode fixup)</text>
</g>
<!-- [root] meta.count&#45;boundary (EachMode fixup)&#45;&gt;[root] helm_release.loki_stack (expand) -->
<g id="edge31" class="edge">
<title>[root] meta.count&#45;boundary (EachMode fixup)&#45;&gt;[root] helm_release.loki_stack (expand)</title>
<path fill="none" stroke="black" d="M1290.72,-432.41C1315.95,-422.65 1348.09,-410.23 1375.01,-399.81"/>
<polygon fill="black" stroke="black" points="1376.6,-402.95 1384.67,-396.08 1374.08,-396.42 1376.6,-402.95"/>
</g>
<!-- [root] provider[&quot;registry.terraform.io/hashicorp/azurerm&quot;] (close) -->
<g id="node29" class="node">
<title>[root] provider[&quot;registry.terraform.io/hashicorp/azurerm&quot;] (close)</title>
<ellipse fill="none" stroke="black" cx="975.83" cy="-378" rx="243.16" ry="18"/>
<text text-anchor="middle" x="975.83" y="-374.3" font-family="Times,serif" font-size="14.00">[root] provider[&quot;registry.terraform.io/hashicorp/azurerm&quot;] (close)</text>
</g>
<!-- [root] provider[&quot;registry.terraform.io/hashicorp/azurerm&quot;] (close)&#45;&gt;[root] azurerm_storage_container.loki (expand) -->
<g id="edge32" class="edge">
<title>[root] provider[&quot;registry.terraform.io/hashicorp/azurerm&quot;] (close)&#45;&gt;[root] azurerm_storage_container.loki (expand)</title>
<path fill="none" stroke="black" d="M970.39,-359.7C967.94,-351.9 964.99,-342.51 962.26,-333.83"/>
<polygon fill="black" stroke="black" points="965.54,-332.59 959.2,-324.1 958.86,-334.69 965.54,-332.59"/>
</g>
<!-- [root] provider[&quot;registry.terraform.io/hashicorp/helm&quot;] (close) -->
<g id="node30" class="node">
<title>[root] provider[&quot;registry.terraform.io/hashicorp/helm&quot;] (close)</title>
<ellipse fill="none" stroke="black" cx="1673.83" cy="-450" rx="231.26" ry="18"/>
<text text-anchor="middle" x="1673.83" y="-446.3" font-family="Times,serif" font-size="14.00">[root] provider[&quot;registry.terraform.io/hashicorp/helm&quot;] (close)</text>
</g>
<!-- [root] provider[&quot;registry.terraform.io/hashicorp/helm&quot;] (close)&#45;&gt;[root] helm_release.loki_stack (expand) -->
<g id="edge33" class="edge">
<title>[root] provider[&quot;registry.terraform.io/hashicorp/helm&quot;] (close)&#45;&gt;[root] helm_release.loki_stack (expand)</title>
<path fill="none" stroke="black" d="M1616.08,-432.5C1580.88,-422.44 1535.68,-409.53 1498.51,-398.91"/>
<polygon fill="black" stroke="black" points="1499.33,-395.5 1488.75,-396.12 1497.4,-402.23 1499.33,-395.5"/>
</g>
<!-- [root] provider[&quot;registry.terraform.io/hashicorp/kubernetes&quot;] (close) -->
<g id="node31" class="node">
<title>[root] provider[&quot;registry.terraform.io/hashicorp/kubernetes&quot;] (close)</title>
<ellipse fill="none" stroke="black" cx="2074.83" cy="-378" rx="251.56" ry="18"/>
<text text-anchor="middle" x="2074.83" y="-374.3" font-family="Times,serif" font-size="14.00">[root] provider[&quot;registry.terraform.io/hashicorp/kubernetes&quot;] (close)</text>
</g>
<!-- [root] provider[&quot;registry.terraform.io/hashicorp/kubernetes&quot;] (close)&#45;&gt;[root] kubernetes_namespace.this (expand) -->
<g id="edge34" class="edge">
<title>[root] provider[&quot;registry.terraform.io/hashicorp/kubernetes&quot;] (close)&#45;&gt;[root] kubernetes_namespace.this (expand)</title>
<path fill="none" stroke="black" d="M2120.39,-360.15C2191.07,-334.02 2326.94,-283.77 2403.27,-255.54"/>
<polygon fill="black" stroke="black" points="2404.57,-258.8 2412.73,-252.05 2402.14,-252.23 2404.57,-258.8"/>
</g>
<!-- [root] root -->
<g id="node32" class="node">
<title>[root] root</title>
<ellipse fill="none" stroke="black" cx="1460.83" cy="-522" rx="47.39" ry="18"/>
<text text-anchor="middle" x="1460.83" y="-518.3" font-family="Times,serif" font-size="14.00">[root] root</text>
</g>
<!-- [root] root&#45;&gt;[root] meta.count&#45;boundary (EachMode fixup) -->
<g id="edge35" class="edge">
<title>[root] root&#45;&gt;[root] meta.count&#45;boundary (EachMode fixup)</title>
<path fill="none" stroke="black" d="M1426.13,-509.6C1393.96,-499.03 1345.44,-483.08 1307.13,-470.49"/>
<polygon fill="black" stroke="black" points="1308.22,-467.16 1297.62,-467.36 1306.03,-473.81 1308.22,-467.16"/>
</g>
<!-- [root] root&#45;&gt;[root] provider[&quot;registry.terraform.io/hashicorp/azurerm&quot;] (close) -->
<g id="edge36" class="edge">
<title>[root] root&#45;&gt;[root] provider[&quot;registry.terraform.io/hashicorp/azurerm&quot;] (close)</title>
<path fill="none" stroke="black" d="M1414.15,-518.59C1322.71,-513.26 1123.59,-498.45 1062.83,-468 1033.63,-453.36 1008.57,-424.98 992.96,-404.19"/>
<polygon fill="black" stroke="black" points="995.77,-402.1 987.05,-396.08 990.11,-406.22 995.77,-402.1"/>
</g>
<!-- [root] root&#45;&gt;[root] provider[&quot;registry.terraform.io/hashicorp/helm&quot;] (close) -->
<g id="edge37" class="edge">
<title>[root] root&#45;&gt;[root] provider[&quot;registry.terraform.io/hashicorp/helm&quot;] (close)</title>
<path fill="none" stroke="black" d="M1495.52,-509.6C1527.34,-499.14 1575.16,-483.43 1613.26,-470.9"/>
<polygon fill="black" stroke="black" points="1614.82,-474.08 1623.23,-467.63 1612.64,-467.43 1614.82,-474.08"/>
</g>
<!-- [root] root&#45;&gt;[root] provider[&quot;registry.terraform.io/hashicorp/kubernetes&quot;] (close) -->
<g id="edge38" class="edge">
<title>[root] root&#45;&gt;[root] provider[&quot;registry.terraform.io/hashicorp/kubernetes&quot;] (close)</title>
<path fill="none" stroke="black" d="M1508.39,-521.41C1592.33,-520.84 1771.34,-513.76 1913.83,-468 1961.64,-452.65 2011.45,-422.58 2042.77,-401.67"/>
<polygon fill="black" stroke="black" points="2044.78,-404.54 2051.09,-396.03 2040.85,-398.74 2044.78,-404.54"/>
</g>
</g>
</svg>
