<?xml version="1.0" encoding="UTF-8" standalone="no"?>
<!DOCTYPE svg PUBLIC "-//W3C//DTD SVG 1.1//EN"
 "http://www.w3.org/Graphics/SVG/1.1/DTD/svg11.dtd">
<!-- Generated by graphviz version 2.44.1 (20200629.0846)
 -->
<!-- Pages: 1 -->
<svg width="1643pt" height="332pt"
 viewBox="0.00 0.00 1643.06 332.00" xmlns="http://www.w3.org/2000/svg" xmlns:xlink="http://www.w3.org/1999/xlink">
<g id="graph0" class="graph" transform="scale(1 1) rotate(0) translate(4 328)">
<polygon fill="white" stroke="transparent" points="-4,4 -4,-328 1639.06,-328 1639.06,4 -4,4"/>
<!-- [root] helm_release.external_secrets (expand) -->
<g id="node1" class="node">
<title>[root] helm_release.external_secrets (expand)</title>
<polygon fill="none" stroke="black" points="690.78,-180 511.78,-180 511.78,-144 690.78,-144 690.78,-180"/>
<text text-anchor="middle" x="601.28" y="-158.3" font-family="Times,serif" font-size="14.00">helm_release.external_secrets</text>
</g>
<!-- [root] kubernetes_namespace.this (expand) -->
<g id="node2" class="node">
<title>[root] kubernetes_namespace.this (expand)</title>
<polygon fill="none" stroke="black" points="1021.78,-108 856.78,-108 856.78,-72 1021.78,-72 1021.78,-108"/>
<text text-anchor="middle" x="939.28" y="-86.3" font-family="Times,serif" font-size="14.00">kubernetes_namespace.this</text>
</g>
<!-- [root] helm_release.external_secrets (expand)&#45;&gt;[root] kubernetes_namespace.this (expand) -->
<g id="edge1" class="edge">
<title>[root] helm_release.external_secrets (expand)&#45;&gt;[root] kubernetes_namespace.this (expand)</title>
<path fill="none" stroke="black" d="M683.54,-143.97C732.91,-133.74 795.83,-120.71 846.91,-110.13"/>
<polygon fill="black" stroke="black" points="847.87,-113.51 856.96,-108.05 846.45,-106.65 847.87,-113.51"/>
</g>
<!-- [root] provider[&quot;registry.terraform.io/hashicorp/helm&quot;] -->
<g id="node3" class="node">
<title>[root] provider[&quot;registry.terraform.io/hashicorp/helm&quot;]</title>
<polygon fill="none" stroke="black" points="258.28,-108 0.22,-90 258.28,-72 516.35,-90 258.28,-108"/>
<text text-anchor="middle" x="258.28" y="-86.3" font-family="Times,serif" font-size="14.00">provider[&quot;registry.terraform.io/hashicorp/helm&quot;]</text>
</g>
<!-- [root] helm_release.external_secrets (expand)&#45;&gt;[root] provider[&quot;registry.terraform.io/hashicorp/helm&quot;] -->
<g id="edge3" class="edge">
<title>[root] helm_release.external_secrets (expand)&#45;&gt;[root] provider[&quot;registry.terraform.io/hashicorp/helm&quot;]</title>
<path fill="none" stroke="black" d="M517.81,-143.97C460.5,-132.27 385.2,-116.9 330.48,-105.73"/>
<polygon fill="black" stroke="black" points="331,-102.27 320.51,-103.7 329.6,-109.13 331,-102.27"/>
</g>
<!-- [root] local.values (expand) -->
<g id="node6" class="node">
<title>[root] local.values (expand)</title>
<ellipse fill="none" stroke="black" cx="643.28" cy="-90" rx="108.58" ry="18"/>
<text text-anchor="middle" x="643.28" y="-86.3" font-family="Times,serif" font-size="14.00">[root] local.values (expand)</text>
</g>
<!-- [root] helm_release.external_secrets (expand)&#45;&gt;[root] local.values (expand) -->
<g id="edge2" class="edge">
<title>[root] helm_release.external_secrets (expand)&#45;&gt;[root] local.values (expand)</title>
<path fill="none" stroke="black" d="M611.67,-143.7C616.55,-135.56 622.47,-125.69 627.86,-116.7"/>
<polygon fill="black" stroke="black" points="630.88,-118.48 633.02,-108.1 624.87,-114.88 630.88,-118.48"/>
</g>
<!-- [root] provider[&quot;registry.terraform.io/hashicorp/kubernetes&quot;] -->
<g id="node4" class="node">
<title>[root] provider[&quot;registry.terraform.io/hashicorp/kubernetes&quot;]</title>
<polygon fill="none" stroke="black" points="1348.28,-36 1061.73,-18 1348.28,0 1634.84,-18 1348.28,-36"/>
<text text-anchor="middle" x="1348.28" y="-14.3" font-family="Times,serif" font-size="14.00">provider[&quot;registry.terraform.io/hashicorp/kubernetes&quot;]</text>
</g>
<!-- [root] kubernetes_namespace.this (expand)&#45;&gt;[root] provider[&quot;registry.terraform.io/hashicorp/kubernetes&quot;] -->
<g id="edge5" class="edge">
<title>[root] kubernetes_namespace.this (expand)&#45;&gt;[root] provider[&quot;registry.terraform.io/hashicorp/kubernetes&quot;]</title>
<path fill="none" stroke="black" d="M1022.05,-74.83C1092.91,-62.71 1194.43,-45.33 1265.34,-33.2"/>
<polygon fill="black" stroke="black" points="1266.3,-36.58 1275.57,-31.44 1265.12,-29.68 1266.3,-36.58"/>
</g>
<!-- [root] local.namespace (expand) -->
<g id="node7" class="node">
<title>[root] local.namespace (expand)</title>
<ellipse fill="none" stroke="black" cx="918.28" cy="-18" rx="125.38" ry="18"/>
<text text-anchor="middle" x="918.28" y="-14.3" font-family="Times,serif" font-size="14.00">[root] local.namespace (expand)</text>
</g>
<!-- [root] kubernetes_namespace.this (expand)&#45;&gt;[root] local.namespace (expand) -->
<g id="edge4" class="edge">
<title>[root] kubernetes_namespace.this (expand)&#45;&gt;[root] local.namespace (expand)</title>
<path fill="none" stroke="black" d="M934.09,-71.7C931.75,-63.9 928.94,-54.51 926.33,-45.83"/>
<polygon fill="black" stroke="black" points="929.64,-44.68 923.41,-36.1 922.94,-46.69 929.64,-44.68"/>
</g>
<!-- [root] var.aws_config -->
<g id="node5" class="node">
<title>[root] var.aws_config</title>
<polygon fill="none" stroke="black" points="686.28,-36 594.28,-36 594.28,0 692.28,0 692.28,-30 686.28,-36"/>
<polyline fill="none" stroke="black" points="686.28,-36 686.28,-30 "/>
<polyline fill="none" stroke="black" points="692.28,-30 686.28,-30 "/>
<text text-anchor="middle" x="643.28" y="-14.3" font-family="Times,serif" font-size="14.00">var.aws_config</text>
</g>
<!-- [root] local.values (expand)&#45;&gt;[root] var.aws_config -->
<g id="edge6" class="edge">
<title>[root] local.values (expand)&#45;&gt;[root] var.aws_config</title>
<path fill="none" stroke="black" d="M643.28,-71.7C643.28,-63.98 643.28,-54.71 643.28,-46.11"/>
<polygon fill="black" stroke="black" points="646.78,-46.1 643.28,-36.1 639.78,-46.1 646.78,-46.1"/>
</g>
<!-- [root] meta.count&#45;boundary (EachMode fixup) -->
<g id="node8" class="node">
<title>[root] meta.count&#45;boundary (EachMode fixup)</title>
<ellipse fill="none" stroke="black" cx="275.28" cy="-234" rx="176.27" ry="18"/>
<text text-anchor="middle" x="275.28" y="-230.3" font-family="Times,serif" font-size="14.00">[root] meta.count&#45;boundary (EachMode fixup)</text>
</g>
<!-- [root] meta.count&#45;boundary (EachMode fixup)&#45;&gt;[root] helm_release.external_secrets (expand) -->
<g id="edge7" class="edge">
<title>[root] meta.count&#45;boundary (EachMode fixup)&#45;&gt;[root] helm_release.external_secrets (expand)</title>
<path fill="none" stroke="black" d="M347.23,-217.55C395.85,-207.11 460.38,-193.26 512.24,-182.12"/>
<polygon fill="black" stroke="black" points="513.06,-185.52 522.1,-180 511.59,-178.68 513.06,-185.52"/>
</g>
<!-- [root] provider[&quot;registry.terraform.io/hashicorp/helm&quot;] (close) -->
<g id="node9" class="node">
<title>[root] provider[&quot;registry.terraform.io/hashicorp/helm&quot;] (close)</title>
<ellipse fill="none" stroke="black" cx="701.28" cy="-234" rx="231.26" ry="18"/>
<text text-anchor="middle" x="701.28" y="-230.3" font-family="Times,serif" font-size="14.00">[root] provider[&quot;registry.terraform.io/hashicorp/helm&quot;] (close)</text>
</g>
<!-- [root] provider[&quot;registry.terraform.io/hashicorp/helm&quot;] (close)&#45;&gt;[root] helm_release.external_secrets (expand) -->
<g id="edge8" class="edge">
<title>[root] provider[&quot;registry.terraform.io/hashicorp/helm&quot;] (close)&#45;&gt;[root] helm_release.external_secrets (expand)</title>
<path fill="none" stroke="black" d="M677.08,-216.05C664.15,-207.01 648.06,-195.74 634.03,-185.93"/>
<polygon fill="black" stroke="black" points="635.81,-182.9 625.61,-180.03 631.8,-188.63 635.81,-182.9"/>
</g>
<!-- [root] provider[&quot;registry.terraform.io/hashicorp/kubernetes&quot;] (close) -->
<g id="node10" class="node">
<title>[root] provider[&quot;registry.terraform.io/hashicorp/kubernetes&quot;] (close)</title>
<ellipse fill="none" stroke="black" cx="960.28" cy="-162" rx="251.56" ry="18"/>
<text text-anchor="middle" x="960.28" y="-158.3" font-family="Times,serif" font-size="14.00">[root] provider[&quot;registry.terraform.io/hashicorp/kubernetes&quot;] (close)</text>
</g>
<!-- [root] provider[&quot;registry.terraform.io/hashicorp/kubernetes&quot;] (close)&#45;&gt;[root] kubernetes_namespace.this (expand) -->
<g id="edge9" class="edge">
<title>[root] provider[&quot;registry.terraform.io/hashicorp/kubernetes&quot;] (close)&#45;&gt;[root] kubernetes_namespace.this (expand)</title>
<path fill="none" stroke="black" d="M955.09,-143.7C952.75,-135.9 949.94,-126.51 947.33,-117.83"/>
<polygon fill="black" stroke="black" points="950.64,-116.68 944.41,-108.1 943.94,-118.69 950.64,-116.68"/>
</g>
<!-- [root] root -->
<g id="node11" class="node">
<title>[root] root</title>
<ellipse fill="none" stroke="black" cx="701.28" cy="-306" rx="47.39" ry="18"/>
<text text-anchor="middle" x="701.28" y="-302.3" font-family="Times,serif" font-size="14.00">[root] root</text>
</g>
<!-- [root] root&#45;&gt;[root] meta.count&#45;boundary (EachMode fixup) -->
<g id="edge10" class="edge">
<title>[root] root&#45;&gt;[root] meta.count&#45;boundary (EachMode fixup)</title>
<path fill="none" stroke="black" d="M658.49,-297.97C592.49,-287.12 464.12,-266.03 374.21,-251.26"/>
<polygon fill="black" stroke="black" points="374.71,-247.79 364.27,-249.62 373.57,-254.7 374.71,-247.79"/>
</g>
<!-- [root] root&#45;&gt;[root] provider[&quot;registry.terraform.io/hashicorp/helm&quot;] (close) -->
<g id="edge11" class="edge">
<title>[root] root&#45;&gt;[root] provider[&quot;registry.terraform.io/hashicorp/helm&quot;] (close)</title>
<path fill="none" stroke="black" d="M701.28,-287.7C701.28,-279.98 701.28,-270.71 701.28,-262.11"/>
<polygon fill="black" stroke="black" points="704.78,-262.1 701.28,-252.1 697.78,-262.1 704.78,-262.1"/>
</g>
<!-- [root] root&#45;&gt;[root] provider[&quot;registry.terraform.io/hashicorp/kubernetes&quot;] (close) -->
<g id="edge12" class="edge">
<title>[root] root&#45;&gt;[root] provider[&quot;registry.terraform.io/hashicorp/kubernetes&quot;] (close)</title>
<path fill="none" stroke="black" d="M746.83,-300.77C808.65,-294.09 914.49,-278.99 941.28,-252 957.16,-236.01 961.24,-210.22 961.75,-190.51"/>
<polygon fill="black" stroke="black" points="965.25,-190.27 961.71,-180.29 958.25,-190.3 965.25,-190.27"/>
</g>
</g>
</svg>
