<?xml version="1.0" encoding="UTF-8" standalone="no"?>
<!DOCTYPE svg PUBLIC "-//W3C//DTD SVG 1.1//EN"
 "http://www.w3.org/Graphics/SVG/1.1/DTD/svg11.dtd">
<!-- Generated by graphviz version 2.44.1 (20200629.0846)
 -->
<!-- Pages: 1 -->
<svg width="874pt" height="404pt"
 viewBox="0.00 0.00 874.48 404.00" xmlns="http://www.w3.org/2000/svg" xmlns:xlink="http://www.w3.org/1999/xlink">
<g id="graph0" class="graph" transform="scale(1 1) rotate(0) translate(4 400)">
<polygon fill="white" stroke="transparent" points="-4,4 -4,-400 870.48,-400 870.48,4 -4,4"/>
<!-- [root] aws_eip.nat (expand) -->
<g id="node1" class="node">
<title>[root] aws_eip.nat (expand)</title>
<polygon fill="none" stroke="black" points="584.98,-180 503.98,-180 503.98,-144 584.98,-144 584.98,-180"/>
<text text-anchor="middle" x="544.48" y="-158.3" font-family="Times,serif" font-size="14.00">aws_eip.nat</text>
</g>
<!-- [root] data.aws_availability_zones.available (expand) -->
<g id="node10" class="node">
<title>[root] data.aws_availability_zones.available (expand)</title>
<polygon fill="none" stroke="black" points="599.98,-108 378.98,-108 378.98,-72 599.98,-72 599.98,-108"/>
<text text-anchor="middle" x="489.48" y="-86.3" font-family="Times,serif" font-size="14.00">data.aws_availability_zones.available</text>
</g>
<!-- [root] aws_eip.nat (expand)&#45;&gt;[root] data.aws_availability_zones.available (expand) -->
<g id="edge1" class="edge">
<title>[root] aws_eip.nat (expand)&#45;&gt;[root] data.aws_availability_zones.available (expand)</title>
<path fill="none" stroke="black" d="M530.88,-143.7C524.36,-135.39 516.41,-125.28 509.23,-116.14"/>
<polygon fill="black" stroke="black" points="511.85,-113.81 502.92,-108.1 506.35,-118.13 511.85,-113.81"/>
</g>
<!-- [root] var.environment -->
<g id="node13" class="node">
<title>[root] var.environment</title>
<polygon fill="none" stroke="black" points="860.48,-36 760.48,-36 760.48,0 866.48,0 866.48,-30 860.48,-36"/>
<polyline fill="none" stroke="black" points="860.48,-36 860.48,-30 "/>
<polyline fill="none" stroke="black" points="866.48,-30 860.48,-30 "/>
<text text-anchor="middle" x="813.48" y="-14.3" font-family="Times,serif" font-size="14.00">var.environment</text>
</g>
<!-- [root] aws_eip.nat (expand)&#45;&gt;[root] var.environment -->
<g id="edge2" class="edge">
<title>[root] aws_eip.nat (expand)&#45;&gt;[root] var.environment</title>
<path fill="none" stroke="black" d="M576.93,-143.87C625.8,-118.07 718.29,-69.25 772,-40.9"/>
<polygon fill="black" stroke="black" points="773.71,-43.95 780.92,-36.19 770.44,-37.76 773.71,-43.95"/>
</g>
<!-- [root] var.name -->
<g id="node14" class="node">
<title>[root] var.name</title>
<polygon fill="none" stroke="black" points="212.98,-36 151.98,-36 151.98,0 218.98,0 218.98,-30 212.98,-36"/>
<polyline fill="none" stroke="black" points="212.98,-36 212.98,-30 "/>
<polyline fill="none" stroke="black" points="218.98,-30 212.98,-30 "/>
<text text-anchor="middle" x="185.48" y="-14.3" font-family="Times,serif" font-size="14.00">var.name</text>
</g>
<!-- [root] aws_eip.nat (expand)&#45;&gt;[root] var.name -->
<g id="edge3" class="edge">
<title>[root] aws_eip.nat (expand)&#45;&gt;[root] var.name</title>
<path fill="none" stroke="black" d="M503.9,-146.72C501.05,-145.79 498.23,-144.87 495.48,-144 439.95,-126.45 420.26,-136.53 369.48,-108 348.91,-96.45 350.7,-84.14 330.48,-72 291.51,-48.59 274.96,-52.46 228.96,-36.37"/>
<polygon fill="black" stroke="black" points="229.94,-33.01 219.35,-32.87 227.55,-39.58 229.94,-33.01"/>
</g>
<!-- [root] aws_internet_gateway.this (expand) -->
<g id="node2" class="node">
<title>[root] aws_internet_gateway.this (expand)</title>
<polygon fill="none" stroke="black" points="189.48,-180 29.48,-180 29.48,-144 189.48,-144 189.48,-180"/>
<text text-anchor="middle" x="109.48" y="-158.3" font-family="Times,serif" font-size="14.00">aws_internet_gateway.this</text>
</g>
<!-- [root] aws_vpc.this (expand) -->
<g id="node9" class="node">
<title>[root] aws_vpc.this (expand)</title>
<polygon fill="none" stroke="black" points="321.98,-108 234.98,-108 234.98,-72 321.98,-72 321.98,-108"/>
<text text-anchor="middle" x="278.48" y="-86.3" font-family="Times,serif" font-size="14.00">aws_vpc.this</text>
</g>
<!-- [root] aws_internet_gateway.this (expand)&#45;&gt;[root] aws_vpc.this (expand) -->
<g id="edge4" class="edge">
<title>[root] aws_internet_gateway.this (expand)&#45;&gt;[root] aws_vpc.this (expand)</title>
<path fill="none" stroke="black" d="M150.82,-143.88C174.03,-134.26 203.17,-122.19 227.75,-112.01"/>
<polygon fill="black" stroke="black" points="229.37,-115.13 237.27,-108.07 226.69,-108.66 229.37,-115.13"/>
</g>
<!-- [root] aws_nat_gateway.nat (expand) -->
<g id="node3" class="node">
<title>[root] aws_nat_gateway.nat (expand)</title>
<polygon fill="none" stroke="black" points="610.48,-252 478.48,-252 478.48,-216 610.48,-216 610.48,-252"/>
<text text-anchor="middle" x="544.48" y="-230.3" font-family="Times,serif" font-size="14.00">aws_nat_gateway.nat</text>
</g>
<!-- [root] aws_nat_gateway.nat (expand)&#45;&gt;[root] aws_eip.nat (expand) -->
<g id="edge5" class="edge">
<title>[root] aws_nat_gateway.nat (expand)&#45;&gt;[root] aws_eip.nat (expand)</title>
<path fill="none" stroke="black" d="M544.48,-215.7C544.48,-207.98 544.48,-198.71 544.48,-190.11"/>
<polygon fill="black" stroke="black" points="547.98,-190.1 544.48,-180.1 540.98,-190.1 547.98,-190.1"/>
</g>
<!-- [root] aws_subnet.public (expand) -->
<g id="node8" class="node">
<title>[root] aws_subnet.public (expand)</title>
<polygon fill="none" stroke="black" points="485.98,-180 368.98,-180 368.98,-144 485.98,-144 485.98,-180"/>
<text text-anchor="middle" x="427.48" y="-158.3" font-family="Times,serif" font-size="14.00">aws_subnet.public</text>
</g>
<!-- [root] aws_nat_gateway.nat (expand)&#45;&gt;[root] aws_subnet.public (expand) -->
<g id="edge6" class="edge">
<title>[root] aws_nat_gateway.nat (expand)&#45;&gt;[root] aws_subnet.public (expand)</title>
<path fill="none" stroke="black" d="M515.86,-215.88C500.56,-206.72 481.54,-195.34 465.06,-185.48"/>
<polygon fill="black" stroke="black" points="466.59,-182.32 456.21,-180.19 463,-188.33 466.59,-182.32"/>
</g>
<!-- [root] aws_route.public (expand) -->
<g id="node4" class="node">
<title>[root] aws_route.public (expand)</title>
<polygon fill="none" stroke="black" points="232.48,-252 122.48,-252 122.48,-216 232.48,-216 232.48,-252"/>
<text text-anchor="middle" x="177.48" y="-230.3" font-family="Times,serif" font-size="14.00">aws_route.public</text>
</g>
<!-- [root] aws_route.public (expand)&#45;&gt;[root] aws_internet_gateway.this (expand) -->
<g id="edge7" class="edge">
<title>[root] aws_route.public (expand)&#45;&gt;[root] aws_internet_gateway.this (expand)</title>
<path fill="none" stroke="black" d="M160.67,-215.7C152.35,-207.14 142.17,-196.66 133.09,-187.3"/>
<polygon fill="black" stroke="black" points="135.57,-184.84 126.1,-180.1 130.55,-189.72 135.57,-184.84"/>
</g>
<!-- [root] aws_route_table.public (expand) -->
<g id="node6" class="node">
<title>[root] aws_route_table.public (expand)</title>
<polygon fill="none" stroke="black" points="350.98,-180 207.98,-180 207.98,-144 350.98,-144 350.98,-180"/>
<text text-anchor="middle" x="279.48" y="-158.3" font-family="Times,serif" font-size="14.00">aws_route_table.public</text>
</g>
<!-- [root] aws_route.public (expand)&#45;&gt;[root] aws_route_table.public (expand) -->
<g id="edge8" class="edge">
<title>[root] aws_route.public (expand)&#45;&gt;[root] aws_route_table.public (expand)</title>
<path fill="none" stroke="black" d="M202.43,-215.88C215.52,-206.89 231.74,-195.76 245.92,-186.03"/>
<polygon fill="black" stroke="black" points="248.17,-188.73 254.43,-180.19 244.21,-182.96 248.17,-188.73"/>
</g>
<!-- [root] aws_route53_zone.this (expand) -->
<g id="node5" class="node">
<title>[root] aws_route53_zone.this (expand)</title>
<polygon fill="none" stroke="black" points="769.98,-252 628.98,-252 628.98,-216 769.98,-216 769.98,-252"/>
<text text-anchor="middle" x="699.48" y="-230.3" font-family="Times,serif" font-size="14.00">aws_route53_zone.this</text>
</g>
<!-- [root] provider[&quot;registry.terraform.io/hashicorp/aws&quot;] -->
<g id="node11" class="node">
<title>[root] provider[&quot;registry.terraform.io/hashicorp/aws&quot;]</title>
<polygon fill="none" stroke="black" points="489.48,-36 236.94,-18 489.48,0 742.02,-18 489.48,-36"/>
<text text-anchor="middle" x="489.48" y="-14.3" font-family="Times,serif" font-size="14.00">provider[&quot;registry.terraform.io/hashicorp/aws&quot;]</text>
</g>
<!-- [root] aws_route53_zone.this (expand)&#45;&gt;[root] provider[&quot;registry.terraform.io/hashicorp/aws&quot;] -->
<g id="edge9" class="edge">
<title>[root] aws_route53_zone.this (expand)&#45;&gt;[root] provider[&quot;registry.terraform.io/hashicorp/aws&quot;]</title>
<path fill="none" stroke="black" d="M678.75,-215.85C668.19,-206.22 655.86,-193.46 647.48,-180 620.58,-136.81 644.04,-109.35 609.48,-72 594.26,-55.55 573,-43.91 552.61,-35.82"/>
<polygon fill="black" stroke="black" points="553.6,-32.46 543.01,-32.24 551.15,-39.02 553.6,-32.46"/>
</g>
<!-- [root] var.dns_zone -->
<g id="node12" class="node">
<title>[root] var.dns_zone</title>
<polygon fill="none" stroke="black" points="738.48,-180 656.48,-180 656.48,-144 744.48,-144 744.48,-174 738.48,-180"/>
<polyline fill="none" stroke="black" points="738.48,-180 738.48,-174 "/>
<polyline fill="none" stroke="black" points="744.48,-174 738.48,-174 "/>
<text text-anchor="middle" x="700.48" y="-158.3" font-family="Times,serif" font-size="14.00">var.dns_zone</text>
</g>
<!-- [root] aws_route53_zone.this (expand)&#45;&gt;[root] var.dns_zone -->
<g id="edge10" class="edge">
<title>[root] aws_route53_zone.this (expand)&#45;&gt;[root] var.dns_zone</title>
<path fill="none" stroke="black" d="M699.73,-215.7C699.84,-207.98 699.97,-198.71 700.09,-190.11"/>
<polygon fill="black" stroke="black" points="703.59,-190.15 700.24,-180.1 696.59,-190.05 703.59,-190.15"/>
</g>
<!-- [root] aws_route53_zone.this (expand)&#45;&gt;[root] var.environment -->
<g id="edge11" class="edge">
<title>[root] aws_route53_zone.this (expand)&#45;&gt;[root] var.environment</title>
<path fill="none" stroke="black" d="M720.94,-215.92C731.87,-206.32 744.68,-193.55 753.48,-180 781.32,-137.1 798.78,-79.45 807.28,-46.05"/>
<polygon fill="black" stroke="black" points="810.74,-46.65 809.73,-36.11 803.94,-44.98 810.74,-46.65"/>
</g>
<!-- [root] aws_route_table.public (expand)&#45;&gt;[root] aws_vpc.this (expand) -->
<g id="edge12" class="edge">
<title>[root] aws_route_table.public (expand)&#45;&gt;[root] aws_vpc.this (expand)</title>
<path fill="none" stroke="black" d="M279.23,-143.7C279.12,-135.98 278.99,-126.71 278.87,-118.11"/>
<polygon fill="black" stroke="black" points="282.37,-118.05 278.72,-108.1 275.37,-118.15 282.37,-118.05"/>
</g>
<!-- [root] aws_route_table_association.public (expand) -->
<g id="node7" class="node">
<title>[root] aws_route_table_association.public (expand)</title>
<polygon fill="none" stroke="black" points="459.98,-252 250.98,-252 250.98,-216 459.98,-216 459.98,-252"/>
<text text-anchor="middle" x="355.48" y="-230.3" font-family="Times,serif" font-size="14.00">aws_route_table_association.public</text>
</g>
<!-- [root] aws_route_table_association.public (expand)&#45;&gt;[root] aws_route_table.public (expand) -->
<g id="edge13" class="edge">
<title>[root] aws_route_table_association.public (expand)&#45;&gt;[root] aws_route_table.public (expand)</title>
<path fill="none" stroke="black" d="M336.69,-215.7C327.31,-207.05 315.8,-196.45 305.57,-187.03"/>
<polygon fill="black" stroke="black" points="307.78,-184.3 298.05,-180.1 303.03,-189.45 307.78,-184.3"/>
</g>
<!-- [root] aws_route_table_association.public (expand)&#45;&gt;[root] aws_subnet.public (expand) -->
<g id="edge14" class="edge">
<title>[root] aws_route_table_association.public (expand)&#45;&gt;[root] aws_subnet.public (expand)</title>
<path fill="none" stroke="black" d="M373.28,-215.7C382.08,-207.14 392.86,-196.66 402.48,-187.3"/>
<polygon fill="black" stroke="black" points="405.16,-189.58 409.89,-180.1 400.28,-184.57 405.16,-189.58"/>
</g>
<!-- [root] aws_subnet.public (expand)&#45;&gt;[root] aws_vpc.this (expand) -->
<g id="edge15" class="edge">
<title>[root] aws_subnet.public (expand)&#45;&gt;[root] aws_vpc.this (expand)</title>
<path fill="none" stroke="black" d="M391.03,-143.88C370.84,-134.39 345.56,-122.51 324.07,-112.42"/>
<polygon fill="black" stroke="black" points="325.35,-109.15 314.81,-108.07 322.37,-115.49 325.35,-109.15"/>
</g>
<!-- [root] aws_subnet.public (expand)&#45;&gt;[root] data.aws_availability_zones.available (expand) -->
<g id="edge16" class="edge">
<title>[root] aws_subnet.public (expand)&#45;&gt;[root] data.aws_availability_zones.available (expand)</title>
<path fill="none" stroke="black" d="M442.81,-143.7C450.24,-135.3 459.3,-125.07 467.46,-115.86"/>
<polygon fill="black" stroke="black" points="470.32,-117.91 474.33,-108.1 465.08,-113.27 470.32,-117.91"/>
</g>
<!-- [root] aws_vpc.this (expand)&#45;&gt;[root] provider[&quot;registry.terraform.io/hashicorp/aws&quot;] -->
<g id="edge17" class="edge">
<title>[root] aws_vpc.this (expand)&#45;&gt;[root] provider[&quot;registry.terraform.io/hashicorp/aws&quot;]</title>
<path fill="none" stroke="black" d="M322.2,-74.5C355.74,-63.37 402.15,-47.97 437.57,-36.22"/>
<polygon fill="black" stroke="black" points="438.87,-39.48 447.26,-33.01 436.66,-32.83 438.87,-39.48"/>
</g>
<!-- [root] aws_vpc.this (expand)&#45;&gt;[root] var.environment -->
<g id="edge18" class="edge">
<title>[root] aws_vpc.this (expand)&#45;&gt;[root] var.environment</title>
<path fill="none" stroke="black" d="M322.32,-79.98C337.24,-77.13 354.04,-74.17 369.48,-72 535.14,-48.77 581.96,-65.98 750.24,-36.04"/>
<polygon fill="black" stroke="black" points="750.96,-39.47 760.18,-34.25 749.72,-32.58 750.96,-39.47"/>
</g>
<!-- [root] aws_vpc.this (expand)&#45;&gt;[root] var.name -->
<g id="edge19" class="edge">
<title>[root] aws_vpc.this (expand)&#45;&gt;[root] var.name</title>
<path fill="none" stroke="black" d="M255.49,-71.7C243.67,-62.8 229.09,-51.82 216.3,-42.2"/>
<polygon fill="black" stroke="black" points="218.3,-39.32 208.2,-36.1 214.09,-44.91 218.3,-39.32"/>
</g>
<!-- [root] var.vpc_config -->
<g id="node15" class="node">
<title>[root] var.vpc_config</title>
<polygon fill="none" stroke="black" points="127.98,-36 36.98,-36 36.98,0 133.98,0 133.98,-30 127.98,-36"/>
<polyline fill="none" stroke="black" points="127.98,-36 127.98,-30 "/>
<polyline fill="none" stroke="black" points="133.98,-30 127.98,-30 "/>
<text text-anchor="middle" x="85.48" y="-14.3" font-family="Times,serif" font-size="14.00">var.vpc_config</text>
</g>
<!-- [root] aws_vpc.this (expand)&#45;&gt;[root] var.vpc_config -->
<g id="edge20" class="edge">
<title>[root] aws_vpc.this (expand)&#45;&gt;[root] var.vpc_config</title>
<path fill="none" stroke="black" d="M234.69,-73.12C207.31,-63.19 171.76,-50.29 142.24,-39.59"/>
<polygon fill="black" stroke="black" points="143.07,-36.16 132.47,-36.04 140.68,-42.74 143.07,-36.16"/>
</g>
<!-- [root] data.aws_availability_zones.available (expand)&#45;&gt;[root] provider[&quot;registry.terraform.io/hashicorp/aws&quot;] -->
<g id="edge21" class="edge">
<title>[root] data.aws_availability_zones.available (expand)&#45;&gt;[root] provider[&quot;registry.terraform.io/hashicorp/aws&quot;]</title>
<path fill="none" stroke="black" d="M489.48,-71.7C489.48,-63.98 489.48,-54.71 489.48,-46.11"/>
<polygon fill="black" stroke="black" points="492.98,-46.1 489.48,-36.1 485.98,-46.1 492.98,-46.1"/>
</g>
<!-- [root] meta.count&#45;boundary (EachMode fixup) -->
<g id="node16" class="node">
<title>[root] meta.count&#45;boundary (EachMode fixup)</title>
<ellipse fill="none" stroke="black" cx="649.48" cy="-306" rx="176.27" ry="18"/>
<text text-anchor="middle" x="649.48" y="-302.3" font-family="Times,serif" font-size="14.00">[root] meta.count&#45;boundary (EachMode fixup)</text>
</g>
<!-- [root] meta.count&#45;boundary (EachMode fixup)&#45;&gt;[root] aws_nat_gateway.nat (expand) -->
<g id="edge22" class="edge">
<title>[root] meta.count&#45;boundary (EachMode fixup)&#45;&gt;[root] aws_nat_gateway.nat (expand)</title>
<path fill="none" stroke="black" d="M624.06,-288.05C610.36,-278.92 593.28,-267.53 578.45,-257.65"/>
<polygon fill="black" stroke="black" points="580.29,-254.67 570.03,-252.03 576.41,-260.49 580.29,-254.67"/>
</g>
<!-- [root] meta.count&#45;boundary (EachMode fixup)&#45;&gt;[root] aws_route.public (expand) -->
<g id="edge23" class="edge">
<title>[root] meta.count&#45;boundary (EachMode fixup)&#45;&gt;[root] aws_route.public (expand)</title>
<path fill="none" stroke="black" d="M525.61,-293.16C447,-284.63 343.04,-271.51 242.56,-252.07"/>
<polygon fill="black" stroke="black" points="243.02,-248.6 232.53,-250.11 241.67,-255.47 243.02,-248.6"/>
</g>
<!-- [root] meta.count&#45;boundary (EachMode fixup)&#45;&gt;[root] aws_route53_zone.this (expand) -->
<g id="edge24" class="edge">
<title>[root] meta.count&#45;boundary (EachMode fixup)&#45;&gt;[root] aws_route53_zone.this (expand)</title>
<path fill="none" stroke="black" d="M661.84,-287.7C667.71,-279.47 674.85,-269.48 681.32,-260.42"/>
<polygon fill="black" stroke="black" points="684.3,-262.28 687.26,-252.1 678.6,-258.21 684.3,-262.28"/>
</g>
<!-- [root] meta.count&#45;boundary (EachMode fixup)&#45;&gt;[root] aws_route_table_association.public (expand) -->
<g id="edge25" class="edge">
<title>[root] meta.count&#45;boundary (EachMode fixup)&#45;&gt;[root] aws_route_table_association.public (expand)</title>
<path fill="none" stroke="black" d="M583.5,-289.29C540.13,-278.96 483.07,-265.38 436.88,-254.38"/>
<polygon fill="black" stroke="black" points="437.43,-250.91 426.89,-252 435.81,-257.72 437.43,-250.91"/>
</g>
<!-- [root] provider[&quot;registry.terraform.io/hashicorp/aws&quot;] (close) -->
<g id="node17" class="node">
<title>[root] provider[&quot;registry.terraform.io/hashicorp/aws&quot;] (close)</title>
<ellipse fill="none" stroke="black" cx="227.48" cy="-306" rx="227.46" ry="18"/>
<text text-anchor="middle" x="227.48" y="-302.3" font-family="Times,serif" font-size="14.00">[root] provider[&quot;registry.terraform.io/hashicorp/aws&quot;] (close)</text>
</g>
<!-- [root] provider[&quot;registry.terraform.io/hashicorp/aws&quot;] (close)&#45;&gt;[root] aws_nat_gateway.nat (expand) -->
<g id="edge26" class="edge">
<title>[root] provider[&quot;registry.terraform.io/hashicorp/aws&quot;] (close)&#45;&gt;[root] aws_nat_gateway.nat (expand)</title>
<path fill="none" stroke="black" d="M301.38,-288.96C346.89,-279.05 406.68,-265.97 468.33,-252.25"/>
<polygon fill="black" stroke="black" points="469.23,-255.63 478.23,-250.04 467.71,-248.8 469.23,-255.63"/>
</g>
<!-- [root] provider[&quot;registry.terraform.io/hashicorp/aws&quot;] (close)&#45;&gt;[root] aws_route.public (expand) -->
<g id="edge27" class="edge">
<title>[root] provider[&quot;registry.terraform.io/hashicorp/aws&quot;] (close)&#45;&gt;[root] aws_route.public (expand)</title>
<path fill="none" stroke="black" d="M215.12,-287.7C209.25,-279.47 202.11,-269.48 195.64,-260.42"/>
<polygon fill="black" stroke="black" points="198.36,-258.21 189.7,-252.1 192.66,-262.28 198.36,-258.21"/>
</g>
<!-- [root] provider[&quot;registry.terraform.io/hashicorp/aws&quot;] (close)&#45;&gt;[root] aws_route53_zone.this (expand) -->
<g id="edge28" class="edge">
<title>[root] provider[&quot;registry.terraform.io/hashicorp/aws&quot;] (close)&#45;&gt;[root] aws_route53_zone.this (expand)</title>
<path fill="none" stroke="black" d="M350.12,-290.82C425.01,-281.58 522.91,-268.5 618.97,-252.02"/>
<polygon fill="black" stroke="black" points="619.61,-255.46 628.87,-250.31 618.42,-248.56 619.61,-255.46"/>
</g>
<!-- [root] provider[&quot;registry.terraform.io/hashicorp/aws&quot;] (close)&#45;&gt;[root] aws_route_table_association.public (expand) -->
<g id="edge29" class="edge">
<title>[root] provider[&quot;registry.terraform.io/hashicorp/aws&quot;] (close)&#45;&gt;[root] aws_route_table_association.public (expand)</title>
<path fill="none" stroke="black" d="M258.47,-288.05C275.55,-278.71 296.97,-267 315.33,-256.96"/>
<polygon fill="black" stroke="black" points="317.24,-259.9 324.34,-252.03 313.88,-253.76 317.24,-259.9"/>
</g>
<!-- [root] root -->
<g id="node18" class="node">
<title>[root] root</title>
<ellipse fill="none" stroke="black" cx="438.48" cy="-378" rx="47.39" ry="18"/>
<text text-anchor="middle" x="438.48" y="-374.3" font-family="Times,serif" font-size="14.00">[root] root</text>
</g>
<!-- [root] root&#45;&gt;[root] meta.count&#45;boundary (EachMode fixup) -->
<g id="edge30" class="edge">
<title>[root] root&#45;&gt;[root] meta.count&#45;boundary (EachMode fixup)</title>
<path fill="none" stroke="black" d="M473.32,-365.44C505.13,-354.89 552.79,-339.08 590.52,-326.56"/>
<polygon fill="black" stroke="black" points="591.99,-329.76 600.38,-323.29 589.78,-323.12 591.99,-329.76"/>
</g>
<!-- [root] root&#45;&gt;[root] provider[&quot;registry.terraform.io/hashicorp/aws&quot;] (close) -->
<g id="edge31" class="edge">
<title>[root] root&#45;&gt;[root] provider[&quot;registry.terraform.io/hashicorp/aws&quot;] (close)</title>
<path fill="none" stroke="black" d="M403.64,-365.44C372.15,-355 325.14,-339.4 287.59,-326.94"/>
<polygon fill="black" stroke="black" points="288.37,-323.51 277.77,-323.68 286.16,-330.16 288.37,-323.51"/>
</g>
</g>
</svg>
