<?xml version="1.0" encoding="UTF-8" standalone="no"?>
<!DOCTYPE svg PUBLIC "-//W3C//DTD SVG 1.1//EN"
 "http://www.w3.org/Graphics/SVG/1.1/DTD/svg11.dtd">
<!-- Generated by graphviz version 2.44.1 (20200629.0846)
 -->
<!-- Pages: 1 -->
<svg width="2018pt" height="476pt"
 viewBox="0.00 0.00 2017.91 476.00" xmlns="http://www.w3.org/2000/svg" xmlns:xlink="http://www.w3.org/1999/xlink">
<g id="graph0" class="graph" transform="scale(1 1) rotate(0) translate(4 472)">
<polygon fill="white" stroke="transparent" points="-4,4 -4,-472 2013.91,-472 2013.91,4 -4,4"/>
<!-- [root] helm_release.azdo_proxy (expand) -->
<g id="node1" class="node">
<title>[root] helm_release.azdo_proxy (expand)</title>
<polygon fill="none" stroke="black" points="998.13,-324 842.13,-324 842.13,-288 998.13,-288 998.13,-324"/>
<text text-anchor="middle" x="920.13" y="-302.3" font-family="Times,serif" font-size="14.00">helm_release.azdo_proxy</text>
</g>
<!-- [root] kubernetes_secret.azdo_proxy (expand) -->
<g id="node5" class="node">
<title>[root] kubernetes_secret.azdo_proxy (expand)</title>
<polygon fill="none" stroke="black" points="1351.63,-252 1170.63,-252 1170.63,-216 1351.63,-216 1351.63,-252"/>
<text text-anchor="middle" x="1261.13" y="-230.3" font-family="Times,serif" font-size="14.00">kubernetes_secret.azdo_proxy</text>
</g>
<!-- [root] helm_release.azdo_proxy (expand)&#45;&gt;[root] kubernetes_secret.azdo_proxy (expand) -->
<g id="edge1" class="edge">
<title>[root] helm_release.azdo_proxy (expand)&#45;&gt;[root] kubernetes_secret.azdo_proxy (expand)</title>
<path fill="none" stroke="black" d="M998.36,-288.94C1048.88,-278.57 1114.87,-265.02 1168.08,-254.1"/>
<polygon fill="black" stroke="black" points="1169.11,-257.46 1178.2,-252.02 1167.7,-250.61 1169.11,-257.46"/>
</g>
<!-- [root] provider[&quot;registry.terraform.io/hashicorp/helm&quot;] -->
<g id="node6" class="node">
<title>[root] provider[&quot;registry.terraform.io/hashicorp/helm&quot;]</title>
<polygon fill="none" stroke="black" points="796.13,-252 538.06,-234 796.13,-216 1054.2,-234 796.13,-252"/>
<text text-anchor="middle" x="796.13" y="-230.3" font-family="Times,serif" font-size="14.00">provider[&quot;registry.terraform.io/hashicorp/helm&quot;]</text>
</g>
<!-- [root] helm_release.azdo_proxy (expand)&#45;&gt;[root] provider[&quot;registry.terraform.io/hashicorp/helm&quot;] -->
<g id="edge2" class="edge">
<title>[root] helm_release.azdo_proxy (expand)&#45;&gt;[root] provider[&quot;registry.terraform.io/hashicorp/helm&quot;]</title>
<path fill="none" stroke="black" d="M889.79,-287.88C872.38,-278.04 850.4,-265.64 832.11,-255.31"/>
<polygon fill="black" stroke="black" points="833.62,-252.15 823.19,-250.28 830.18,-258.24 833.62,-252.15"/>
</g>
<!-- [root] helm_release.fluxcd (expand) -->
<g id="node2" class="node">
<title>[root] helm_release.fluxcd (expand)</title>
<polygon fill="none" stroke="black" points="573.13,-324 447.13,-324 447.13,-288 573.13,-288 573.13,-324"/>
<text text-anchor="middle" x="510.13" y="-302.3" font-family="Times,serif" font-size="14.00">helm_release.fluxcd</text>
</g>
<!-- [root] helm_release.fluxcd (expand)&#45;&gt;[root] provider[&quot;registry.terraform.io/hashicorp/helm&quot;] -->
<g id="edge3" class="edge">
<title>[root] helm_release.fluxcd (expand)&#45;&gt;[root] provider[&quot;registry.terraform.io/hashicorp/helm&quot;]</title>
<path fill="none" stroke="black" d="M573.25,-289.55C620.39,-278.01 684.6,-262.3 731.99,-250.7"/>
<polygon fill="black" stroke="black" points="732.96,-254.07 741.84,-248.29 731.29,-247.27 732.96,-254.07"/>
</g>
<!-- [root] random_password.azdo_proxy (expand) -->
<g id="node9" class="node">
<title>[root] random_password.azdo_proxy (expand)</title>
<polygon fill="none" stroke="black" points="769.13,-108 585.13,-108 585.13,-72 769.13,-72 769.13,-108"/>
<text text-anchor="middle" x="677.13" y="-86.3" font-family="Times,serif" font-size="14.00">random_password.azdo_proxy</text>
</g>
<!-- [root] helm_release.fluxcd (expand)&#45;&gt;[root] random_password.azdo_proxy (expand) -->
<g id="edge4" class="edge">
<title>[root] helm_release.fluxcd (expand)&#45;&gt;[root] random_password.azdo_proxy (expand)</title>
<path fill="none" stroke="black" d="M510.54,-287.73C511.71,-268.87 515.73,-238.36 529.13,-216 555.71,-171.64 603.75,-135.48 637.89,-113.66"/>
<polygon fill="black" stroke="black" points="640.06,-116.43 646.68,-108.16 636.34,-110.5 640.06,-116.43"/>
</g>
<!-- [root] var.environment -->
<g id="node13" class="node">
<title>[root] var.environment</title>
<polygon fill="none" stroke="black" points="476.13,-252 376.13,-252 376.13,-216 482.13,-216 482.13,-246 476.13,-252"/>
<polyline fill="none" stroke="black" points="476.13,-252 476.13,-246 "/>
<polyline fill="none" stroke="black" points="482.13,-246 476.13,-246 "/>
<text text-anchor="middle" x="429.13" y="-230.3" font-family="Times,serif" font-size="14.00">var.environment</text>
</g>
<!-- [root] helm_release.fluxcd (expand)&#45;&gt;[root] var.environment -->
<g id="edge5" class="edge">
<title>[root] helm_release.fluxcd (expand)&#45;&gt;[root] var.environment</title>
<path fill="none" stroke="black" d="M490.11,-287.7C480,-278.97 467.59,-268.24 456.61,-258.75"/>
<polygon fill="black" stroke="black" points="458.78,-255.99 448.92,-252.1 454.2,-261.29 458.78,-255.99"/>
</g>
<!-- [root] helm_release.helm_operator (expand) -->
<g id="node3" class="node">
<title>[root] helm_release.helm_operator (expand)</title>
<polygon fill="none" stroke="black" points="824.13,-324 652.13,-324 652.13,-288 824.13,-288 824.13,-324"/>
<text text-anchor="middle" x="738.13" y="-302.3" font-family="Times,serif" font-size="14.00">helm_release.helm_operator</text>
</g>
<!-- [root] helm_release.helm_operator (expand)&#45;&gt;[root] provider[&quot;registry.terraform.io/hashicorp/helm&quot;] -->
<g id="edge6" class="edge">
<title>[root] helm_release.helm_operator (expand)&#45;&gt;[root] provider[&quot;registry.terraform.io/hashicorp/helm&quot;]</title>
<path fill="none" stroke="black" d="M752.47,-287.7C759.63,-279.05 768.41,-268.46 776.21,-259.04"/>
<polygon fill="black" stroke="black" points="779.07,-261.08 782.75,-251.14 773.68,-256.61 779.07,-261.08"/>
</g>
<!-- [root] helm_release.helm_operator (expand)&#45;&gt;[root] random_password.azdo_proxy (expand) -->
<g id="edge7" class="edge">
<title>[root] helm_release.helm_operator (expand)&#45;&gt;[root] random_password.azdo_proxy (expand)</title>
<path fill="none" stroke="black" d="M824.33,-289.49C827.3,-288.98 830.24,-288.48 833.13,-288 938.77,-270.28 1126.13,-302.63 1063.13,-216 1029.35,-169.55 881.98,-131.56 779.44,-110.09"/>
<polygon fill="black" stroke="black" points="779.85,-106.61 769.35,-108.01 778.43,-113.46 779.85,-106.61"/>
</g>
<!-- [root] kubernetes_namespace.azdo_proxy (expand) -->
<g id="node4" class="node">
<title>[root] kubernetes_namespace.azdo_proxy (expand)</title>
<polygon fill="none" stroke="black" points="1728.63,-180 1519.63,-180 1519.63,-144 1728.63,-144 1728.63,-180"/>
<text text-anchor="middle" x="1624.13" y="-158.3" font-family="Times,serif" font-size="14.00">kubernetes_namespace.azdo_proxy</text>
</g>
<!-- [root] provider[&quot;registry.terraform.io/hashicorp/kubernetes&quot;] -->
<g id="node7" class="node">
<title>[root] provider[&quot;registry.terraform.io/hashicorp/kubernetes&quot;]</title>
<polygon fill="none" stroke="black" points="1723.13,-108 1436.57,-90 1723.13,-72 2009.68,-90 1723.13,-108"/>
<text text-anchor="middle" x="1723.13" y="-86.3" font-family="Times,serif" font-size="14.00">provider[&quot;registry.terraform.io/hashicorp/kubernetes&quot;]</text>
</g>
<!-- [root] kubernetes_namespace.azdo_proxy (expand)&#45;&gt;[root] provider[&quot;registry.terraform.io/hashicorp/kubernetes&quot;] -->
<g id="edge8" class="edge">
<title>[root] kubernetes_namespace.azdo_proxy (expand)&#45;&gt;[root] provider[&quot;registry.terraform.io/hashicorp/kubernetes&quot;]</title>
<path fill="none" stroke="black" d="M1648.35,-143.88C1661.62,-134.49 1678.21,-122.76 1692.39,-112.74"/>
<polygon fill="black" stroke="black" points="1694.71,-115.38 1700.85,-106.75 1690.67,-109.67 1694.71,-115.38"/>
</g>
<!-- [root] kubernetes_secret.azdo_proxy (expand)&#45;&gt;[root] kubernetes_namespace.azdo_proxy (expand) -->
<g id="edge9" class="edge">
<title>[root] kubernetes_secret.azdo_proxy (expand)&#45;&gt;[root] kubernetes_namespace.azdo_proxy (expand)</title>
<path fill="none" stroke="black" d="M1349.46,-215.97C1402.71,-205.7 1470.63,-192.6 1525.6,-182"/>
<polygon fill="black" stroke="black" points="1526.56,-185.38 1535.71,-180.05 1525.23,-178.51 1526.56,-185.38"/>
</g>
<!-- [root] local.azdo_proxy_json (expand) -->
<g id="node15" class="node">
<title>[root] local.azdo_proxy_json (expand)</title>
<ellipse fill="none" stroke="black" cx="1257.13" cy="-162" rx="146.77" ry="18"/>
<text text-anchor="middle" x="1257.13" y="-158.3" font-family="Times,serif" font-size="14.00">[root] local.azdo_proxy_json (expand)</text>
</g>
<!-- [root] kubernetes_secret.azdo_proxy (expand)&#45;&gt;[root] local.azdo_proxy_json (expand) -->
<g id="edge10" class="edge">
<title>[root] kubernetes_secret.azdo_proxy (expand)&#45;&gt;[root] local.azdo_proxy_json (expand)</title>
<path fill="none" stroke="black" d="M1260.14,-215.7C1259.7,-207.98 1259.17,-198.71 1258.68,-190.11"/>
<polygon fill="black" stroke="black" points="1262.17,-189.89 1258.11,-180.1 1255.18,-190.29 1262.17,-189.89"/>
</g>
<!-- [root] provider[&quot;registry.terraform.io/hashicorp/random&quot;] -->
<g id="node8" class="node">
<title>[root] provider[&quot;registry.terraform.io/hashicorp/random&quot;]</title>
<polygon fill="none" stroke="black" points="507.13,-36 234.99,-18 507.13,0 779.27,-18 507.13,-36"/>
<text text-anchor="middle" x="507.13" y="-14.3" font-family="Times,serif" font-size="14.00">provider[&quot;registry.terraform.io/hashicorp/random&quot;]</text>
</g>
<!-- [root] random_password.azdo_proxy (expand)&#45;&gt;[root] provider[&quot;registry.terraform.io/hashicorp/random&quot;] -->
<g id="edge23" class="edge">
<title>[root] random_password.azdo_proxy (expand)&#45;&gt;[root] provider[&quot;registry.terraform.io/hashicorp/random&quot;]</title>
<path fill="none" stroke="black" d="M635.54,-71.88C610.35,-61.5 578.21,-48.27 552.38,-37.63"/>
<polygon fill="black" stroke="black" points="553.4,-34.27 542.82,-33.7 550.74,-40.74 553.4,-34.27"/>
</g>
<!-- [root] var.namespaces -->
<g id="node14" class="node">
<title>[root] var.namespaces</title>
<polygon fill="none" stroke="black" points="893.13,-36 797.13,-36 797.13,0 899.13,0 899.13,-30 893.13,-36"/>
<polyline fill="none" stroke="black" points="893.13,-36 893.13,-30 "/>
<polyline fill="none" stroke="black" points="899.13,-30 893.13,-30 "/>
<text text-anchor="middle" x="848.13" y="-14.3" font-family="Times,serif" font-size="14.00">var.namespaces</text>
</g>
<!-- [root] random_password.azdo_proxy (expand)&#45;&gt;[root] var.namespaces -->
<g id="edge24" class="edge">
<title>[root] random_password.azdo_proxy (expand)&#45;&gt;[root] var.namespaces</title>
<path fill="none" stroke="black" d="M718.96,-71.88C742.54,-62.22 772.19,-50.09 797.13,-39.88"/>
<polygon fill="black" stroke="black" points="798.5,-43.1 806.43,-36.07 795.85,-36.62 798.5,-43.1"/>
</g>
<!-- [root] var.azure_devops_domain -->
<g id="node10" class="node">
<title>[root] var.azure_devops_domain</title>
<polygon fill="none" stroke="black" points="1412.63,-108 1259.63,-108 1259.63,-72 1418.63,-72 1418.63,-102 1412.63,-108"/>
<polyline fill="none" stroke="black" points="1412.63,-108 1412.63,-102 "/>
<polyline fill="none" stroke="black" points="1418.63,-102 1412.63,-102 "/>
<text text-anchor="middle" x="1339.13" y="-86.3" font-family="Times,serif" font-size="14.00">var.azure_devops_domain</text>
</g>
<!-- [root] var.azure_devops_org -->
<g id="node11" class="node">
<title>[root] var.azure_devops_org</title>
<polygon fill="none" stroke="black" points="1083.13,-108 953.13,-108 953.13,-72 1089.13,-72 1089.13,-102 1083.13,-108"/>
<polyline fill="none" stroke="black" points="1083.13,-108 1083.13,-102 "/>
<polyline fill="none" stroke="black" points="1089.13,-102 1083.13,-102 "/>
<text text-anchor="middle" x="1021.13" y="-86.3" font-family="Times,serif" font-size="14.00">var.azure_devops_org</text>
</g>
<!-- [root] var.azure_devops_pat -->
<g id="node12" class="node">
<title>[root] var.azure_devops_pat</title>
<polygon fill="none" stroke="black" points="1235.13,-108 1107.13,-108 1107.13,-72 1241.13,-72 1241.13,-102 1235.13,-108"/>
<polyline fill="none" stroke="black" points="1235.13,-108 1235.13,-102 "/>
<polyline fill="none" stroke="black" points="1241.13,-102 1235.13,-102 "/>
<text text-anchor="middle" x="1174.13" y="-86.3" font-family="Times,serif" font-size="14.00">var.azure_devops_pat</text>
</g>
<!-- [root] local.azdo_proxy_json (expand)&#45;&gt;[root] random_password.azdo_proxy (expand) -->
<g id="edge11" class="edge">
<title>[root] local.azdo_proxy_json (expand)&#45;&gt;[root] random_password.azdo_proxy (expand)</title>
<path fill="none" stroke="black" d="M1156.43,-148.85C1050.84,-136.1 885.79,-116.18 779.56,-103.36"/>
<polygon fill="black" stroke="black" points="779.81,-99.87 769.46,-102.14 778.97,-106.82 779.81,-99.87"/>
</g>
<!-- [root] local.azdo_proxy_json (expand)&#45;&gt;[root] var.azure_devops_domain -->
<g id="edge12" class="edge">
<title>[root] local.azdo_proxy_json (expand)&#45;&gt;[root] var.azure_devops_domain</title>
<path fill="none" stroke="black" d="M1276.98,-144.05C1287.28,-135.26 1300.03,-124.38 1311.29,-114.76"/>
<polygon fill="black" stroke="black" points="1313.84,-117.19 1319.18,-108.03 1309.3,-111.86 1313.84,-117.19"/>
</g>
<!-- [root] local.azdo_proxy_json (expand)&#45;&gt;[root] var.azure_devops_org -->
<g id="edge13" class="edge">
<title>[root] local.azdo_proxy_json (expand)&#45;&gt;[root] var.azure_devops_org</title>
<path fill="none" stroke="black" d="M1203.87,-145.2C1169.68,-135.06 1124.98,-121.8 1088.35,-110.94"/>
<polygon fill="black" stroke="black" points="1089.31,-107.57 1078.73,-108.09 1087.32,-114.29 1089.31,-107.57"/>
</g>
<!-- [root] local.azdo_proxy_json (expand)&#45;&gt;[root] var.azure_devops_pat -->
<g id="edge14" class="edge">
<title>[root] local.azdo_proxy_json (expand)&#45;&gt;[root] var.azure_devops_pat</title>
<path fill="none" stroke="black" d="M1237.04,-144.05C1226.51,-135.18 1213.46,-124.17 1201.97,-114.48"/>
<polygon fill="black" stroke="black" points="1204.22,-111.8 1194.32,-108.03 1199.71,-117.15 1204.22,-111.8"/>
</g>
<!-- [root] meta.count&#45;boundary (EachMode fixup) -->
<g id="node16" class="node">
<title>[root] meta.count&#45;boundary (EachMode fixup)</title>
<ellipse fill="none" stroke="black" cx="507.13" cy="-378" rx="176.27" ry="18"/>
<text text-anchor="middle" x="507.13" y="-374.3" font-family="Times,serif" font-size="14.00">[root] meta.count&#45;boundary (EachMode fixup)</text>
</g>
<!-- [root] meta.count&#45;boundary (EachMode fixup)&#45;&gt;[root] helm_release.azdo_proxy (expand) -->
<g id="edge15" class="edge">
<title>[root] meta.count&#45;boundary (EachMode fixup)&#45;&gt;[root] helm_release.azdo_proxy (expand)</title>
<path fill="none" stroke="black" d="M600.01,-362.71C662.82,-352.85 747.9,-339.13 831.92,-324.19"/>
<polygon fill="black" stroke="black" points="832.67,-327.61 841.9,-322.41 831.44,-320.72 832.67,-327.61"/>
</g>
<!-- [root] meta.count&#45;boundary (EachMode fixup)&#45;&gt;[root] helm_release.fluxcd (expand) -->
<g id="edge16" class="edge">
<title>[root] meta.count&#45;boundary (EachMode fixup)&#45;&gt;[root] helm_release.fluxcd (expand)</title>
<path fill="none" stroke="black" d="M507.87,-359.7C508.2,-351.98 508.6,-342.71 508.97,-334.11"/>
<polygon fill="black" stroke="black" points="512.46,-334.25 509.4,-324.1 505.47,-333.95 512.46,-334.25"/>
</g>
<!-- [root] meta.count&#45;boundary (EachMode fixup)&#45;&gt;[root] helm_release.helm_operator (expand) -->
<g id="edge17" class="edge">
<title>[root] meta.count&#45;boundary (EachMode fixup)&#45;&gt;[root] helm_release.helm_operator (expand)</title>
<path fill="none" stroke="black" d="M560.71,-360.76C593.96,-350.69 636.95,-337.66 672.28,-326.95"/>
<polygon fill="black" stroke="black" points="673.47,-330.25 682.03,-324 671.44,-323.55 673.47,-330.25"/>
</g>
<!-- [root] provider[&quot;registry.terraform.io/hashicorp/helm&quot;] (close) -->
<g id="node17" class="node">
<title>[root] provider[&quot;registry.terraform.io/hashicorp/helm&quot;] (close)</title>
<ellipse fill="none" stroke="black" cx="933.13" cy="-378" rx="231.26" ry="18"/>
<text text-anchor="middle" x="933.13" y="-374.3" font-family="Times,serif" font-size="14.00">[root] provider[&quot;registry.terraform.io/hashicorp/helm&quot;] (close)</text>
</g>
<!-- [root] provider[&quot;registry.terraform.io/hashicorp/helm&quot;] (close)&#45;&gt;[root] helm_release.azdo_proxy (expand) -->
<g id="edge18" class="edge">
<title>[root] provider[&quot;registry.terraform.io/hashicorp/helm&quot;] (close)&#45;&gt;[root] helm_release.azdo_proxy (expand)</title>
<path fill="none" stroke="black" d="M929.92,-359.7C928.48,-351.98 926.76,-342.71 925.16,-334.11"/>
<polygon fill="black" stroke="black" points="928.57,-333.3 923.31,-324.1 921.69,-334.58 928.57,-333.3"/>
</g>
<!-- [root] provider[&quot;registry.terraform.io/hashicorp/helm&quot;] (close)&#45;&gt;[root] helm_release.fluxcd (expand) -->
<g id="edge19" class="edge">
<title>[root] provider[&quot;registry.terraform.io/hashicorp/helm&quot;] (close)&#45;&gt;[root] helm_release.fluxcd (expand)</title>
<path fill="none" stroke="black" d="M839.51,-361.51C762.39,-348.75 654.55,-330.9 583.56,-319.15"/>
<polygon fill="black" stroke="black" points="583.8,-315.64 573.36,-317.46 582.66,-322.55 583.8,-315.64"/>
</g>
<!-- [root] provider[&quot;registry.terraform.io/hashicorp/helm&quot;] (close)&#45;&gt;[root] helm_release.helm_operator (expand) -->
<g id="edge20" class="edge">
<title>[root] provider[&quot;registry.terraform.io/hashicorp/helm&quot;] (close)&#45;&gt;[root] helm_release.helm_operator (expand)</title>
<path fill="none" stroke="black" d="M886.42,-360.23C859.09,-350.42 824.37,-337.96 795.4,-327.56"/>
<polygon fill="black" stroke="black" points="796.4,-324.2 785.81,-324.12 794.04,-330.79 796.4,-324.2"/>
</g>
<!-- [root] provider[&quot;registry.terraform.io/hashicorp/kubernetes&quot;] (close) -->
<g id="node18" class="node">
<title>[root] provider[&quot;registry.terraform.io/hashicorp/kubernetes&quot;] (close)</title>
<ellipse fill="none" stroke="black" cx="1268.13" cy="-306" rx="251.56" ry="18"/>
<text text-anchor="middle" x="1268.13" y="-302.3" font-family="Times,serif" font-size="14.00">[root] provider[&quot;registry.terraform.io/hashicorp/kubernetes&quot;] (close)</text>
</g>
<!-- [root] provider[&quot;registry.terraform.io/hashicorp/kubernetes&quot;] (close)&#45;&gt;[root] kubernetes_secret.azdo_proxy (expand) -->
<g id="edge21" class="edge">
<title>[root] provider[&quot;registry.terraform.io/hashicorp/kubernetes&quot;] (close)&#45;&gt;[root] kubernetes_secret.azdo_proxy (expand)</title>
<path fill="none" stroke="black" d="M1266.4,-287.7C1265.63,-279.98 1264.7,-270.71 1263.84,-262.11"/>
<polygon fill="black" stroke="black" points="1267.32,-261.71 1262.84,-252.1 1260.35,-262.4 1267.32,-261.71"/>
</g>
<!-- [root] provider[&quot;registry.terraform.io/hashicorp/random&quot;] (close) -->
<g id="node19" class="node">
<title>[root] provider[&quot;registry.terraform.io/hashicorp/random&quot;] (close)</title>
<ellipse fill="none" stroke="black" cx="241.13" cy="-162" rx="241.26" ry="18"/>
<text text-anchor="middle" x="241.13" y="-158.3" font-family="Times,serif" font-size="14.00">[root] provider[&quot;registry.terraform.io/hashicorp/random&quot;] (close)</text>
</g>
<!-- [root] provider[&quot;registry.terraform.io/hashicorp/random&quot;] (close)&#45;&gt;[root] random_password.azdo_proxy (expand) -->
<g id="edge22" class="edge">
<title>[root] provider[&quot;registry.terraform.io/hashicorp/random&quot;] (close)&#45;&gt;[root] random_password.azdo_proxy (expand)</title>
<path fill="none" stroke="black" d="M337.89,-145.46C408.34,-134.15 503.55,-118.87 575.17,-107.37"/>
<polygon fill="black" stroke="black" points="575.8,-110.81 585.11,-105.77 574.69,-103.9 575.8,-110.81"/>
</g>
<!-- [root] root -->
<g id="node20" class="node">
<title>[root] root</title>
<ellipse fill="none" stroke="black" cx="720.13" cy="-450" rx="47.39" ry="18"/>
<text text-anchor="middle" x="720.13" y="-446.3" font-family="Times,serif" font-size="14.00">[root] root</text>
</g>
<!-- [root] root&#45;&gt;[root] meta.count&#45;boundary (EachMode fixup) -->
<g id="edge25" class="edge">
<title>[root] root&#45;&gt;[root] meta.count&#45;boundary (EachMode fixup)</title>
<path fill="none" stroke="black" d="M685.43,-437.6C653.27,-427.03 604.74,-411.08 566.43,-398.49"/>
<polygon fill="black" stroke="black" points="567.52,-395.16 556.92,-395.36 565.33,-401.81 567.52,-395.16"/>
</g>
<!-- [root] root&#45;&gt;[root] provider[&quot;registry.terraform.io/hashicorp/helm&quot;] (close) -->
<g id="edge26" class="edge">
<title>[root] root&#45;&gt;[root] provider[&quot;registry.terraform.io/hashicorp/helm&quot;] (close)</title>
<path fill="none" stroke="black" d="M754.82,-437.6C786.64,-427.14 834.46,-411.43 872.56,-398.9"/>
<polygon fill="black" stroke="black" points="874.12,-402.08 882.53,-395.63 871.94,-395.43 874.12,-402.08"/>
</g>
<!-- [root] root&#45;&gt;[root] provider[&quot;registry.terraform.io/hashicorp/kubernetes&quot;] (close) -->
<g id="edge27" class="edge">
<title>[root] root&#45;&gt;[root] provider[&quot;registry.terraform.io/hashicorp/kubernetes&quot;] (close)</title>
<path fill="none" stroke="black" d="M767.25,-447.2C868.16,-442.77 1101.76,-429.13 1173.13,-396 1204.25,-381.55 1231.88,-352.93 1249.2,-332.03"/>
<polygon fill="black" stroke="black" points="1251.99,-334.15 1255.54,-324.17 1246.54,-329.76 1251.99,-334.15"/>
</g>
<!-- [root] root&#45;&gt;[root] provider[&quot;registry.terraform.io/hashicorp/random&quot;] (close) -->
<g id="edge28" class="edge">
<title>[root] root&#45;&gt;[root] provider[&quot;registry.terraform.io/hashicorp/random&quot;] (close)</title>
<path fill="none" stroke="black" d="M672.8,-448.74C579.2,-447.27 374.93,-439.07 322.13,-396 258.73,-344.28 244.85,-239.99 241.88,-190.4"/>
<polygon fill="black" stroke="black" points="245.36,-189.95 241.38,-180.13 238.37,-190.29 245.36,-189.95"/>
</g>
</g>
</svg>
