<?xml version="1.0" encoding="UTF-8" standalone="no"?>
<!DOCTYPE svg PUBLIC "-//W3C//DTD SVG 1.1//EN"
 "http://www.w3.org/Graphics/SVG/1.1/DTD/svg11.dtd">
<!-- Generated by graphviz version 2.44.1 (20200629.0846)
 -->
<!-- Pages: 1 -->
<svg width="1661pt" height="404pt"
 viewBox="0.00 0.00 1660.72 404.00" xmlns="http://www.w3.org/2000/svg" xmlns:xlink="http://www.w3.org/1999/xlink">
<g id="graph0" class="graph" transform="scale(1 1) rotate(0) translate(4 400)">
<polygon fill="white" stroke="transparent" points="-4,4 -4,-400 1656.72,-400 1656.72,4 -4,4"/>
<!-- [root] helm_release.external_dns (expand) -->
<g id="node1" class="node">
<title>[root] helm_release.external_dns (expand)</title>
<polygon fill="none" stroke="black" points="723.78,-180 562.78,-180 562.78,-144 723.78,-144 723.78,-180"/>
<text text-anchor="middle" x="643.28" y="-158.3" font-family="Times,serif" font-size="14.00">helm_release.external_dns</text>
</g>
<!-- [root] kubernetes_namespace.this (expand) -->
<g id="node3" class="node">
<title>[root] kubernetes_namespace.this (expand)</title>
<polygon fill="none" stroke="black" points="1179.78,-108 1014.78,-108 1014.78,-72 1179.78,-72 1179.78,-108"/>
<text text-anchor="middle" x="1097.28" y="-86.3" font-family="Times,serif" font-size="14.00">kubernetes_namespace.this</text>
</g>
<!-- [root] helm_release.external_dns (expand)&#45;&gt;[root] kubernetes_namespace.this (expand) -->
<g id="edge1" class="edge">
<title>[root] helm_release.external_dns (expand)&#45;&gt;[root] kubernetes_namespace.this (expand)</title>
<path fill="none" stroke="black" d="M723.93,-148.57C802.57,-136.44 922.06,-118.02 1004.58,-105.29"/>
<polygon fill="black" stroke="black" points="1005.36,-108.71 1014.71,-103.73 1004.29,-101.8 1005.36,-108.71"/>
</g>
<!-- [root] provider[&quot;registry.terraform.io/hashicorp/helm&quot;] -->
<g id="node4" class="node">
<title>[root] provider[&quot;registry.terraform.io/hashicorp/helm&quot;]</title>
<polygon fill="none" stroke="black" points="258.28,-108 0.22,-90 258.28,-72 516.35,-90 258.28,-108"/>
<text text-anchor="middle" x="258.28" y="-86.3" font-family="Times,serif" font-size="14.00">provider[&quot;registry.terraform.io/hashicorp/helm&quot;]</text>
</g>
<!-- [root] helm_release.external_dns (expand)&#45;&gt;[root] provider[&quot;registry.terraform.io/hashicorp/helm&quot;] -->
<g id="edge3" class="edge">
<title>[root] helm_release.external_dns (expand)&#45;&gt;[root] provider[&quot;registry.terraform.io/hashicorp/helm&quot;]</title>
<path fill="none" stroke="black" d="M562.57,-146.33C495.88,-134.2 401.79,-117.09 335.95,-105.12"/>
<polygon fill="black" stroke="black" points="336.5,-101.66 326.04,-103.32 335.25,-108.55 336.5,-101.66"/>
</g>
<!-- [root] local.values (expand) -->
<g id="node10" class="node">
<title>[root] local.values (expand)</title>
<ellipse fill="none" stroke="black" cx="643.28" cy="-90" rx="108.58" ry="18"/>
<text text-anchor="middle" x="643.28" y="-86.3" font-family="Times,serif" font-size="14.00">[root] local.values (expand)</text>
</g>
<!-- [root] helm_release.external_dns (expand)&#45;&gt;[root] local.values (expand) -->
<g id="edge2" class="edge">
<title>[root] helm_release.external_dns (expand)&#45;&gt;[root] local.values (expand)</title>
<path fill="none" stroke="black" d="M643.28,-143.7C643.28,-135.98 643.28,-126.71 643.28,-118.11"/>
<polygon fill="black" stroke="black" points="646.78,-118.1 643.28,-108.1 639.78,-118.1 646.78,-118.1"/>
</g>
<!-- [root] helm_release.external_dns_extras (expand) -->
<g id="node2" class="node">
<title>[root] helm_release.external_dns_extras (expand)</title>
<polygon fill="none" stroke="black" points="743.28,-252 543.28,-252 543.28,-216 743.28,-216 743.28,-252"/>
<text text-anchor="middle" x="643.28" y="-230.3" font-family="Times,serif" font-size="14.00">helm_release.external_dns_extras</text>
</g>
<!-- [root] helm_release.external_dns_extras (expand)&#45;&gt;[root] helm_release.external_dns (expand) -->
<g id="edge4" class="edge">
<title>[root] helm_release.external_dns_extras (expand)&#45;&gt;[root] helm_release.external_dns (expand)</title>
<path fill="none" stroke="black" d="M643.28,-215.7C643.28,-207.98 643.28,-198.71 643.28,-190.11"/>
<polygon fill="black" stroke="black" points="646.78,-190.1 643.28,-180.1 639.78,-190.1 646.78,-190.1"/>
</g>
<!-- [root] provider[&quot;registry.terraform.io/hashicorp/kubernetes&quot;] -->
<g id="node5" class="node">
<title>[root] provider[&quot;registry.terraform.io/hashicorp/kubernetes&quot;]</title>
<polygon fill="none" stroke="black" points="1097.28,-36 810.73,-18 1097.28,0 1383.84,-18 1097.28,-36"/>
<text text-anchor="middle" x="1097.28" y="-14.3" font-family="Times,serif" font-size="14.00">provider[&quot;registry.terraform.io/hashicorp/kubernetes&quot;]</text>
</g>
<!-- [root] kubernetes_namespace.this (expand)&#45;&gt;[root] provider[&quot;registry.terraform.io/hashicorp/kubernetes&quot;] -->
<g id="edge6" class="edge">
<title>[root] kubernetes_namespace.this (expand)&#45;&gt;[root] provider[&quot;registry.terraform.io/hashicorp/kubernetes&quot;]</title>
<path fill="none" stroke="black" d="M1097.28,-71.7C1097.28,-63.98 1097.28,-54.71 1097.28,-46.11"/>
<polygon fill="black" stroke="black" points="1100.78,-46.1 1097.28,-36.1 1093.78,-46.1 1100.78,-46.1"/>
</g>
<!-- [root] local.namespace (expand) -->
<g id="node11" class="node">
<title>[root] local.namespace (expand)</title>
<ellipse fill="none" stroke="black" cx="1527.28" cy="-18" rx="125.38" ry="18"/>
<text text-anchor="middle" x="1527.28" y="-14.3" font-family="Times,serif" font-size="14.00">[root] local.namespace (expand)</text>
</g>
<!-- [root] kubernetes_namespace.this (expand)&#45;&gt;[root] local.namespace (expand) -->
<g id="edge5" class="edge">
<title>[root] kubernetes_namespace.this (expand)&#45;&gt;[root] local.namespace (expand)</title>
<path fill="none" stroke="black" d="M1179.94,-75.54C1253.83,-63.52 1361.86,-45.93 1437.78,-33.57"/>
<polygon fill="black" stroke="black" points="1438.49,-37 1447.8,-31.94 1437.37,-30.09 1438.49,-37"/>
</g>
<!-- [root] var.aws_config -->
<g id="node6" class="node">
<title>[root] var.aws_config</title>
<polygon fill="none" stroke="black" points="439.28,-36 347.28,-36 347.28,0 445.28,0 445.28,-30 439.28,-36"/>
<polyline fill="none" stroke="black" points="439.28,-36 439.28,-30 "/>
<polyline fill="none" stroke="black" points="445.28,-30 439.28,-30 "/>
<text text-anchor="middle" x="396.28" y="-14.3" font-family="Times,serif" font-size="14.00">var.aws_config</text>
</g>
<!-- [root] var.azure_config -->
<g id="node7" class="node">
<title>[root] var.azure_config</title>
<polygon fill="none" stroke="black" points="564.78,-36 463.78,-36 463.78,0 570.78,0 570.78,-30 564.78,-36"/>
<polyline fill="none" stroke="black" points="564.78,-36 564.78,-30 "/>
<polyline fill="none" stroke="black" points="570.78,-30 564.78,-30 "/>
<text text-anchor="middle" x="517.28" y="-14.3" font-family="Times,serif" font-size="14.00">var.azure_config</text>
</g>
<!-- [root] var.dns_provider -->
<g id="node8" class="node">
<title>[root] var.dns_provider</title>
<polygon fill="none" stroke="black" points="691.28,-36 589.28,-36 589.28,0 697.28,0 697.28,-30 691.28,-36"/>
<polyline fill="none" stroke="black" points="691.28,-36 691.28,-30 "/>
<polyline fill="none" stroke="black" points="697.28,-30 691.28,-30 "/>
<text text-anchor="middle" x="643.28" y="-14.3" font-family="Times,serif" font-size="14.00">var.dns_provider</text>
</g>
<!-- [root] var.sources -->
<g id="node9" class="node">
<title>[root] var.sources</title>
<polygon fill="none" stroke="black" points="786.78,-36 715.78,-36 715.78,0 792.78,0 792.78,-30 786.78,-36"/>
<polyline fill="none" stroke="black" points="786.78,-36 786.78,-30 "/>
<polyline fill="none" stroke="black" points="792.78,-30 786.78,-30 "/>
<text text-anchor="middle" x="754.28" y="-14.3" font-family="Times,serif" font-size="14.00">var.sources</text>
</g>
<!-- [root] local.values (expand)&#45;&gt;[root] var.aws_config -->
<g id="edge7" class="edge">
<title>[root] local.values (expand)&#45;&gt;[root] var.aws_config</title>
<path fill="none" stroke="black" d="M589.88,-74.2C554.29,-64.3 506.23,-50.85 455.22,-36.25"/>
<polygon fill="black" stroke="black" points="455.9,-32.81 445.32,-33.42 453.97,-39.54 455.9,-32.81"/>
</g>
<!-- [root] local.values (expand)&#45;&gt;[root] var.azure_config -->
<g id="edge8" class="edge">
<title>[root] local.values (expand)&#45;&gt;[root] var.azure_config</title>
<path fill="none" stroke="black" d="M613.74,-72.59C596.74,-63.14 575.16,-51.15 556.72,-40.91"/>
<polygon fill="black" stroke="black" points="558.4,-37.84 547.96,-36.04 555,-43.96 558.4,-37.84"/>
</g>
<!-- [root] local.values (expand)&#45;&gt;[root] var.dns_provider -->
<g id="edge9" class="edge">
<title>[root] local.values (expand)&#45;&gt;[root] var.dns_provider</title>
<path fill="none" stroke="black" d="M643.28,-71.7C643.28,-63.98 643.28,-54.71 643.28,-46.11"/>
<polygon fill="black" stroke="black" points="646.78,-46.1 643.28,-36.1 639.78,-46.1 646.78,-46.1"/>
</g>
<!-- [root] local.values (expand)&#45;&gt;[root] var.sources -->
<g id="edge10" class="edge">
<title>[root] local.values (expand)&#45;&gt;[root] var.sources</title>
<path fill="none" stroke="black" d="M669.59,-72.41C684.19,-63.2 702.57,-51.61 718.47,-41.59"/>
<polygon fill="black" stroke="black" points="720.42,-44.5 727.01,-36.2 716.68,-38.57 720.42,-44.5"/>
</g>
<!-- [root] meta.count&#45;boundary (EachMode fixup) -->
<g id="node12" class="node">
<title>[root] meta.count&#45;boundary (EachMode fixup)</title>
<ellipse fill="none" stroke="black" cx="412.28" cy="-306" rx="176.27" ry="18"/>
<text text-anchor="middle" x="412.28" y="-302.3" font-family="Times,serif" font-size="14.00">[root] meta.count&#45;boundary (EachMode fixup)</text>
</g>
<!-- [root] meta.count&#45;boundary (EachMode fixup)&#45;&gt;[root] helm_release.external_dns_extras (expand) -->
<g id="edge11" class="edge">
<title>[root] meta.count&#45;boundary (EachMode fixup)&#45;&gt;[root] helm_release.external_dns_extras (expand)</title>
<path fill="none" stroke="black" d="M465.86,-288.76C499.12,-278.69 542.1,-265.66 577.43,-254.95"/>
<polygon fill="black" stroke="black" points="578.63,-258.25 587.18,-252 576.59,-251.55 578.63,-258.25"/>
</g>
<!-- [root] provider[&quot;registry.terraform.io/hashicorp/helm&quot;] (close) -->
<g id="node13" class="node">
<title>[root] provider[&quot;registry.terraform.io/hashicorp/helm&quot;] (close)</title>
<ellipse fill="none" stroke="black" cx="838.28" cy="-306" rx="231.26" ry="18"/>
<text text-anchor="middle" x="838.28" y="-302.3" font-family="Times,serif" font-size="14.00">[root] provider[&quot;registry.terraform.io/hashicorp/helm&quot;] (close)</text>
</g>
<!-- [root] provider[&quot;registry.terraform.io/hashicorp/helm&quot;] (close)&#45;&gt;[root] helm_release.external_dns_extras (expand) -->
<g id="edge12" class="edge">
<title>[root] provider[&quot;registry.terraform.io/hashicorp/helm&quot;] (close)&#45;&gt;[root] helm_release.external_dns_extras (expand)</title>
<path fill="none" stroke="black" d="M791.58,-288.23C764.24,-278.42 729.52,-265.96 700.55,-255.56"/>
<polygon fill="black" stroke="black" points="701.56,-252.2 690.96,-252.12 699.19,-258.79 701.56,-252.2"/>
</g>
<!-- [root] provider[&quot;registry.terraform.io/hashicorp/kubernetes&quot;] (close) -->
<g id="node14" class="node">
<title>[root] provider[&quot;registry.terraform.io/hashicorp/kubernetes&quot;] (close)</title>
<ellipse fill="none" stroke="black" cx="1097.28" cy="-234" rx="251.56" ry="18"/>
<text text-anchor="middle" x="1097.28" y="-230.3" font-family="Times,serif" font-size="14.00">[root] provider[&quot;registry.terraform.io/hashicorp/kubernetes&quot;] (close)</text>
</g>
<!-- [root] provider[&quot;registry.terraform.io/hashicorp/kubernetes&quot;] (close)&#45;&gt;[root] kubernetes_namespace.this (expand) -->
<g id="edge13" class="edge">
<title>[root] provider[&quot;registry.terraform.io/hashicorp/kubernetes&quot;] (close)&#45;&gt;[root] kubernetes_namespace.this (expand)</title>
<path fill="none" stroke="black" d="M1097.28,-215.87C1097.28,-191.67 1097.28,-147.21 1097.28,-118.39"/>
<polygon fill="black" stroke="black" points="1100.78,-118.19 1097.28,-108.19 1093.78,-118.19 1100.78,-118.19"/>
</g>
<!-- [root] root -->
<g id="node15" class="node">
<title>[root] root</title>
<ellipse fill="none" stroke="black" cx="838.28" cy="-378" rx="47.39" ry="18"/>
<text text-anchor="middle" x="838.28" y="-374.3" font-family="Times,serif" font-size="14.00">[root] root</text>
</g>
<!-- [root] root&#45;&gt;[root] meta.count&#45;boundary (EachMode fixup) -->
<g id="edge14" class="edge">
<title>[root] root&#45;&gt;[root] meta.count&#45;boundary (EachMode fixup)</title>
<path fill="none" stroke="black" d="M795.49,-369.97C729.49,-359.12 601.12,-338.03 511.21,-323.26"/>
<polygon fill="black" stroke="black" points="511.71,-319.79 501.27,-321.62 510.57,-326.7 511.71,-319.79"/>
</g>
<!-- [root] root&#45;&gt;[root] provider[&quot;registry.terraform.io/hashicorp/helm&quot;] (close) -->
<g id="edge15" class="edge">
<title>[root] root&#45;&gt;[root] provider[&quot;registry.terraform.io/hashicorp/helm&quot;] (close)</title>
<path fill="none" stroke="black" d="M838.28,-359.7C838.28,-351.98 838.28,-342.71 838.28,-334.11"/>
<polygon fill="black" stroke="black" points="841.78,-334.1 838.28,-324.1 834.78,-334.1 841.78,-334.1"/>
</g>
<!-- [root] root&#45;&gt;[root] provider[&quot;registry.terraform.io/hashicorp/kubernetes&quot;] (close) -->
<g id="edge16" class="edge">
<title>[root] root&#45;&gt;[root] provider[&quot;registry.terraform.io/hashicorp/kubernetes&quot;] (close)</title>
<path fill="none" stroke="black" d="M883.83,-372.77C945.65,-366.09 1051.49,-350.99 1078.28,-324 1094.16,-308.01 1098.24,-282.22 1098.75,-262.51"/>
<polygon fill="black" stroke="black" points="1102.25,-262.27 1098.71,-252.29 1095.25,-262.3 1102.25,-262.27"/>
</g>
</g>
</svg>
