<?xml version="1.0" encoding="UTF-8" standalone="no"?>
<!DOCTYPE svg PUBLIC "-//W3C//DTD SVG 1.1//EN"
 "http://www.w3.org/Graphics/SVG/1.1/DTD/svg11.dtd">
<!-- Generated by graphviz version 2.44.1 (20200629.0846)
 -->
<!-- Pages: 1 -->
<svg width="2324pt" height="332pt"
 viewBox="0.00 0.00 2323.67 332.00" xmlns="http://www.w3.org/2000/svg" xmlns:xlink="http://www.w3.org/1999/xlink">
<g id="graph0" class="graph" transform="scale(1 1) rotate(0) translate(4 328)">
<polygon fill="white" stroke="transparent" points="-4,4 -4,-328 2319.67,-328 2319.67,4 -4,4"/>
<!-- [root] helm_release.csi_secrets_store_provider_azure (expand) -->
<g id="node1" class="node">
<title>[root] helm_release.csi_secrets_store_provider_azure (expand)</title>
<polygon fill="none" stroke="black" points="1400.78,-180 1128.78,-180 1128.78,-144 1400.78,-144 1400.78,-180"/>
<text text-anchor="middle" x="1264.78" y="-158.3" font-family="Times,serif" font-size="14.00">helm_release.csi_secrets_store_provider_azure</text>
</g>
<!-- [root] kubernetes_namespace.this (expand) -->
<g id="node2" class="node">
<title>[root] kubernetes_namespace.this (expand)</title>
<polygon fill="none" stroke="black" points="584.28,-108 419.28,-108 419.28,-72 584.28,-72 584.28,-108"/>
<text text-anchor="middle" x="501.78" y="-86.3" font-family="Times,serif" font-size="14.00">kubernetes_namespace.this</text>
</g>
<!-- [root] helm_release.csi_secrets_store_provider_azure (expand)&#45;&gt;[root] kubernetes_namespace.this (expand) -->
<g id="edge1" class="edge">
<title>[root] helm_release.csi_secrets_store_provider_azure (expand)&#45;&gt;[root] kubernetes_namespace.this (expand)</title>
<path fill="none" stroke="black" d="M1128.76,-154.41C995.22,-146.98 785.59,-132.76 594.42,-108"/>
<polygon fill="black" stroke="black" points="594.83,-104.52 584.46,-106.7 593.93,-111.46 594.83,-104.52"/>
</g>
<!-- [root] provider[&quot;registry.terraform.io/hashicorp/helm&quot;] -->
<g id="node3" class="node">
<title>[root] provider[&quot;registry.terraform.io/hashicorp/helm&quot;]</title>
<polygon fill="none" stroke="black" points="860.78,-108 602.71,-90 860.78,-72 1118.84,-90 860.78,-108"/>
<text text-anchor="middle" x="860.78" y="-86.3" font-family="Times,serif" font-size="14.00">provider[&quot;registry.terraform.io/hashicorp/helm&quot;]</text>
</g>
<!-- [root] helm_release.csi_secrets_store_provider_azure (expand)&#45;&gt;[root] provider[&quot;registry.terraform.io/hashicorp/helm&quot;] -->
<g id="edge6" class="edge">
<title>[root] helm_release.csi_secrets_store_provider_azure (expand)&#45;&gt;[root] provider[&quot;registry.terraform.io/hashicorp/helm&quot;]</title>
<path fill="none" stroke="black" d="M1166.46,-143.97C1097.29,-131.98 1005.87,-116.14 941.07,-104.91"/>
<polygon fill="black" stroke="black" points="941.36,-101.41 930.91,-103.15 940.17,-108.31 941.36,-101.41"/>
</g>
<!-- [root] local.chart_name (expand) -->
<g id="node5" class="node">
<title>[root] local.chart_name (expand)</title>
<ellipse fill="none" stroke="black" cx="1264.78" cy="-90" rx="128.08" ry="18"/>
<text text-anchor="middle" x="1264.78" y="-86.3" font-family="Times,serif" font-size="14.00">[root] local.chart_name (expand)</text>
</g>
<!-- [root] helm_release.csi_secrets_store_provider_azure (expand)&#45;&gt;[root] local.chart_name (expand) -->
<g id="edge2" class="edge">
<title>[root] helm_release.csi_secrets_store_provider_azure (expand)&#45;&gt;[root] local.chart_name (expand)</title>
<path fill="none" stroke="black" d="M1264.78,-143.7C1264.78,-135.98 1264.78,-126.71 1264.78,-118.11"/>
<polygon fill="black" stroke="black" points="1268.28,-118.1 1264.78,-108.1 1261.28,-118.1 1268.28,-118.1"/>
</g>
<!-- [root] local.chart_release_name (expand) -->
<g id="node6" class="node">
<title>[root] local.chart_release_name (expand)</title>
<ellipse fill="none" stroke="black" cx="1567.78" cy="-90" rx="156.77" ry="18"/>
<text text-anchor="middle" x="1567.78" y="-86.3" font-family="Times,serif" font-size="14.00">[root] local.chart_release_name (expand)</text>
</g>
<!-- [root] helm_release.csi_secrets_store_provider_azure (expand)&#45;&gt;[root] local.chart_release_name (expand) -->
<g id="edge3" class="edge">
<title>[root] helm_release.csi_secrets_store_provider_azure (expand)&#45;&gt;[root] local.chart_release_name (expand)</title>
<path fill="none" stroke="black" d="M1338.51,-143.97C1384.96,-133.24 1444.78,-119.41 1491.67,-108.58"/>
<polygon fill="black" stroke="black" points="1492.52,-111.98 1501.47,-106.32 1490.94,-105.16 1492.52,-111.98"/>
</g>
<!-- [root] local.chart_repository (expand) -->
<g id="node7" class="node">
<title>[root] local.chart_repository (expand)</title>
<ellipse fill="none" stroke="black" cx="1885.78" cy="-90" rx="143.77" ry="18"/>
<text text-anchor="middle" x="1885.78" y="-86.3" font-family="Times,serif" font-size="14.00">[root] local.chart_repository (expand)</text>
</g>
<!-- [root] helm_release.csi_secrets_store_provider_azure (expand)&#45;&gt;[root] local.chart_repository (expand) -->
<g id="edge4" class="edge">
<title>[root] helm_release.csi_secrets_store_provider_azure (expand)&#45;&gt;[root] local.chart_repository (expand)</title>
<path fill="none" stroke="black" d="M1401.06,-145.64C1512.43,-133.08 1668.02,-115.55 1772.6,-103.76"/>
<polygon fill="black" stroke="black" points="1773.02,-107.23 1782.56,-102.63 1772.23,-100.28 1773.02,-107.23"/>
</g>
<!-- [root] local.chart_version (expand) -->
<g id="node8" class="node">
<title>[root] local.chart_version (expand)</title>
<ellipse fill="none" stroke="black" cx="2181.78" cy="-90" rx="133.78" ry="18"/>
<text text-anchor="middle" x="2181.78" y="-86.3" font-family="Times,serif" font-size="14.00">[root] local.chart_version (expand)</text>
</g>
<!-- [root] helm_release.csi_secrets_store_provider_azure (expand)&#45;&gt;[root] local.chart_version (expand) -->
<g id="edge5" class="edge">
<title>[root] helm_release.csi_secrets_store_provider_azure (expand)&#45;&gt;[root] local.chart_version (expand)</title>
<path fill="none" stroke="black" d="M1400.91,-153.74C1555.64,-145.01 1815.66,-128.89 2038.78,-108 2051.37,-106.82 2064.58,-105.44 2077.66,-103.99"/>
<polygon fill="black" stroke="black" points="2078.07,-107.47 2087.62,-102.87 2077.29,-100.51 2078.07,-107.47"/>
</g>
<!-- [root] provider[&quot;registry.terraform.io/hashicorp/kubernetes&quot;] -->
<g id="node4" class="node">
<title>[root] provider[&quot;registry.terraform.io/hashicorp/kubernetes&quot;]</title>
<polygon fill="none" stroke="black" points="286.78,-36 0.22,-18 286.78,0 573.33,-18 286.78,-36"/>
<text text-anchor="middle" x="286.78" y="-14.3" font-family="Times,serif" font-size="14.00">provider[&quot;registry.terraform.io/hashicorp/kubernetes&quot;]</text>
</g>
<!-- [root] kubernetes_namespace.this (expand)&#45;&gt;[root] provider[&quot;registry.terraform.io/hashicorp/kubernetes&quot;] -->
<g id="edge8" class="edge">
<title>[root] kubernetes_namespace.this (expand)&#45;&gt;[root] provider[&quot;registry.terraform.io/hashicorp/kubernetes&quot;]</title>
<path fill="none" stroke="black" d="M449.46,-71.97C416.31,-61.17 373.56,-47.25 340.2,-36.39"/>
<polygon fill="black" stroke="black" points="341.21,-33.04 330.62,-33.27 339.04,-39.7 341.21,-33.04"/>
</g>
<!-- [root] local.namespace (expand) -->
<g id="node9" class="node">
<title>[root] local.namespace (expand)</title>
<ellipse fill="none" stroke="black" cx="716.78" cy="-18" rx="125.38" ry="18"/>
<text text-anchor="middle" x="716.78" y="-14.3" font-family="Times,serif" font-size="14.00">[root] local.namespace (expand)</text>
</g>
<!-- [root] kubernetes_namespace.this (expand)&#45;&gt;[root] local.namespace (expand) -->
<g id="edge7" class="edge">
<title>[root] kubernetes_namespace.this (expand)&#45;&gt;[root] local.namespace (expand)</title>
<path fill="none" stroke="black" d="M554.1,-71.97C585.75,-61.66 626.16,-48.5 658.79,-37.88"/>
<polygon fill="black" stroke="black" points="660.22,-41.1 668.64,-34.67 658.05,-34.44 660.22,-41.1"/>
</g>
<!-- [root] meta.count&#45;boundary (EachMode fixup) -->
<g id="node10" class="node">
<title>[root] meta.count&#45;boundary (EachMode fixup)</title>
<ellipse fill="none" stroke="black" cx="838.78" cy="-234" rx="176.27" ry="18"/>
<text text-anchor="middle" x="838.78" y="-230.3" font-family="Times,serif" font-size="14.00">[root] meta.count&#45;boundary (EachMode fixup)</text>
</g>
<!-- [root] meta.count&#45;boundary (EachMode fixup)&#45;&gt;[root] helm_release.csi_secrets_store_provider_azure (expand) -->
<g id="edge9" class="edge">
<title>[root] meta.count&#45;boundary (EachMode fixup)&#45;&gt;[root] helm_release.csi_secrets_store_provider_azure (expand)</title>
<path fill="none" stroke="black" d="M927.56,-218.41C992.41,-207.76 1080.86,-193.22 1150.9,-181.71"/>
<polygon fill="black" stroke="black" points="1151.8,-185.11 1161.1,-180.04 1150.66,-178.2 1151.8,-185.11"/>
</g>
<!-- [root] provider[&quot;registry.terraform.io/hashicorp/helm&quot;] (close) -->
<g id="node11" class="node">
<title>[root] provider[&quot;registry.terraform.io/hashicorp/helm&quot;] (close)</title>
<ellipse fill="none" stroke="black" cx="1264.78" cy="-234" rx="231.26" ry="18"/>
<text text-anchor="middle" x="1264.78" y="-230.3" font-family="Times,serif" font-size="14.00">[root] provider[&quot;registry.terraform.io/hashicorp/helm&quot;] (close)</text>
</g>
<!-- [root] provider[&quot;registry.terraform.io/hashicorp/helm&quot;] (close)&#45;&gt;[root] helm_release.csi_secrets_store_provider_azure (expand) -->
<g id="edge10" class="edge">
<title>[root] provider[&quot;registry.terraform.io/hashicorp/helm&quot;] (close)&#45;&gt;[root] helm_release.csi_secrets_store_provider_azure (expand)</title>
<path fill="none" stroke="black" d="M1264.78,-215.7C1264.78,-207.98 1264.78,-198.71 1264.78,-190.11"/>
<polygon fill="black" stroke="black" points="1268.28,-190.1 1264.78,-180.1 1261.28,-190.1 1268.28,-190.1"/>
</g>
<!-- [root] provider[&quot;registry.terraform.io/hashicorp/kubernetes&quot;] (close) -->
<g id="node12" class="node">
<title>[root] provider[&quot;registry.terraform.io/hashicorp/kubernetes&quot;] (close)</title>
<ellipse fill="none" stroke="black" cx="567.78" cy="-162" rx="251.56" ry="18"/>
<text text-anchor="middle" x="567.78" y="-158.3" font-family="Times,serif" font-size="14.00">[root] provider[&quot;registry.terraform.io/hashicorp/kubernetes&quot;] (close)</text>
</g>
<!-- [root] provider[&quot;registry.terraform.io/hashicorp/kubernetes&quot;] (close)&#45;&gt;[root] kubernetes_namespace.this (expand) -->
<g id="edge11" class="edge">
<title>[root] provider[&quot;registry.terraform.io/hashicorp/kubernetes&quot;] (close)&#45;&gt;[root] kubernetes_namespace.this (expand)</title>
<path fill="none" stroke="black" d="M551.46,-143.7C543.47,-135.22 533.71,-124.86 524.95,-115.58"/>
<polygon fill="black" stroke="black" points="527.31,-112.98 517.9,-108.1 522.22,-117.78 527.31,-112.98"/>
</g>
<!-- [root] root -->
<g id="node13" class="node">
<title>[root] root</title>
<ellipse fill="none" stroke="black" cx="838.78" cy="-306" rx="47.39" ry="18"/>
<text text-anchor="middle" x="838.78" y="-302.3" font-family="Times,serif" font-size="14.00">[root] root</text>
</g>
<!-- [root] root&#45;&gt;[root] meta.count&#45;boundary (EachMode fixup) -->
<g id="edge12" class="edge">
<title>[root] root&#45;&gt;[root] meta.count&#45;boundary (EachMode fixup)</title>
<path fill="none" stroke="black" d="M838.78,-287.7C838.78,-279.98 838.78,-270.71 838.78,-262.11"/>
<polygon fill="black" stroke="black" points="842.28,-262.1 838.78,-252.1 835.28,-262.1 842.28,-262.1"/>
</g>
<!-- [root] root&#45;&gt;[root] provider[&quot;registry.terraform.io/hashicorp/helm&quot;] (close) -->
<g id="edge13" class="edge">
<title>[root] root&#45;&gt;[root] provider[&quot;registry.terraform.io/hashicorp/helm&quot;] (close)</title>
<path fill="none" stroke="black" d="M881.57,-297.97C946.35,-287.32 1071.21,-266.81 1160.82,-252.08"/>
<polygon fill="black" stroke="black" points="1161.44,-255.53 1170.74,-250.45 1160.31,-248.62 1161.44,-255.53"/>
</g>
<!-- [root] root&#45;&gt;[root] provider[&quot;registry.terraform.io/hashicorp/kubernetes&quot;] (close) -->
<g id="edge14" class="edge">
<title>[root] root&#45;&gt;[root] provider[&quot;registry.terraform.io/hashicorp/kubernetes&quot;] (close)</title>
<path fill="none" stroke="black" d="M794.7,-299.01C755.5,-292.2 697.74,-278.4 653.78,-252 626.38,-235.55 601.78,-208.17 585.98,-188.11"/>
<polygon fill="black" stroke="black" points="588.64,-185.82 579.77,-180.02 583.08,-190.08 588.64,-185.82"/>
</g>
</g>
</svg>
