<?xml version="1.0" encoding="UTF-8" standalone="no"?>
<!DOCTYPE svg PUBLIC "-//W3C//DTD SVG 1.1//EN"
 "http://www.w3.org/Graphics/SVG/1.1/DTD/svg11.dtd">
<!-- Generated by graphviz version 2.44.1 (20200629.0846)
 -->
<!-- Pages: 1 -->
<svg width="1239pt" height="404pt"
 viewBox="0.00 0.00 1238.72 404.00" xmlns="http://www.w3.org/2000/svg" xmlns:xlink="http://www.w3.org/1999/xlink">
<g id="graph0" class="graph" transform="scale(1 1) rotate(0) translate(4 400)">
<polygon fill="white" stroke="transparent" points="-4,4 -4,-400 1234.72,-400 1234.72,4 -4,4"/>
<!-- [root] helm_release.kyverno (expand) -->
<g id="node1" class="node">
<title>[root] helm_release.kyverno (expand)</title>
<polygon fill="none" stroke="black" points="679.78,-180 542.78,-180 542.78,-144 679.78,-144 679.78,-180"/>
<text text-anchor="middle" x="611.28" y="-158.3" font-family="Times,serif" font-size="14.00">helm_release.kyverno</text>
</g>
<!-- [root] kubernetes_namespace.this (expand) -->
<g id="node3" class="node">
<title>[root] kubernetes_namespace.this (expand)</title>
<polygon fill="none" stroke="black" points="972.78,-108 807.78,-108 807.78,-72 972.78,-72 972.78,-108"/>
<text text-anchor="middle" x="890.28" y="-86.3" font-family="Times,serif" font-size="14.00">kubernetes_namespace.this</text>
</g>
<!-- [root] helm_release.kyverno (expand)&#45;&gt;[root] kubernetes_namespace.this (expand) -->
<g id="edge1" class="edge">
<title>[root] helm_release.kyverno (expand)&#45;&gt;[root] kubernetes_namespace.this (expand)</title>
<path fill="none" stroke="black" d="M679.18,-143.97C719.35,-133.89 770.38,-121.08 812.21,-110.59"/>
<polygon fill="black" stroke="black" points="813.24,-113.94 822.08,-108.11 811.53,-107.15 813.24,-113.94"/>
</g>
<!-- [root] provider[&quot;registry.terraform.io/hashicorp/helm&quot;] -->
<g id="node4" class="node">
<title>[root] provider[&quot;registry.terraform.io/hashicorp/helm&quot;]</title>
<polygon fill="none" stroke="black" points="258.28,-108 0.22,-90 258.28,-72 516.35,-90 258.28,-108"/>
<text text-anchor="middle" x="258.28" y="-86.3" font-family="Times,serif" font-size="14.00">provider[&quot;registry.terraform.io/hashicorp/helm&quot;]</text>
</g>
<!-- [root] helm_release.kyverno (expand)&#45;&gt;[root] provider[&quot;registry.terraform.io/hashicorp/helm&quot;] -->
<g id="edge3" class="edge">
<title>[root] helm_release.kyverno (expand)&#45;&gt;[root] provider[&quot;registry.terraform.io/hashicorp/helm&quot;]</title>
<path fill="none" stroke="black" d="M542.38,-147.34C481.85,-135.33 394.01,-117.91 332.06,-105.63"/>
<polygon fill="black" stroke="black" points="332.45,-102.14 321.96,-103.63 331.09,-109.01 332.45,-102.14"/>
</g>
<!-- [root] local.version (expand) -->
<g id="node7" class="node">
<title>[root] local.version (expand)</title>
<ellipse fill="none" stroke="black" cx="647.28" cy="-90" rx="112.38" ry="18"/>
<text text-anchor="middle" x="647.28" y="-86.3" font-family="Times,serif" font-size="14.00">[root] local.version (expand)</text>
</g>
<!-- [root] helm_release.kyverno (expand)&#45;&gt;[root] local.version (expand) -->
<g id="edge2" class="edge">
<title>[root] helm_release.kyverno (expand)&#45;&gt;[root] local.version (expand)</title>
<path fill="none" stroke="black" d="M620.18,-143.7C624.28,-135.73 629.23,-126.1 633.78,-117.26"/>
<polygon fill="black" stroke="black" points="637.03,-118.6 638.49,-108.1 630.8,-115.4 637.03,-118.6"/>
</g>
<!-- [root] helm_release.kyverno_extras (expand) -->
<g id="node2" class="node">
<title>[root] helm_release.kyverno_extras (expand)</title>
<polygon fill="none" stroke="black" points="699.28,-252 523.28,-252 523.28,-216 699.28,-216 699.28,-252"/>
<text text-anchor="middle" x="611.28" y="-230.3" font-family="Times,serif" font-size="14.00">helm_release.kyverno_extras</text>
</g>
<!-- [root] helm_release.kyverno_extras (expand)&#45;&gt;[root] helm_release.kyverno (expand) -->
<g id="edge4" class="edge">
<title>[root] helm_release.kyverno_extras (expand)&#45;&gt;[root] helm_release.kyverno (expand)</title>
<path fill="none" stroke="black" d="M611.28,-215.7C611.28,-207.98 611.28,-198.71 611.28,-190.11"/>
<polygon fill="black" stroke="black" points="614.78,-190.1 611.28,-180.1 607.78,-190.1 614.78,-190.1"/>
</g>
<!-- [root] var.excluded_namespaces -->
<g id="node6" class="node">
<title>[root] var.excluded_namespaces</title>
<polygon fill="none" stroke="black" points="850.28,-180 698.28,-180 698.28,-144 856.28,-144 856.28,-174 850.28,-180"/>
<polyline fill="none" stroke="black" points="850.28,-180 850.28,-174 "/>
<polyline fill="none" stroke="black" points="856.28,-174 850.28,-174 "/>
<text text-anchor="middle" x="777.28" y="-158.3" font-family="Times,serif" font-size="14.00">var.excluded_namespaces</text>
</g>
<!-- [root] helm_release.kyverno_extras (expand)&#45;&gt;[root] var.excluded_namespaces -->
<g id="edge5" class="edge">
<title>[root] helm_release.kyverno_extras (expand)&#45;&gt;[root] var.excluded_namespaces</title>
<path fill="none" stroke="black" d="M651.89,-215.88C674.69,-206.26 703.31,-194.19 727.45,-184.01"/>
<polygon fill="black" stroke="black" points="728.95,-187.18 736.81,-180.07 726.23,-180.73 728.95,-187.18"/>
</g>
<!-- [root] provider[&quot;registry.terraform.io/hashicorp/kubernetes&quot;] -->
<g id="node5" class="node">
<title>[root] provider[&quot;registry.terraform.io/hashicorp/kubernetes&quot;]</title>
<polygon fill="none" stroke="black" points="675.28,-36 388.73,-18 675.28,0 961.84,-18 675.28,-36"/>
<text text-anchor="middle" x="675.28" y="-14.3" font-family="Times,serif" font-size="14.00">provider[&quot;registry.terraform.io/hashicorp/kubernetes&quot;]</text>
</g>
<!-- [root] kubernetes_namespace.this (expand)&#45;&gt;[root] provider[&quot;registry.terraform.io/hashicorp/kubernetes&quot;] -->
<g id="edge7" class="edge">
<title>[root] kubernetes_namespace.this (expand)&#45;&gt;[root] provider[&quot;registry.terraform.io/hashicorp/kubernetes&quot;]</title>
<path fill="none" stroke="black" d="M837.96,-71.97C804.82,-61.17 762.07,-47.25 728.71,-36.39"/>
<polygon fill="black" stroke="black" points="729.71,-33.04 719.12,-33.27 727.55,-39.7 729.71,-33.04"/>
</g>
<!-- [root] local.namespace (expand) -->
<g id="node8" class="node">
<title>[root] local.namespace (expand)</title>
<ellipse fill="none" stroke="black" cx="1105.28" cy="-18" rx="125.38" ry="18"/>
<text text-anchor="middle" x="1105.28" y="-14.3" font-family="Times,serif" font-size="14.00">[root] local.namespace (expand)</text>
</g>
<!-- [root] kubernetes_namespace.this (expand)&#45;&gt;[root] local.namespace (expand) -->
<g id="edge6" class="edge">
<title>[root] kubernetes_namespace.this (expand)&#45;&gt;[root] local.namespace (expand)</title>
<path fill="none" stroke="black" d="M942.6,-71.97C974.26,-61.66 1014.67,-48.5 1047.29,-37.88"/>
<polygon fill="black" stroke="black" points="1048.72,-41.1 1057.15,-34.67 1046.56,-34.44 1048.72,-41.1"/>
</g>
<!-- [root] meta.count&#45;boundary (EachMode fixup) -->
<g id="node9" class="node">
<title>[root] meta.count&#45;boundary (EachMode fixup)</title>
<ellipse fill="none" stroke="black" cx="284.28" cy="-306" rx="176.27" ry="18"/>
<text text-anchor="middle" x="284.28" y="-302.3" font-family="Times,serif" font-size="14.00">[root] meta.count&#45;boundary (EachMode fixup)</text>
</g>
<!-- [root] meta.count&#45;boundary (EachMode fixup)&#45;&gt;[root] helm_release.kyverno_extras (expand) -->
<g id="edge8" class="edge">
<title>[root] meta.count&#45;boundary (EachMode fixup)&#45;&gt;[root] helm_release.kyverno_extras (expand)</title>
<path fill="none" stroke="black" d="M356.45,-289.55C405.22,-279.11 469.95,-265.26 521.96,-254.12"/>
<polygon fill="black" stroke="black" points="522.81,-257.52 531.85,-252 521.34,-250.67 522.81,-257.52"/>
</g>
<!-- [root] provider[&quot;registry.terraform.io/hashicorp/helm&quot;] (close) -->
<g id="node10" class="node">
<title>[root] provider[&quot;registry.terraform.io/hashicorp/helm&quot;] (close)</title>
<ellipse fill="none" stroke="black" cx="710.28" cy="-306" rx="231.26" ry="18"/>
<text text-anchor="middle" x="710.28" y="-302.3" font-family="Times,serif" font-size="14.00">[root] provider[&quot;registry.terraform.io/hashicorp/helm&quot;] (close)</text>
</g>
<!-- [root] provider[&quot;registry.terraform.io/hashicorp/helm&quot;] (close)&#45;&gt;[root] helm_release.kyverno_extras (expand) -->
<g id="edge9" class="edge">
<title>[root] provider[&quot;registry.terraform.io/hashicorp/helm&quot;] (close)&#45;&gt;[root] helm_release.kyverno_extras (expand)</title>
<path fill="none" stroke="black" d="M686.32,-288.05C673.52,-279.01 657.59,-267.74 643.71,-257.93"/>
<polygon fill="black" stroke="black" points="645.56,-254.95 635.37,-252.03 641.52,-260.66 645.56,-254.95"/>
</g>
<!-- [root] provider[&quot;registry.terraform.io/hashicorp/kubernetes&quot;] (close) -->
<g id="node11" class="node">
<title>[root] provider[&quot;registry.terraform.io/hashicorp/kubernetes&quot;] (close)</title>
<ellipse fill="none" stroke="black" cx="969.28" cy="-234" rx="251.56" ry="18"/>
<text text-anchor="middle" x="969.28" y="-230.3" font-family="Times,serif" font-size="14.00">[root] provider[&quot;registry.terraform.io/hashicorp/kubernetes&quot;] (close)</text>
</g>
<!-- [root] provider[&quot;registry.terraform.io/hashicorp/kubernetes&quot;] (close)&#45;&gt;[root] kubernetes_namespace.this (expand) -->
<g id="edge10" class="edge">
<title>[root] provider[&quot;registry.terraform.io/hashicorp/kubernetes&quot;] (close)&#45;&gt;[root] kubernetes_namespace.this (expand)</title>
<path fill="none" stroke="black" d="M959.75,-215.87C946.11,-191.35 920.9,-146.03 904.89,-117.26"/>
<polygon fill="black" stroke="black" points="907.77,-115.23 899.85,-108.19 901.65,-118.63 907.77,-115.23"/>
</g>
<!-- [root] root -->
<g id="node12" class="node">
<title>[root] root</title>
<ellipse fill="none" stroke="black" cx="710.28" cy="-378" rx="47.39" ry="18"/>
<text text-anchor="middle" x="710.28" y="-374.3" font-family="Times,serif" font-size="14.00">[root] root</text>
</g>
<!-- [root] root&#45;&gt;[root] meta.count&#45;boundary (EachMode fixup) -->
<g id="edge11" class="edge">
<title>[root] root&#45;&gt;[root] meta.count&#45;boundary (EachMode fixup)</title>
<path fill="none" stroke="black" d="M667.49,-369.97C601.49,-359.12 473.12,-338.03 383.21,-323.26"/>
<polygon fill="black" stroke="black" points="383.71,-319.79 373.27,-321.62 382.57,-326.7 383.71,-319.79"/>
</g>
<!-- [root] root&#45;&gt;[root] provider[&quot;registry.terraform.io/hashicorp/helm&quot;] (close) -->
<g id="edge12" class="edge">
<title>[root] root&#45;&gt;[root] provider[&quot;registry.terraform.io/hashicorp/helm&quot;] (close)</title>
<path fill="none" stroke="black" d="M710.28,-359.7C710.28,-351.98 710.28,-342.71 710.28,-334.11"/>
<polygon fill="black" stroke="black" points="713.78,-334.1 710.28,-324.1 706.78,-334.1 713.78,-334.1"/>
</g>
<!-- [root] root&#45;&gt;[root] provider[&quot;registry.terraform.io/hashicorp/kubernetes&quot;] (close) -->
<g id="edge13" class="edge">
<title>[root] root&#45;&gt;[root] provider[&quot;registry.terraform.io/hashicorp/kubernetes&quot;] (close)</title>
<path fill="none" stroke="black" d="M755.83,-372.77C817.65,-366.09 923.49,-350.99 950.28,-324 966.16,-308.01 970.24,-282.22 970.75,-262.51"/>
<polygon fill="black" stroke="black" points="974.25,-262.27 970.71,-252.29 967.25,-262.3 974.25,-262.27"/>
</g>
</g>
</svg>
