<?xml version="1.0" encoding="UTF-8" standalone="no"?>
<!DOCTYPE svg PUBLIC "-//W3C//DTD SVG 1.1//EN"
 "http://www.w3.org/Graphics/SVG/1.1/DTD/svg11.dtd">
<!-- Generated by graphviz version 2.44.1 (20200629.0846)
 -->
<!-- Pages: 1 -->
<svg width="1834pt" height="332pt"
 viewBox="0.00 0.00 1834.22 332.00" xmlns="http://www.w3.org/2000/svg" xmlns:xlink="http://www.w3.org/1999/xlink">
<g id="graph0" class="graph" transform="scale(1 1) rotate(0) translate(4 328)">
<polygon fill="white" stroke="transparent" points="-4,4 -4,-328 1830.22,-328 1830.22,4 -4,4"/>
<!-- [root] helm_release.aad_pod_identity (expand) -->
<g id="node1" class="node">
<title>[root] helm_release.aad_pod_identity (expand)</title>
<polygon fill="none" stroke="black" points="1321.78,-180 1135.78,-180 1135.78,-144 1321.78,-144 1321.78,-180"/>
<text text-anchor="middle" x="1228.78" y="-158.3" font-family="Times,serif" font-size="14.00">helm_release.aad_pod_identity</text>
</g>
<!-- [root] kubernetes_namespace.this (expand) -->
<g id="node2" class="node">
<title>[root] kubernetes_namespace.this (expand)</title>
<polygon fill="none" stroke="black" points="584.28,-108 419.28,-108 419.28,-72 584.28,-72 584.28,-108"/>
<text text-anchor="middle" x="501.78" y="-86.3" font-family="Times,serif" font-size="14.00">kubernetes_namespace.this</text>
</g>
<!-- [root] helm_release.aad_pod_identity (expand)&#45;&gt;[root] kubernetes_namespace.this (expand) -->
<g id="edge1" class="edge">
<title>[root] helm_release.aad_pod_identity (expand)&#45;&gt;[root] kubernetes_namespace.this (expand)</title>
<path fill="none" stroke="black" d="M1135.66,-156.13C1013.68,-149.11 793.01,-134.16 594.5,-108.01"/>
<polygon fill="black" stroke="black" points="594.84,-104.53 584.47,-106.68 593.92,-111.47 594.84,-104.53"/>
</g>
<!-- [root] provider[&quot;registry.terraform.io/hashicorp/helm&quot;] -->
<g id="node3" class="node">
<title>[root] provider[&quot;registry.terraform.io/hashicorp/helm&quot;]</title>
<polygon fill="none" stroke="black" points="860.78,-108 602.71,-90 860.78,-72 1118.84,-90 860.78,-108"/>
<text text-anchor="middle" x="860.78" y="-86.3" font-family="Times,serif" font-size="14.00">provider[&quot;registry.terraform.io/hashicorp/helm&quot;]</text>
</g>
<!-- [root] helm_release.aad_pod_identity (expand)&#45;&gt;[root] provider[&quot;registry.terraform.io/hashicorp/helm&quot;] -->
<g id="edge5" class="edge">
<title>[root] helm_release.aad_pod_identity (expand)&#45;&gt;[root] provider[&quot;registry.terraform.io/hashicorp/helm&quot;]</title>
<path fill="none" stroke="black" d="M1139.22,-143.97C1077.08,-132.14 995.21,-116.57 936.36,-105.38"/>
<polygon fill="black" stroke="black" points="936.86,-101.91 926.38,-103.48 935.55,-108.79 936.86,-101.91"/>
</g>
<!-- [root] local.name (expand) -->
<g id="node7" class="node">
<title>[root] local.name (expand)</title>
<ellipse fill="none" stroke="black" cx="1242.78" cy="-90" rx="105.88" ry="18"/>
<text text-anchor="middle" x="1242.78" y="-86.3" font-family="Times,serif" font-size="14.00">[root] local.name (expand)</text>
</g>
<!-- [root] helm_release.aad_pod_identity (expand)&#45;&gt;[root] local.name (expand) -->
<g id="edge2" class="edge">
<title>[root] helm_release.aad_pod_identity (expand)&#45;&gt;[root] local.name (expand)</title>
<path fill="none" stroke="black" d="M1232.24,-143.7C1233.78,-135.98 1235.63,-126.71 1237.35,-118.11"/>
<polygon fill="black" stroke="black" points="1240.83,-118.6 1239.36,-108.1 1233.96,-117.22 1240.83,-118.6"/>
</g>
<!-- [root] local.values (expand) -->
<g id="node8" class="node">
<title>[root] local.values (expand)</title>
<ellipse fill="none" stroke="black" cx="1474.78" cy="-90" rx="108.58" ry="18"/>
<text text-anchor="middle" x="1474.78" y="-86.3" font-family="Times,serif" font-size="14.00">[root] local.values (expand)</text>
</g>
<!-- [root] helm_release.aad_pod_identity (expand)&#45;&gt;[root] local.values (expand) -->
<g id="edge3" class="edge">
<title>[root] helm_release.aad_pod_identity (expand)&#45;&gt;[root] local.values (expand)</title>
<path fill="none" stroke="black" d="M1288.64,-143.97C1326.24,-133.27 1374.64,-119.49 1412.66,-108.68"/>
<polygon fill="black" stroke="black" points="1413.93,-111.95 1422.59,-105.85 1412.01,-105.22 1413.93,-111.95"/>
</g>
<!-- [root] local.version (expand) -->
<g id="node9" class="node">
<title>[root] local.version (expand)</title>
<ellipse fill="none" stroke="black" cx="1713.78" cy="-90" rx="112.38" ry="18"/>
<text text-anchor="middle" x="1713.78" y="-86.3" font-family="Times,serif" font-size="14.00">[root] local.version (expand)</text>
</g>
<!-- [root] helm_release.aad_pod_identity (expand)&#45;&gt;[root] local.version (expand) -->
<g id="edge4" class="edge">
<title>[root] helm_release.aad_pod_identity (expand)&#45;&gt;[root] local.version (expand)</title>
<path fill="none" stroke="black" d="M1322,-147.54C1408.82,-135.01 1537.41,-116.46 1623.32,-104.06"/>
<polygon fill="black" stroke="black" points="1623.92,-107.51 1633.32,-102.61 1622.92,-100.58 1623.92,-107.51"/>
</g>
<!-- [root] provider[&quot;registry.terraform.io/hashicorp/kubernetes&quot;] -->
<g id="node4" class="node">
<title>[root] provider[&quot;registry.terraform.io/hashicorp/kubernetes&quot;]</title>
<polygon fill="none" stroke="black" points="286.78,-36 0.22,-18 286.78,0 573.33,-18 286.78,-36"/>
<text text-anchor="middle" x="286.78" y="-14.3" font-family="Times,serif" font-size="14.00">provider[&quot;registry.terraform.io/hashicorp/kubernetes&quot;]</text>
</g>
<!-- [root] kubernetes_namespace.this (expand)&#45;&gt;[root] provider[&quot;registry.terraform.io/hashicorp/kubernetes&quot;] -->
<g id="edge7" class="edge">
<title>[root] kubernetes_namespace.this (expand)&#45;&gt;[root] provider[&quot;registry.terraform.io/hashicorp/kubernetes&quot;]</title>
<path fill="none" stroke="black" d="M449.46,-71.97C416.31,-61.17 373.56,-47.25 340.2,-36.39"/>
<polygon fill="black" stroke="black" points="341.21,-33.04 330.62,-33.27 339.04,-39.7 341.21,-33.04"/>
</g>
<!-- [root] local.namespace (expand) -->
<g id="node10" class="node">
<title>[root] local.namespace (expand)</title>
<ellipse fill="none" stroke="black" cx="716.78" cy="-18" rx="125.38" ry="18"/>
<text text-anchor="middle" x="716.78" y="-14.3" font-family="Times,serif" font-size="14.00">[root] local.namespace (expand)</text>
</g>
<!-- [root] kubernetes_namespace.this (expand)&#45;&gt;[root] local.namespace (expand) -->
<g id="edge6" class="edge">
<title>[root] kubernetes_namespace.this (expand)&#45;&gt;[root] local.namespace (expand)</title>
<path fill="none" stroke="black" d="M554.1,-71.97C585.75,-61.66 626.16,-48.5 658.79,-37.88"/>
<polygon fill="black" stroke="black" points="660.22,-41.1 668.64,-34.67 658.05,-34.44 660.22,-41.1"/>
</g>
<!-- [root] var.aad_pod_identity -->
<g id="node5" class="node">
<title>[root] var.aad_pod_identity</title>
<polygon fill="none" stroke="black" points="1466.28,-36 1341.28,-36 1341.28,0 1472.28,0 1472.28,-30 1466.28,-36"/>
<polyline fill="none" stroke="black" points="1466.28,-36 1466.28,-30 "/>
<polyline fill="none" stroke="black" points="1472.28,-30 1466.28,-30 "/>
<text text-anchor="middle" x="1406.78" y="-14.3" font-family="Times,serif" font-size="14.00">var.aad_pod_identity</text>
</g>
<!-- [root] var.namespaces -->
<g id="node6" class="node">
<title>[root] var.namespaces</title>
<polygon fill="none" stroke="black" points="1586.78,-36 1490.78,-36 1490.78,0 1592.78,0 1592.78,-30 1586.78,-36"/>
<polyline fill="none" stroke="black" points="1586.78,-36 1586.78,-30 "/>
<polyline fill="none" stroke="black" points="1592.78,-30 1586.78,-30 "/>
<text text-anchor="middle" x="1541.78" y="-14.3" font-family="Times,serif" font-size="14.00">var.namespaces</text>
</g>
<!-- [root] local.values (expand)&#45;&gt;[root] var.aad_pod_identity -->
<g id="edge8" class="edge">
<title>[root] local.values (expand)&#45;&gt;[root] var.aad_pod_identity</title>
<path fill="none" stroke="black" d="M1458.32,-72.05C1450,-63.5 1439.77,-52.96 1430.61,-43.54"/>
<polygon fill="black" stroke="black" points="1433.04,-41.01 1423.56,-36.28 1428.02,-45.89 1433.04,-41.01"/>
</g>
<!-- [root] local.values (expand)&#45;&gt;[root] var.namespaces -->
<g id="edge9" class="edge">
<title>[root] local.values (expand)&#45;&gt;[root] var.namespaces</title>
<path fill="none" stroke="black" d="M1491,-72.05C1499.19,-63.5 1509.27,-52.96 1518.29,-43.54"/>
<polygon fill="black" stroke="black" points="1520.86,-45.92 1525.24,-36.28 1515.8,-41.08 1520.86,-45.92"/>
</g>
<!-- [root] meta.count&#45;boundary (EachMode fixup) -->
<g id="node11" class="node">
<title>[root] meta.count&#45;boundary (EachMode fixup)</title>
<ellipse fill="none" stroke="black" cx="802.78" cy="-234" rx="176.27" ry="18"/>
<text text-anchor="middle" x="802.78" y="-230.3" font-family="Times,serif" font-size="14.00">[root] meta.count&#45;boundary (EachMode fixup)</text>
</g>
<!-- [root] meta.count&#45;boundary (EachMode fixup)&#45;&gt;[root] helm_release.aad_pod_identity (expand) -->
<g id="edge10" class="edge">
<title>[root] meta.count&#45;boundary (EachMode fixup)&#45;&gt;[root] helm_release.aad_pod_identity (expand)</title>
<path fill="none" stroke="black" d="M891.56,-218.41C959.8,-207.2 1054.18,-191.69 1125.74,-179.93"/>
<polygon fill="black" stroke="black" points="1126.38,-183.37 1135.68,-178.3 1125.25,-176.46 1126.38,-183.37"/>
</g>
<!-- [root] provider[&quot;registry.terraform.io/hashicorp/helm&quot;] (close) -->
<g id="node12" class="node">
<title>[root] provider[&quot;registry.terraform.io/hashicorp/helm&quot;] (close)</title>
<ellipse fill="none" stroke="black" cx="1228.78" cy="-234" rx="231.26" ry="18"/>
<text text-anchor="middle" x="1228.78" y="-230.3" font-family="Times,serif" font-size="14.00">[root] provider[&quot;registry.terraform.io/hashicorp/helm&quot;] (close)</text>
</g>
<!-- [root] provider[&quot;registry.terraform.io/hashicorp/helm&quot;] (close)&#45;&gt;[root] helm_release.aad_pod_identity (expand) -->
<g id="edge11" class="edge">
<title>[root] provider[&quot;registry.terraform.io/hashicorp/helm&quot;] (close)&#45;&gt;[root] helm_release.aad_pod_identity (expand)</title>
<path fill="none" stroke="black" d="M1228.78,-215.7C1228.78,-207.98 1228.78,-198.71 1228.78,-190.11"/>
<polygon fill="black" stroke="black" points="1232.28,-190.1 1228.78,-180.1 1225.28,-190.1 1232.28,-190.1"/>
</g>
<!-- [root] provider[&quot;registry.terraform.io/hashicorp/kubernetes&quot;] (close) -->
<g id="node13" class="node">
<title>[root] provider[&quot;registry.terraform.io/hashicorp/kubernetes&quot;] (close)</title>
<ellipse fill="none" stroke="black" cx="529.78" cy="-162" rx="251.56" ry="18"/>
<text text-anchor="middle" x="529.78" y="-158.3" font-family="Times,serif" font-size="14.00">[root] provider[&quot;registry.terraform.io/hashicorp/kubernetes&quot;] (close)</text>
</g>
<!-- [root] provider[&quot;registry.terraform.io/hashicorp/kubernetes&quot;] (close)&#45;&gt;[root] kubernetes_namespace.this (expand) -->
<g id="edge12" class="edge">
<title>[root] provider[&quot;registry.terraform.io/hashicorp/kubernetes&quot;] (close)&#45;&gt;[root] kubernetes_namespace.this (expand)</title>
<path fill="none" stroke="black" d="M522.86,-143.7C519.7,-135.81 515.9,-126.3 512.4,-117.55"/>
<polygon fill="black" stroke="black" points="515.58,-116.09 508.62,-108.1 509.08,-118.69 515.58,-116.09"/>
</g>
<!-- [root] root -->
<g id="node14" class="node">
<title>[root] root</title>
<ellipse fill="none" stroke="black" cx="802.78" cy="-306" rx="47.39" ry="18"/>
<text text-anchor="middle" x="802.78" y="-302.3" font-family="Times,serif" font-size="14.00">[root] root</text>
</g>
<!-- [root] root&#45;&gt;[root] meta.count&#45;boundary (EachMode fixup) -->
<g id="edge13" class="edge">
<title>[root] root&#45;&gt;[root] meta.count&#45;boundary (EachMode fixup)</title>
<path fill="none" stroke="black" d="M802.78,-287.7C802.78,-279.98 802.78,-270.71 802.78,-262.11"/>
<polygon fill="black" stroke="black" points="806.28,-262.1 802.78,-252.1 799.28,-262.1 806.28,-262.1"/>
</g>
<!-- [root] root&#45;&gt;[root] provider[&quot;registry.terraform.io/hashicorp/helm&quot;] (close) -->
<g id="edge14" class="edge">
<title>[root] root&#45;&gt;[root] provider[&quot;registry.terraform.io/hashicorp/helm&quot;] (close)</title>
<path fill="none" stroke="black" d="M845.57,-297.97C910.35,-287.32 1035.21,-266.81 1124.82,-252.08"/>
<polygon fill="black" stroke="black" points="1125.44,-255.53 1134.74,-250.45 1124.31,-248.62 1125.44,-255.53"/>
</g>
<!-- [root] root&#45;&gt;[root] provider[&quot;registry.terraform.io/hashicorp/kubernetes&quot;] (close) -->
<g id="edge15" class="edge">
<title>[root] root&#45;&gt;[root] provider[&quot;registry.terraform.io/hashicorp/kubernetes&quot;] (close)</title>
<path fill="none" stroke="black" d="M758.77,-298.89C719.62,-291.99 661.89,-278.15 617.78,-252 589.97,-235.52 564.77,-208.14 548.53,-188.1"/>
<polygon fill="black" stroke="black" points="551.09,-185.68 542.14,-180.01 545.59,-190.02 551.09,-185.68"/>
</g>
</g>
</svg>
