<?xml version="1.0" encoding="UTF-8" standalone="no"?>
<!DOCTYPE svg PUBLIC "-//W3C//DTD SVG 1.1//EN"
 "http://www.w3.org/Graphics/SVG/1.1/DTD/svg11.dtd">
<!-- Generated by graphviz version 2.44.1 (20200629.0846)
 -->
<!-- Pages: 1 -->
<svg width="969pt" height="476pt"
 viewBox="0.00 0.00 968.63 476.00" xmlns="http://www.w3.org/2000/svg" xmlns:xlink="http://www.w3.org/1999/xlink">
<g id="graph0" class="graph" transform="scale(1 1) rotate(0) translate(4 472)">
<polygon fill="white" stroke="transparent" points="-4,4 -4,-472 964.63,-472 964.63,4 -4,4"/>
<!-- [root] aws_iam_policy.eks_admin (expand) -->
<g id="node1" class="node">
<title>[root] aws_iam_policy.eks_admin (expand)</title>
<polygon fill="none" stroke="black" points="298.5,-252 130.5,-252 130.5,-216 298.5,-216 298.5,-252"/>
<text text-anchor="middle" x="214.5" y="-230.3" font-family="Times,serif" font-size="14.00">aws_iam_policy.eks_admin</text>
</g>
<!-- [root] data.aws_iam_policy_document.eks_admin_permission (expand) -->
<g id="node8" class="node">
<title>[root] data.aws_iam_policy_document.eks_admin_permission (expand)</title>
<polygon fill="none" stroke="black" points="323,-180 0,-180 0,-144 323,-144 323,-180"/>
<text text-anchor="middle" x="161.5" y="-158.3" font-family="Times,serif" font-size="14.00">data.aws_iam_policy_document.eks_admin_permission</text>
</g>
<!-- [root] aws_iam_policy.eks_admin (expand)&#45;&gt;[root] data.aws_iam_policy_document.eks_admin_permission (expand) -->
<g id="edge1" class="edge">
<title>[root] aws_iam_policy.eks_admin (expand)&#45;&gt;[root] data.aws_iam_policy_document.eks_admin_permission (expand)</title>
<path fill="none" stroke="black" d="M201.4,-215.7C195.11,-207.39 187.45,-197.28 180.54,-188.14"/>
<polygon fill="black" stroke="black" points="183.28,-185.96 174.45,-180.1 177.7,-190.19 183.28,-185.96"/>
</g>
<!-- [root] aws_iam_role.eks_admin (expand) -->
<g id="node2" class="node">
<title>[root] aws_iam_role.eks_admin (expand)</title>
<polygon fill="none" stroke="black" points="524.5,-252 368.5,-252 368.5,-216 524.5,-216 524.5,-252"/>
<text text-anchor="middle" x="446.5" y="-230.3" font-family="Times,serif" font-size="14.00">aws_iam_role.eks_admin</text>
</g>
<!-- [root] data.aws_iam_policy_document.eks_admin_assume (expand) -->
<g id="node7" class="node">
<title>[root] data.aws_iam_policy_document.eks_admin_assume (expand)</title>
<polygon fill="none" stroke="black" points="644,-180 341,-180 341,-144 644,-144 644,-180"/>
<text text-anchor="middle" x="492.5" y="-158.3" font-family="Times,serif" font-size="14.00">data.aws_iam_policy_document.eks_admin_assume</text>
</g>
<!-- [root] aws_iam_role.eks_admin (expand)&#45;&gt;[root] data.aws_iam_policy_document.eks_admin_assume (expand) -->
<g id="edge2" class="edge">
<title>[root] aws_iam_role.eks_admin (expand)&#45;&gt;[root] data.aws_iam_policy_document.eks_admin_assume (expand)</title>
<path fill="none" stroke="black" d="M457.87,-215.7C463.22,-207.56 469.7,-197.69 475.61,-188.7"/>
<polygon fill="black" stroke="black" points="478.69,-190.38 481.26,-180.1 472.84,-186.54 478.69,-190.38"/>
</g>
<!-- [root] aws_iam_role_policy_attachment.eks_admin (expand) -->
<g id="node3" class="node">
<title>[root] aws_iam_role_policy_attachment.eks_admin (expand)</title>
<polygon fill="none" stroke="black" points="541,-324 278,-324 278,-288 541,-288 541,-324"/>
<text text-anchor="middle" x="409.5" y="-302.3" font-family="Times,serif" font-size="14.00">aws_iam_role_policy_attachment.eks_admin</text>
</g>
<!-- [root] aws_iam_role_policy_attachment.eks_admin (expand)&#45;&gt;[root] aws_iam_policy.eks_admin (expand) -->
<g id="edge3" class="edge">
<title>[root] aws_iam_role_policy_attachment.eks_admin (expand)&#45;&gt;[root] aws_iam_policy.eks_admin (expand)</title>
<path fill="none" stroke="black" d="M361.8,-287.88C334.55,-278.09 300.2,-265.77 271.53,-255.47"/>
<polygon fill="black" stroke="black" points="272.64,-252.15 262.05,-252.07 270.28,-258.74 272.64,-252.15"/>
</g>
<!-- [root] aws_iam_role_policy_attachment.eks_admin (expand)&#45;&gt;[root] aws_iam_role.eks_admin (expand) -->
<g id="edge4" class="edge">
<title>[root] aws_iam_role_policy_attachment.eks_admin (expand)&#45;&gt;[root] aws_iam_role.eks_admin (expand)</title>
<path fill="none" stroke="black" d="M418.65,-287.7C422.9,-279.64 428.06,-269.89 432.77,-260.98"/>
<polygon fill="black" stroke="black" points="435.88,-262.58 437.46,-252.1 429.69,-259.31 435.88,-262.58"/>
</g>
<!-- [root] aws_kms_key.velero (expand) -->
<g id="node4" class="node">
<title>[root] aws_kms_key.velero (expand)</title>
<polygon fill="none" stroke="black" points="801,-180 670,-180 670,-144 801,-144 801,-180"/>
<text text-anchor="middle" x="735.5" y="-158.3" font-family="Times,serif" font-size="14.00">aws_kms_key.velero</text>
</g>
<!-- [root] data.aws_region.current (expand) -->
<g id="node9" class="node">
<title>[root] data.aws_region.current (expand)</title>
<polygon fill="none" stroke="black" points="954,-108 807,-108 807,-72 954,-72 954,-108"/>
<text text-anchor="middle" x="880.5" y="-86.3" font-family="Times,serif" font-size="14.00">data.aws_region.current</text>
</g>
<!-- [root] aws_kms_key.velero (expand)&#45;&gt;[root] data.aws_region.current (expand) -->
<g id="edge5" class="edge">
<title>[root] aws_kms_key.velero (expand)&#45;&gt;[root] data.aws_region.current (expand)</title>
<path fill="none" stroke="black" d="M770.97,-143.88C790.62,-134.39 815.22,-122.51 836.13,-112.42"/>
<polygon fill="black" stroke="black" points="837.66,-115.57 845.14,-108.07 834.62,-109.26 837.66,-115.57"/>
</g>
<!-- [root] var.environment -->
<g id="node11" class="node">
<title>[root] var.environment</title>
<polygon fill="none" stroke="black" points="782.5,-108 682.5,-108 682.5,-72 788.5,-72 788.5,-102 782.5,-108"/>
<polyline fill="none" stroke="black" points="782.5,-108 782.5,-102 "/>
<polyline fill="none" stroke="black" points="788.5,-102 782.5,-102 "/>
<text text-anchor="middle" x="735.5" y="-86.3" font-family="Times,serif" font-size="14.00">var.environment</text>
</g>
<!-- [root] aws_kms_key.velero (expand)&#45;&gt;[root] var.environment -->
<g id="edge6" class="edge">
<title>[root] aws_kms_key.velero (expand)&#45;&gt;[root] var.environment</title>
<path fill="none" stroke="black" d="M735.5,-143.7C735.5,-135.98 735.5,-126.71 735.5,-118.11"/>
<polygon fill="black" stroke="black" points="739,-118.1 735.5,-108.1 732,-118.1 739,-118.1"/>
</g>
<!-- [root] var.name -->
<g id="node12" class="node">
<title>[root] var.name</title>
<polygon fill="none" stroke="black" points="658,-108 597,-108 597,-72 664,-72 664,-102 658,-108"/>
<polyline fill="none" stroke="black" points="658,-108 658,-102 "/>
<polyline fill="none" stroke="black" points="664,-102 658,-102 "/>
<text text-anchor="middle" x="630.5" y="-86.3" font-family="Times,serif" font-size="14.00">var.name</text>
</g>
<!-- [root] aws_kms_key.velero (expand)&#45;&gt;[root] var.name -->
<g id="edge7" class="edge">
<title>[root] aws_kms_key.velero (expand)&#45;&gt;[root] var.name</title>
<path fill="none" stroke="black" d="M709.81,-143.88C696.21,-134.81 679.33,-123.55 664.64,-113.76"/>
<polygon fill="black" stroke="black" points="666.55,-110.82 656.28,-108.19 662.66,-116.65 666.55,-110.82"/>
</g>
<!-- [root] aws_s3_bucket.velero (expand) -->
<g id="node5" class="node">
<title>[root] aws_s3_bucket.velero (expand)</title>
<polygon fill="none" stroke="black" points="804,-252 667,-252 667,-216 804,-216 804,-252"/>
<text text-anchor="middle" x="735.5" y="-230.3" font-family="Times,serif" font-size="14.00">aws_s3_bucket.velero</text>
</g>
<!-- [root] aws_s3_bucket.velero (expand)&#45;&gt;[root] aws_kms_key.velero (expand) -->
<g id="edge8" class="edge">
<title>[root] aws_s3_bucket.velero (expand)&#45;&gt;[root] aws_kms_key.velero (expand)</title>
<path fill="none" stroke="black" d="M735.5,-215.7C735.5,-207.98 735.5,-198.71 735.5,-190.11"/>
<polygon fill="black" stroke="black" points="739,-190.1 735.5,-180.1 732,-190.1 739,-190.1"/>
</g>
<!-- [root] data.aws_caller_identity.current (expand) -->
<g id="node6" class="node">
<title>[root] data.aws_caller_identity.current (expand)</title>
<polygon fill="none" stroke="black" points="578.5,-108 388.5,-108 388.5,-72 578.5,-72 578.5,-108"/>
<text text-anchor="middle" x="483.5" y="-86.3" font-family="Times,serif" font-size="14.00">data.aws_caller_identity.current</text>
</g>
<!-- [root] provider[&quot;registry.terraform.io/hashicorp/aws&quot;] -->
<g id="node10" class="node">
<title>[root] provider[&quot;registry.terraform.io/hashicorp/aws&quot;]</title>
<polygon fill="none" stroke="black" points="483.5,-36 230.96,-18 483.5,0 736.04,-18 483.5,-36"/>
<text text-anchor="middle" x="483.5" y="-14.3" font-family="Times,serif" font-size="14.00">provider[&quot;registry.terraform.io/hashicorp/aws&quot;]</text>
</g>
<!-- [root] data.aws_caller_identity.current (expand)&#45;&gt;[root] provider[&quot;registry.terraform.io/hashicorp/aws&quot;] -->
<g id="edge9" class="edge">
<title>[root] data.aws_caller_identity.current (expand)&#45;&gt;[root] provider[&quot;registry.terraform.io/hashicorp/aws&quot;]</title>
<path fill="none" stroke="black" d="M483.5,-71.7C483.5,-63.98 483.5,-54.71 483.5,-46.11"/>
<polygon fill="black" stroke="black" points="487,-46.1 483.5,-36.1 480,-46.1 487,-46.1"/>
</g>
<!-- [root] data.aws_iam_policy_document.eks_admin_assume (expand)&#45;&gt;[root] data.aws_caller_identity.current (expand) -->
<g id="edge10" class="edge">
<title>[root] data.aws_iam_policy_document.eks_admin_assume (expand)&#45;&gt;[root] data.aws_caller_identity.current (expand)</title>
<path fill="none" stroke="black" d="M490.28,-143.7C489.28,-135.98 488.09,-126.71 486.99,-118.11"/>
<polygon fill="black" stroke="black" points="490.45,-117.58 485.7,-108.1 483.5,-118.47 490.45,-117.58"/>
</g>
<!-- [root] data.aws_iam_policy_document.eks_admin_permission (expand)&#45;&gt;[root] provider[&quot;registry.terraform.io/hashicorp/aws&quot;] -->
<g id="edge11" class="edge">
<title>[root] data.aws_iam_policy_document.eks_admin_permission (expand)&#45;&gt;[root] provider[&quot;registry.terraform.io/hashicorp/aws&quot;]</title>
<path fill="none" stroke="black" d="M200.34,-143.87C260.96,-117.14 377.62,-65.69 440.63,-37.91"/>
<polygon fill="black" stroke="black" points="442.15,-41.06 449.89,-33.82 439.33,-34.65 442.15,-41.06"/>
</g>
<!-- [root] data.aws_region.current (expand)&#45;&gt;[root] provider[&quot;registry.terraform.io/hashicorp/aws&quot;] -->
<g id="edge12" class="edge">
<title>[root] data.aws_region.current (expand)&#45;&gt;[root] provider[&quot;registry.terraform.io/hashicorp/aws&quot;]</title>
<path fill="none" stroke="black" d="M806.76,-73.76C803.63,-73.16 800.54,-72.57 797.5,-72 719.73,-57.48 630.8,-42.63 567.48,-32.36"/>
<polygon fill="black" stroke="black" points="567.97,-28.89 557.54,-30.75 566.85,-35.8 567.97,-28.89"/>
</g>
<!-- [root] meta.count&#45;boundary (EachMode fixup) -->
<g id="node13" class="node">
<title>[root] meta.count&#45;boundary (EachMode fixup)</title>
<ellipse fill="none" stroke="black" cx="784.5" cy="-378" rx="176.27" ry="18"/>
<text text-anchor="middle" x="784.5" y="-374.3" font-family="Times,serif" font-size="14.00">[root] meta.count&#45;boundary (EachMode fixup)</text>
</g>
<!-- [root] meta.count&#45;boundary (EachMode fixup)&#45;&gt;[root] aws_iam_role_policy_attachment.eks_admin (expand) -->
<g id="edge13" class="edge">
<title>[root] meta.count&#45;boundary (EachMode fixup)&#45;&gt;[root] aws_iam_role_policy_attachment.eks_admin (expand)</title>
<path fill="none" stroke="black" d="M704.05,-361.98C647.48,-351.42 571.36,-337.21 510.67,-325.89"/>
<polygon fill="black" stroke="black" points="511.16,-322.42 500.68,-324.02 509.87,-329.3 511.16,-322.42"/>
</g>
<!-- [root] output.velero_config (expand) -->
<g id="node14" class="node">
<title>[root] output.velero_config (expand)</title>
<ellipse fill="none" stroke="black" cx="772.5" cy="-306" rx="139.98" ry="18"/>
<text text-anchor="middle" x="772.5" y="-302.3" font-family="Times,serif" font-size="14.00">[root] output.velero_config (expand)</text>
</g>
<!-- [root] meta.count&#45;boundary (EachMode fixup)&#45;&gt;[root] output.velero_config (expand) -->
<g id="edge14" class="edge">
<title>[root] meta.count&#45;boundary (EachMode fixup)&#45;&gt;[root] output.velero_config (expand)</title>
<path fill="none" stroke="black" d="M781.53,-359.7C780.21,-351.98 778.62,-342.71 777.15,-334.11"/>
<polygon fill="black" stroke="black" points="780.57,-333.37 775.43,-324.1 773.67,-334.55 780.57,-333.37"/>
</g>
<!-- [root] output.velero_config (expand)&#45;&gt;[root] aws_s3_bucket.velero (expand) -->
<g id="edge15" class="edge">
<title>[root] output.velero_config (expand)&#45;&gt;[root] aws_s3_bucket.velero (expand)</title>
<path fill="none" stroke="black" d="M763.35,-287.7C759.1,-279.64 753.94,-269.89 749.23,-260.98"/>
<polygon fill="black" stroke="black" points="752.31,-259.31 744.54,-252.1 746.12,-262.58 752.31,-259.31"/>
</g>
<!-- [root] provider[&quot;registry.terraform.io/hashicorp/aws&quot;] (close) -->
<g id="node15" class="node">
<title>[root] provider[&quot;registry.terraform.io/hashicorp/aws&quot;] (close)</title>
<ellipse fill="none" stroke="black" cx="362.5" cy="-378" rx="227.46" ry="18"/>
<text text-anchor="middle" x="362.5" y="-374.3" font-family="Times,serif" font-size="14.00">[root] provider[&quot;registry.terraform.io/hashicorp/aws&quot;] (close)</text>
</g>
<!-- [root] provider[&quot;registry.terraform.io/hashicorp/aws&quot;] (close)&#45;&gt;[root] aws_iam_role_policy_attachment.eks_admin (expand) -->
<g id="edge16" class="edge">
<title>[root] provider[&quot;registry.terraform.io/hashicorp/aws&quot;] (close)&#45;&gt;[root] aws_iam_role_policy_attachment.eks_admin (expand)</title>
<path fill="none" stroke="black" d="M374.12,-359.7C379.64,-351.47 386.35,-341.48 392.43,-332.42"/>
<polygon fill="black" stroke="black" points="395.35,-334.36 398.02,-324.1 389.54,-330.46 395.35,-334.36"/>
</g>
<!-- [root] provider[&quot;registry.terraform.io/hashicorp/aws&quot;] (close)&#45;&gt;[root] aws_s3_bucket.velero (expand) -->
<g id="edge17" class="edge">
<title>[root] provider[&quot;registry.terraform.io/hashicorp/aws&quot;] (close)&#45;&gt;[root] aws_s3_bucket.velero (expand)</title>
<path fill="none" stroke="black" d="M431.36,-360.82C467.37,-351.56 511.88,-338.82 550.5,-324 584.27,-311.04 590.93,-303.74 623.5,-288 645.34,-277.45 669.66,-265.91 690.05,-256.31"/>
<polygon fill="black" stroke="black" points="691.56,-259.46 699.11,-252.04 688.57,-253.13 691.56,-259.46"/>
</g>
<!-- [root] root -->
<g id="node16" class="node">
<title>[root] root</title>
<ellipse fill="none" stroke="black" cx="573.5" cy="-450" rx="47.39" ry="18"/>
<text text-anchor="middle" x="573.5" y="-446.3" font-family="Times,serif" font-size="14.00">[root] root</text>
</g>
<!-- [root] root&#45;&gt;[root] meta.count&#45;boundary (EachMode fixup) -->
<g id="edge18" class="edge">
<title>[root] root&#45;&gt;[root] meta.count&#45;boundary (EachMode fixup)</title>
<path fill="none" stroke="black" d="M608.34,-437.44C640.15,-426.89 687.81,-411.08 725.54,-398.56"/>
<polygon fill="black" stroke="black" points="727.01,-401.76 735.4,-395.29 724.8,-395.12 727.01,-401.76"/>
</g>
<!-- [root] root&#45;&gt;[root] provider[&quot;registry.terraform.io/hashicorp/aws&quot;] (close) -->
<g id="edge19" class="edge">
<title>[root] root&#45;&gt;[root] provider[&quot;registry.terraform.io/hashicorp/aws&quot;] (close)</title>
<path fill="none" stroke="black" d="M538.66,-437.44C507.18,-427 460.16,-411.4 422.61,-398.94"/>
<polygon fill="black" stroke="black" points="423.39,-395.51 412.79,-395.68 421.18,-402.16 423.39,-395.51"/>
</g>
</g>
</svg>
