<?xml version="1.0" encoding="UTF-8" standalone="no"?>
<!DOCTYPE svg PUBLIC "-//W3C//DTD SVG 1.1//EN"
 "http://www.w3.org/Graphics/SVG/1.1/DTD/svg11.dtd">
<!-- Generated by graphviz version 2.44.1 (20200629.0846)
 -->
<!-- Pages: 1 -->
<svg width="1711pt" height="404pt"
 viewBox="0.00 0.00 1711.06 404.00" xmlns="http://www.w3.org/2000/svg" xmlns:xlink="http://www.w3.org/1999/xlink">
<g id="graph0" class="graph" transform="scale(1 1) rotate(0) translate(4 400)">
<polygon fill="white" stroke="transparent" points="-4,4 -4,-400 1707.06,-400 1707.06,4 -4,4"/>
<!-- [root] helm_release.velero (expand) -->
<g id="node1" class="node">
<title>[root] helm_release.velero (expand)</title>
<polygon fill="none" stroke="black" points="704.28,-180 578.28,-180 578.28,-144 704.28,-144 704.28,-180"/>
<text text-anchor="middle" x="641.28" y="-158.3" font-family="Times,serif" font-size="14.00">helm_release.velero</text>
</g>
<!-- [root] kubernetes_namespace.this (expand) -->
<g id="node3" class="node">
<title>[root] kubernetes_namespace.this (expand)</title>
<polygon fill="none" stroke="black" points="1069.78,-108 904.78,-108 904.78,-72 1069.78,-72 1069.78,-108"/>
<text text-anchor="middle" x="987.28" y="-86.3" font-family="Times,serif" font-size="14.00">kubernetes_namespace.this</text>
</g>
<!-- [root] helm_release.velero (expand)&#45;&gt;[root] kubernetes_namespace.this (expand) -->
<g id="edge1" class="edge">
<title>[root] helm_release.velero (expand)&#45;&gt;[root] kubernetes_namespace.this (expand)</title>
<path fill="none" stroke="black" d="M704.34,-148.24C757.61,-137.47 834.62,-121.88 894.86,-109.7"/>
<polygon fill="black" stroke="black" points="895.65,-113.11 904.75,-107.7 894.26,-106.25 895.65,-113.11"/>
</g>
<!-- [root] provider[&quot;registry.terraform.io/hashicorp/helm&quot;] -->
<g id="node4" class="node">
<title>[root] provider[&quot;registry.terraform.io/hashicorp/helm&quot;]</title>
<polygon fill="none" stroke="black" points="258.28,-108 0.22,-90 258.28,-72 516.35,-90 258.28,-108"/>
<text text-anchor="middle" x="258.28" y="-86.3" font-family="Times,serif" font-size="14.00">provider[&quot;registry.terraform.io/hashicorp/helm&quot;]</text>
</g>
<!-- [root] helm_release.velero (expand)&#45;&gt;[root] provider[&quot;registry.terraform.io/hashicorp/helm&quot;] -->
<g id="edge3" class="edge">
<title>[root] helm_release.velero (expand)&#45;&gt;[root] provider[&quot;registry.terraform.io/hashicorp/helm&quot;]</title>
<path fill="none" stroke="black" d="M578.04,-149.44C511.58,-137.29 406.99,-118.18 335.65,-105.14"/>
<polygon fill="black" stroke="black" points="336.28,-101.7 325.82,-103.34 335.02,-108.58 336.28,-101.7"/>
</g>
<!-- [root] local.values (expand) -->
<g id="node9" class="node">
<title>[root] local.values (expand)</title>
<ellipse fill="none" stroke="black" cx="643.28" cy="-90" rx="108.58" ry="18"/>
<text text-anchor="middle" x="643.28" y="-86.3" font-family="Times,serif" font-size="14.00">[root] local.values (expand)</text>
</g>
<!-- [root] helm_release.velero (expand)&#45;&gt;[root] local.values (expand) -->
<g id="edge2" class="edge">
<title>[root] helm_release.velero (expand)&#45;&gt;[root] local.values (expand)</title>
<path fill="none" stroke="black" d="M641.78,-143.7C642,-135.98 642.26,-126.71 642.51,-118.11"/>
<polygon fill="black" stroke="black" points="646.01,-118.2 642.79,-108.1 639.01,-118 646.01,-118.2"/>
</g>
<!-- [root] helm_release.velero_extras (expand) -->
<g id="node2" class="node">
<title>[root] helm_release.velero_extras (expand)</title>
<polygon fill="none" stroke="black" points="719.78,-252 554.78,-252 554.78,-216 719.78,-216 719.78,-252"/>
<text text-anchor="middle" x="637.28" y="-230.3" font-family="Times,serif" font-size="14.00">helm_release.velero_extras</text>
</g>
<!-- [root] helm_release.velero_extras (expand)&#45;&gt;[root] helm_release.velero (expand) -->
<g id="edge4" class="edge">
<title>[root] helm_release.velero_extras (expand)&#45;&gt;[root] helm_release.velero (expand)</title>
<path fill="none" stroke="black" d="M638.27,-215.7C638.71,-207.98 639.24,-198.71 639.73,-190.11"/>
<polygon fill="black" stroke="black" points="643.23,-190.29 640.31,-180.1 636.24,-189.89 643.23,-190.29"/>
</g>
<!-- [root] provider[&quot;registry.terraform.io/hashicorp/kubernetes&quot;] -->
<g id="node5" class="node">
<title>[root] provider[&quot;registry.terraform.io/hashicorp/kubernetes&quot;]</title>
<polygon fill="none" stroke="black" points="1416.28,-36 1129.73,-18 1416.28,0 1702.84,-18 1416.28,-36"/>
<text text-anchor="middle" x="1416.28" y="-14.3" font-family="Times,serif" font-size="14.00">provider[&quot;registry.terraform.io/hashicorp/kubernetes&quot;]</text>
</g>
<!-- [root] kubernetes_namespace.this (expand)&#45;&gt;[root] provider[&quot;registry.terraform.io/hashicorp/kubernetes&quot;] -->
<g id="edge6" class="edge">
<title>[root] kubernetes_namespace.this (expand)&#45;&gt;[root] provider[&quot;registry.terraform.io/hashicorp/kubernetes&quot;]</title>
<path fill="none" stroke="black" d="M1070,-75.5C1145.03,-63.26 1255.19,-45.29 1331.01,-32.91"/>
<polygon fill="black" stroke="black" points="1331.7,-36.35 1341,-31.28 1330.57,-29.44 1331.7,-36.35"/>
</g>
<!-- [root] local.namespace (expand) -->
<g id="node10" class="node">
<title>[root] local.namespace (expand)</title>
<ellipse fill="none" stroke="black" cx="986.28" cy="-18" rx="125.38" ry="18"/>
<text text-anchor="middle" x="986.28" y="-14.3" font-family="Times,serif" font-size="14.00">[root] local.namespace (expand)</text>
</g>
<!-- [root] kubernetes_namespace.this (expand)&#45;&gt;[root] local.namespace (expand) -->
<g id="edge5" class="edge">
<title>[root] kubernetes_namespace.this (expand)&#45;&gt;[root] local.namespace (expand)</title>
<path fill="none" stroke="black" d="M987.04,-71.7C986.93,-63.98 986.79,-54.71 986.67,-46.11"/>
<polygon fill="black" stroke="black" points="990.17,-46.05 986.53,-36.1 983.17,-46.15 990.17,-46.05"/>
</g>
<!-- [root] var.aws_config -->
<g id="node6" class="node">
<title>[root] var.aws_config</title>
<polygon fill="none" stroke="black" points="565.28,-36 473.28,-36 473.28,0 571.28,0 571.28,-30 565.28,-36"/>
<polyline fill="none" stroke="black" points="565.28,-36 565.28,-30 "/>
<polyline fill="none" stroke="black" points="571.28,-30 565.28,-30 "/>
<text text-anchor="middle" x="522.28" y="-14.3" font-family="Times,serif" font-size="14.00">var.aws_config</text>
</g>
<!-- [root] var.azure_config -->
<g id="node7" class="node">
<title>[root] var.azure_config</title>
<polygon fill="none" stroke="black" points="690.78,-36 589.78,-36 589.78,0 696.78,0 696.78,-30 690.78,-36"/>
<polyline fill="none" stroke="black" points="690.78,-36 690.78,-30 "/>
<polyline fill="none" stroke="black" points="696.78,-30 690.78,-30 "/>
<text text-anchor="middle" x="643.28" y="-14.3" font-family="Times,serif" font-size="14.00">var.azure_config</text>
</g>
<!-- [root] var.cloud_provider -->
<g id="node8" class="node">
<title>[root] var.cloud_provider</title>
<polygon fill="none" stroke="black" points="827.78,-36 714.78,-36 714.78,0 833.78,0 833.78,-30 827.78,-36"/>
<polyline fill="none" stroke="black" points="827.78,-36 827.78,-30 "/>
<polyline fill="none" stroke="black" points="833.78,-30 827.78,-30 "/>
<text text-anchor="middle" x="774.28" y="-14.3" font-family="Times,serif" font-size="14.00">var.cloud_provider</text>
</g>
<!-- [root] local.values (expand)&#45;&gt;[root] var.aws_config -->
<g id="edge7" class="edge">
<title>[root] local.values (expand)&#45;&gt;[root] var.aws_config</title>
<path fill="none" stroke="black" d="M614.91,-72.59C598.73,-63.23 578.24,-51.37 560.64,-41.19"/>
<polygon fill="black" stroke="black" points="562.15,-38.02 551.74,-36.04 558.64,-44.08 562.15,-38.02"/>
</g>
<!-- [root] local.values (expand)&#45;&gt;[root] var.azure_config -->
<g id="edge8" class="edge">
<title>[root] local.values (expand)&#45;&gt;[root] var.azure_config</title>
<path fill="none" stroke="black" d="M643.28,-71.7C643.28,-63.98 643.28,-54.71 643.28,-46.11"/>
<polygon fill="black" stroke="black" points="646.78,-46.1 643.28,-36.1 639.78,-46.1 646.78,-46.1"/>
</g>
<!-- [root] local.values (expand)&#45;&gt;[root] var.cloud_provider -->
<g id="edge9" class="edge">
<title>[root] local.values (expand)&#45;&gt;[root] var.cloud_provider</title>
<path fill="none" stroke="black" d="M674,-72.59C691.75,-63.1 714.32,-51.04 733.54,-40.77"/>
<polygon fill="black" stroke="black" points="735.22,-43.84 742.39,-36.04 731.92,-37.67 735.22,-43.84"/>
</g>
<!-- [root] meta.count&#45;boundary (EachMode fixup) -->
<g id="node11" class="node">
<title>[root] meta.count&#45;boundary (EachMode fixup)</title>
<ellipse fill="none" stroke="black" cx="304.28" cy="-306" rx="176.27" ry="18"/>
<text text-anchor="middle" x="304.28" y="-302.3" font-family="Times,serif" font-size="14.00">[root] meta.count&#45;boundary (EachMode fixup)</text>
</g>
<!-- [root] meta.count&#45;boundary (EachMode fixup)&#45;&gt;[root] helm_release.velero_extras (expand) -->
<g id="edge10" class="edge">
<title>[root] meta.count&#45;boundary (EachMode fixup)&#45;&gt;[root] helm_release.velero_extras (expand)</title>
<path fill="none" stroke="black" d="M377.77,-289.55C427.44,-279.11 493.35,-265.26 546.32,-254.12"/>
<polygon fill="black" stroke="black" points="547.33,-257.49 556.4,-252 545.89,-250.64 547.33,-257.49"/>
</g>
<!-- [root] provider[&quot;registry.terraform.io/hashicorp/helm&quot;] (close) -->
<g id="node12" class="node">
<title>[root] provider[&quot;registry.terraform.io/hashicorp/helm&quot;] (close)</title>
<ellipse fill="none" stroke="black" cx="730.28" cy="-306" rx="231.26" ry="18"/>
<text text-anchor="middle" x="730.28" y="-302.3" font-family="Times,serif" font-size="14.00">[root] provider[&quot;registry.terraform.io/hashicorp/helm&quot;] (close)</text>
</g>
<!-- [root] provider[&quot;registry.terraform.io/hashicorp/helm&quot;] (close)&#45;&gt;[root] helm_release.velero_extras (expand) -->
<g id="edge11" class="edge">
<title>[root] provider[&quot;registry.terraform.io/hashicorp/helm&quot;] (close)&#45;&gt;[root] helm_release.velero_extras (expand)</title>
<path fill="none" stroke="black" d="M707.77,-288.05C695.86,-279.09 681.07,-267.96 668.11,-258.2"/>
<polygon fill="black" stroke="black" points="670.01,-255.25 659.91,-252.03 665.8,-260.84 670.01,-255.25"/>
</g>
<!-- [root] provider[&quot;registry.terraform.io/hashicorp/kubernetes&quot;] (close) -->
<g id="node13" class="node">
<title>[root] provider[&quot;registry.terraform.io/hashicorp/kubernetes&quot;] (close)</title>
<ellipse fill="none" stroke="black" cx="989.28" cy="-234" rx="251.56" ry="18"/>
<text text-anchor="middle" x="989.28" y="-230.3" font-family="Times,serif" font-size="14.00">[root] provider[&quot;registry.terraform.io/hashicorp/kubernetes&quot;] (close)</text>
</g>
<!-- [root] provider[&quot;registry.terraform.io/hashicorp/kubernetes&quot;] (close)&#45;&gt;[root] kubernetes_namespace.this (expand) -->
<g id="edge12" class="edge">
<title>[root] provider[&quot;registry.terraform.io/hashicorp/kubernetes&quot;] (close)&#45;&gt;[root] kubernetes_namespace.this (expand)</title>
<path fill="none" stroke="black" d="M989.04,-215.87C988.7,-191.67 988.07,-147.21 987.67,-118.39"/>
<polygon fill="black" stroke="black" points="991.17,-118.14 987.53,-108.19 984.17,-118.24 991.17,-118.14"/>
</g>
<!-- [root] root -->
<g id="node14" class="node">
<title>[root] root</title>
<ellipse fill="none" stroke="black" cx="730.28" cy="-378" rx="47.39" ry="18"/>
<text text-anchor="middle" x="730.28" y="-374.3" font-family="Times,serif" font-size="14.00">[root] root</text>
</g>
<!-- [root] root&#45;&gt;[root] meta.count&#45;boundary (EachMode fixup) -->
<g id="edge13" class="edge">
<title>[root] root&#45;&gt;[root] meta.count&#45;boundary (EachMode fixup)</title>
<path fill="none" stroke="black" d="M687.49,-369.97C621.49,-359.12 493.12,-338.03 403.21,-323.26"/>
<polygon fill="black" stroke="black" points="403.71,-319.79 393.27,-321.62 402.57,-326.7 403.71,-319.79"/>
</g>
<!-- [root] root&#45;&gt;[root] provider[&quot;registry.terraform.io/hashicorp/helm&quot;] (close) -->
<g id="edge14" class="edge">
<title>[root] root&#45;&gt;[root] provider[&quot;registry.terraform.io/hashicorp/helm&quot;] (close)</title>
<path fill="none" stroke="black" d="M730.28,-359.7C730.28,-351.98 730.28,-342.71 730.28,-334.11"/>
<polygon fill="black" stroke="black" points="733.78,-334.1 730.28,-324.1 726.78,-334.1 733.78,-334.1"/>
</g>
<!-- [root] root&#45;&gt;[root] provider[&quot;registry.terraform.io/hashicorp/kubernetes&quot;] (close) -->
<g id="edge15" class="edge">
<title>[root] root&#45;&gt;[root] provider[&quot;registry.terraform.io/hashicorp/kubernetes&quot;] (close)</title>
<path fill="none" stroke="black" d="M775.83,-372.77C837.65,-366.09 943.49,-350.99 970.28,-324 986.16,-308.01 990.24,-282.22 990.75,-262.51"/>
<polygon fill="black" stroke="black" points="994.25,-262.27 990.71,-252.29 987.25,-262.3 994.25,-262.27"/>
</g>
</g>
</svg>
