<?xml version="1.0" encoding="UTF-8" standalone="no"?>
<!DOCTYPE svg PUBLIC "-//W3C//DTD SVG 1.1//EN"
 "http://www.w3.org/Graphics/SVG/1.1/DTD/svg11.dtd">
<!-- Generated by graphviz version 2.44.1 (20200629.0846)
 -->
<!-- Pages: 1 -->
<svg width="1923pt" height="548pt"
 viewBox="0.00 0.00 1923.35 548.00" xmlns="http://www.w3.org/2000/svg" xmlns:xlink="http://www.w3.org/1999/xlink">
<g id="graph0" class="graph" transform="scale(1 1) rotate(0) translate(4 544)">
<polygon fill="white" stroke="transparent" points="-4,4 -4,-544 1919.35,-544 1919.35,4 -4,4"/>
<!-- [root] azurerm_network_security_group.nsg (expand) -->
<g id="node1" class="node">
<title>[root] azurerm_network_security_group.nsg (expand)</title>
<polygon fill="none" stroke="black" points="373,-252 150,-252 150,-216 373,-216 373,-252"/>
<text text-anchor="middle" x="261.5" y="-230.3" font-family="Times,serif" font-size="14.00">azurerm_network_security_group.nsg</text>
</g>
<!-- [root] data.azurerm_resource_group.rg (expand) -->
<g id="node10" class="node">
<title>[root] data.azurerm_resource_group.rg (expand)</title>
<polygon fill="none" stroke="black" points="512.5,-180 318.5,-180 318.5,-144 512.5,-144 512.5,-180"/>
<text text-anchor="middle" x="415.5" y="-158.3" font-family="Times,serif" font-size="14.00">data.azurerm_resource_group.rg</text>
</g>
<!-- [root] azurerm_network_security_group.nsg (expand)&#45;&gt;[root] data.azurerm_resource_group.rg (expand) -->
<g id="edge1" class="edge">
<title>[root] azurerm_network_security_group.nsg (expand)&#45;&gt;[root] data.azurerm_resource_group.rg (expand)</title>
<path fill="none" stroke="black" d="M299.17,-215.88C320.13,-206.35 346.4,-194.41 368.68,-184.28"/>
<polygon fill="black" stroke="black" points="370.29,-187.39 377.95,-180.07 367.4,-181.02 370.29,-187.39"/>
</g>
<!-- [root] local.subnets (expand) -->
<g id="node21" class="node">
<title>[root] local.subnets (expand)</title>
<ellipse fill="none" stroke="black" cx="121.5" cy="-162" rx="112.38" ry="18"/>
<text text-anchor="middle" x="121.5" y="-158.3" font-family="Times,serif" font-size="14.00">[root] local.subnets (expand)</text>
</g>
<!-- [root] azurerm_network_security_group.nsg (expand)&#45;&gt;[root] local.subnets (expand) -->
<g id="edge2" class="edge">
<title>[root] azurerm_network_security_group.nsg (expand)&#45;&gt;[root] local.subnets (expand)</title>
<path fill="none" stroke="black" d="M227.25,-215.88C208.02,-206.26 183.86,-194.18 163.49,-184"/>
<polygon fill="black" stroke="black" points="164.94,-180.81 154.43,-179.47 161.81,-187.07 164.94,-180.81"/>
</g>
<!-- [root] azurerm_role_assignment.service_endpoint_join (expand) -->
<g id="node2" class="node">
<title>[root] azurerm_role_assignment.service_endpoint_join (expand)</title>
<polygon fill="none" stroke="black" points="1153,-396 872,-396 872,-360 1153,-360 1153,-396"/>
<text text-anchor="middle" x="1012.5" y="-374.3" font-family="Times,serif" font-size="14.00">azurerm_role_assignment.service_endpoint_join</text>
</g>
<!-- [root] azurerm_role_definition.service_endpoint_join (expand) -->
<g id="node3" class="node">
<title>[root] azurerm_role_definition.service_endpoint_join (expand)</title>
<polygon fill="none" stroke="black" points="780.5,-324 508.5,-324 508.5,-288 780.5,-288 780.5,-324"/>
<text text-anchor="middle" x="644.5" y="-302.3" font-family="Times,serif" font-size="14.00">azurerm_role_definition.service_endpoint_join</text>
</g>
<!-- [root] azurerm_role_assignment.service_endpoint_join (expand)&#45;&gt;[root] azurerm_role_definition.service_endpoint_join (expand) -->
<g id="edge3" class="edge">
<title>[root] azurerm_role_assignment.service_endpoint_join (expand)&#45;&gt;[root] azurerm_role_definition.service_endpoint_join (expand)</title>
<path fill="none" stroke="black" d="M922.95,-359.97C868.86,-349.68 799.83,-336.55 744.04,-325.93"/>
<polygon fill="black" stroke="black" points="744.61,-322.48 734.13,-324.05 743.3,-329.36 744.61,-322.48"/>
</g>
<!-- [root] data.azuread_group.service_endpoint_join (expand) -->
<g id="node9" class="node">
<title>[root] data.azuread_group.service_endpoint_join (expand)</title>
<polygon fill="none" stroke="black" points="1390,-324 1143,-324 1143,-288 1390,-288 1390,-324"/>
<text text-anchor="middle" x="1266.5" y="-302.3" font-family="Times,serif" font-size="14.00">data.azuread_group.service_endpoint_join</text>
</g>
<!-- [root] azurerm_role_assignment.service_endpoint_join (expand)&#45;&gt;[root] data.azuread_group.service_endpoint_join (expand) -->
<g id="edge4" class="edge">
<title>[root] azurerm_role_assignment.service_endpoint_join (expand)&#45;&gt;[root] data.azuread_group.service_endpoint_join (expand)</title>
<path fill="none" stroke="black" d="M1074.31,-359.97C1110.57,-349.97 1156.56,-337.3 1194.46,-326.85"/>
<polygon fill="black" stroke="black" points="1195.7,-330.14 1204.41,-324.11 1193.84,-323.39 1195.7,-330.14"/>
</g>
<!-- [root] azurerm_virtual_network.vnet (expand) -->
<g id="node7" class="node">
<title>[root] azurerm_virtual_network.vnet (expand)</title>
<polygon fill="none" stroke="black" points="573.5,-252 391.5,-252 391.5,-216 573.5,-216 573.5,-252"/>
<text text-anchor="middle" x="482.5" y="-230.3" font-family="Times,serif" font-size="14.00">azurerm_virtual_network.vnet</text>
</g>
<!-- [root] azurerm_role_definition.service_endpoint_join (expand)&#45;&gt;[root] azurerm_virtual_network.vnet (expand) -->
<g id="edge5" class="edge">
<title>[root] azurerm_role_definition.service_endpoint_join (expand)&#45;&gt;[root] azurerm_virtual_network.vnet (expand)</title>
<path fill="none" stroke="black" d="M604.87,-287.88C582.72,-278.31 554.94,-266.3 531.44,-256.15"/>
<polygon fill="black" stroke="black" points="532.57,-252.82 522,-252.07 529.79,-259.25 532.57,-252.82"/>
</g>
<!-- [root] azurerm_subnet.subnet (expand) -->
<g id="node4" class="node">
<title>[root] azurerm_subnet.subnet (expand)</title>
<polygon fill="none" stroke="black" points="452,-324 309,-324 309,-288 452,-288 452,-324"/>
<text text-anchor="middle" x="380.5" y="-302.3" font-family="Times,serif" font-size="14.00">azurerm_subnet.subnet</text>
</g>
<!-- [root] azurerm_subnet.subnet (expand)&#45;&gt;[root] azurerm_virtual_network.vnet (expand) -->
<g id="edge6" class="edge">
<title>[root] azurerm_subnet.subnet (expand)&#45;&gt;[root] azurerm_virtual_network.vnet (expand)</title>
<path fill="none" stroke="black" d="M405.45,-287.88C418.54,-278.89 434.76,-267.76 448.94,-258.03"/>
<polygon fill="black" stroke="black" points="451.19,-260.73 457.45,-252.19 447.23,-254.96 451.19,-260.73"/>
</g>
<!-- [root] azurerm_subnet.subnet (expand)&#45;&gt;[root] local.subnets (expand) -->
<g id="edge7" class="edge">
<title>[root] azurerm_subnet.subnet (expand)&#45;&gt;[root] local.subnets (expand)</title>
<path fill="none" stroke="black" d="M308.79,-297.72C246.87,-289.95 163.8,-275.47 140.5,-252 124.63,-236.01 120.54,-210.22 120.04,-190.51"/>
<polygon fill="black" stroke="black" points="123.54,-190.3 120.07,-180.29 116.54,-190.27 123.54,-190.3"/>
</g>
<!-- [root] azurerm_subnet.subnet_aks (expand) -->
<g id="node5" class="node">
<title>[root] azurerm_subnet.subnet_aks (expand)</title>
<polygon fill="none" stroke="black" points="167,-396 0,-396 0,-360 167,-360 167,-396"/>
<text text-anchor="middle" x="83.5" y="-374.3" font-family="Times,serif" font-size="14.00">azurerm_subnet.subnet_aks</text>
</g>
<!-- [root] azurerm_subnet.subnet_aks (expand)&#45;&gt;[root] azurerm_virtual_network.vnet (expand) -->
<g id="edge8" class="edge">
<title>[root] azurerm_subnet.subnet_aks (expand)&#45;&gt;[root] azurerm_virtual_network.vnet (expand)</title>
<path fill="none" stroke="black" d="M121.25,-359.97C163.99,-341.05 235.95,-310.22 299.5,-288 334.6,-275.73 374.15,-264.02 407.49,-254.74"/>
<polygon fill="black" stroke="black" points="408.46,-258.1 417.17,-252.06 406.6,-251.35 408.46,-258.1"/>
</g>
<!-- [root] azurerm_subnet.subnet_aks (expand)&#45;&gt;[root] local.subnets (expand) -->
<g id="edge9" class="edge">
<title>[root] azurerm_subnet.subnet_aks (expand)&#45;&gt;[root] local.subnets (expand)</title>
<path fill="none" stroke="black" d="M86.55,-359.85C93.13,-322.75 108.75,-234.81 116.69,-190.1"/>
<polygon fill="black" stroke="black" points="120.14,-190.69 118.44,-180.23 113.25,-189.47 120.14,-190.69"/>
</g>
<!-- [root] azurerm_subnet_network_security_group_association.nsg_associations (expand) -->
<g id="node6" class="node">
<title>[root] azurerm_subnet_network_security_group_association.nsg_associations (expand)</title>
<polygon fill="none" stroke="black" points="589.5,-396 185.5,-396 185.5,-360 589.5,-360 589.5,-396"/>
<text text-anchor="middle" x="387.5" y="-374.3" font-family="Times,serif" font-size="14.00">azurerm_subnet_network_security_group_association.nsg_associations</text>
</g>
<!-- [root] azurerm_subnet_network_security_group_association.nsg_associations (expand)&#45;&gt;[root] azurerm_network_security_group.nsg (expand) -->
<g id="edge10" class="edge">
<title>[root] azurerm_subnet_network_security_group_association.nsg_associations (expand)&#45;&gt;[root] azurerm_network_security_group.nsg (expand)</title>
<path fill="none" stroke="black" d="M347.74,-359.86C331.1,-351.1 312.61,-339.07 299.5,-324 283.96,-306.14 274.01,-280.98 268.21,-261.96"/>
<polygon fill="black" stroke="black" points="271.51,-260.77 265.41,-252.12 264.78,-262.69 271.51,-260.77"/>
</g>
<!-- [root] azurerm_subnet_network_security_group_association.nsg_associations (expand)&#45;&gt;[root] azurerm_subnet.subnet (expand) -->
<g id="edge11" class="edge">
<title>[root] azurerm_subnet_network_security_group_association.nsg_associations (expand)&#45;&gt;[root] azurerm_subnet.subnet (expand)</title>
<path fill="none" stroke="black" d="M385.77,-359.7C385,-351.98 384.07,-342.71 383.21,-334.11"/>
<polygon fill="black" stroke="black" points="386.69,-333.71 382.21,-324.1 379.72,-334.4 386.69,-333.71"/>
</g>
<!-- [root] azurerm_virtual_network.vnet (expand)&#45;&gt;[root] data.azurerm_resource_group.rg (expand) -->
<g id="edge12" class="edge">
<title>[root] azurerm_virtual_network.vnet (expand)&#45;&gt;[root] data.azurerm_resource_group.rg (expand)</title>
<path fill="none" stroke="black" d="M465.94,-215.7C457.82,-207.22 447.91,-196.86 439.03,-187.58"/>
<polygon fill="black" stroke="black" points="441.31,-184.91 431.87,-180.1 436.26,-189.75 441.31,-184.91"/>
</g>
<!-- [root] azurerm_virtual_network_peering.peering (expand) -->
<g id="node8" class="node">
<title>[root] azurerm_virtual_network_peering.peering (expand)</title>
<polygon fill="none" stroke="black" points="853.5,-396 607.5,-396 607.5,-360 853.5,-360 853.5,-396"/>
<text text-anchor="middle" x="730.5" y="-374.3" font-family="Times,serif" font-size="14.00">azurerm_virtual_network_peering.peering</text>
</g>
<!-- [root] azurerm_virtual_network_peering.peering (expand)&#45;&gt;[root] azurerm_virtual_network.vnet (expand) -->
<g id="edge13" class="edge">
<title>[root] azurerm_virtual_network_peering.peering (expand)&#45;&gt;[root] azurerm_virtual_network.vnet (expand)</title>
<path fill="none" stroke="black" d="M607.38,-361.08C560.88,-352.59 515.35,-340.44 499.5,-324 483.93,-307.85 480.43,-282.08 480.39,-262.41"/>
<polygon fill="black" stroke="black" points="483.89,-262.31 480.66,-252.22 476.89,-262.12 483.89,-262.31"/>
</g>
<!-- [root] local.peerings (expand) -->
<g id="node22" class="node">
<title>[root] local.peerings (expand)</title>
<ellipse fill="none" stroke="black" cx="1161.5" cy="-90" rx="116.18" ry="18"/>
<text text-anchor="middle" x="1161.5" y="-86.3" font-family="Times,serif" font-size="14.00">[root] local.peerings (expand)</text>
</g>
<!-- [root] azurerm_virtual_network_peering.peering (expand)&#45;&gt;[root] local.peerings (expand) -->
<g id="edge14" class="edge">
<title>[root] azurerm_virtual_network_peering.peering (expand)&#45;&gt;[root] local.peerings (expand)</title>
<path fill="none" stroke="black" d="M754.7,-359.89C766.56,-350.45 780.25,-337.86 789.5,-324 817.75,-281.68 791.88,-252.34 827.5,-216 891.38,-150.84 992.41,-119.28 1066.64,-104.22"/>
<polygon fill="black" stroke="black" points="1067.33,-107.65 1076.47,-102.29 1065.99,-100.78 1067.33,-107.65"/>
</g>
<!-- [root] provider[&quot;registry.terraform.io/hashicorp/azuread&quot;] -->
<g id="node11" class="node">
<title>[root] provider[&quot;registry.terraform.io/hashicorp/azuread&quot;]</title>
<polygon fill="none" stroke="black" points="1266.5,-252 994.36,-234 1266.5,-216 1538.64,-234 1266.5,-252"/>
<text text-anchor="middle" x="1266.5" y="-230.3" font-family="Times,serif" font-size="14.00">provider[&quot;registry.terraform.io/hashicorp/azuread&quot;]</text>
</g>
<!-- [root] data.azuread_group.service_endpoint_join (expand)&#45;&gt;[root] provider[&quot;registry.terraform.io/hashicorp/azuread&quot;] -->
<g id="edge15" class="edge">
<title>[root] data.azuread_group.service_endpoint_join (expand)&#45;&gt;[root] provider[&quot;registry.terraform.io/hashicorp/azuread&quot;]</title>
<path fill="none" stroke="black" d="M1266.5,-287.7C1266.5,-279.98 1266.5,-270.71 1266.5,-262.11"/>
<polygon fill="black" stroke="black" points="1270,-262.1 1266.5,-252.1 1263,-262.1 1270,-262.1"/>
</g>
<!-- [root] var.azure_ad_group_prefix -->
<g id="node13" class="node">
<title>[root] var.azure_ad_group_prefix</title>
<polygon fill="none" stroke="black" points="1712.5,-252 1556.5,-252 1556.5,-216 1718.5,-216 1718.5,-246 1712.5,-252"/>
<polyline fill="none" stroke="black" points="1712.5,-252 1712.5,-246 "/>
<polyline fill="none" stroke="black" points="1718.5,-246 1712.5,-246 "/>
<text text-anchor="middle" x="1637.5" y="-230.3" font-family="Times,serif" font-size="14.00">var.azure_ad_group_prefix</text>
</g>
<!-- [root] data.azuread_group.service_endpoint_join (expand)&#45;&gt;[root] var.azure_ad_group_prefix -->
<g id="edge16" class="edge">
<title>[root] data.azuread_group.service_endpoint_join (expand)&#45;&gt;[root] var.azure_ad_group_prefix</title>
<path fill="none" stroke="black" d="M1356.67,-288C1409.2,-278.09 1477.01,-265.3 1545.9,-252.3"/>
<polygon fill="black" stroke="black" points="1546.89,-255.68 1556.07,-250.38 1545.59,-248.8 1546.89,-255.68"/>
</g>
<!-- [root] var.environment -->
<g id="node14" class="node">
<title>[root] var.environment</title>
<polygon fill="none" stroke="black" points="787.5,-36 687.5,-36 687.5,0 793.5,0 793.5,-30 787.5,-36"/>
<polyline fill="none" stroke="black" points="787.5,-36 787.5,-30 "/>
<polyline fill="none" stroke="black" points="793.5,-30 787.5,-30 "/>
<text text-anchor="middle" x="740.5" y="-14.3" font-family="Times,serif" font-size="14.00">var.environment</text>
</g>
<!-- [root] data.azuread_group.service_endpoint_join (expand)&#45;&gt;[root] var.environment -->
<g id="edge17" class="edge">
<title>[root] data.azuread_group.service_endpoint_join (expand)&#45;&gt;[root] var.environment</title>
<path fill="none" stroke="black" d="M1390.14,-303.6C1566.59,-300.29 1873.25,-289.2 1907.5,-252 1918.34,-240.23 1917.45,-228.53 1907.5,-216 1731.23,5.82 1566.1,-117.79 1286.5,-72 1112.95,-43.58 905.68,-28.58 803.64,-22.43"/>
<polygon fill="black" stroke="black" points="803.7,-18.93 793.51,-21.83 803.28,-25.92 803.7,-18.93"/>
</g>
<!-- [root] var.group_name_separator -->
<g id="node15" class="node">
<title>[root] var.group_name_separator</title>
<polygon fill="none" stroke="black" points="1892,-252 1737,-252 1737,-216 1898,-216 1898,-246 1892,-252"/>
<polyline fill="none" stroke="black" points="1892,-252 1892,-246 "/>
<polyline fill="none" stroke="black" points="1898,-246 1892,-246 "/>
<text text-anchor="middle" x="1817.5" y="-230.3" font-family="Times,serif" font-size="14.00">var.group_name_separator</text>
</g>
<!-- [root] data.azuread_group.service_endpoint_join (expand)&#45;&gt;[root] var.group_name_separator -->
<g id="edge18" class="edge">
<title>[root] data.azuread_group.service_endpoint_join (expand)&#45;&gt;[root] var.group_name_separator</title>
<path fill="none" stroke="black" d="M1390.09,-293.24C1480.56,-284.05 1606.49,-270.07 1726.49,-252.09"/>
<polygon fill="black" stroke="black" points="1727.23,-255.52 1736.59,-250.57 1726.18,-248.6 1727.23,-255.52"/>
</g>
<!-- [root] var.subscription_name -->
<g id="node19" class="node">
<title>[root] var.subscription_name</title>
<polygon fill="none" stroke="black" points="970.5,-252 836.5,-252 836.5,-216 976.5,-216 976.5,-246 970.5,-252"/>
<polyline fill="none" stroke="black" points="970.5,-252 970.5,-246 "/>
<polyline fill="none" stroke="black" points="976.5,-246 970.5,-246 "/>
<text text-anchor="middle" x="906.5" y="-230.3" font-family="Times,serif" font-size="14.00">var.subscription_name</text>
</g>
<!-- [root] data.azuread_group.service_endpoint_join (expand)&#45;&gt;[root] var.subscription_name -->
<g id="edge19" class="edge">
<title>[root] data.azuread_group.service_endpoint_join (expand)&#45;&gt;[root] var.subscription_name</title>
<path fill="none" stroke="black" d="M1173.04,-287.99C1120.88,-278.35 1054.48,-265.84 986.7,-252.22"/>
<polygon fill="black" stroke="black" points="987.19,-248.75 976.69,-250.2 985.8,-255.61 987.19,-248.75"/>
</g>
<!-- [root] provider[&quot;registry.terraform.io/hashicorp/azurerm&quot;] -->
<g id="node12" class="node">
<title>[root] provider[&quot;registry.terraform.io/hashicorp/azurerm&quot;]</title>
<polygon fill="none" stroke="black" points="752.5,-108 477.84,-90 752.5,-72 1027.16,-90 752.5,-108"/>
<text text-anchor="middle" x="752.5" y="-86.3" font-family="Times,serif" font-size="14.00">provider[&quot;registry.terraform.io/hashicorp/azurerm&quot;]</text>
</g>
<!-- [root] data.azurerm_resource_group.rg (expand)&#45;&gt;[root] provider[&quot;registry.terraform.io/hashicorp/azurerm&quot;] -->
<g id="edge21" class="edge">
<title>[root] data.azurerm_resource_group.rg (expand)&#45;&gt;[root] provider[&quot;registry.terraform.io/hashicorp/azurerm&quot;]</title>
<path fill="none" stroke="black" d="M497.51,-143.97C553.24,-132.39 626.3,-117.21 679.92,-106.08"/>
<polygon fill="black" stroke="black" points="680.96,-109.44 690.03,-103.98 679.53,-102.58 680.96,-109.44"/>
</g>
<!-- [root] local.env_resources (expand) -->
<g id="node23" class="node">
<title>[root] local.env_resources (expand)</title>
<ellipse fill="none" stroke="black" cx="285.5" cy="-90" rx="136.48" ry="18"/>
<text text-anchor="middle" x="285.5" y="-86.3" font-family="Times,serif" font-size="14.00">[root] local.env_resources (expand)</text>
</g>
<!-- [root] data.azurerm_resource_group.rg (expand)&#45;&gt;[root] local.env_resources (expand) -->
<g id="edge20" class="edge">
<title>[root] data.azurerm_resource_group.rg (expand)&#45;&gt;[root] local.env_resources (expand)</title>
<path fill="none" stroke="black" d="M383.7,-143.88C366.13,-134.41 344.13,-122.57 325.42,-112.49"/>
<polygon fill="black" stroke="black" points="326.99,-109.36 316.52,-107.71 323.67,-115.53 326.99,-109.36"/>
</g>
<!-- [root] var.name -->
<g id="node16" class="node">
<title>[root] var.name</title>
<polygon fill="none" stroke="black" points="342,-36 281,-36 281,0 348,0 348,-30 342,-36"/>
<polyline fill="none" stroke="black" points="342,-36 342,-30 "/>
<polyline fill="none" stroke="black" points="348,-30 342,-30 "/>
<text text-anchor="middle" x="314.5" y="-14.3" font-family="Times,serif" font-size="14.00">var.name</text>
</g>
<!-- [root] var.peering_config -->
<g id="node17" class="node">
<title>[root] var.peering_config</title>
<polygon fill="none" stroke="black" points="1214.5,-36 1102.5,-36 1102.5,0 1220.5,0 1220.5,-30 1214.5,-36"/>
<polyline fill="none" stroke="black" points="1214.5,-36 1214.5,-30 "/>
<polyline fill="none" stroke="black" points="1220.5,-30 1214.5,-30 "/>
<text text-anchor="middle" x="1161.5" y="-14.3" font-family="Times,serif" font-size="14.00">var.peering_config</text>
</g>
<!-- [root] var.regions -->
<g id="node18" class="node">
<title>[root] var.regions</title>
<polygon fill="none" stroke="black" points="257,-36 186,-36 186,0 263,0 263,-30 257,-36"/>
<polyline fill="none" stroke="black" points="257,-36 257,-30 "/>
<polyline fill="none" stroke="black" points="263,-30 257,-30 "/>
<text text-anchor="middle" x="224.5" y="-14.3" font-family="Times,serif" font-size="14.00">var.regions</text>
</g>
<!-- [root] var.vnet_config -->
<g id="node20" class="node">
<title>[root] var.vnet_config</title>
<polygon fill="none" stroke="black" points="160,-36 65,-36 65,0 166,0 166,-30 160,-36"/>
<polyline fill="none" stroke="black" points="160,-36 160,-30 "/>
<polyline fill="none" stroke="black" points="166,-30 160,-30 "/>
<text text-anchor="middle" x="115.5" y="-14.3" font-family="Times,serif" font-size="14.00">var.vnet_config</text>
</g>
<!-- [root] local.subnets (expand)&#45;&gt;[root] var.environment -->
<g id="edge29" class="edge">
<title>[root] local.subnets (expand)&#45;&gt;[root] var.environment</title>
<path fill="none" stroke="black" d="M212.48,-151.31C289.49,-142.03 393.14,-126.7 430.5,-108 451.3,-97.59 447.82,-82.65 468.5,-72 534.58,-37.98 619.95,-25.72 677.27,-21.35"/>
<polygon fill="black" stroke="black" points="677.55,-24.83 687.28,-20.64 677.06,-17.85 677.55,-24.83"/>
</g>
<!-- [root] local.subnets (expand)&#45;&gt;[root] var.name -->
<g id="edge30" class="edge">
<title>[root] local.subnets (expand)&#45;&gt;[root] var.name</title>
<path fill="none" stroke="black" d="M120.24,-143.88C119.76,-123.99 122.17,-91.42 140.5,-72 179.84,-30.32 210.93,-52.56 270.94,-35.76"/>
<polygon fill="black" stroke="black" points="272.3,-39 280.83,-32.71 270.24,-32.31 272.3,-39"/>
</g>
<!-- [root] local.subnets (expand)&#45;&gt;[root] var.vnet_config -->
<g id="edge31" class="edge">
<title>[root] local.subnets (expand)&#45;&gt;[root] var.vnet_config</title>
<path fill="none" stroke="black" d="M115.68,-143.56C112.57,-133.33 109.07,-120.08 107.5,-108 104.82,-87.36 107.15,-63.91 109.97,-46.27"/>
<polygon fill="black" stroke="black" points="113.47,-46.56 111.75,-36.11 106.57,-45.35 113.47,-46.56"/>
</g>
<!-- [root] local.peerings (expand)&#45;&gt;[root] var.environment -->
<g id="edge26" class="edge">
<title>[root] local.peerings (expand)&#45;&gt;[root] var.environment</title>
<path fill="none" stroke="black" d="M1085.26,-76.32C1004.69,-62.93 879.09,-42.04 803.8,-29.53"/>
<polygon fill="black" stroke="black" points="803.96,-26 793.52,-27.82 802.81,-32.91 803.96,-26"/>
</g>
<!-- [root] local.peerings (expand)&#45;&gt;[root] var.name -->
<g id="edge27" class="edge">
<title>[root] local.peerings (expand)&#45;&gt;[root] var.name</title>
<path fill="none" stroke="black" d="M1079.89,-77.16C1065.45,-75.28 1050.55,-73.47 1036.5,-72 780.08,-45.18 471.02,-27.31 358.32,-21.27"/>
<polygon fill="black" stroke="black" points="358.2,-17.76 348.03,-20.72 357.83,-24.75 358.2,-17.76"/>
</g>
<!-- [root] local.peerings (expand)&#45;&gt;[root] var.peering_config -->
<g id="edge28" class="edge">
<title>[root] local.peerings (expand)&#45;&gt;[root] var.peering_config</title>
<path fill="none" stroke="black" d="M1161.5,-71.7C1161.5,-63.98 1161.5,-54.71 1161.5,-46.11"/>
<polygon fill="black" stroke="black" points="1165,-46.1 1161.5,-36.1 1158,-46.1 1165,-46.1"/>
</g>
<!-- [root] local.env_resources (expand)&#45;&gt;[root] var.environment -->
<g id="edge22" class="edge">
<title>[root] local.env_resources (expand)&#45;&gt;[root] var.environment</title>
<path fill="none" stroke="black" d="M370.55,-75.92C459.72,-62.2 597.74,-40.96 677.58,-28.68"/>
<polygon fill="black" stroke="black" points="678.15,-32.13 687.5,-27.15 677.08,-25.22 678.15,-32.13"/>
</g>
<!-- [root] local.env_resources (expand)&#45;&gt;[root] var.name -->
<g id="edge23" class="edge">
<title>[root] local.env_resources (expand)&#45;&gt;[root] var.name</title>
<path fill="none" stroke="black" d="M292.67,-71.7C295.93,-63.81 299.87,-54.3 303.5,-45.55"/>
<polygon fill="black" stroke="black" points="306.82,-46.68 307.41,-36.1 300.35,-44 306.82,-46.68"/>
</g>
<!-- [root] local.env_resources (expand)&#45;&gt;[root] var.regions -->
<g id="edge24" class="edge">
<title>[root] local.env_resources (expand)&#45;&gt;[root] var.regions</title>
<path fill="none" stroke="black" d="M270.73,-72.05C263.35,-63.58 254.27,-53.17 246.12,-43.82"/>
<polygon fill="black" stroke="black" points="248.76,-41.51 239.55,-36.28 243.49,-46.11 248.76,-41.51"/>
</g>
<!-- [root] local.env_resources (expand)&#45;&gt;[root] var.vnet_config -->
<g id="edge25" class="edge">
<title>[root] local.env_resources (expand)&#45;&gt;[root] var.vnet_config</title>
<path fill="none" stroke="black" d="M246.07,-72.76C222.33,-62.99 191.85,-50.44 166.31,-39.92"/>
<polygon fill="black" stroke="black" points="167.37,-36.57 156.79,-36 164.7,-43.04 167.37,-36.57"/>
</g>
<!-- [root] meta.count&#45;boundary (EachMode fixup) -->
<g id="node24" class="node">
<title>[root] meta.count&#45;boundary (EachMode fixup)</title>
<ellipse fill="none" stroke="black" cx="824.5" cy="-450" rx="176.27" ry="18"/>
<text text-anchor="middle" x="824.5" y="-446.3" font-family="Times,serif" font-size="14.00">[root] meta.count&#45;boundary (EachMode fixup)</text>
</g>
<!-- [root] meta.count&#45;boundary (EachMode fixup)&#45;&gt;[root] azurerm_role_assignment.service_endpoint_join (expand) -->
<g id="edge32" class="edge">
<title>[root] meta.count&#45;boundary (EachMode fixup)&#45;&gt;[root] azurerm_role_assignment.service_endpoint_join (expand)</title>
<path fill="none" stroke="black" d="M869.05,-432.41C895.38,-422.61 928.93,-410.12 956.97,-399.68"/>
<polygon fill="black" stroke="black" points="958.48,-402.85 966.63,-396.08 956.04,-396.29 958.48,-402.85"/>
</g>
<!-- [root] meta.count&#45;boundary (EachMode fixup)&#45;&gt;[root] azurerm_subnet.subnet_aks (expand) -->
<g id="edge33" class="edge">
<title>[root] meta.count&#45;boundary (EachMode fixup)&#45;&gt;[root] azurerm_subnet.subnet_aks (expand)</title>
<path fill="none" stroke="black" d="M699.63,-437.28C679.53,-435.47 658.94,-433.65 639.5,-432 437.05,-414.83 382.86,-422.35 177.01,-395.98"/>
<polygon fill="black" stroke="black" points="177.45,-392.51 167.09,-394.7 176.56,-399.45 177.45,-392.51"/>
</g>
<!-- [root] meta.count&#45;boundary (EachMode fixup)&#45;&gt;[root] azurerm_subnet_network_security_group_association.nsg_associations (expand) -->
<g id="edge34" class="edge">
<title>[root] meta.count&#45;boundary (EachMode fixup)&#45;&gt;[root] azurerm_subnet_network_security_group_association.nsg_associations (expand)</title>
<path fill="none" stroke="black" d="M734.22,-434.54C667.5,-423.85 576.1,-409.21 503.9,-397.65"/>
<polygon fill="black" stroke="black" points="504.27,-394.16 493.84,-396.03 503.16,-401.07 504.27,-394.16"/>
</g>
<!-- [root] meta.count&#45;boundary (EachMode fixup)&#45;&gt;[root] azurerm_virtual_network_peering.peering (expand) -->
<g id="edge35" class="edge">
<title>[root] meta.count&#45;boundary (EachMode fixup)&#45;&gt;[root] azurerm_virtual_network_peering.peering (expand)</title>
<path fill="none" stroke="black" d="M801.75,-432.05C789.71,-423.09 774.76,-411.96 761.66,-402.2"/>
<polygon fill="black" stroke="black" points="763.48,-399.2 753.37,-396.03 759.3,-404.81 763.48,-399.2"/>
</g>
<!-- [root] provider[&quot;registry.terraform.io/hashicorp/azuread&quot;] (close) -->
<g id="node25" class="node">
<title>[root] provider[&quot;registry.terraform.io/hashicorp/azuread&quot;] (close)</title>
<ellipse fill="none" stroke="black" cx="1263.5" cy="-450" rx="241.26" ry="18"/>
<text text-anchor="middle" x="1263.5" y="-446.3" font-family="Times,serif" font-size="14.00">[root] provider[&quot;registry.terraform.io/hashicorp/azuread&quot;] (close)</text>
</g>
<!-- [root] provider[&quot;registry.terraform.io/hashicorp/azuread&quot;] (close)&#45;&gt;[root] data.azuread_group.service_endpoint_join (expand) -->
<g id="edge36" class="edge">
<title>[root] provider[&quot;registry.terraform.io/hashicorp/azuread&quot;] (close)&#45;&gt;[root] data.azuread_group.service_endpoint_join (expand)</title>
<path fill="none" stroke="black" d="M1263.86,-431.87C1264.37,-407.67 1265.31,-363.21 1265.92,-334.39"/>
<polygon fill="black" stroke="black" points="1269.42,-334.26 1266.14,-324.19 1262.43,-334.11 1269.42,-334.26"/>
</g>
<!-- [root] provider[&quot;registry.terraform.io/hashicorp/azurerm&quot;] (close) -->
<g id="node26" class="node">
<title>[root] provider[&quot;registry.terraform.io/hashicorp/azurerm&quot;] (close)</title>
<ellipse fill="none" stroke="black" cx="387.5" cy="-450" rx="243.16" ry="18"/>
<text text-anchor="middle" x="387.5" y="-446.3" font-family="Times,serif" font-size="14.00">[root] provider[&quot;registry.terraform.io/hashicorp/azurerm&quot;] (close)</text>
</g>
<!-- [root] provider[&quot;registry.terraform.io/hashicorp/azurerm&quot;] (close)&#45;&gt;[root] azurerm_role_assignment.service_endpoint_join (expand) -->
<g id="edge37" class="edge">
<title>[root] provider[&quot;registry.terraform.io/hashicorp/azurerm&quot;] (close)&#45;&gt;[root] azurerm_role_assignment.service_endpoint_join (expand)</title>
<path fill="none" stroke="black" d="M516.03,-434.72C609.08,-424.37 738.19,-409.97 861.93,-396.06"/>
<polygon fill="black" stroke="black" points="862.43,-399.53 871.98,-394.93 861.65,-392.57 862.43,-399.53"/>
</g>
<!-- [root] provider[&quot;registry.terraform.io/hashicorp/azurerm&quot;] (close)&#45;&gt;[root] azurerm_subnet.subnet_aks (expand) -->
<g id="edge38" class="edge">
<title>[root] provider[&quot;registry.terraform.io/hashicorp/azurerm&quot;] (close)&#45;&gt;[root] azurerm_subnet.subnet_aks (expand)</title>
<path fill="none" stroke="black" d="M316.99,-432.76C272.29,-422.47 214.23,-409.1 167.19,-398.27"/>
<polygon fill="black" stroke="black" points="167.86,-394.83 157.33,-396 166.29,-401.66 167.86,-394.83"/>
</g>
<!-- [root] provider[&quot;registry.terraform.io/hashicorp/azurerm&quot;] (close)&#45;&gt;[root] azurerm_subnet_network_security_group_association.nsg_associations (expand) -->
<g id="edge39" class="edge">
<title>[root] provider[&quot;registry.terraform.io/hashicorp/azurerm&quot;] (close)&#45;&gt;[root] azurerm_subnet_network_security_group_association.nsg_associations (expand)</title>
<path fill="none" stroke="black" d="M387.5,-431.7C387.5,-423.98 387.5,-414.71 387.5,-406.11"/>
<polygon fill="black" stroke="black" points="391,-406.1 387.5,-396.1 384,-406.1 391,-406.1"/>
</g>
<!-- [root] provider[&quot;registry.terraform.io/hashicorp/azurerm&quot;] (close)&#45;&gt;[root] azurerm_virtual_network_peering.peering (expand) -->
<g id="edge40" class="edge">
<title>[root] provider[&quot;registry.terraform.io/hashicorp/azurerm&quot;] (close)&#45;&gt;[root] azurerm_virtual_network_peering.peering (expand)</title>
<path fill="none" stroke="black" d="M466.19,-432.94C517.12,-422.55 583.66,-408.97 637.24,-398.03"/>
<polygon fill="black" stroke="black" points="637.99,-401.45 647.09,-396.02 636.59,-394.59 637.99,-401.45"/>
</g>
<!-- [root] root -->
<g id="node27" class="node">
<title>[root] root</title>
<ellipse fill="none" stroke="black" cx="824.5" cy="-522" rx="47.39" ry="18"/>
<text text-anchor="middle" x="824.5" y="-518.3" font-family="Times,serif" font-size="14.00">[root] root</text>
</g>
<!-- [root] root&#45;&gt;[root] meta.count&#45;boundary (EachMode fixup) -->
<g id="edge41" class="edge">
<title>[root] root&#45;&gt;[root] meta.count&#45;boundary (EachMode fixup)</title>
<path fill="none" stroke="black" d="M824.5,-503.7C824.5,-495.98 824.5,-486.71 824.5,-478.11"/>
<polygon fill="black" stroke="black" points="828,-478.1 824.5,-468.1 821,-478.1 828,-478.1"/>
</g>
<!-- [root] root&#45;&gt;[root] provider[&quot;registry.terraform.io/hashicorp/azuread&quot;] (close) -->
<g id="edge42" class="edge">
<title>[root] root&#45;&gt;[root] provider[&quot;registry.terraform.io/hashicorp/azuread&quot;] (close)</title>
<path fill="none" stroke="black" d="M867.39,-514.16C933.8,-503.57 1063.51,-482.89 1156.41,-468.08"/>
<polygon fill="black" stroke="black" points="1157.09,-471.51 1166.42,-466.48 1155.99,-464.6 1157.09,-471.51"/>
</g>
<!-- [root] root&#45;&gt;[root] provider[&quot;registry.terraform.io/hashicorp/azurerm&quot;] (close) -->
<g id="edge43" class="edge">
<title>[root] root&#45;&gt;[root] provider[&quot;registry.terraform.io/hashicorp/azurerm&quot;] (close)</title>
<path fill="none" stroke="black" d="M781.4,-514.1C715.23,-503.5 586.59,-482.89 494.31,-468.11"/>
<polygon fill="black" stroke="black" points="494.8,-464.64 484.37,-466.52 493.69,-471.55 494.8,-464.64"/>
</g>
</g>
</svg>
