<?xml version="1.0" encoding="UTF-8" standalone="no"?>
<!DOCTYPE svg PUBLIC "-//W3C//DTD SVG 1.1//EN"
 "http://www.w3.org/Graphics/SVG/1.1/DTD/svg11.dtd">
<!-- Generated by graphviz version 2.44.1 (20200629.0846)
 -->
<!-- Pages: 1 -->
<svg width="2725pt" height="476pt"
 viewBox="0.00 0.00 2724.78 476.00" xmlns="http://www.w3.org/2000/svg" xmlns:xlink="http://www.w3.org/1999/xlink">
<g id="graph0" class="graph" transform="scale(1 1) rotate(0) translate(4 472)">
<polygon fill="white" stroke="transparent" points="-4,4 -4,-472 2720.78,-472 2720.78,4 -4,4"/>
<!-- [root] azuredevops_git_repository.groups (expand) -->
<g id="node1" class="node">
<title>[root] azuredevops_git_repository.groups (expand)</title>
<polygon fill="none" stroke="black" points="206,-252 0,-252 0,-216 206,-216 206,-252"/>
<text text-anchor="middle" x="103" y="-230.3" font-family="Times,serif" font-size="14.00">azuredevops_git_repository.groups</text>
</g>
<!-- [root] data.azuredevops_project.this (expand) -->
<g id="node7" class="node">
<title>[root] data.azuredevops_project.this (expand)</title>
<polygon fill="none" stroke="black" points="473,-108 295,-108 295,-72 473,-72 473,-108"/>
<text text-anchor="middle" x="384" y="-86.3" font-family="Times,serif" font-size="14.00">data.azuredevops_project.this</text>
</g>
<!-- [root] azuredevops_git_repository.groups (expand)&#45;&gt;[root] data.azuredevops_project.this (expand) -->
<g id="edge1" class="edge">
<title>[root] azuredevops_git_repository.groups (expand)&#45;&gt;[root] data.azuredevops_project.this (expand)</title>
<path fill="none" stroke="black" d="M136.9,-215.87C188.06,-190.02 284.97,-141.04 341.02,-112.72"/>
<polygon fill="black" stroke="black" points="342.64,-115.82 349.98,-108.19 339.48,-109.58 342.64,-115.82"/>
</g>
<!-- [root] var.namespaces -->
<g id="node28" class="node">
<title>[root] var.namespaces</title>
<polygon fill="none" stroke="black" points="466,-180 370,-180 370,-144 472,-144 472,-174 466,-180"/>
<polyline fill="none" stroke="black" points="466,-180 466,-174 "/>
<polyline fill="none" stroke="black" points="472,-174 466,-174 "/>
<text text-anchor="middle" x="421" y="-158.3" font-family="Times,serif" font-size="14.00">var.namespaces</text>
</g>
<!-- [root] azuredevops_git_repository.groups (expand)&#45;&gt;[root] var.namespaces -->
<g id="edge2" class="edge">
<title>[root] azuredevops_git_repository.groups (expand)&#45;&gt;[root] var.namespaces</title>
<path fill="none" stroke="black" d="M180.38,-215.97C235.54,-203.82 308.67,-187.73 359.77,-176.48"/>
<polygon fill="black" stroke="black" points="360.67,-179.86 369.69,-174.3 359.17,-173.03 360.67,-179.86"/>
</g>
<!-- [root] azuredevops_git_repository.this (expand) -->
<g id="node2" class="node">
<title>[root] azuredevops_git_repository.this (expand)</title>
<polygon fill="none" stroke="black" points="679.5,-180 490.5,-180 490.5,-144 679.5,-144 679.5,-180"/>
<text text-anchor="middle" x="585" y="-158.3" font-family="Times,serif" font-size="14.00">azuredevops_git_repository.this</text>
</g>
<!-- [root] azuredevops_git_repository.this (expand)&#45;&gt;[root] data.azuredevops_project.this (expand) -->
<g id="edge3" class="edge">
<title>[root] azuredevops_git_repository.this (expand)&#45;&gt;[root] data.azuredevops_project.this (expand)</title>
<path fill="none" stroke="black" d="M536.09,-143.97C508,-134.19 472.54,-121.84 442.93,-111.52"/>
<polygon fill="black" stroke="black" points="443.73,-108.09 433.13,-108.11 441.43,-114.71 443.73,-108.09"/>
</g>
<!-- [root] var.bootstrap_repo -->
<g id="node26" class="node">
<title>[root] var.bootstrap_repo</title>
<polygon fill="none" stroke="black" points="866,-36 754,-36 754,0 872,0 872,-30 866,-36"/>
<polyline fill="none" stroke="black" points="866,-36 866,-30 "/>
<polyline fill="none" stroke="black" points="872,-30 866,-30 "/>
<text text-anchor="middle" x="813" y="-14.3" font-family="Times,serif" font-size="14.00">var.bootstrap_repo</text>
</g>
<!-- [root] azuredevops_git_repository.this (expand)&#45;&gt;[root] var.bootstrap_repo -->
<g id="edge4" class="edge">
<title>[root] azuredevops_git_repository.this (expand)&#45;&gt;[root] var.bootstrap_repo</title>
<path fill="none" stroke="black" d="M583.68,-143.81C583.13,-123.86 585.48,-91.24 604,-72 604.64,-71.34 683.35,-51.49 743.98,-36.28"/>
<polygon fill="black" stroke="black" points="745.07,-39.61 753.92,-33.79 743.37,-32.82 745.07,-39.61"/>
</g>
<!-- [root] azuredevops_git_repository_file.groups (expand) -->
<g id="node3" class="node">
<title>[root] azuredevops_git_repository_file.groups (expand)</title>
<polygon fill="none" stroke="black" points="700.5,-252 469.5,-252 469.5,-216 700.5,-216 700.5,-252"/>
<text text-anchor="middle" x="585" y="-230.3" font-family="Times,serif" font-size="14.00">azuredevops_git_repository_file.groups</text>
</g>
<!-- [root] azuredevops_git_repository_file.groups (expand)&#45;&gt;[root] azuredevops_git_repository.this (expand) -->
<g id="edge5" class="edge">
<title>[root] azuredevops_git_repository_file.groups (expand)&#45;&gt;[root] azuredevops_git_repository.this (expand)</title>
<path fill="none" stroke="black" d="M585,-215.7C585,-207.98 585,-198.71 585,-190.11"/>
<polygon fill="black" stroke="black" points="588.5,-190.1 585,-180.1 581.5,-190.1 588.5,-190.1"/>
</g>
<!-- [root] var.azure_devops_org -->
<g id="node22" class="node">
<title>[root] var.azure_devops_org</title>
<polygon fill="none" stroke="black" points="1020,-36 890,-36 890,0 1026,0 1026,-30 1020,-36"/>
<polyline fill="none" stroke="black" points="1020,-36 1020,-30 "/>
<polyline fill="none" stroke="black" points="1026,-30 1020,-30 "/>
<text text-anchor="middle" x="958" y="-14.3" font-family="Times,serif" font-size="14.00">var.azure_devops_org</text>
</g>
<!-- [root] azuredevops_git_repository_file.groups (expand)&#45;&gt;[root] var.azure_devops_org -->
<g id="edge6" class="edge">
<title>[root] azuredevops_git_repository_file.groups (expand)&#45;&gt;[root] var.azure_devops_org</title>
<path fill="none" stroke="black" d="M663.6,-215.91C758.46,-193.64 909.78,-152.27 946,-108 960,-90.9 962.17,-65.45 961.33,-46.14"/>
<polygon fill="black" stroke="black" points="964.81,-45.85 960.6,-36.13 957.83,-46.36 964.81,-45.85"/>
</g>
<!-- [root] var.bootstrap_path -->
<g id="node25" class="node">
<title>[root] var.bootstrap_path</title>
<polygon fill="none" stroke="black" points="1155.5,-36 1044.5,-36 1044.5,0 1161.5,0 1161.5,-30 1155.5,-36"/>
<polyline fill="none" stroke="black" points="1155.5,-36 1155.5,-30 "/>
<polyline fill="none" stroke="black" points="1161.5,-30 1155.5,-30 "/>
<text text-anchor="middle" x="1103" y="-14.3" font-family="Times,serif" font-size="14.00">var.bootstrap_path</text>
</g>
<!-- [root] azuredevops_git_repository_file.groups (expand)&#45;&gt;[root] var.bootstrap_path -->
<g id="edge7" class="edge">
<title>[root] azuredevops_git_repository_file.groups (expand)&#45;&gt;[root] var.bootstrap_path</title>
<path fill="none" stroke="black" d="M696.94,-215.99C759.47,-205.59 830.57,-192.02 860,-180 945.39,-145.12 1032.36,-78.3 1075.38,-42.7"/>
<polygon fill="black" stroke="black" points="1077.7,-45.32 1083.14,-36.22 1073.22,-39.95 1077.7,-45.32"/>
</g>
<!-- [root] var.branch -->
<g id="node27" class="node">
<title>[root] var.branch</title>
<polygon fill="none" stroke="black" points="681,-108 613,-108 613,-72 687,-72 687,-102 681,-108"/>
<polyline fill="none" stroke="black" points="681,-108 681,-102 "/>
<polyline fill="none" stroke="black" points="687,-102 681,-102 "/>
<text text-anchor="middle" x="650" y="-86.3" font-family="Times,serif" font-size="14.00">var.branch</text>
</g>
<!-- [root] azuredevops_git_repository_file.groups (expand)&#45;&gt;[root] var.branch -->
<g id="edge8" class="edge">
<title>[root] azuredevops_git_repository_file.groups (expand)&#45;&gt;[root] var.branch</title>
<path fill="none" stroke="black" d="M643.9,-215.96C661.12,-207.93 678,-196.4 688,-180 700.44,-159.6 687.33,-134.4 673.22,-116.03"/>
<polygon fill="black" stroke="black" points="675.79,-113.64 666.76,-108.11 670.37,-118.07 675.79,-113.64"/>
</g>
<!-- [root] azuredevops_git_repository_file.groups (expand)&#45;&gt;[root] var.namespaces -->
<g id="edge9" class="edge">
<title>[root] azuredevops_git_repository_file.groups (expand)&#45;&gt;[root] var.namespaces</title>
<path fill="none" stroke="black" d="M544.88,-215.88C522.36,-206.26 494.08,-194.19 470.23,-184.01"/>
<polygon fill="black" stroke="black" points="471.56,-180.77 460.99,-180.07 468.81,-187.21 471.56,-180.77"/>
</g>
<!-- [root] azuredevops_git_repository_file.install (expand) -->
<g id="node4" class="node">
<title>[root] azuredevops_git_repository_file.install (expand)</title>
<polygon fill="none" stroke="black" points="451.5,-252 224.5,-252 224.5,-216 451.5,-216 451.5,-252"/>
<text text-anchor="middle" x="338" y="-230.3" font-family="Times,serif" font-size="14.00">azuredevops_git_repository_file.install</text>
</g>
<!-- [root] azuredevops_git_repository_file.install (expand)&#45;&gt;[root] azuredevops_git_repository.this (expand) -->
<g id="edge10" class="edge">
<title>[root] azuredevops_git_repository_file.install (expand)&#45;&gt;[root] azuredevops_git_repository.this (expand)</title>
<path fill="none" stroke="black" d="M398.11,-215.97C433.37,-205.97 478.09,-193.3 514.94,-182.85"/>
<polygon fill="black" stroke="black" points="515.96,-186.2 524.62,-180.11 514.05,-179.47 515.96,-186.2"/>
</g>
<!-- [root] data.flux_install.main (expand) -->
<g id="node8" class="node">
<title>[root] data.flux_install.main (expand)</title>
<polygon fill="none" stroke="black" points="1386.5,-108 1251.5,-108 1251.5,-72 1386.5,-72 1386.5,-108"/>
<text text-anchor="middle" x="1319" y="-86.3" font-family="Times,serif" font-size="14.00">data.flux_install.main</text>
</g>
<!-- [root] azuredevops_git_repository_file.install (expand)&#45;&gt;[root] data.flux_install.main (expand) -->
<g id="edge11" class="edge">
<title>[root] azuredevops_git_repository_file.install (expand)&#45;&gt;[root] data.flux_install.main (expand)</title>
<path fill="none" stroke="black" d="M336.94,-215.8C336.72,-195.2 339.89,-161.3 361,-144 369.49,-137.04 1014.08,-105.58 1241.02,-94.71"/>
<polygon fill="black" stroke="black" points="1241.36,-98.2 1251.18,-94.22 1241.02,-91.21 1241.36,-98.2"/>
</g>
<!-- [root] azuredevops_git_repository_file.install (expand)&#45;&gt;[root] var.branch -->
<g id="edge12" class="edge">
<title>[root] azuredevops_git_repository_file.install (expand)&#45;&gt;[root] var.branch</title>
<path fill="none" stroke="black" d="M329.27,-215.74C320.68,-196.02 311.1,-163.91 328,-144 345.58,-123.29 517.48,-103.87 602.66,-95.43"/>
<polygon fill="black" stroke="black" points="603.23,-98.89 612.85,-94.43 602.55,-91.92 603.23,-98.89"/>
</g>
<!-- [root] azuredevops_git_repository_file.kustomize (expand) -->
<g id="node5" class="node">
<title>[root] azuredevops_git_repository_file.kustomize (expand)</title>
<polygon fill="none" stroke="black" points="969.5,-252 718.5,-252 718.5,-216 969.5,-216 969.5,-252"/>
<text text-anchor="middle" x="844" y="-230.3" font-family="Times,serif" font-size="14.00">azuredevops_git_repository_file.kustomize</text>
</g>
<!-- [root] azuredevops_git_repository_file.kustomize (expand)&#45;&gt;[root] azuredevops_git_repository.this (expand) -->
<g id="edge13" class="edge">
<title>[root] azuredevops_git_repository_file.kustomize (expand)&#45;&gt;[root] azuredevops_git_repository.this (expand)</title>
<path fill="none" stroke="black" d="M780.97,-215.97C743.84,-205.93 696.7,-193.19 657.97,-182.72"/>
<polygon fill="black" stroke="black" points="658.88,-179.34 648.31,-180.11 657.05,-186.1 658.88,-179.34"/>
</g>
<!-- [root] data.flux_sync.main (expand) -->
<g id="node9" class="node">
<title>[root] data.flux_sync.main (expand)</title>
<polygon fill="none" stroke="black" points="1166.5,-180 1039.5,-180 1039.5,-144 1166.5,-144 1166.5,-180"/>
<text text-anchor="middle" x="1103" y="-158.3" font-family="Times,serif" font-size="14.00">data.flux_sync.main</text>
</g>
<!-- [root] azuredevops_git_repository_file.kustomize (expand)&#45;&gt;[root] data.flux_sync.main (expand) -->
<g id="edge14" class="edge">
<title>[root] azuredevops_git_repository_file.kustomize (expand)&#45;&gt;[root] data.flux_sync.main (expand)</title>
<path fill="none" stroke="black" d="M907.03,-215.97C944.16,-205.93 991.3,-193.19 1030.03,-182.72"/>
<polygon fill="black" stroke="black" points="1030.95,-186.1 1039.69,-180.11 1029.12,-179.34 1030.95,-186.1"/>
</g>
<!-- [root] azuredevops_git_repository_file.sync (expand) -->
<g id="node6" class="node">
<title>[root] azuredevops_git_repository_file.sync (expand)</title>
<polygon fill="none" stroke="black" points="1206.5,-252 987.5,-252 987.5,-216 1206.5,-216 1206.5,-252"/>
<text text-anchor="middle" x="1097" y="-230.3" font-family="Times,serif" font-size="14.00">azuredevops_git_repository_file.sync</text>
</g>
<!-- [root] azuredevops_git_repository_file.sync (expand)&#45;&gt;[root] azuredevops_git_repository.this (expand) -->
<g id="edge15" class="edge">
<title>[root] azuredevops_git_repository_file.sync (expand)&#45;&gt;[root] azuredevops_git_repository.this (expand)</title>
<path fill="none" stroke="black" d="M987.42,-217.31C984.25,-216.87 981.1,-216.43 978,-216 880.23,-202.42 768.71,-187.43 689.51,-176.87"/>
<polygon fill="black" stroke="black" points="689.9,-173.39 679.52,-175.54 688.97,-180.33 689.9,-173.39"/>
</g>
<!-- [root] azuredevops_git_repository_file.sync (expand)&#45;&gt;[root] data.flux_sync.main (expand) -->
<g id="edge16" class="edge">
<title>[root] azuredevops_git_repository_file.sync (expand)&#45;&gt;[root] data.flux_sync.main (expand)</title>
<path fill="none" stroke="black" d="M1098.48,-215.7C1099.14,-207.98 1099.94,-198.71 1100.68,-190.11"/>
<polygon fill="black" stroke="black" points="1104.17,-190.37 1101.53,-180.1 1097.19,-189.77 1104.17,-190.37"/>
</g>
<!-- [root] provider[&quot;registry.terraform.io/xenitab/azuredevops&quot;] -->
<g id="node21" class="node">
<title>[root] provider[&quot;registry.terraform.io/xenitab/azuredevops&quot;]</title>
<polygon fill="none" stroke="black" points="295,-36 11.8,-18 295,0 578.2,-18 295,-36"/>
<text text-anchor="middle" x="295" y="-14.3" font-family="Times,serif" font-size="14.00">provider[&quot;registry.terraform.io/xenitab/azuredevops&quot;]</text>
</g>
<!-- [root] data.azuredevops_project.this (expand)&#45;&gt;[root] provider[&quot;registry.terraform.io/xenitab/azuredevops&quot;] -->
<g id="edge17" class="edge">
<title>[root] data.azuredevops_project.this (expand)&#45;&gt;[root] provider[&quot;registry.terraform.io/xenitab/azuredevops&quot;]</title>
<path fill="none" stroke="black" d="M362,-71.7C350.26,-62.46 335.69,-51 323.13,-41.13"/>
<polygon fill="black" stroke="black" points="325.25,-38.34 315.23,-34.91 320.92,-43.84 325.25,-38.34"/>
</g>
<!-- [root] var.azure_devops_proj -->
<g id="node24" class="node">
<title>[root] var.azure_devops_proj</title>
<polygon fill="none" stroke="black" points="730,-36 596,-36 596,0 736,0 736,-30 730,-36"/>
<polyline fill="none" stroke="black" points="730,-36 730,-30 "/>
<polyline fill="none" stroke="black" points="736,-30 730,-30 "/>
<text text-anchor="middle" x="666" y="-14.3" font-family="Times,serif" font-size="14.00">var.azure_devops_proj</text>
</g>
<!-- [root] data.azuredevops_project.this (expand)&#45;&gt;[root] var.azure_devops_proj -->
<g id="edge18" class="edge">
<title>[root] data.azuredevops_project.this (expand)&#45;&gt;[root] var.azure_devops_proj</title>
<path fill="none" stroke="black" d="M452.62,-71.97C493.31,-61.87 545.03,-49.03 587.36,-38.52"/>
<polygon fill="black" stroke="black" points="588.21,-41.92 597.07,-36.11 586.52,-35.12 588.21,-41.92"/>
</g>
<!-- [root] provider[&quot;registry.terraform.io/fluxcd/flux&quot;] -->
<g id="node18" class="node">
<title>[root] provider[&quot;registry.terraform.io/fluxcd/flux&quot;]</title>
<polygon fill="none" stroke="black" points="1415,-36 1179.89,-18 1415,0 1650.11,-18 1415,-36"/>
<text text-anchor="middle" x="1415" y="-14.3" font-family="Times,serif" font-size="14.00">provider[&quot;registry.terraform.io/fluxcd/flux&quot;]</text>
</g>
<!-- [root] data.flux_install.main (expand)&#45;&gt;[root] provider[&quot;registry.terraform.io/fluxcd/flux&quot;] -->
<g id="edge19" class="edge">
<title>[root] data.flux_install.main (expand)&#45;&gt;[root] provider[&quot;registry.terraform.io/fluxcd/flux&quot;]</title>
<path fill="none" stroke="black" d="M1342.73,-71.7C1355.7,-62.24 1371.87,-50.45 1385.63,-40.42"/>
<polygon fill="black" stroke="black" points="1387.81,-43.16 1393.83,-34.44 1383.69,-37.5 1387.81,-43.16"/>
</g>
<!-- [root] data.flux_install.main (expand)&#45;&gt;[root] var.bootstrap_path -->
<g id="edge20" class="edge">
<title>[root] data.flux_install.main (expand)&#45;&gt;[root] var.bootstrap_path</title>
<path fill="none" stroke="black" d="M1266.44,-71.97C1235.99,-62.1 1197.49,-49.62 1165.5,-39.25"/>
<polygon fill="black" stroke="black" points="1166.39,-35.86 1155.8,-36.11 1164.23,-42.52 1166.39,-35.86"/>
</g>
<!-- [root] data.flux_sync.main (expand)&#45;&gt;[root] provider[&quot;registry.terraform.io/fluxcd/flux&quot;] -->
<g id="edge22" class="edge">
<title>[root] data.flux_sync.main (expand)&#45;&gt;[root] provider[&quot;registry.terraform.io/fluxcd/flux&quot;]</title>
<path fill="none" stroke="black" d="M1166.69,-157.51C1242.55,-152.02 1363.07,-138.63 1395,-108 1411.47,-92.2 1415.73,-65.99 1416.32,-46.09"/>
<polygon fill="black" stroke="black" points="1419.82,-46.08 1416.32,-36.07 1412.82,-46.07 1419.82,-46.08"/>
</g>
<!-- [root] data.flux_sync.main (expand)&#45;&gt;[root] var.bootstrap_path -->
<g id="edge23" class="edge">
<title>[root] data.flux_sync.main (expand)&#45;&gt;[root] var.bootstrap_path</title>
<path fill="none" stroke="black" d="M1103,-143.87C1103,-119.67 1103,-75.21 1103,-46.39"/>
<polygon fill="black" stroke="black" points="1106.5,-46.19 1103,-36.19 1099.5,-46.19 1106.5,-46.19"/>
</g>
<!-- [root] data.flux_sync.main (expand)&#45;&gt;[root] var.branch -->
<g id="edge24" class="edge">
<title>[root] data.flux_sync.main (expand)&#45;&gt;[root] var.branch</title>
<path fill="none" stroke="black" d="M1039.44,-157.15C960.7,-151.41 822.58,-138.12 696.98,-107.93"/>
<polygon fill="black" stroke="black" points="697.73,-104.51 687.19,-105.54 696.07,-111.31 697.73,-104.51"/>
</g>
<!-- [root] local.repo_url (expand) -->
<g id="node29" class="node">
<title>[root] local.repo_url (expand)</title>
<ellipse fill="none" stroke="black" cx="821" cy="-90" rx="116.18" ry="18"/>
<text text-anchor="middle" x="821" y="-86.3" font-family="Times,serif" font-size="14.00">[root] local.repo_url (expand)</text>
</g>
<!-- [root] data.flux_sync.main (expand)&#45;&gt;[root] local.repo_url (expand) -->
<g id="edge21" class="edge">
<title>[root] data.flux_sync.main (expand)&#45;&gt;[root] local.repo_url (expand)</title>
<path fill="none" stroke="black" d="M1039.36,-145.2C994.87,-134.16 935.49,-119.42 889.88,-108.1"/>
<polygon fill="black" stroke="black" points="890.62,-104.68 880.07,-105.66 888.94,-111.47 890.62,-104.68"/>
</g>
<!-- [root] data.kubectl_file_documents.install (expand) -->
<g id="node10" class="node">
<title>[root] data.kubectl_file_documents.install (expand)</title>
<polygon fill="none" stroke="black" points="1654.5,-180 1445.5,-180 1445.5,-144 1654.5,-144 1654.5,-180"/>
<text text-anchor="middle" x="1550" y="-158.3" font-family="Times,serif" font-size="14.00">data.kubectl_file_documents.install</text>
</g>
<!-- [root] data.kubectl_file_documents.install (expand)&#45;&gt;[root] data.flux_install.main (expand) -->
<g id="edge25" class="edge">
<title>[root] data.kubectl_file_documents.install (expand)&#45;&gt;[root] data.flux_install.main (expand)</title>
<path fill="none" stroke="black" d="M1493.79,-143.97C1461.09,-134.06 1419.7,-121.51 1385.4,-111.12"/>
<polygon fill="black" stroke="black" points="1386.05,-107.66 1375.47,-108.11 1384.02,-114.36 1386.05,-107.66"/>
</g>
<!-- [root] provider[&quot;registry.terraform.io/gavinbunney/kubectl&quot;] -->
<g id="node19" class="node">
<title>[root] provider[&quot;registry.terraform.io/gavinbunney/kubectl&quot;]</title>
<polygon fill="none" stroke="black" points="1781,-108 1495.28,-90 1781,-72 2066.72,-90 1781,-108"/>
<text text-anchor="middle" x="1781" y="-86.3" font-family="Times,serif" font-size="14.00">provider[&quot;registry.terraform.io/gavinbunney/kubectl&quot;]</text>
</g>
<!-- [root] data.kubectl_file_documents.install (expand)&#45;&gt;[root] provider[&quot;registry.terraform.io/gavinbunney/kubectl&quot;] -->
<g id="edge26" class="edge">
<title>[root] data.kubectl_file_documents.install (expand)&#45;&gt;[root] provider[&quot;registry.terraform.io/gavinbunney/kubectl&quot;]</title>
<path fill="none" stroke="black" d="M1606.21,-143.97C1642.1,-133.09 1688.47,-119.04 1724.43,-108.14"/>
<polygon fill="black" stroke="black" points="1725.72,-111.41 1734.28,-105.16 1723.69,-104.71 1725.72,-111.41"/>
</g>
<!-- [root] data.kubectl_file_documents.sync (expand) -->
<g id="node11" class="node">
<title>[root] data.kubectl_file_documents.sync (expand)</title>
<polygon fill="none" stroke="black" points="1950.5,-252 1749.5,-252 1749.5,-216 1950.5,-216 1950.5,-252"/>
<text text-anchor="middle" x="1850" y="-230.3" font-family="Times,serif" font-size="14.00">data.kubectl_file_documents.sync</text>
</g>
<!-- [root] data.kubectl_file_documents.sync (expand)&#45;&gt;[root] data.flux_sync.main (expand) -->
<g id="edge27" class="edge">
<title>[root] data.kubectl_file_documents.sync (expand)&#45;&gt;[root] data.flux_sync.main (expand)</title>
<path fill="none" stroke="black" d="M1749.39,-217.75C1744.53,-217.13 1739.71,-216.55 1735,-216 1533.6,-192.69 1294.96,-175.49 1176.84,-167.67"/>
<polygon fill="black" stroke="black" points="1177.03,-164.18 1166.82,-167.02 1176.57,-171.16 1177.03,-164.18"/>
</g>
<!-- [root] data.kubectl_file_documents.sync (expand)&#45;&gt;[root] provider[&quot;registry.terraform.io/gavinbunney/kubectl&quot;] -->
<g id="edge28" class="edge">
<title>[root] data.kubectl_file_documents.sync (expand)&#45;&gt;[root] provider[&quot;registry.terraform.io/gavinbunney/kubectl&quot;]</title>
<path fill="none" stroke="black" d="M1841.68,-215.87C1829.7,-191.22 1807.5,-145.54 1793.53,-116.79"/>
<polygon fill="black" stroke="black" points="1796.66,-115.21 1789.14,-107.75 1790.36,-118.27 1796.66,-115.21"/>
</g>
<!-- [root] kubectl_manifest.git_cache_deplopyment (expand) -->
<g id="node12" class="node">
<title>[root] kubectl_manifest.git_cache_deplopyment (expand)</title>
<polygon fill="none" stroke="black" points="1743,-324 1499,-324 1499,-288 1743,-288 1743,-324"/>
<text text-anchor="middle" x="1621" y="-302.3" font-family="Times,serif" font-size="14.00">kubectl_manifest.git_cache_deplopyment</text>
</g>
<!-- [root] kubectl_manifest.git_cache_deplopyment (expand)&#45;&gt;[root] provider[&quot;registry.terraform.io/gavinbunney/kubectl&quot;] -->
<g id="edge29" class="edge">
<title>[root] kubectl_manifest.git_cache_deplopyment (expand)&#45;&gt;[root] provider[&quot;registry.terraform.io/gavinbunney/kubectl&quot;]</title>
<path fill="none" stroke="black" d="M1635.18,-288C1643.67,-277.69 1654.62,-264.22 1664,-252 1700.36,-204.66 1740.93,-147.89 1763.47,-115.98"/>
<polygon fill="black" stroke="black" points="1766.43,-117.86 1769.33,-107.67 1760.71,-113.83 1766.43,-117.86"/>
</g>
<!-- [root] kubectl_manifest.git_cache_service (expand) -->
<g id="node13" class="node">
<title>[root] kubectl_manifest.git_cache_service (expand)</title>
<polygon fill="none" stroke="black" points="2320.5,-324 2109.5,-324 2109.5,-288 2320.5,-288 2320.5,-324"/>
<text text-anchor="middle" x="2215" y="-302.3" font-family="Times,serif" font-size="14.00">kubectl_manifest.git_cache_service</text>
</g>
<!-- [root] kubectl_manifest.git_cache_service (expand)&#45;&gt;[root] provider[&quot;registry.terraform.io/gavinbunney/kubectl&quot;] -->
<g id="edge30" class="edge">
<title>[root] kubectl_manifest.git_cache_service (expand)&#45;&gt;[root] provider[&quot;registry.terraform.io/gavinbunney/kubectl&quot;]</title>
<path fill="none" stroke="black" d="M2244.5,-287.94C2256.98,-278.99 2270.19,-266.79 2277,-252 2283.7,-237.47 2286.83,-228.62 2277,-216 2230.02,-155.71 2021.95,-119.98 1890.68,-103.04"/>
<polygon fill="black" stroke="black" points="1890.94,-99.55 1880.58,-101.76 1890.06,-106.49 1890.94,-99.55"/>
</g>
<!-- [root] kubectl_manifest.install (expand) -->
<g id="node14" class="node">
<title>[root] kubectl_manifest.install (expand)</title>
<polygon fill="none" stroke="black" points="2115.5,-252 1968.5,-252 1968.5,-216 2115.5,-216 2115.5,-252"/>
<text text-anchor="middle" x="2042" y="-230.3" font-family="Times,serif" font-size="14.00">kubectl_manifest.install</text>
</g>
<!-- [root] kubectl_manifest.install (expand)&#45;&gt;[root] data.kubectl_file_documents.install (expand) -->
<g id="edge31" class="edge">
<title>[root] kubectl_manifest.install (expand)&#45;&gt;[root] data.kubectl_file_documents.install (expand)</title>
<path fill="none" stroke="black" d="M1968.29,-217.44C1965.5,-216.94 1962.72,-216.46 1960,-216 1860.8,-199.33 1747.33,-185.03 1664.95,-175.5"/>
<polygon fill="black" stroke="black" points="1665.14,-171.99 1654.8,-174.33 1664.34,-178.95 1665.14,-171.99"/>
</g>
<!-- [root] kubernetes_namespace.flux_system (expand) -->
<g id="node16" class="node">
<title>[root] kubernetes_namespace.flux_system (expand)</title>
<polygon fill="none" stroke="black" points="2536,-180 2324,-180 2324,-144 2536,-144 2536,-180"/>
<text text-anchor="middle" x="2430" y="-158.3" font-family="Times,serif" font-size="14.00">kubernetes_namespace.flux_system</text>
</g>
<!-- [root] kubectl_manifest.install (expand)&#45;&gt;[root] kubernetes_namespace.flux_system (expand) -->
<g id="edge32" class="edge">
<title>[root] kubectl_manifest.install (expand)&#45;&gt;[root] kubernetes_namespace.flux_system (expand)</title>
<path fill="none" stroke="black" d="M2115.74,-217.78C2118.87,-217.17 2121.97,-216.57 2125,-216 2188.65,-203.95 2259.97,-191.5 2317.63,-181.7"/>
<polygon fill="black" stroke="black" points="2318.23,-185.15 2327.5,-180.02 2317.05,-178.25 2318.23,-185.15"/>
</g>
<!-- [root] kubectl_manifest.sync (expand) -->
<g id="node15" class="node">
<title>[root] kubectl_manifest.sync (expand)</title>
<polygon fill="none" stroke="black" points="1904.5,-324 1765.5,-324 1765.5,-288 1904.5,-288 1904.5,-324"/>
<text text-anchor="middle" x="1835" y="-302.3" font-family="Times,serif" font-size="14.00">kubectl_manifest.sync</text>
</g>
<!-- [root] kubectl_manifest.sync (expand)&#45;&gt;[root] data.kubectl_file_documents.sync (expand) -->
<g id="edge33" class="edge">
<title>[root] kubectl_manifest.sync (expand)&#45;&gt;[root] data.kubectl_file_documents.sync (expand)</title>
<path fill="none" stroke="black" d="M1838.71,-287.7C1840.36,-279.98 1842.35,-270.71 1844.19,-262.11"/>
<polygon fill="black" stroke="black" points="1847.66,-262.62 1846.33,-252.1 1840.82,-261.15 1847.66,-262.62"/>
</g>
<!-- [root] kubectl_manifest.sync (expand)&#45;&gt;[root] kubectl_manifest.install (expand) -->
<g id="edge34" class="edge">
<title>[root] kubectl_manifest.sync (expand)&#45;&gt;[root] kubectl_manifest.install (expand)</title>
<path fill="none" stroke="black" d="M1885.37,-287.97C1914.42,-278.14 1951.13,-265.73 1981.71,-255.39"/>
<polygon fill="black" stroke="black" points="1983.05,-258.63 1991.4,-252.11 1980.81,-252 1983.05,-258.63"/>
</g>
<!-- [root] provider[&quot;registry.terraform.io/hashicorp/kubernetes&quot;] -->
<g id="node20" class="node">
<title>[root] provider[&quot;registry.terraform.io/hashicorp/kubernetes&quot;]</title>
<polygon fill="none" stroke="black" points="2430,-108 2143.45,-90 2430,-72 2716.55,-90 2430,-108"/>
<text text-anchor="middle" x="2430" y="-86.3" font-family="Times,serif" font-size="14.00">provider[&quot;registry.terraform.io/hashicorp/kubernetes&quot;]</text>
</g>
<!-- [root] kubernetes_namespace.flux_system (expand)&#45;&gt;[root] provider[&quot;registry.terraform.io/hashicorp/kubernetes&quot;] -->
<g id="edge35" class="edge">
<title>[root] kubernetes_namespace.flux_system (expand)&#45;&gt;[root] provider[&quot;registry.terraform.io/hashicorp/kubernetes&quot;]</title>
<path fill="none" stroke="black" d="M2430,-143.7C2430,-135.98 2430,-126.71 2430,-118.11"/>
<polygon fill="black" stroke="black" points="2433.5,-118.1 2430,-108.1 2426.5,-118.1 2433.5,-118.1"/>
</g>
<!-- [root] kubernetes_secret.main (expand) -->
<g id="node17" class="node">
<title>[root] kubernetes_secret.main (expand)</title>
<polygon fill="none" stroke="black" points="2091.5,-324 1946.5,-324 1946.5,-288 2091.5,-288 2091.5,-324"/>
<text text-anchor="middle" x="2019" y="-302.3" font-family="Times,serif" font-size="14.00">kubernetes_secret.main</text>
</g>
<!-- [root] kubernetes_secret.main (expand)&#45;&gt;[root] data.flux_sync.main (expand) -->
<g id="edge36" class="edge">
<title>[root] kubernetes_secret.main (expand)&#45;&gt;[root] data.flux_sync.main (expand)</title>
<path fill="none" stroke="black" d="M1946.22,-293.33C1876.8,-281.81 1777.44,-264.2 1740,-252 1704.46,-240.42 1700.04,-225.91 1664,-216 1574.22,-191.32 1307.8,-174.04 1177.06,-166.8"/>
<polygon fill="black" stroke="black" points="1176.91,-163.29 1166.74,-166.23 1176.53,-170.28 1176.91,-163.29"/>
</g>
<!-- [root] kubernetes_secret.main (expand)&#45;&gt;[root] kubectl_manifest.install (expand) -->
<g id="edge37" class="edge">
<title>[root] kubernetes_secret.main (expand)&#45;&gt;[root] kubectl_manifest.install (expand)</title>
<path fill="none" stroke="black" d="M2024.69,-287.7C2027.25,-279.9 2030.33,-270.51 2033.18,-261.83"/>
<polygon fill="black" stroke="black" points="2036.58,-262.7 2036.38,-252.1 2029.93,-260.51 2036.58,-262.7"/>
</g>
<!-- [root] var.azure_devops_pat -->
<g id="node23" class="node">
<title>[root] var.azure_devops_pat</title>
<polygon fill="none" stroke="black" points="2262,-252 2134,-252 2134,-216 2268,-216 2268,-246 2262,-252"/>
<polyline fill="none" stroke="black" points="2262,-252 2262,-246 "/>
<polyline fill="none" stroke="black" points="2268,-246 2262,-246 "/>
<text text-anchor="middle" x="2201" y="-230.3" font-family="Times,serif" font-size="14.00">var.azure_devops_pat</text>
</g>
<!-- [root] kubernetes_secret.main (expand)&#45;&gt;[root] var.azure_devops_pat -->
<g id="edge38" class="edge">
<title>[root] kubernetes_secret.main (expand)&#45;&gt;[root] var.azure_devops_pat</title>
<path fill="none" stroke="black" d="M2063.52,-287.88C2088.73,-278.18 2120.45,-265.98 2147.07,-255.74"/>
<polygon fill="black" stroke="black" points="2148.55,-258.92 2156.62,-252.07 2146.03,-252.39 2148.55,-258.92"/>
</g>
<!-- [root] local.repo_url (expand)&#45;&gt;[root] var.azure_devops_org -->
<g id="edge39" class="edge">
<title>[root] local.repo_url (expand)&#45;&gt;[root] var.azure_devops_org</title>
<path fill="none" stroke="black" d="M853.12,-72.59C871.78,-63.06 895.5,-50.93 915.67,-40.63"/>
<polygon fill="black" stroke="black" points="917.34,-43.71 924.65,-36.04 914.15,-37.47 917.34,-43.71"/>
</g>
<!-- [root] local.repo_url (expand)&#45;&gt;[root] var.azure_devops_proj -->
<g id="edge40" class="edge">
<title>[root] local.repo_url (expand)&#45;&gt;[root] var.azure_devops_proj</title>
<path fill="none" stroke="black" d="M785.05,-72.76C763.59,-63.07 736.1,-50.66 712.94,-40.2"/>
<polygon fill="black" stroke="black" points="714.2,-36.93 703.64,-36 711.32,-43.31 714.2,-36.93"/>
</g>
<!-- [root] local.repo_url (expand)&#45;&gt;[root] var.bootstrap_repo -->
<g id="edge41" class="edge">
<title>[root] local.repo_url (expand)&#45;&gt;[root] var.bootstrap_repo</title>
<path fill="none" stroke="black" d="M819.02,-71.7C818.14,-63.98 817.08,-54.71 816.1,-46.11"/>
<polygon fill="black" stroke="black" points="819.57,-45.64 814.95,-36.1 812.61,-46.44 819.57,-45.64"/>
</g>
<!-- [root] meta.count&#45;boundary (EachMode fixup) -->
<g id="node30" class="node">
<title>[root] meta.count&#45;boundary (EachMode fixup)</title>
<ellipse fill="none" stroke="black" cx="1108" cy="-378" rx="176.27" ry="18"/>
<text text-anchor="middle" x="1108" y="-374.3" font-family="Times,serif" font-size="14.00">[root] meta.count&#45;boundary (EachMode fixup)</text>
</g>
<!-- [root] meta.count&#45;boundary (EachMode fixup)&#45;&gt;[root] azuredevops_git_repository.groups (expand) -->
<g id="edge42" class="edge">
<title>[root] meta.count&#45;boundary (EachMode fixup)&#45;&gt;[root] azuredevops_git_repository.groups (expand)</title>
<path fill="none" stroke="black" d="M946.01,-370.83C758.48,-362.76 461.38,-346.93 352,-324 279.34,-308.77 199.11,-277.26 149.88,-256.13"/>
<polygon fill="black" stroke="black" points="151.02,-252.81 140.45,-252.04 148.24,-259.23 151.02,-252.81"/>
</g>
<!-- [root] meta.count&#45;boundary (EachMode fixup)&#45;&gt;[root] azuredevops_git_repository_file.groups (expand) -->
<g id="edge43" class="edge">
<title>[root] meta.count&#45;boundary (EachMode fixup)&#45;&gt;[root] azuredevops_git_repository_file.groups (expand)</title>
<path fill="none" stroke="black" d="M1072.02,-360.38C1021.98,-337.47 933.73,-297.9 900,-288 864.93,-277.71 782.48,-263.96 710.73,-253.05"/>
<polygon fill="black" stroke="black" points="711.09,-249.57 700.68,-251.53 710.04,-256.49 711.09,-249.57"/>
</g>
<!-- [root] meta.count&#45;boundary (EachMode fixup)&#45;&gt;[root] azuredevops_git_repository_file.install (expand) -->
<g id="edge44" class="edge">
<title>[root] meta.count&#45;boundary (EachMode fixup)&#45;&gt;[root] azuredevops_git_repository_file.install (expand)</title>
<path fill="none" stroke="black" d="M938.17,-373.22C738.7,-367.44 429.1,-353.77 384,-324 362.64,-309.9 350.64,-282.61 344.29,-261.94"/>
<polygon fill="black" stroke="black" points="347.61,-260.82 341.54,-252.14 340.87,-262.71 347.61,-260.82"/>
</g>
<!-- [root] meta.count&#45;boundary (EachMode fixup)&#45;&gt;[root] azuredevops_git_repository_file.kustomize (expand) -->
<g id="edge45" class="edge">
<title>[root] meta.count&#45;boundary (EachMode fixup)&#45;&gt;[root] azuredevops_git_repository_file.kustomize (expand)</title>
<path fill="none" stroke="black" d="M1090.55,-359.79C1069.78,-340.12 1033.32,-308.06 997,-288 972.67,-274.56 944.31,-263.6 918.67,-255.2"/>
<polygon fill="black" stroke="black" points="919.58,-251.82 908.99,-252.11 917.45,-258.49 919.58,-251.82"/>
</g>
<!-- [root] meta.count&#45;boundary (EachMode fixup)&#45;&gt;[root] azuredevops_git_repository_file.sync (expand) -->
<g id="edge46" class="edge">
<title>[root] meta.count&#45;boundary (EachMode fixup)&#45;&gt;[root] azuredevops_git_repository_file.sync (expand)</title>
<path fill="none" stroke="black" d="M1106.67,-359.87C1104.8,-335.67 1101.35,-291.21 1099.12,-262.39"/>
<polygon fill="black" stroke="black" points="1102.59,-261.89 1098.33,-252.19 1095.61,-262.43 1102.59,-261.89"/>
</g>
<!-- [root] meta.count&#45;boundary (EachMode fixup)&#45;&gt;[root] kubectl_manifest.git_cache_deplopyment (expand) -->
<g id="edge47" class="edge">
<title>[root] meta.count&#45;boundary (EachMode fixup)&#45;&gt;[root] kubectl_manifest.git_cache_deplopyment (expand)</title>
<path fill="none" stroke="black" d="M1209.05,-363.21C1289.15,-352.28 1401.73,-336.92 1488.96,-325.02"/>
<polygon fill="black" stroke="black" points="1489.5,-328.48 1498.93,-323.66 1488.55,-321.54 1489.5,-328.48"/>
</g>
<!-- [root] meta.count&#45;boundary (EachMode fixup)&#45;&gt;[root] kubectl_manifest.git_cache_service (expand) -->
<g id="edge48" class="edge">
<title>[root] meta.count&#45;boundary (EachMode fixup)&#45;&gt;[root] kubectl_manifest.git_cache_service (expand)</title>
<path fill="none" stroke="black" d="M1248.48,-367.1C1285.1,-364.64 1324.52,-362.11 1361,-360 1686.36,-341.16 1771.57,-356.01 2099.2,-324.12"/>
<polygon fill="black" stroke="black" points="2099.85,-327.58 2109.46,-323.12 2099.17,-320.61 2099.85,-327.58"/>
</g>
<!-- [root] meta.count&#45;boundary (EachMode fixup)&#45;&gt;[root] kubectl_manifest.sync (expand) -->
<g id="edge49" class="edge">
<title>[root] meta.count&#45;boundary (EachMode fixup)&#45;&gt;[root] kubectl_manifest.sync (expand)</title>
<path fill="none" stroke="black" d="M1249.84,-367.32C1409.41,-356.08 1658.51,-337.37 1752,-324 1753.09,-323.84 1754.19,-323.68 1755.3,-323.52"/>
<polygon fill="black" stroke="black" points="1756.05,-326.94 1765.37,-321.89 1754.94,-320.03 1756.05,-326.94"/>
</g>
<!-- [root] meta.count&#45;boundary (EachMode fixup)&#45;&gt;[root] kubernetes_secret.main (expand) -->
<g id="edge50" class="edge">
<title>[root] meta.count&#45;boundary (EachMode fixup)&#45;&gt;[root] kubernetes_secret.main (expand)</title>
<path fill="none" stroke="black" d="M1250.5,-367.37C1286.55,-364.95 1325.2,-362.37 1361,-360 1606.76,-343.74 1669.27,-351.71 1914,-324 1921.27,-323.18 1928.81,-322.2 1936.36,-321.14"/>
<polygon fill="black" stroke="black" points="1936.87,-324.6 1946.26,-319.7 1935.86,-317.67 1936.87,-324.6"/>
</g>
<!-- [root] provider[&quot;registry.terraform.io/fluxcd/flux&quot;] (close) -->
<g id="node31" class="node">
<title>[root] provider[&quot;registry.terraform.io/fluxcd/flux&quot;] (close)</title>
<ellipse fill="none" stroke="black" cx="1440" cy="-234" rx="215.26" ry="18"/>
<text text-anchor="middle" x="1440" y="-230.3" font-family="Times,serif" font-size="14.00">[root] provider[&quot;registry.terraform.io/fluxcd/flux&quot;] (close)</text>
</g>
<!-- [root] provider[&quot;registry.terraform.io/fluxcd/flux&quot;] (close)&#45;&gt;[root] data.flux_install.main (expand) -->
<g id="edge51" class="edge">
<title>[root] provider[&quot;registry.terraform.io/fluxcd/flux&quot;] (close)&#45;&gt;[root] data.flux_install.main (expand)</title>
<path fill="none" stroke="black" d="M1425.4,-215.87C1404.24,-191.03 1364.88,-144.85 1340.42,-116.14"/>
<polygon fill="black" stroke="black" points="1342.8,-113.53 1333.65,-108.19 1337.47,-118.07 1342.8,-113.53"/>
</g>
<!-- [root] provider[&quot;registry.terraform.io/fluxcd/flux&quot;] (close)&#45;&gt;[root] data.flux_sync.main (expand) -->
<g id="edge52" class="edge">
<title>[root] provider[&quot;registry.terraform.io/fluxcd/flux&quot;] (close)&#45;&gt;[root] data.flux_sync.main (expand)</title>
<path fill="none" stroke="black" d="M1363.53,-217.12C1307.59,-205.5 1232.12,-189.82 1176.81,-178.33"/>
<polygon fill="black" stroke="black" points="1177.23,-174.84 1166.73,-176.24 1175.81,-181.7 1177.23,-174.84"/>
</g>
<!-- [root] provider[&quot;registry.terraform.io/gavinbunney/kubectl&quot;] (close) -->
<g id="node32" class="node">
<title>[root] provider[&quot;registry.terraform.io/gavinbunney/kubectl&quot;] (close)</title>
<ellipse fill="none" stroke="black" cx="1621" cy="-378" rx="250.76" ry="18"/>
<text text-anchor="middle" x="1621" y="-374.3" font-family="Times,serif" font-size="14.00">[root] provider[&quot;registry.terraform.io/gavinbunney/kubectl&quot;] (close)</text>
</g>
<!-- [root] provider[&quot;registry.terraform.io/gavinbunney/kubectl&quot;] (close)&#45;&gt;[root] kubectl_manifest.git_cache_deplopyment (expand) -->
<g id="edge53" class="edge">
<title>[root] provider[&quot;registry.terraform.io/gavinbunney/kubectl&quot;] (close)&#45;&gt;[root] kubectl_manifest.git_cache_deplopyment (expand)</title>
<path fill="none" stroke="black" d="M1621,-359.7C1621,-351.98 1621,-342.71 1621,-334.11"/>
<polygon fill="black" stroke="black" points="1624.5,-334.1 1621,-324.1 1617.5,-334.1 1624.5,-334.1"/>
</g>
<!-- [root] provider[&quot;registry.terraform.io/gavinbunney/kubectl&quot;] (close)&#45;&gt;[root] kubectl_manifest.git_cache_service (expand) -->
<g id="edge54" class="edge">
<title>[root] provider[&quot;registry.terraform.io/gavinbunney/kubectl&quot;] (close)&#45;&gt;[root] kubectl_manifest.git_cache_service (expand)</title>
<path fill="none" stroke="black" d="M1760.58,-363C1853.83,-353.32 1979.48,-339.62 2099.34,-324.19"/>
<polygon fill="black" stroke="black" points="2099.96,-327.64 2109.43,-322.89 2099.07,-320.7 2099.96,-327.64"/>
</g>
<!-- [root] provider[&quot;registry.terraform.io/gavinbunney/kubectl&quot;] (close)&#45;&gt;[root] kubectl_manifest.sync (expand) -->
<g id="edge55" class="edge">
<title>[root] provider[&quot;registry.terraform.io/gavinbunney/kubectl&quot;] (close)&#45;&gt;[root] kubectl_manifest.sync (expand)</title>
<path fill="none" stroke="black" d="M1671.99,-360.32C1702.35,-350.39 1741.09,-337.72 1773.19,-327.22"/>
<polygon fill="black" stroke="black" points="1774.5,-330.47 1782.92,-324.04 1772.32,-323.82 1774.5,-330.47"/>
</g>
<!-- [root] provider[&quot;registry.terraform.io/hashicorp/kubernetes&quot;] (close) -->
<g id="node33" class="node">
<title>[root] provider[&quot;registry.terraform.io/hashicorp/kubernetes&quot;] (close)</title>
<ellipse fill="none" stroke="black" cx="2141" cy="-378" rx="251.56" ry="18"/>
<text text-anchor="middle" x="2141" y="-374.3" font-family="Times,serif" font-size="14.00">[root] provider[&quot;registry.terraform.io/hashicorp/kubernetes&quot;] (close)</text>
</g>
<!-- [root] provider[&quot;registry.terraform.io/hashicorp/kubernetes&quot;] (close)&#45;&gt;[root] kubernetes_secret.main (expand) -->
<g id="edge56" class="edge">
<title>[root] provider[&quot;registry.terraform.io/hashicorp/kubernetes&quot;] (close)&#45;&gt;[root] kubernetes_secret.main (expand)</title>
<path fill="none" stroke="black" d="M2111.47,-360.05C2095.25,-350.75 2074.95,-339.11 2057.51,-329.1"/>
<polygon fill="black" stroke="black" points="2059.1,-325.97 2048.68,-324.03 2055.62,-332.04 2059.1,-325.97"/>
</g>
<!-- [root] provider[&quot;registry.terraform.io/xenitab/azuredevops&quot;] (close) -->
<g id="node34" class="node">
<title>[root] provider[&quot;registry.terraform.io/xenitab/azuredevops&quot;] (close)</title>
<ellipse fill="none" stroke="black" cx="642" cy="-306" rx="248.86" ry="18"/>
<text text-anchor="middle" x="642" y="-302.3" font-family="Times,serif" font-size="14.00">[root] provider[&quot;registry.terraform.io/xenitab/azuredevops&quot;] (close)</text>
</g>
<!-- [root] provider[&quot;registry.terraform.io/xenitab/azuredevops&quot;] (close)&#45;&gt;[root] azuredevops_git_repository.groups (expand) -->
<g id="edge57" class="edge">
<title>[root] provider[&quot;registry.terraform.io/xenitab/azuredevops&quot;] (close)&#45;&gt;[root] azuredevops_git_repository.groups (expand)</title>
<path fill="none" stroke="black" d="M517.17,-290.41C434.54,-280.54 323.52,-266.87 216.16,-252.14"/>
<polygon fill="black" stroke="black" points="216.51,-248.66 206.12,-250.76 215.55,-255.59 216.51,-248.66"/>
</g>
<!-- [root] provider[&quot;registry.terraform.io/xenitab/azuredevops&quot;] (close)&#45;&gt;[root] azuredevops_git_repository_file.groups (expand) -->
<g id="edge58" class="edge">
<title>[root] provider[&quot;registry.terraform.io/xenitab/azuredevops&quot;] (close)&#45;&gt;[root] azuredevops_git_repository_file.groups (expand)</title>
<path fill="none" stroke="black" d="M627.91,-287.7C621.08,-279.3 612.74,-269.07 605.24,-259.86"/>
<polygon fill="black" stroke="black" points="607.96,-257.65 598.93,-252.1 602.53,-262.07 607.96,-257.65"/>
</g>
<!-- [root] provider[&quot;registry.terraform.io/xenitab/azuredevops&quot;] (close)&#45;&gt;[root] azuredevops_git_repository_file.install (expand) -->
<g id="edge59" class="edge">
<title>[root] provider[&quot;registry.terraform.io/xenitab/azuredevops&quot;] (close)&#45;&gt;[root] azuredevops_git_repository_file.install (expand)</title>
<path fill="none" stroke="black" d="M571.11,-288.68C526.47,-278.4 468.64,-265.08 421.75,-254.28"/>
<polygon fill="black" stroke="black" points="422.45,-250.85 411.92,-252.02 420.88,-257.68 422.45,-250.85"/>
</g>
<!-- [root] provider[&quot;registry.terraform.io/xenitab/azuredevops&quot;] (close)&#45;&gt;[root] azuredevops_git_repository_file.kustomize (expand) -->
<g id="edge60" class="edge">
<title>[root] provider[&quot;registry.terraform.io/xenitab/azuredevops&quot;] (close)&#45;&gt;[root] azuredevops_git_repository_file.kustomize (expand)</title>
<path fill="none" stroke="black" d="M690.13,-288.32C718.66,-278.43 755.04,-265.83 785.26,-255.36"/>
<polygon fill="black" stroke="black" points="786.54,-258.62 794.84,-252.04 784.24,-252 786.54,-258.62"/>
</g>
<!-- [root] provider[&quot;registry.terraform.io/xenitab/azuredevops&quot;] (close)&#45;&gt;[root] azuredevops_git_repository_file.sync (expand) -->
<g id="edge61" class="edge">
<title>[root] provider[&quot;registry.terraform.io/xenitab/azuredevops&quot;] (close)&#45;&gt;[root] azuredevops_git_repository_file.sync (expand)</title>
<path fill="none" stroke="black" d="M742.7,-289.51C811.95,-278.85 904.23,-264.66 977.25,-253.42"/>
<polygon fill="black" stroke="black" points="978.07,-256.84 987.42,-251.86 977.01,-249.92 978.07,-256.84"/>
</g>
<!-- [root] root -->
<g id="node35" class="node">
<title>[root] root</title>
<ellipse fill="none" stroke="black" cx="1342" cy="-450" rx="47.39" ry="18"/>
<text text-anchor="middle" x="1342" y="-446.3" font-family="Times,serif" font-size="14.00">[root] root</text>
</g>
<!-- [root] root&#45;&gt;[root] meta.count&#45;boundary (EachMode fixup) -->
<g id="edge62" class="edge">
<title>[root] root&#45;&gt;[root] meta.count&#45;boundary (EachMode fixup)</title>
<path fill="none" stroke="black" d="M1305.95,-438.22C1270.39,-427.58 1215.26,-411.09 1172.2,-398.2"/>
<polygon fill="black" stroke="black" points="1172.95,-394.78 1162.37,-395.26 1170.95,-401.48 1172.95,-394.78"/>
</g>
<!-- [root] root&#45;&gt;[root] provider[&quot;registry.terraform.io/fluxcd/flux&quot;] (close) -->
<g id="edge63" class="edge">
<title>[root] root&#45;&gt;[root] provider[&quot;registry.terraform.io/fluxcd/flux&quot;] (close)</title>
<path fill="none" stroke="black" d="M1343.85,-431.74C1346.24,-413.41 1351.28,-383.85 1361,-360 1376.1,-322.95 1402.1,-284.68 1420.12,-260.41"/>
<polygon fill="black" stroke="black" points="1423.14,-262.22 1426.37,-252.13 1417.55,-258 1423.14,-262.22"/>
</g>
<!-- [root] root&#45;&gt;[root] provider[&quot;registry.terraform.io/gavinbunney/kubectl&quot;] (close) -->
<g id="edge64" class="edge">
<title>[root] root&#45;&gt;[root] provider[&quot;registry.terraform.io/gavinbunney/kubectl&quot;] (close)</title>
<path fill="none" stroke="black" d="M1380.5,-439.34C1423,-428.68 1492.46,-411.25 1545.83,-397.86"/>
<polygon fill="black" stroke="black" points="1546.75,-401.24 1555.6,-395.41 1545.05,-394.45 1546.75,-401.24"/>
</g>
<!-- [root] root&#45;&gt;[root] provider[&quot;registry.terraform.io/hashicorp/kubernetes&quot;] (close) -->
<g id="edge65" class="edge">
<title>[root] root&#45;&gt;[root] provider[&quot;registry.terraform.io/hashicorp/kubernetes&quot;] (close)</title>
<path fill="none" stroke="black" d="M1387.83,-444.99C1500,-435.16 1792.72,-409.51 1978.45,-393.24"/>
<polygon fill="black" stroke="black" points="1978.94,-396.71 1988.59,-392.35 1978.33,-389.74 1978.94,-396.71"/>
</g>
<!-- [root] root&#45;&gt;[root] provider[&quot;registry.terraform.io/xenitab/azuredevops&quot;] (close) -->
<g id="edge66" class="edge">
<title>[root] root&#45;&gt;[root] provider[&quot;registry.terraform.io/xenitab/azuredevops&quot;] (close)</title>
<path fill="none" stroke="black" d="M1295.65,-445.89C1217.9,-440.06 1056.56,-425.35 923,-396 842.61,-378.34 752.31,-347.74 696.29,-327.43"/>
<polygon fill="black" stroke="black" points="697.17,-324.02 686.58,-323.89 694.77,-330.6 697.17,-324.02"/>
</g>
</g>
</svg>
