<?xml version="1.0" encoding="UTF-8" standalone="no"?>
<!DOCTYPE svg PUBLIC "-//W3C//DTD SVG 1.1//EN"
 "http://www.w3.org/Graphics/SVG/1.1/DTD/svg11.dtd">
<!-- Generated by graphviz version 2.44.1 (20200629.0846)
 -->
<!-- Pages: 1 -->
<svg width="3329pt" height="548pt"
 viewBox="0.00 0.00 3328.52 548.00" xmlns="http://www.w3.org/2000/svg" xmlns:xlink="http://www.w3.org/1999/xlink">
<g id="graph0" class="graph" transform="scale(1 1) rotate(0) translate(4 544)">
<polygon fill="white" stroke="transparent" points="-4,4 -4,-544 3324.52,-544 3324.52,4 -4,4"/>
<!-- [root] azurerm_key_vault_access_policy.this (expand) -->
<g id="node1" class="node">
<title>[root] azurerm_key_vault_access_policy.this (expand)</title>
<polygon fill="none" stroke="black" points="1614.5,-396 1388.5,-396 1388.5,-360 1614.5,-360 1614.5,-396"/>
<text text-anchor="middle" x="1501.5" y="-374.3" font-family="Times,serif" font-size="14.00">azurerm_key_vault_access_policy.this</text>
</g>
<!-- [root] azurerm_linux_virtual_machine_scale_set.this (expand) -->
<g id="node3" class="node">
<title>[root] azurerm_linux_virtual_machine_scale_set.this (expand)</title>
<polygon fill="none" stroke="black" points="2105.5,-324 1835.5,-324 1835.5,-288 2105.5,-288 2105.5,-324"/>
<text text-anchor="middle" x="1970.5" y="-302.3" font-family="Times,serif" font-size="14.00">azurerm_linux_virtual_machine_scale_set.this</text>
</g>
<!-- [root] azurerm_key_vault_access_policy.this (expand)&#45;&gt;[root] azurerm_linux_virtual_machine_scale_set.this (expand) -->
<g id="edge1" class="edge">
<title>[root] azurerm_key_vault_access_policy.this (expand)&#45;&gt;[root] azurerm_linux_virtual_machine_scale_set.this (expand)</title>
<path fill="none" stroke="black" d="M1614.73,-360.1C1684.63,-349.67 1774.37,-336.27 1846.23,-325.55"/>
<polygon fill="black" stroke="black" points="1846.87,-328.99 1856.24,-324.05 1845.84,-322.07 1846.87,-328.99"/>
</g>
<!-- [root] data.azurerm_key_vault.this (expand) -->
<g id="node5" class="node">
<title>[root] data.azurerm_key_vault.this (expand)</title>
<polygon fill="none" stroke="black" points="1476,-252 1305,-252 1305,-216 1476,-216 1476,-252"/>
<text text-anchor="middle" x="1390.5" y="-230.3" font-family="Times,serif" font-size="14.00">data.azurerm_key_vault.this</text>
</g>
<!-- [root] azurerm_key_vault_access_policy.this (expand)&#45;&gt;[root] data.azurerm_key_vault.this (expand) -->
<g id="edge2" class="edge">
<title>[root] azurerm_key_vault_access_policy.this (expand)&#45;&gt;[root] data.azurerm_key_vault.this (expand)</title>
<path fill="none" stroke="black" d="M1488.11,-359.87C1468.69,-335.03 1432.59,-288.85 1410.15,-260.14"/>
<polygon fill="black" stroke="black" points="1412.85,-257.91 1403.93,-252.19 1407.33,-262.22 1412.85,-257.91"/>
</g>
<!-- [root] data.azurerm_subscription.this (expand) -->
<g id="node9" class="node">
<title>[root] data.azurerm_subscription.this (expand)</title>
<polygon fill="none" stroke="black" points="2505.5,-324 2321.5,-324 2321.5,-288 2505.5,-288 2505.5,-324"/>
<text text-anchor="middle" x="2413.5" y="-302.3" font-family="Times,serif" font-size="14.00">data.azurerm_subscription.this</text>
</g>
<!-- [root] azurerm_key_vault_access_policy.this (expand)&#45;&gt;[root] data.azurerm_subscription.this (expand) -->
<g id="edge3" class="edge">
<title>[root] azurerm_key_vault_access_policy.this (expand)&#45;&gt;[root] data.azurerm_subscription.this (expand)</title>
<path fill="none" stroke="black" d="M1614.7,-368.31C1793.72,-354.57 2139.45,-328.03 2311.33,-314.84"/>
<polygon fill="black" stroke="black" points="2311.69,-318.32 2321.39,-314.07 2311.15,-311.35 2311.69,-318.32"/>
</g>
<!-- [root] azurerm_key_vault_secret.this (expand) -->
<g id="node2" class="node">
<title>[root] azurerm_key_vault_secret.this (expand)</title>
<polygon fill="none" stroke="black" points="1290,-396 1107,-396 1107,-360 1290,-360 1290,-396"/>
<text text-anchor="middle" x="1198.5" y="-374.3" font-family="Times,serif" font-size="14.00">azurerm_key_vault_secret.this</text>
</g>
<!-- [root] azurerm_key_vault_secret.this (expand)&#45;&gt;[root] data.azurerm_key_vault.this (expand) -->
<g id="edge4" class="edge">
<title>[root] azurerm_key_vault_secret.this (expand)&#45;&gt;[root] data.azurerm_key_vault.this (expand)</title>
<path fill="none" stroke="black" d="M1221.66,-359.87C1255.96,-334.5 1320.38,-286.85 1358.97,-258.32"/>
<polygon fill="black" stroke="black" points="1361.3,-260.95 1367.25,-252.19 1357.13,-255.32 1361.3,-260.95"/>
</g>
<!-- [root] tls_private_key.this (expand) -->
<g id="node12" class="node">
<title>[root] tls_private_key.this (expand)</title>
<polygon fill="none" stroke="black" points="854.5,-252 732.5,-252 732.5,-216 854.5,-216 854.5,-252"/>
<text text-anchor="middle" x="793.5" y="-230.3" font-family="Times,serif" font-size="14.00">tls_private_key.this</text>
</g>
<!-- [root] azurerm_key_vault_secret.this (expand)&#45;&gt;[root] tls_private_key.this (expand) -->
<g id="edge5" class="edge">
<title>[root] azurerm_key_vault_secret.this (expand)&#45;&gt;[root] tls_private_key.this (expand)</title>
<path fill="none" stroke="black" d="M1106.83,-369.19C1051.49,-362.12 980.5,-348.83 921.5,-324 883.39,-307.97 845.19,-279.38 820.58,-258.93"/>
<polygon fill="black" stroke="black" points="822.67,-256.12 812.77,-252.34 818.15,-261.47 822.67,-256.12"/>
</g>
<!-- [root] data.azurerm_image.this (expand) -->
<g id="node4" class="node">
<title>[root] data.azurerm_image.this (expand)</title>
<polygon fill="none" stroke="black" points="2792.5,-252 2640.5,-252 2640.5,-216 2792.5,-216 2792.5,-252"/>
<text text-anchor="middle" x="2716.5" y="-230.3" font-family="Times,serif" font-size="14.00">data.azurerm_image.this</text>
</g>
<!-- [root] azurerm_linux_virtual_machine_scale_set.this (expand)&#45;&gt;[root] data.azurerm_image.this (expand) -->
<g id="edge6" class="edge">
<title>[root] azurerm_linux_virtual_machine_scale_set.this (expand)&#45;&gt;[root] data.azurerm_image.this (expand)</title>
<path fill="none" stroke="black" d="M2105.67,-295.49C2231.8,-286.14 2425.13,-270.59 2592.5,-252 2604.68,-250.65 2617.52,-249.06 2630.13,-247.42"/>
<polygon fill="black" stroke="black" points="2630.72,-250.87 2640.17,-246.09 2629.8,-243.93 2630.72,-250.87"/>
</g>
<!-- [root] data.azurerm_resource_group.this (expand) -->
<g id="node7" class="node">
<title>[root] data.azurerm_resource_group.this (expand)</title>
<polygon fill="none" stroke="black" points="1696.5,-252 1494.5,-252 1494.5,-216 1696.5,-216 1696.5,-252"/>
<text text-anchor="middle" x="1595.5" y="-230.3" font-family="Times,serif" font-size="14.00">data.azurerm_resource_group.this</text>
</g>
<!-- [root] azurerm_linux_virtual_machine_scale_set.this (expand)&#45;&gt;[root] data.azurerm_resource_group.this (expand) -->
<g id="edge7" class="edge">
<title>[root] azurerm_linux_virtual_machine_scale_set.this (expand)&#45;&gt;[root] data.azurerm_resource_group.this (expand)</title>
<path fill="none" stroke="black" d="M1879.24,-287.97C1824.12,-277.68 1753.78,-264.55 1696.92,-253.93"/>
<polygon fill="black" stroke="black" points="1697.31,-250.44 1686.84,-252.05 1696.02,-257.33 1697.31,-250.44"/>
</g>
<!-- [root] data.azurerm_subnet.this (expand) -->
<g id="node8" class="node">
<title>[root] data.azurerm_subnet.this (expand)</title>
<polygon fill="none" stroke="black" points="2584,-252 2431,-252 2431,-216 2584,-216 2584,-252"/>
<text text-anchor="middle" x="2507.5" y="-230.3" font-family="Times,serif" font-size="14.00">data.azurerm_subnet.this</text>
</g>
<!-- [root] azurerm_linux_virtual_machine_scale_set.this (expand)&#45;&gt;[root] data.azurerm_subnet.this (expand) -->
<g id="edge8" class="edge">
<title>[root] azurerm_linux_virtual_machine_scale_set.this (expand)&#45;&gt;[root] data.azurerm_subnet.this (expand)</title>
<path fill="none" stroke="black" d="M2105.56,-291.92C2192.73,-282.81 2308.75,-269.45 2420.54,-252.08"/>
<polygon fill="black" stroke="black" points="2421.32,-255.5 2430.65,-250.5 2420.23,-248.59 2421.32,-255.5"/>
</g>
<!-- [root] azurerm_linux_virtual_machine_scale_set.this (expand)&#45;&gt;[root] tls_private_key.this (expand) -->
<g id="edge10" class="edge">
<title>[root] azurerm_linux_virtual_machine_scale_set.this (expand)&#45;&gt;[root] tls_private_key.this (expand)</title>
<path fill="none" stroke="black" d="M1835.48,-299.46C1644.34,-291.23 1283.98,-274.33 977.5,-252 940.38,-249.3 899.12,-245.55 865.1,-242.27"/>
<polygon fill="black" stroke="black" points="865.07,-238.75 854.78,-241.26 864.39,-245.71 865.07,-238.75"/>
</g>
<!-- [root] var.vmss_admin_username -->
<g id="node26" class="node">
<title>[root] var.vmss_admin_username</title>
<polygon fill="none" stroke="black" points="1874.5,-252 1714.5,-252 1714.5,-216 1880.5,-216 1880.5,-246 1874.5,-252"/>
<polyline fill="none" stroke="black" points="1874.5,-252 1874.5,-246 "/>
<polyline fill="none" stroke="black" points="1880.5,-246 1874.5,-246 "/>
<text text-anchor="middle" x="1797.5" y="-230.3" font-family="Times,serif" font-size="14.00">var.vmss_admin_username</text>
</g>
<!-- [root] azurerm_linux_virtual_machine_scale_set.this (expand)&#45;&gt;[root] var.vmss_admin_username -->
<g id="edge11" class="edge">
<title>[root] azurerm_linux_virtual_machine_scale_set.this (expand)&#45;&gt;[root] var.vmss_admin_username</title>
<path fill="none" stroke="black" d="M1928.18,-287.88C1904.31,-278.22 1874.32,-266.09 1849.09,-255.88"/>
<polygon fill="black" stroke="black" points="1850.26,-252.57 1839.68,-252.07 1847.64,-259.06 1850.26,-252.57"/>
</g>
<!-- [root] var.vmss_disk_size_gb -->
<g id="node27" class="node">
<title>[root] var.vmss_disk_size_gb</title>
<polygon fill="none" stroke="black" points="2036,-252 1899,-252 1899,-216 2042,-216 2042,-246 2036,-252"/>
<polyline fill="none" stroke="black" points="2036,-252 2036,-246 "/>
<polyline fill="none" stroke="black" points="2042,-246 2036,-246 "/>
<text text-anchor="middle" x="1970.5" y="-230.3" font-family="Times,serif" font-size="14.00">var.vmss_disk_size_gb</text>
</g>
<!-- [root] azurerm_linux_virtual_machine_scale_set.this (expand)&#45;&gt;[root] var.vmss_disk_size_gb -->
<g id="edge12" class="edge">
<title>[root] azurerm_linux_virtual_machine_scale_set.this (expand)&#45;&gt;[root] var.vmss_disk_size_gb</title>
<path fill="none" stroke="black" d="M1970.5,-287.7C1970.5,-279.98 1970.5,-270.71 1970.5,-262.11"/>
<polygon fill="black" stroke="black" points="1974,-262.1 1970.5,-252.1 1967,-262.1 1974,-262.1"/>
</g>
<!-- [root] var.vmss_instances -->
<g id="node28" class="node">
<title>[root] var.vmss_instances</title>
<polygon fill="none" stroke="black" points="2176.5,-252 2060.5,-252 2060.5,-216 2182.5,-216 2182.5,-246 2176.5,-252"/>
<polyline fill="none" stroke="black" points="2176.5,-252 2176.5,-246 "/>
<polyline fill="none" stroke="black" points="2182.5,-246 2176.5,-246 "/>
<text text-anchor="middle" x="2121.5" y="-230.3" font-family="Times,serif" font-size="14.00">var.vmss_instances</text>
</g>
<!-- [root] azurerm_linux_virtual_machine_scale_set.this (expand)&#45;&gt;[root] var.vmss_instances -->
<g id="edge13" class="edge">
<title>[root] azurerm_linux_virtual_machine_scale_set.this (expand)&#45;&gt;[root] var.vmss_instances</title>
<path fill="none" stroke="black" d="M2007.43,-287.88C2027.99,-278.35 2053.75,-266.41 2075.58,-256.28"/>
<polygon fill="black" stroke="black" points="2077.08,-259.45 2084.68,-252.07 2074.13,-253.1 2077.08,-259.45"/>
</g>
<!-- [root] var.vmss_sku -->
<g id="node29" class="node">
<title>[root] var.vmss_sku</title>
<polygon fill="none" stroke="black" points="2286,-252 2201,-252 2201,-216 2292,-216 2292,-246 2286,-252"/>
<polyline fill="none" stroke="black" points="2286,-252 2286,-246 "/>
<polyline fill="none" stroke="black" points="2292,-246 2286,-246 "/>
<text text-anchor="middle" x="2246.5" y="-230.3" font-family="Times,serif" font-size="14.00">var.vmss_sku</text>
</g>
<!-- [root] azurerm_linux_virtual_machine_scale_set.this (expand)&#45;&gt;[root] var.vmss_sku -->
<g id="edge14" class="edge">
<title>[root] azurerm_linux_virtual_machine_scale_set.this (expand)&#45;&gt;[root] var.vmss_sku</title>
<path fill="none" stroke="black" d="M2046.75,-287.99C2087.06,-278.69 2137.55,-266.58 2191.24,-251.98"/>
<polygon fill="black" stroke="black" points="2192.22,-255.34 2200.94,-249.33 2190.37,-248.59 2192.22,-255.34"/>
</g>
<!-- [root] var.vmss_zones -->
<g id="node31" class="node">
<title>[root] var.vmss_zones</title>
<polygon fill="none" stroke="black" points="2407,-252 2310,-252 2310,-216 2413,-216 2413,-246 2407,-252"/>
<polyline fill="none" stroke="black" points="2407,-252 2407,-246 "/>
<polyline fill="none" stroke="black" points="2413,-246 2407,-246 "/>
<text text-anchor="middle" x="2361.5" y="-230.3" font-family="Times,serif" font-size="14.00">var.vmss_zones</text>
</g>
<!-- [root] azurerm_linux_virtual_machine_scale_set.this (expand)&#45;&gt;[root] var.vmss_zones -->
<g id="edge15" class="edge">
<title>[root] azurerm_linux_virtual_machine_scale_set.this (expand)&#45;&gt;[root] var.vmss_zones</title>
<path fill="none" stroke="black" d="M2097.66,-287.99C2156.46,-279.3 2227.34,-267.65 2299.49,-252.09"/>
<polygon fill="black" stroke="black" points="2300.66,-255.42 2309.68,-249.87 2299.16,-248.58 2300.66,-255.42"/>
</g>
<!-- [root] local.custom_data (expand) -->
<g id="node32" class="node">
<title>[root] local.custom_data (expand)</title>
<ellipse fill="none" stroke="black" cx="1117.5" cy="-234" rx="131.08" ry="18"/>
<text text-anchor="middle" x="1117.5" y="-230.3" font-family="Times,serif" font-size="14.00">[root] local.custom_data (expand)</text>
</g>
<!-- [root] azurerm_linux_virtual_machine_scale_set.this (expand)&#45;&gt;[root] local.custom_data (expand) -->
<g id="edge9" class="edge">
<title>[root] azurerm_linux_virtual_machine_scale_set.this (expand)&#45;&gt;[root] local.custom_data (expand)</title>
<path fill="none" stroke="black" d="M1835.33,-295.06C1699.02,-284.88 1482.57,-268.28 1295.5,-252 1274.67,-250.19 1252.49,-248.15 1231.1,-246.14"/>
<polygon fill="black" stroke="black" points="1231.29,-242.64 1221,-245.18 1230.63,-249.61 1231.29,-242.64"/>
</g>
<!-- [root] provider[&quot;registry.terraform.io/hashicorp/azurerm&quot;] -->
<g id="node10" class="node">
<title>[root] provider[&quot;registry.terraform.io/hashicorp/azurerm&quot;]</title>
<polygon fill="none" stroke="black" points="2328.5,-180 2053.84,-162 2328.5,-144 2603.15,-162 2328.5,-180"/>
<text text-anchor="middle" x="2328.5" y="-158.3" font-family="Times,serif" font-size="14.00">provider[&quot;registry.terraform.io/hashicorp/azurerm&quot;]</text>
</g>
<!-- [root] data.azurerm_image.this (expand)&#45;&gt;[root] provider[&quot;registry.terraform.io/hashicorp/azurerm&quot;] -->
<g id="edge17" class="edge">
<title>[root] data.azurerm_image.this (expand)&#45;&gt;[root] provider[&quot;registry.terraform.io/hashicorp/azurerm&quot;]</title>
<path fill="none" stroke="black" d="M2640.4,-218.57C2635.69,-217.69 2631.03,-216.83 2626.5,-216 2553.08,-202.54 2469.4,-187.7 2409.44,-177.16"/>
<polygon fill="black" stroke="black" points="2409.74,-173.65 2399.28,-175.37 2408.52,-180.55 2409.74,-173.65"/>
</g>
<!-- [root] var.github_runner_image_name -->
<g id="node18" class="node">
<title>[root] var.github_runner_image_name</title>
<polygon fill="none" stroke="black" points="2806,-180 2621,-180 2621,-144 2812,-144 2812,-174 2806,-180"/>
<polyline fill="none" stroke="black" points="2806,-180 2806,-174 "/>
<polyline fill="none" stroke="black" points="2812,-174 2806,-174 "/>
<text text-anchor="middle" x="2716.5" y="-158.3" font-family="Times,serif" font-size="14.00">var.github_runner_image_name</text>
</g>
<!-- [root] data.azurerm_image.this (expand)&#45;&gt;[root] var.github_runner_image_name -->
<g id="edge18" class="edge">
<title>[root] data.azurerm_image.this (expand)&#45;&gt;[root] var.github_runner_image_name</title>
<path fill="none" stroke="black" d="M2716.5,-215.7C2716.5,-207.98 2716.5,-198.71 2716.5,-190.11"/>
<polygon fill="black" stroke="black" points="2720,-190.1 2716.5,-180.1 2713,-190.1 2720,-190.1"/>
</g>
<!-- [root] local.github_runner_image_resource_group_name (expand) -->
<g id="node33" class="node">
<title>[root] local.github_runner_image_resource_group_name (expand)</title>
<ellipse fill="none" stroke="black" cx="3075.5" cy="-162" rx="245.06" ry="18"/>
<text text-anchor="middle" x="3075.5" y="-158.3" font-family="Times,serif" font-size="14.00">[root] local.github_runner_image_resource_group_name (expand)</text>
</g>
<!-- [root] data.azurerm_image.this (expand)&#45;&gt;[root] local.github_runner_image_resource_group_name (expand) -->
<g id="edge16" class="edge">
<title>[root] data.azurerm_image.this (expand)&#45;&gt;[root] local.github_runner_image_resource_group_name (expand)</title>
<path fill="none" stroke="black" d="M2792.63,-218.15C2848.37,-207.29 2924.29,-192.48 2983.44,-180.95"/>
<polygon fill="black" stroke="black" points="2984.39,-184.33 2993.53,-178.98 2983.05,-177.46 2984.39,-184.33"/>
</g>
<!-- [root] data.azurerm_key_vault.this (expand)&#45;&gt;[root] provider[&quot;registry.terraform.io/hashicorp/azurerm&quot;] -->
<g id="edge21" class="edge">
<title>[root] data.azurerm_key_vault.this (expand)&#45;&gt;[root] provider[&quot;registry.terraform.io/hashicorp/azurerm&quot;]</title>
<path fill="none" stroke="black" d="M1476.13,-217.21C1479.29,-216.78 1482.42,-216.37 1485.5,-216 1519.39,-211.92 1950.09,-185.73 2182.34,-171.75"/>
<polygon fill="black" stroke="black" points="2182.79,-175.23 2192.56,-171.14 2182.37,-168.25 2182.79,-175.23"/>
</g>
<!-- [root] local.keyvault_name (expand) -->
<g id="node34" class="node">
<title>[root] local.keyvault_name (expand)</title>
<ellipse fill="none" stroke="black" cx="1330.5" cy="-90" rx="140.28" ry="18"/>
<text text-anchor="middle" x="1330.5" y="-86.3" font-family="Times,serif" font-size="14.00">[root] local.keyvault_name (expand)</text>
</g>
<!-- [root] data.azurerm_key_vault.this (expand)&#45;&gt;[root] local.keyvault_name (expand) -->
<g id="edge19" class="edge">
<title>[root] data.azurerm_key_vault.this (expand)&#45;&gt;[root] local.keyvault_name (expand)</title>
<path fill="none" stroke="black" d="M1389.99,-215.82C1388.87,-197.3 1385.35,-167.34 1374.5,-144 1369.76,-133.81 1362.57,-123.96 1355.37,-115.57"/>
<polygon fill="black" stroke="black" points="1357.84,-113.09 1348.54,-108.02 1352.65,-117.78 1357.84,-113.09"/>
</g>
<!-- [root] local.keyvault_resource_group_name (expand) -->
<g id="node35" class="node">
<title>[root] local.keyvault_resource_group_name (expand)</title>
<ellipse fill="none" stroke="black" cx="1622.5" cy="-162" rx="199.56" ry="18"/>
<text text-anchor="middle" x="1622.5" y="-158.3" font-family="Times,serif" font-size="14.00">[root] local.keyvault_resource_group_name (expand)</text>
</g>
<!-- [root] data.azurerm_key_vault.this (expand)&#45;&gt;[root] local.keyvault_resource_group_name (expand) -->
<g id="edge20" class="edge">
<title>[root] data.azurerm_key_vault.this (expand)&#45;&gt;[root] local.keyvault_resource_group_name (expand)</title>
<path fill="none" stroke="black" d="M1446.95,-215.97C1480.67,-205.79 1523.59,-192.84 1558.55,-182.29"/>
<polygon fill="black" stroke="black" points="1559.62,-185.63 1568.19,-179.39 1557.6,-178.92 1559.62,-185.63"/>
</g>
<!-- [root] data.azurerm_key_vault_secret.github_secrets (expand) -->
<g id="node6" class="node">
<title>[root] data.azurerm_key_vault_secret.github_secrets (expand)</title>
<polygon fill="none" stroke="black" points="1198.5,-324 930.5,-324 930.5,-288 1198.5,-288 1198.5,-324"/>
<text text-anchor="middle" x="1064.5" y="-302.3" font-family="Times,serif" font-size="14.00">data.azurerm_key_vault_secret.github_secrets</text>
</g>
<!-- [root] data.azurerm_key_vault_secret.github_secrets (expand)&#45;&gt;[root] data.azurerm_key_vault.this (expand) -->
<g id="edge22" class="edge">
<title>[root] data.azurerm_key_vault_secret.github_secrets (expand)&#45;&gt;[root] data.azurerm_key_vault.this (expand)</title>
<path fill="none" stroke="black" d="M1143.83,-287.97C1191.35,-277.76 1251.88,-264.76 1301.09,-254.2"/>
<polygon fill="black" stroke="black" points="1302.05,-257.57 1311.09,-252.05 1300.58,-250.73 1302.05,-257.57"/>
</g>
<!-- [root] var.github_app_id_kvsecret -->
<g id="node14" class="node">
<title>[root] var.github_app_id_kvsecret</title>
<polygon fill="none" stroke="black" points="1360,-180 1199,-180 1199,-144 1366,-144 1366,-174 1360,-180"/>
<polyline fill="none" stroke="black" points="1360,-180 1360,-174 "/>
<polyline fill="none" stroke="black" points="1366,-174 1360,-174 "/>
<text text-anchor="middle" x="1282.5" y="-158.3" font-family="Times,serif" font-size="14.00">var.github_app_id_kvsecret</text>
</g>
<!-- [root] data.azurerm_key_vault_secret.github_secrets (expand)&#45;&gt;[root] var.github_app_id_kvsecret -->
<g id="edge23" class="edge">
<title>[root] data.azurerm_key_vault_secret.github_secrets (expand)&#45;&gt;[root] var.github_app_id_kvsecret</title>
<path fill="none" stroke="black" d="M1197.76,-287.83C1219.9,-279.87 1240.99,-268.41 1257.5,-252 1273.73,-235.86 1279.63,-210.09 1281.68,-190.42"/>
<polygon fill="black" stroke="black" points="1285.19,-190.46 1282.46,-180.22 1278.21,-189.93 1285.19,-190.46"/>
</g>
<!-- [root] var.github_installation_id_kvsecret -->
<g id="node15" class="node">
<title>[root] var.github_installation_id_kvsecret</title>
<polygon fill="none" stroke="black" points="1136,-180 935,-180 935,-144 1142,-144 1142,-174 1136,-180"/>
<polyline fill="none" stroke="black" points="1136,-180 1136,-174 "/>
<polyline fill="none" stroke="black" points="1142,-174 1136,-174 "/>
<text text-anchor="middle" x="1038.5" y="-158.3" font-family="Times,serif" font-size="14.00">var.github_installation_id_kvsecret</text>
</g>
<!-- [root] data.azurerm_key_vault_secret.github_secrets (expand)&#45;&gt;[root] var.github_installation_id_kvsecret -->
<g id="edge24" class="edge">
<title>[root] data.azurerm_key_vault_secret.github_secrets (expand)&#45;&gt;[root] var.github_installation_id_kvsecret</title>
<path fill="none" stroke="black" d="M1017.97,-287.85C1002.24,-279.56 986.42,-267.88 977.5,-252 969.66,-238.05 970.86,-230.56 977.5,-216 982.72,-204.53 991.8,-194.58 1001.37,-186.5"/>
<polygon fill="black" stroke="black" points="1003.75,-189.09 1009.46,-180.16 999.43,-183.58 1003.75,-189.09"/>
</g>
<!-- [root] var.github_organization_kvsecret -->
<g id="node16" class="node">
<title>[root] var.github_organization_kvsecret</title>
<polygon fill="none" stroke="black" points="698,-180 507,-180 507,-144 704,-144 704,-174 698,-180"/>
<polyline fill="none" stroke="black" points="698,-180 698,-174 "/>
<polyline fill="none" stroke="black" points="704,-174 698,-174 "/>
<text text-anchor="middle" x="605.5" y="-158.3" font-family="Times,serif" font-size="14.00">var.github_organization_kvsecret</text>
</g>
<!-- [root] data.azurerm_key_vault_secret.github_secrets (expand)&#45;&gt;[root] var.github_organization_kvsecret -->
<g id="edge25" class="edge">
<title>[root] data.azurerm_key_vault_secret.github_secrets (expand)&#45;&gt;[root] var.github_organization_kvsecret</title>
<path fill="none" stroke="black" d="M996.56,-287.9C968.06,-279.27 935.18,-267.33 907.5,-252 885.39,-239.76 886.31,-226.86 863.5,-216 849.19,-209.19 774.71,-194.21 709.43,-181.91"/>
<polygon fill="black" stroke="black" points="709.94,-178.44 699.46,-180.04 708.65,-185.32 709.94,-178.44"/>
</g>
<!-- [root] var.github_private_key_kvsecret -->
<g id="node17" class="node">
<title>[root] var.github_private_key_kvsecret</title>
<polygon fill="none" stroke="black" points="910.5,-180 722.5,-180 722.5,-144 916.5,-144 916.5,-174 910.5,-180"/>
<polyline fill="none" stroke="black" points="910.5,-180 910.5,-174 "/>
<polyline fill="none" stroke="black" points="916.5,-174 910.5,-174 "/>
<text text-anchor="middle" x="819.5" y="-158.3" font-family="Times,serif" font-size="14.00">var.github_private_key_kvsecret</text>
</g>
<!-- [root] data.azurerm_key_vault_secret.github_secrets (expand)&#45;&gt;[root] var.github_private_key_kvsecret -->
<g id="edge26" class="edge">
<title>[root] data.azurerm_key_vault_secret.github_secrets (expand)&#45;&gt;[root] var.github_private_key_kvsecret</title>
<path fill="none" stroke="black" d="M1032.78,-287.84C1014,-277.6 989.79,-264.23 968.5,-252 929.9,-229.83 886.24,-203.61 856.2,-185.4"/>
<polygon fill="black" stroke="black" points="857.7,-182.22 847.34,-180.02 854.07,-188.2 857.7,-182.22"/>
</g>
<!-- [root] data.azurerm_resource_group.this (expand)&#45;&gt;[root] provider[&quot;registry.terraform.io/hashicorp/azurerm&quot;] -->
<g id="edge28" class="edge">
<title>[root] data.azurerm_resource_group.this (expand)&#45;&gt;[root] provider[&quot;registry.terraform.io/hashicorp/azurerm&quot;]</title>
<path fill="none" stroke="black" d="M1696.76,-217.08C1699.7,-216.71 1702.62,-216.34 1705.5,-216 1870.78,-196.22 2061.59,-181.12 2188.04,-172.19"/>
<polygon fill="black" stroke="black" points="2188.44,-175.67 2198.17,-171.48 2187.95,-168.69 2188.44,-175.67"/>
</g>
<!-- [root] local.resource_group_name (expand) -->
<g id="node36" class="node">
<title>[root] local.resource_group_name (expand)</title>
<ellipse fill="none" stroke="black" cx="1883.5" cy="-90" rx="165.17" ry="18"/>
<text text-anchor="middle" x="1883.5" y="-86.3" font-family="Times,serif" font-size="14.00">[root] local.resource_group_name (expand)</text>
</g>
<!-- [root] data.azurerm_resource_group.this (expand)&#45;&gt;[root] local.resource_group_name (expand) -->
<g id="edge27" class="edge">
<title>[root] data.azurerm_resource_group.this (expand)&#45;&gt;[root] local.resource_group_name (expand)</title>
<path fill="none" stroke="black" d="M1687.7,-215.94C1748.67,-204.04 1819.51,-188.77 1831.5,-180 1852.5,-164.64 1866.42,-138.01 1874.53,-117.87"/>
<polygon fill="black" stroke="black" points="1877.88,-118.89 1878.15,-108.3 1871.34,-116.42 1877.88,-118.89"/>
</g>
<!-- [root] data.azurerm_subnet.this (expand)&#45;&gt;[root] provider[&quot;registry.terraform.io/hashicorp/azurerm&quot;] -->
<g id="edge29" class="edge">
<title>[root] data.azurerm_subnet.this (expand)&#45;&gt;[root] provider[&quot;registry.terraform.io/hashicorp/azurerm&quot;]</title>
<path fill="none" stroke="black" d="M2463.71,-215.88C2436.86,-205.38 2402.51,-191.94 2375.15,-181.24"/>
<polygon fill="black" stroke="black" points="2376.37,-177.96 2365.78,-177.58 2373.82,-184.48 2376.37,-177.96"/>
</g>
<!-- [root] var.vmss_subnet_config -->
<g id="node30" class="node">
<title>[root] var.vmss_subnet_config</title>
<polygon fill="none" stroke="black" points="2029.5,-180 1887.5,-180 1887.5,-144 2035.5,-144 2035.5,-174 2029.5,-180"/>
<polyline fill="none" stroke="black" points="2029.5,-180 2029.5,-174 "/>
<polyline fill="none" stroke="black" points="2035.5,-174 2029.5,-174 "/>
<text text-anchor="middle" x="1961.5" y="-158.3" font-family="Times,serif" font-size="14.00">var.vmss_subnet_config</text>
</g>
<!-- [root] data.azurerm_subnet.this (expand)&#45;&gt;[root] var.vmss_subnet_config -->
<g id="edge30" class="edge">
<title>[root] data.azurerm_subnet.this (expand)&#45;&gt;[root] var.vmss_subnet_config</title>
<path fill="none" stroke="black" d="M2430.67,-217.42C2427.57,-216.92 2424.51,-216.44 2421.5,-216 2258.2,-192.12 2212.72,-204.42 2045.76,-180.09"/>
<polygon fill="black" stroke="black" points="2046.04,-176.6 2035.64,-178.59 2045.02,-183.52 2046.04,-176.6"/>
</g>
<!-- [root] data.azurerm_subscription.this (expand)&#45;&gt;[root] provider[&quot;registry.terraform.io/hashicorp/azurerm&quot;] -->
<g id="edge31" class="edge">
<title>[root] data.azurerm_subscription.this (expand)&#45;&gt;[root] provider[&quot;registry.terraform.io/hashicorp/azurerm&quot;]</title>
<path fill="none" stroke="black" d="M2505.72,-290.73C2564.41,-277.66 2623.95,-254.39 2592.5,-216 2574.68,-194.25 2515.32,-181.24 2457.38,-173.55"/>
<polygon fill="black" stroke="black" points="2457.72,-170.07 2447.35,-172.27 2456.83,-177.01 2457.72,-170.07"/>
</g>
<!-- [root] provider[&quot;registry.terraform.io/hashicorp/tls&quot;] -->
<g id="node11" class="node">
<title>[root] provider[&quot;registry.terraform.io/hashicorp/tls&quot;]</title>
<polygon fill="none" stroke="black" points="244.5,-180 0,-162 244.5,-144 488.99,-162 244.5,-180"/>
<text text-anchor="middle" x="244.5" y="-158.3" font-family="Times,serif" font-size="14.00">provider[&quot;registry.terraform.io/hashicorp/tls&quot;]</text>
</g>
<!-- [root] tls_private_key.this (expand)&#45;&gt;[root] provider[&quot;registry.terraform.io/hashicorp/tls&quot;] -->
<g id="edge60" class="edge">
<title>[root] tls_private_key.this (expand)&#45;&gt;[root] provider[&quot;registry.terraform.io/hashicorp/tls&quot;]</title>
<path fill="none" stroke="black" d="M732.38,-225.21C637.02,-213.05 452.09,-189.47 339.31,-175.09"/>
<polygon fill="black" stroke="black" points="339.67,-171.61 329.31,-173.81 338.78,-178.55 339.67,-171.61"/>
</g>
<!-- [root] var.environment -->
<g id="node13" class="node">
<title>[root] var.environment</title>
<polygon fill="none" stroke="black" points="1637.5,-36 1537.5,-36 1537.5,0 1643.5,0 1643.5,-30 1637.5,-36"/>
<polyline fill="none" stroke="black" points="1637.5,-36 1637.5,-30 "/>
<polyline fill="none" stroke="black" points="1643.5,-30 1637.5,-30 "/>
<text text-anchor="middle" x="1590.5" y="-14.3" font-family="Times,serif" font-size="14.00">var.environment</text>
</g>
<!-- [root] var.github_runner_image_resource_group_name -->
<g id="node19" class="node">
<title>[root] var.github_runner_image_resource_group_name</title>
<polygon fill="none" stroke="black" points="3210,-108 2935,-108 2935,-72 3216,-72 3216,-102 3210,-108"/>
<polyline fill="none" stroke="black" points="3210,-108 3210,-102 "/>
<polyline fill="none" stroke="black" points="3216,-102 3210,-102 "/>
<text text-anchor="middle" x="3075.5" y="-86.3" font-family="Times,serif" font-size="14.00">var.github_runner_image_resource_group_name</text>
</g>
<!-- [root] var.keyvault_name -->
<g id="node20" class="node">
<title>[root] var.keyvault_name</title>
<polygon fill="none" stroke="black" points="1254.5,-36 1140.5,-36 1140.5,0 1260.5,0 1260.5,-30 1254.5,-36"/>
<polyline fill="none" stroke="black" points="1254.5,-36 1254.5,-30 "/>
<polyline fill="none" stroke="black" points="1260.5,-30 1254.5,-30 "/>
<text text-anchor="middle" x="1200.5" y="-14.3" font-family="Times,serif" font-size="14.00">var.keyvault_name</text>
</g>
<!-- [root] var.keyvault_resource_group_name -->
<g id="node21" class="node">
<title>[root] var.keyvault_resource_group_name</title>
<polygon fill="none" stroke="black" points="1694,-108 1489,-108 1489,-72 1700,-72 1700,-102 1694,-108"/>
<polyline fill="none" stroke="black" points="1694,-108 1694,-102 "/>
<polyline fill="none" stroke="black" points="1700,-102 1694,-102 "/>
<text text-anchor="middle" x="1594.5" y="-86.3" font-family="Times,serif" font-size="14.00">var.keyvault_resource_group_name</text>
</g>
<!-- [root] var.location_short -->
<g id="node22" class="node">
<title>[root] var.location_short</title>
<polygon fill="none" stroke="black" points="1776.5,-36 1668.5,-36 1668.5,0 1782.5,0 1782.5,-30 1776.5,-36"/>
<polyline fill="none" stroke="black" points="1776.5,-36 1776.5,-30 "/>
<polyline fill="none" stroke="black" points="1782.5,-30 1776.5,-30 "/>
<text text-anchor="middle" x="1725.5" y="-14.3" font-family="Times,serif" font-size="14.00">var.location_short</text>
</g>
<!-- [root] var.name -->
<g id="node23" class="node">
<title>[root] var.name</title>
<polygon fill="none" stroke="black" points="1498,-36 1437,-36 1437,0 1504,0 1504,-30 1498,-36"/>
<polyline fill="none" stroke="black" points="1498,-36 1498,-30 "/>
<polyline fill="none" stroke="black" points="1504,-30 1498,-30 "/>
<text text-anchor="middle" x="1470.5" y="-14.3" font-family="Times,serif" font-size="14.00">var.name</text>
</g>
<!-- [root] var.resource_group_name -->
<g id="node24" class="node">
<title>[root] var.resource_group_name</title>
<polygon fill="none" stroke="black" points="1956.5,-36 1804.5,-36 1804.5,0 1962.5,0 1962.5,-30 1956.5,-36"/>
<polyline fill="none" stroke="black" points="1956.5,-36 1956.5,-30 "/>
<polyline fill="none" stroke="black" points="1962.5,-30 1956.5,-30 "/>
<text text-anchor="middle" x="1883.5" y="-14.3" font-family="Times,serif" font-size="14.00">var.resource_group_name</text>
</g>
<!-- [root] var.unique_suffix -->
<g id="node25" class="node">
<title>[root] var.unique_suffix</title>
<polygon fill="none" stroke="black" points="1384,-36 1279,-36 1279,0 1390,0 1390,-30 1384,-36"/>
<polyline fill="none" stroke="black" points="1384,-36 1384,-30 "/>
<polyline fill="none" stroke="black" points="1390,-30 1384,-30 "/>
<text text-anchor="middle" x="1334.5" y="-14.3" font-family="Times,serif" font-size="14.00">var.unique_suffix</text>
</g>
<!-- [root] local.custom_data (expand)&#45;&gt;[root] var.github_app_id_kvsecret -->
<g id="edge33" class="edge">
<title>[root] local.custom_data (expand)&#45;&gt;[root] var.github_app_id_kvsecret</title>
<path fill="none" stroke="black" d="M1155.76,-216.76C1178.81,-206.99 1208.39,-194.44 1233.18,-183.92"/>
<polygon fill="black" stroke="black" points="1234.58,-187.13 1242.42,-180 1231.85,-180.68 1234.58,-187.13"/>
</g>
<!-- [root] local.custom_data (expand)&#45;&gt;[root] var.github_installation_id_kvsecret -->
<g id="edge34" class="edge">
<title>[root] local.custom_data (expand)&#45;&gt;[root] var.github_installation_id_kvsecret</title>
<path fill="none" stroke="black" d="M1098.37,-216.05C1088.45,-207.26 1076.17,-196.38 1065.31,-186.76"/>
<polygon fill="black" stroke="black" points="1067.52,-184.04 1057.72,-180.03 1062.88,-189.28 1067.52,-184.04"/>
</g>
<!-- [root] local.custom_data (expand)&#45;&gt;[root] var.github_organization_kvsecret -->
<g id="edge35" class="edge">
<title>[root] local.custom_data (expand)&#45;&gt;[root] var.github_organization_kvsecret</title>
<path fill="none" stroke="black" d="M1023.52,-221.37C943.99,-211.36 826.68,-196.22 714.24,-180.09"/>
<polygon fill="black" stroke="black" points="714.47,-176.58 704.07,-178.62 713.47,-183.51 714.47,-176.58"/>
</g>
<!-- [root] local.custom_data (expand)&#45;&gt;[root] var.github_private_key_kvsecret -->
<g id="edge36" class="edge">
<title>[root] local.custom_data (expand)&#45;&gt;[root] var.github_private_key_kvsecret</title>
<path fill="none" stroke="black" d="M1054.3,-218.15C1009.86,-207.72 949.98,-193.65 901.82,-182.34"/>
<polygon fill="black" stroke="black" points="902.57,-178.92 892.04,-180.04 900.97,-185.73 902.57,-178.92"/>
</g>
<!-- [root] local.custom_data (expand)&#45;&gt;[root] local.keyvault_name (expand) -->
<g id="edge32" class="edge">
<title>[root] local.custom_data (expand)&#45;&gt;[root] local.keyvault_name (expand)</title>
<path fill="none" stroke="black" d="M1127.35,-215.96C1139.61,-196.15 1162.26,-163.65 1189.5,-144 1210.28,-129 1235.81,-117.72 1259.41,-109.51"/>
<polygon fill="black" stroke="black" points="1260.67,-112.78 1269.04,-106.29 1258.45,-106.14 1260.67,-112.78"/>
</g>
<!-- [root] local.github_runner_image_resource_group_name (expand)&#45;&gt;[root] var.github_runner_image_resource_group_name -->
<g id="edge38" class="edge">
<title>[root] local.github_runner_image_resource_group_name (expand)&#45;&gt;[root] var.github_runner_image_resource_group_name</title>
<path fill="none" stroke="black" d="M3075.5,-143.7C3075.5,-135.98 3075.5,-126.71 3075.5,-118.11"/>
<polygon fill="black" stroke="black" points="3079,-118.1 3075.5,-108.1 3072,-118.1 3079,-118.1"/>
</g>
<!-- [root] local.github_runner_image_resource_group_name (expand)&#45;&gt;[root] local.resource_group_name (expand) -->
<g id="edge37" class="edge">
<title>[root] local.github_runner_image_resource_group_name (expand)&#45;&gt;[root] local.resource_group_name (expand)</title>
<path fill="none" stroke="black" d="M2902.34,-149.22C2874.96,-147.43 2846.96,-145.63 2820.5,-144 2545.04,-127.03 2223.89,-109.31 2038.1,-99.27"/>
<polygon fill="black" stroke="black" points="2038.16,-95.77 2027.99,-98.72 2037.79,-102.76 2038.16,-95.77"/>
</g>
<!-- [root] local.keyvault_name (expand)&#45;&gt;[root] var.environment -->
<g id="edge39" class="edge">
<title>[root] local.keyvault_name (expand)&#45;&gt;[root] var.environment</title>
<path fill="none" stroke="black" d="M1387.88,-73.55C1429.22,-62.42 1484.99,-47.4 1527.56,-35.95"/>
<polygon fill="black" stroke="black" points="1528.5,-39.31 1537.25,-33.34 1526.68,-32.56 1528.5,-39.31"/>
</g>
<!-- [root] local.keyvault_name (expand)&#45;&gt;[root] var.keyvault_name -->
<g id="edge40" class="edge">
<title>[root] local.keyvault_name (expand)&#45;&gt;[root] var.keyvault_name</title>
<path fill="none" stroke="black" d="M1299.69,-72.41C1282.27,-63.03 1260.26,-51.18 1241.41,-41.03"/>
<polygon fill="black" stroke="black" points="1242.9,-37.86 1232.44,-36.2 1239.59,-44.02 1242.9,-37.86"/>
</g>
<!-- [root] local.keyvault_name (expand)&#45;&gt;[root] var.location_short -->
<g id="edge41" class="edge">
<title>[root] local.keyvault_name (expand)&#45;&gt;[root] var.location_short</title>
<path fill="none" stroke="black" d="M1419.27,-75.99C1484.1,-66.1 1574,-51.58 1652.5,-36 1654.41,-35.62 1656.35,-35.23 1658.31,-34.82"/>
<polygon fill="black" stroke="black" points="1659.14,-38.22 1668.19,-32.72 1657.68,-31.38 1659.14,-38.22"/>
</g>
<!-- [root] local.keyvault_name (expand)&#45;&gt;[root] var.name -->
<g id="edge42" class="edge">
<title>[root] local.keyvault_name (expand)&#45;&gt;[root] var.name</title>
<path fill="none" stroke="black" d="M1363.67,-72.41C1382.75,-62.87 1406.92,-50.79 1427.44,-40.53"/>
<polygon fill="black" stroke="black" points="1429.2,-43.56 1436.58,-35.96 1426.07,-37.3 1429.2,-43.56"/>
</g>
<!-- [root] local.keyvault_name (expand)&#45;&gt;[root] var.unique_suffix -->
<g id="edge43" class="edge">
<title>[root] local.keyvault_name (expand)&#45;&gt;[root] var.unique_suffix</title>
<path fill="none" stroke="black" d="M1331.48,-71.7C1331.93,-63.98 1332.46,-54.71 1332.95,-46.11"/>
<polygon fill="black" stroke="black" points="1336.44,-46.29 1333.52,-36.1 1329.45,-45.89 1336.44,-46.29"/>
</g>
<!-- [root] local.keyvault_resource_group_name (expand)&#45;&gt;[root] var.keyvault_resource_group_name -->
<g id="edge45" class="edge">
<title>[root] local.keyvault_resource_group_name (expand)&#45;&gt;[root] var.keyvault_resource_group_name</title>
<path fill="none" stroke="black" d="M1615.57,-143.7C1612.42,-135.81 1608.62,-126.3 1605.11,-117.55"/>
<polygon fill="black" stroke="black" points="1608.3,-116.09 1601.34,-108.1 1601.8,-118.69 1608.3,-116.09"/>
</g>
<!-- [root] local.keyvault_resource_group_name (expand)&#45;&gt;[root] local.resource_group_name (expand) -->
<g id="edge44" class="edge">
<title>[root] local.keyvault_resource_group_name (expand)&#45;&gt;[root] local.resource_group_name (expand)</title>
<path fill="none" stroke="black" d="M1683.03,-144.76C1722.26,-134.24 1773.47,-120.51 1814.31,-109.56"/>
<polygon fill="black" stroke="black" points="1815.44,-112.88 1824.19,-106.91 1813.62,-106.12 1815.44,-112.88"/>
</g>
<!-- [root] local.resource_group_name (expand)&#45;&gt;[root] var.environment -->
<g id="edge46" class="edge">
<title>[root] local.resource_group_name (expand)&#45;&gt;[root] var.environment</title>
<path fill="none" stroke="black" d="M1817.3,-73.51C1772.68,-63.02 1712.52,-48.8 1659.5,-36 1657.56,-35.53 1655.6,-35.06 1653.62,-34.58"/>
<polygon fill="black" stroke="black" points="1654.14,-31.1 1643.6,-32.14 1652.49,-37.9 1654.14,-31.1"/>
</g>
<!-- [root] local.resource_group_name (expand)&#45;&gt;[root] var.location_short -->
<g id="edge47" class="edge">
<title>[root] local.resource_group_name (expand)&#45;&gt;[root] var.location_short</title>
<path fill="none" stroke="black" d="M1846.05,-72.41C1824.32,-62.78 1796.71,-50.55 1773.41,-40.23"/>
<polygon fill="black" stroke="black" points="1774.6,-36.93 1764.04,-36.08 1771.77,-43.33 1774.6,-36.93"/>
</g>
<!-- [root] local.resource_group_name (expand)&#45;&gt;[root] var.name -->
<g id="edge48" class="edge">
<title>[root] local.resource_group_name (expand)&#45;&gt;[root] var.name</title>
<path fill="none" stroke="black" d="M1773.63,-76.54C1703.14,-67.58 1609.89,-53.92 1528.5,-36 1523.75,-34.96 1518.82,-33.73 1513.94,-32.43"/>
<polygon fill="black" stroke="black" points="1514.6,-28.98 1504.03,-29.68 1512.73,-35.73 1514.6,-28.98"/>
</g>
<!-- [root] local.resource_group_name (expand)&#45;&gt;[root] var.resource_group_name -->
<g id="edge49" class="edge">
<title>[root] local.resource_group_name (expand)&#45;&gt;[root] var.resource_group_name</title>
<path fill="none" stroke="black" d="M1883.5,-71.7C1883.5,-63.98 1883.5,-54.71 1883.5,-46.11"/>
<polygon fill="black" stroke="black" points="1887,-46.1 1883.5,-36.1 1880,-46.1 1887,-46.1"/>
</g>
<!-- [root] meta.count&#45;boundary (EachMode fixup) -->
<g id="node37" class="node">
<title>[root] meta.count&#45;boundary (EachMode fixup)</title>
<ellipse fill="none" stroke="black" cx="1501.5" cy="-450" rx="176.27" ry="18"/>
<text text-anchor="middle" x="1501.5" y="-446.3" font-family="Times,serif" font-size="14.00">[root] meta.count&#45;boundary (EachMode fixup)</text>
</g>
<!-- [root] meta.count&#45;boundary (EachMode fixup)&#45;&gt;[root] azurerm_key_vault_access_policy.this (expand) -->
<g id="edge50" class="edge">
<title>[root] meta.count&#45;boundary (EachMode fixup)&#45;&gt;[root] azurerm_key_vault_access_policy.this (expand)</title>
<path fill="none" stroke="black" d="M1501.5,-431.7C1501.5,-423.98 1501.5,-414.71 1501.5,-406.11"/>
<polygon fill="black" stroke="black" points="1505,-406.1 1501.5,-396.1 1498,-406.1 1505,-406.1"/>
</g>
<!-- [root] meta.count&#45;boundary (EachMode fixup)&#45;&gt;[root] azurerm_key_vault_secret.this (expand) -->
<g id="edge51" class="edge">
<title>[root] meta.count&#45;boundary (EachMode fixup)&#45;&gt;[root] azurerm_key_vault_secret.this (expand)</title>
<path fill="none" stroke="black" d="M1433.87,-433.38C1389.09,-423.03 1330.04,-409.39 1282.28,-398.36"/>
<polygon fill="black" stroke="black" points="1282.81,-394.89 1272.28,-396.04 1281.23,-401.71 1282.81,-394.89"/>
</g>
<!-- [root] meta.count&#45;boundary (EachMode fixup)&#45;&gt;[root] data.azurerm_key_vault_secret.github_secrets (expand) -->
<g id="edge52" class="edge">
<title>[root] meta.count&#45;boundary (EachMode fixup)&#45;&gt;[root] data.azurerm_key_vault_secret.github_secrets (expand)</title>
<path fill="none" stroke="black" d="M1463,-432.37C1438.97,-421.97 1407.4,-408.26 1379.5,-396 1343.43,-380.15 1335.89,-372.41 1298.5,-360 1256.86,-346.18 1209.88,-334.76 1169,-326.11"/>
<polygon fill="black" stroke="black" points="1169.52,-322.64 1159.02,-324.02 1168.09,-329.49 1169.52,-322.64"/>
</g>
<!-- [root] provider[&quot;registry.terraform.io/hashicorp/azurerm&quot;] (close) -->
<g id="node38" class="node">
<title>[root] provider[&quot;registry.terraform.io/hashicorp/azurerm&quot;] (close)</title>
<ellipse fill="none" stroke="black" cx="1064.5" cy="-450" rx="243.16" ry="18"/>
<text text-anchor="middle" x="1064.5" y="-446.3" font-family="Times,serif" font-size="14.00">[root] provider[&quot;registry.terraform.io/hashicorp/azurerm&quot;] (close)</text>
</g>
<!-- [root] provider[&quot;registry.terraform.io/hashicorp/azurerm&quot;] (close)&#45;&gt;[root] azurerm_key_vault_access_policy.this (expand) -->
<g id="edge53" class="edge">
<title>[root] provider[&quot;registry.terraform.io/hashicorp/azurerm&quot;] (close)&#45;&gt;[root] azurerm_key_vault_access_policy.this (expand)</title>
<path fill="none" stroke="black" d="M1161.48,-433.46C1227.51,-422.89 1315.24,-408.83 1385.05,-397.65"/>
<polygon fill="black" stroke="black" points="1385.9,-401.06 1395.22,-396.02 1384.79,-394.15 1385.9,-401.06"/>
</g>
<!-- [root] provider[&quot;registry.terraform.io/hashicorp/azurerm&quot;] (close)&#45;&gt;[root] azurerm_key_vault_secret.this (expand) -->
<g id="edge54" class="edge">
<title>[root] provider[&quot;registry.terraform.io/hashicorp/azurerm&quot;] (close)&#45;&gt;[root] azurerm_key_vault_secret.this (expand)</title>
<path fill="none" stroke="black" d="M1096.93,-432.05C1114.99,-422.62 1137.65,-410.78 1156.99,-400.68"/>
<polygon fill="black" stroke="black" points="1158.65,-403.76 1165.89,-396.03 1155.41,-397.56 1158.65,-403.76"/>
</g>
<!-- [root] provider[&quot;registry.terraform.io/hashicorp/azurerm&quot;] (close)&#45;&gt;[root] data.azurerm_key_vault_secret.github_secrets (expand) -->
<g id="edge55" class="edge">
<title>[root] provider[&quot;registry.terraform.io/hashicorp/azurerm&quot;] (close)&#45;&gt;[root] data.azurerm_key_vault_secret.github_secrets (expand)</title>
<path fill="none" stroke="black" d="M1064.5,-431.87C1064.5,-407.67 1064.5,-363.21 1064.5,-334.39"/>
<polygon fill="black" stroke="black" points="1068,-334.19 1064.5,-324.19 1061,-334.19 1068,-334.19"/>
</g>
<!-- [root] provider[&quot;registry.terraform.io/hashicorp/tls&quot;] (close) -->
<g id="node39" class="node">
<title>[root] provider[&quot;registry.terraform.io/hashicorp/tls&quot;] (close)</title>
<ellipse fill="none" stroke="black" cx="793.5" cy="-378" rx="221.76" ry="18"/>
<text text-anchor="middle" x="793.5" y="-374.3" font-family="Times,serif" font-size="14.00">[root] provider[&quot;registry.terraform.io/hashicorp/tls&quot;] (close)</text>
</g>
<!-- [root] provider[&quot;registry.terraform.io/hashicorp/tls&quot;] (close)&#45;&gt;[root] tls_private_key.this (expand) -->
<g id="edge56" class="edge">
<title>[root] provider[&quot;registry.terraform.io/hashicorp/tls&quot;] (close)&#45;&gt;[root] tls_private_key.this (expand)</title>
<path fill="none" stroke="black" d="M793.5,-359.87C793.5,-335.67 793.5,-291.21 793.5,-262.39"/>
<polygon fill="black" stroke="black" points="797,-262.19 793.5,-252.19 790,-262.19 797,-262.19"/>
</g>
<!-- [root] root -->
<g id="node40" class="node">
<title>[root] root</title>
<ellipse fill="none" stroke="black" cx="1064.5" cy="-522" rx="47.39" ry="18"/>
<text text-anchor="middle" x="1064.5" y="-518.3" font-family="Times,serif" font-size="14.00">[root] root</text>
</g>
<!-- [root] root&#45;&gt;[root] meta.count&#45;boundary (EachMode fixup) -->
<g id="edge57" class="edge">
<title>[root] root&#45;&gt;[root] meta.count&#45;boundary (EachMode fixup)</title>
<path fill="none" stroke="black" d="M1107.59,-514.1C1175.32,-503.25 1308.5,-481.92 1401.14,-467.07"/>
<polygon fill="black" stroke="black" points="1401.78,-470.52 1411.1,-465.48 1400.68,-463.6 1401.78,-470.52"/>
</g>
<!-- [root] root&#45;&gt;[root] provider[&quot;registry.terraform.io/hashicorp/azurerm&quot;] (close) -->
<g id="edge58" class="edge">
<title>[root] root&#45;&gt;[root] provider[&quot;registry.terraform.io/hashicorp/azurerm&quot;] (close)</title>
<path fill="none" stroke="black" d="M1064.5,-503.7C1064.5,-495.98 1064.5,-486.71 1064.5,-478.11"/>
<polygon fill="black" stroke="black" points="1068,-478.1 1064.5,-468.1 1061,-478.1 1068,-478.1"/>
</g>
<!-- [root] root&#45;&gt;[root] provider[&quot;registry.terraform.io/hashicorp/tls&quot;] (close) -->
<g id="edge59" class="edge">
<title>[root] root&#45;&gt;[root] provider[&quot;registry.terraform.io/hashicorp/tls&quot;] (close)</title>
<path fill="none" stroke="black" d="M1018.59,-517.27C954,-511.07 840.99,-496.41 812.5,-468 796.54,-452.09 792.47,-426.29 791.99,-406.56"/>
<polygon fill="black" stroke="black" points="795.49,-406.34 792.04,-396.32 788.49,-406.3 795.49,-406.34"/>
</g>
</g>
</svg>
